<svg width="19" height="18" viewBox="0 0 19 18" fill="none" xmlns="http://www.w3.org/2000/svg">
<g clip-path="url(#clip0_4175_80413)">
<mask id="mask0_4175_80413" style="mask-type:alpha" maskUnits="userSpaceOnUse" x="0" y="0" width="25" height="24">
<rect x="0.0390625" width="24" height="24" fill="#D9D9D9"/>
</mask>
<g mask="url(#mask0_4175_80413)">
<path d="M9.03906 14.25C8.82656 14.25 8.64844 14.1781 8.50469 14.0344C8.36094 13.8906 8.28906 13.7125 8.28906 13.5V9.75H4.53906C4.32656 9.75 4.14844 9.67813 4.00469 9.53438C3.86094 9.39063 3.78906 9.2125 3.78906 9C3.78906 8.7875 3.86094 8.60937 4.00469 8.46562C4.14844 8.32187 4.32656 8.25 4.53906 8.25H8.28906V4.5C8.28906 4.2875 8.36094 4.10937 8.50469 3.96562C8.64844 3.82187 8.82656 3.75 9.03906 3.75C9.25156 3.75 9.42969 3.82187 9.57344 3.96562C9.71719 4.10937 9.78906 4.2875 9.78906 4.5V8.25H13.5391C13.7516 8.25 13.9297 8.32187 14.0734 8.46562C14.2172 8.60937 14.2891 8.7875 14.2891 9C14.2891 9.2125 14.2172 9.39063 14.0734 9.53438C13.9297 9.67813 13.7516 9.75 13.5391 9.75H9.78906V13.5C9.78906 13.7125 9.71719 13.8906 9.57344 14.0344C9.42969 14.1781 9.25156 14.25 9.03906 14.25Z" fill="#1C1B1F"/>
</g>
</g>
<defs>
<clipPath id="clip0_4175_80413">
<rect width="18" height="18" fill="white" transform="translate(0.0390625)"/>
</clipPath>
</defs>
</svg>
