<svg width="19" height="18" viewBox="0 0 19 18" fill="none" xmlns="http://www.w3.org/2000/svg">
<g clip-path="url(#clip0_4175_80238)">
<path d="M12.5566 1.5H6.27156C3.54156 1.5 1.91406 3.1275 1.91406 5.8575V12.135C1.91406 14.8725 3.54156 16.5 6.27156 16.5H12.5491C15.2791 16.5 16.9066 14.8725 16.9066 12.1425V5.8575C16.9141 3.1275 15.2866 1.5 12.5566 1.5ZM12.4141 9.5625H9.97656V12C9.97656 12.3075 9.72156 12.5625 9.41406 12.5625C9.10656 12.5625 8.85156 12.3075 8.85156 12V9.5625H6.41406C6.10656 9.5625 5.85156 9.3075 5.85156 9C5.85156 8.6925 6.10656 8.4375 6.41406 8.4375H8.85156V6C8.85156 5.6925 9.10656 5.4375 9.41406 5.4375C9.72156 5.4375 9.97656 5.6925 9.97656 6V8.4375H12.4141C12.7216 8.4375 12.9766 8.6925 12.9766 9C12.9766 9.3075 12.7216 9.5625 12.4141 9.5625Z" fill="white"/>
</g>
<defs>
<clipPath id="clip0_4175_80238">
<rect width="18" height="18" fill="white" transform="translate(0.414062)"/>
</clipPath>
</defs>
</svg>
