<svg width="33" height="32" viewBox="0 0 33 32" fill="none" xmlns="http://www.w3.org/2000/svg">
<path d="M11.1549 10.2259C12.9459 6.50493 15.2868 0.336194 16.6828 0.6439C16.6828 5.33326 16.6789 17.4466 16.6789 17.4466L11.1549 10.2259Z" fill="#F2D422"/>
<path d="M22.1897 10.2255C20.3986 6.50455 18.0787 0.337244 16.6828 0.64495C16.6828 5.33431 16.6866 17.4476 16.6866 17.4476L22.1897 10.2255Z" fill="#F7AC16"/>
<path d="M22.1599 10.2263C26.2465 10.8209 32.5483 11.0178 32.6727 12.4419C28.1985 13.8461 16.6399 17.4697 16.6399 17.4697L22.1599 10.2263Z" fill="#F2D422"/>
<path d="M25.3102 20.2675C28.3241 17.4445 33.3833 13.682 32.6717 12.4422C28.1975 13.8464 16.6412 17.4773 16.6412 17.4773L25.3102 20.2675Z" fill="#F7AC16"/>
<path d="M11.1577 10.2009C7.07116 10.7955 0.769314 10.9924 0.644891 12.4165C5.11908 13.8207 16.6777 17.4443 16.6777 17.4443L11.1577 10.2009Z" fill="#F48B19"/>
<path d="M8.00741 20.2422C4.99349 17.4191 -0.0657035 13.6566 0.645892 12.4168C5.12008 13.821 16.6764 17.4519 16.6764 17.4519L8.00741 20.2422Z" fill="#EFB616"/>
<path d="M25.3165 20.0642C26.0912 24.1205 27.9663 30.1401 26.6613 30.7234C23.8709 26.9546 16.666 17.217 16.666 17.217L25.3165 20.0642Z" fill="#F2D422"/>
<path d="M16.8579 26.3255C20.5115 28.2503 25.7219 31.8006 26.6607 30.7226C23.8703 26.9538 16.6592 17.2207 16.6592 17.2207L16.8579 26.3255Z" fill="#F7AC16"/>
<path d="M16.8502 26.3477C13.2894 28.4391 8.24859 32.2263 7.26099 31.1928C9.87434 27.2992 16.6282 17.2434 16.6282 17.2434L16.8502 26.3477Z" fill="#F2D422"/>
<path d="M8.01925 20.2363C7.43269 24.324 5.931 30.6695 7.26157 31.1919C9.87492 27.2983 16.6224 17.2383 16.6224 17.2383L8.01925 20.2363Z" fill="#F7AC16"/>
</svg>
