<svg width="19" height="18" viewBox="0 0 19 18" fill="none" xmlns="http://www.w3.org/2000/svg">
<path d="M13.2287 2.67V1.5C13.2287 1.1925 12.9737 0.9375 12.6662 0.9375C12.3587 0.9375 12.1037 1.1925 12.1037 1.5V2.625H7.22869V1.5C7.22869 1.1925 6.97369 0.9375 6.66619 0.9375C6.35869 0.9375 6.10369 1.1925 6.10369 1.5V2.67C4.07869 2.8575 3.09619 4.065 2.94619 5.8575C2.93119 6.075 3.11119 6.255 3.32119 6.255H16.0112C16.2287 6.255 16.4087 6.0675 16.3862 5.8575C16.2362 4.065 15.2537 2.8575 13.2287 2.67Z" fill="#181818"/>
<path d="M15.6641 7.38086H3.66406C3.25156 7.38086 2.91406 7.71836 2.91406 8.13086V12.7509C2.91406 15.0009 4.03906 16.5009 6.66406 16.5009H12.6641C15.2891 16.5009 16.4141 15.0009 16.4141 12.7509V8.13086C16.4141 7.71836 16.0766 7.38086 15.6641 7.38086ZM7.57156 13.6584C7.53406 13.6884 7.49656 13.7259 7.45906 13.7484C7.41406 13.7784 7.36906 13.8009 7.32406 13.8159C7.27906 13.8384 7.23406 13.8534 7.18906 13.8609C7.13656 13.8684 7.09156 13.8759 7.03906 13.8759C6.94156 13.8759 6.84406 13.8534 6.75406 13.8159C6.65656 13.7784 6.58156 13.7259 6.50656 13.6584C6.37156 13.5159 6.28906 13.3209 6.28906 13.1259C6.28906 12.9309 6.37156 12.7359 6.50656 12.5934C6.58156 12.5259 6.65656 12.4734 6.75406 12.4359C6.88906 12.3759 7.03906 12.3609 7.18906 12.3909C7.23406 12.3984 7.27906 12.4134 7.32406 12.4359C7.36906 12.4509 7.41406 12.4734 7.45906 12.5034C7.49656 12.5334 7.53406 12.5634 7.57156 12.5934C7.70656 12.7359 7.78906 12.9309 7.78906 13.1259C7.78906 13.3209 7.70656 13.5159 7.57156 13.6584ZM7.57156 11.0334C7.42906 11.1684 7.23406 11.2509 7.03906 11.2509C6.84406 11.2509 6.64906 11.1684 6.50656 11.0334C6.37156 10.8909 6.28906 10.6959 6.28906 10.5009C6.28906 10.3059 6.37156 10.1109 6.50656 9.96836C6.71656 9.75836 7.04656 9.69086 7.32406 9.81086C7.42156 9.84836 7.50406 9.90086 7.57156 9.96836C7.70656 10.1109 7.78906 10.3059 7.78906 10.5009C7.78906 10.6959 7.70656 10.8909 7.57156 11.0334ZM10.1966 13.6584C10.0541 13.7934 9.85906 13.8759 9.66406 13.8759C9.46906 13.8759 9.27406 13.7934 9.13156 13.6584C8.99656 13.5159 8.91406 13.3209 8.91406 13.1259C8.91406 12.9309 8.99656 12.7359 9.13156 12.5934C9.40906 12.3159 9.91906 12.3159 10.1966 12.5934C10.3316 12.7359 10.4141 12.9309 10.4141 13.1259C10.4141 13.3209 10.3316 13.5159 10.1966 13.6584ZM10.1966 11.0334C10.1591 11.0634 10.1216 11.0934 10.0841 11.1234C10.0391 11.1534 9.99406 11.1759 9.94906 11.1909C9.90406 11.2134 9.85906 11.2284 9.81406 11.2359C9.76156 11.2434 9.71656 11.2509 9.66406 11.2509C9.46906 11.2509 9.27406 11.1684 9.13156 11.0334C8.99656 10.8909 8.91406 10.6959 8.91406 10.5009C8.91406 10.3059 8.99656 10.1109 9.13156 9.96836C9.19906 9.90086 9.28156 9.84836 9.37906 9.81086C9.65656 9.69086 9.98656 9.75836 10.1966 9.96836C10.3316 10.1109 10.4141 10.3059 10.4141 10.5009C10.4141 10.6959 10.3316 10.8909 10.1966 11.0334ZM12.8216 13.6584C12.6791 13.7934 12.4841 13.8759 12.2891 13.8759C12.0941 13.8759 11.8991 13.7934 11.7566 13.6584C11.6216 13.5159 11.5391 13.3209 11.5391 13.1259C11.5391 12.9309 11.6216 12.7359 11.7566 12.5934C12.0341 12.3159 12.5441 12.3159 12.8216 12.5934C12.9566 12.7359 13.0391 12.9309 13.0391 13.1259C13.0391 13.3209 12.9566 13.5159 12.8216 13.6584ZM12.8216 11.0334C12.7841 11.0634 12.7466 11.0934 12.7091 11.1234C12.6641 11.1534 12.6191 11.1759 12.5741 11.1909C12.5291 11.2134 12.4841 11.2284 12.4391 11.2359C12.3866 11.2434 12.3341 11.2509 12.2891 11.2509C12.0941 11.2509 11.8991 11.1684 11.7566 11.0334C11.6216 10.8909 11.5391 10.6959 11.5391 10.5009C11.5391 10.3059 11.6216 10.1109 11.7566 9.96836C11.8316 9.90086 11.9066 9.84836 12.0041 9.81086C12.1391 9.75086 12.2891 9.73586 12.4391 9.76586C12.4841 9.77336 12.5291 9.78836 12.5741 9.81086C12.6191 9.82586 12.6641 9.84836 12.7091 9.87836C12.7466 9.90836 12.7841 9.93836 12.8216 9.96836C12.9566 10.1109 13.0391 10.3059 13.0391 10.5009C13.0391 10.6959 12.9566 10.8909 12.8216 11.0334Z" fill="#181818"/>
</svg>
