<svg width="19" height="18" viewBox="0 0 19 18" fill="none" xmlns="http://www.w3.org/2000/svg">
<path d="M7.9085 3.18805C8.02496 2.85903 8.24052 2.57419 8.52553 2.37274C8.81054 2.17128 9.15098 2.06311 9.5 2.06311C9.84902 2.06311 10.1895 2.17128 10.4745 2.37274C10.7595 2.57419 10.975 2.85903 11.0915 3.18805C11.1161 3.25773 11.1542 3.32188 11.2036 3.37684C11.2531 3.43179 11.3128 3.47648 11.3795 3.50834C11.4462 3.5402 11.5185 3.55862 11.5923 3.56254C11.6661 3.56645 11.7399 3.5558 11.8096 3.53117C11.8793 3.50655 11.9435 3.46844 11.9984 3.41903C12.0534 3.36961 12.0981 3.30986 12.1299 3.24318C12.1618 3.17649 12.1802 3.10418 12.1841 3.03038C12.188 2.95658 12.1774 2.88273 12.1527 2.81305C11.9588 2.26454 11.5996 1.78965 11.1246 1.45376C10.6496 1.11786 10.0821 0.9375 9.50037 0.9375C8.9186 0.9375 8.35114 1.11786 7.87612 1.45376C7.40111 1.78965 7.04191 2.26454 6.848 2.81305C6.82197 2.88301 6.81012 2.95744 6.81314 3.03203C6.81616 3.10661 6.834 3.17985 6.86561 3.24747C6.89723 3.31508 6.94198 3.37574 6.99727 3.42588C7.05256 3.47603 7.11728 3.51467 7.18765 3.53956C7.25803 3.56444 7.33265 3.57507 7.40717 3.57083C7.4817 3.56658 7.55463 3.54755 7.62172 3.51483C7.68881 3.48211 7.74872 3.43637 7.79796 3.38027C7.84719 3.32416 7.88477 3.25882 7.9085 3.18805ZM2.5625 4.50055C2.5625 4.35137 2.62176 4.20829 2.72725 4.1028C2.83274 3.99731 2.97582 3.93805 3.125 3.93805H15.875C16.0242 3.93805 16.1673 3.99731 16.2727 4.1028C16.3782 4.20829 16.4375 4.35137 16.4375 4.50055C16.4375 4.64973 16.3782 4.79281 16.2727 4.8983C16.1673 5.00379 16.0242 5.06305 15.875 5.06305H3.125C2.97582 5.06305 2.83274 5.00379 2.72725 4.8983C2.62176 4.79281 2.5625 4.64973 2.5625 4.50055ZM4.33775 5.81455C4.48652 5.80467 4.63313 5.85426 4.74535 5.95242C4.85758 6.05059 4.92624 6.18929 4.93625 6.33805L5.28125 11.513C5.34875 12.5233 5.39675 13.2268 5.50175 13.7555C5.6045 14.2693 5.747 14.5408 5.95175 14.7328C6.15725 14.9248 6.43775 15.0493 6.95675 15.1168C7.49225 15.1865 8.19725 15.188 9.20975 15.188H9.79025C10.8028 15.188 11.5077 15.1865 12.0432 15.1168C12.5622 15.0493 12.8428 14.9248 13.0483 14.7328C13.253 14.5408 13.3955 14.2693 13.4982 13.7555C13.6032 13.2268 13.6512 12.5233 13.7188 11.513L14.0637 6.33805C14.0687 6.26433 14.0881 6.1923 14.1208 6.12608C14.1536 6.05985 14.1991 6.00073 14.2547 5.95208C14.3103 5.90343 14.3749 5.86622 14.4449 5.84256C14.5149 5.81889 14.5889 5.80925 14.6626 5.81417C14.7363 5.8191 14.8084 5.8385 14.8746 5.87126C14.9408 5.90402 14.9999 5.9495 15.0486 6.00511C15.0972 6.06072 15.1345 6.12537 15.1581 6.19537C15.1818 6.26536 15.1914 6.33933 15.1865 6.41305L14.8385 11.627C14.7748 12.5885 14.723 13.3655 14.6015 13.976C14.4748 14.6098 14.2602 15.1393 13.8162 15.554C13.373 15.9695 12.83 16.1488 12.1888 16.232C11.5723 16.313 10.7938 16.313 9.82925 16.313H9.17075C8.20625 16.313 7.42775 16.313 6.81125 16.232C6.17 16.1488 5.627 15.9695 5.18375 15.554C4.73975 15.1393 4.52525 14.609 4.3985 13.976C4.277 13.3655 4.226 12.5885 4.1615 11.627L3.8135 6.41305C3.80861 6.33933 3.81829 6.26536 3.842 6.19538C3.8657 6.1254 3.90296 6.06077 3.95164 6.0052C4.00032 5.94962 4.05948 5.90417 4.12573 5.87146C4.19198 5.83875 4.26402 5.81941 4.33775 5.81455Z" fill="#FF6565"/>
</svg>
