<svg width="19" height="18" viewBox="0 0 19 18" fill="none" xmlns="http://www.w3.org/2000/svg">
<path d="M11.9431 4.18869C12.0822 4.04961 12.2473 3.93928 12.4291 3.86401C12.6108 3.78874 12.8055 3.75 13.0022 3.75C13.1989 3.75 13.3937 3.78874 13.5754 3.86401C13.7571 3.93928 13.9222 4.04961 14.0613 4.18869C14.2004 4.32777 14.3107 4.49288 14.386 4.6746C14.4613 4.85632 14.5 5.05108 14.5 5.24777C14.5 5.44446 14.4613 5.63923 14.386 5.82094C14.3107 6.00266 14.2004 6.16778 14.0613 6.30686L6.91248 13.4557L4 14.25L4.79431 11.3375L11.9431 4.18869Z" stroke="#131313" stroke-width="0.9" stroke-linecap="round" stroke-linejoin="round"/>
</svg>
