<svg width="18" height="19" viewBox="0 0 18 19" fill="none" xmlns="http://www.w3.org/2000/svg">
<path fill-rule="evenodd" clip-rule="evenodd" d="M0.75 9.5C0.75 5.3675 4.1175 2 8.25 2C12.3825 2 15.75 5.3675 15.75 9.5C15.75 9.97085 15.7063 10.4318 15.6227 10.8789C15.5873 10.8915 15.5525 10.9056 15.5182 10.9211C15.3545 10.9952 15.2071 11.1009 15.0842 11.2319L11.9827 14.4328L10.4916 13.2061C10.2187 12.9793 9.86839 12.8674 9.51456 12.8941C9.16074 12.9208 8.83114 13.084 8.5954 13.3492C8.35966 13.6144 8.23625 13.9608 8.25122 14.3154C8.26619 14.6699 8.41838 15.0047 8.67564 15.2491L10.3498 16.7003C9.68317 16.8954 8.97847 17 8.25 17C4.1175 17 0.75 13.6325 0.75 9.5ZM11.025 12.455C11.22 12.455 11.4075 12.3575 11.5125 12.1775C11.6775 11.9075 11.5875 11.5625 11.3175 11.405L8.9925 10.0175C8.76 9.8825 8.535 9.485 8.535 9.215V6.14C8.535 5.8325 8.28 5.5775 7.9725 5.5775C7.665 5.5775 7.41 5.8325 7.41 6.14V9.215C7.41 9.8825 7.8375 10.64 8.415 10.985L10.74 12.3725C10.83 12.4325 10.9275 12.455 11.025 12.455Z" fill="white"/>
<path d="M16.6752 13.0391C16.7676 12.9405 16.8397 12.8247 16.8873 12.6982C16.9349 12.5718 16.9572 12.4372 16.9528 12.3021C16.9484 12.1671 16.9174 12.0342 16.8617 11.9111C16.806 11.788 16.7265 11.6771 16.6279 11.5847C16.5293 11.4923 16.4135 11.4203 16.287 11.3727C16.1606 11.325 16.026 11.3028 15.8909 11.3072C15.7559 11.3116 15.623 11.3425 15.4999 11.3983C15.3769 11.454 15.2659 11.5334 15.1736 11.6321L12.0025 15.016L10.4361 13.6243C10.2308 13.4537 9.96731 13.3696 9.70117 13.3897C9.43503 13.4097 9.18712 13.5325 9.0098 13.732C8.83249 13.9314 8.73966 14.192 8.75092 14.4587C8.76218 14.7253 8.87665 14.9772 9.07015 15.161L11.3844 17.2181C11.5846 17.396 11.8464 17.4887 12.1139 17.4766C12.3815 17.4645 12.6338 17.3485 12.8172 17.1533L16.6752 13.0391Z" fill="white"/>
</svg>
