<svg width="19" height="19" viewBox="0 0 19 19" fill="none" xmlns="http://www.w3.org/2000/svg">
<path fill-rule="evenodd" clip-rule="evenodd" d="M1.5 9.5C1.5 5.3675 4.8675 2 9 2C13.1325 2 16.5 5.3675 16.5 9.5C16.5 9.97085 16.4563 10.4318 16.3727 10.8789C16.3373 10.8915 16.3025 10.9056 16.2682 10.9211C16.1045 10.9952 15.9571 11.1009 15.8342 11.2319L12.7327 14.4328L11.2416 13.2061C10.9687 12.9793 10.6184 12.8674 10.2646 12.8941C9.91074 12.9208 9.58114 13.084 9.3454 13.3492C9.10966 13.6144 8.98625 13.9608 9.00122 14.3154C9.01619 14.6699 9.16838 15.0047 9.42564 15.2491L11.0998 16.7003C10.4332 16.8954 9.72847 17 9 17C4.8675 17 1.5 13.6325 1.5 9.5ZM11.775 12.455C11.97 12.455 12.1575 12.3575 12.2625 12.1775C12.4275 11.9075 12.3375 11.5625 12.0675 11.405L9.7425 10.0175C9.51 9.8825 9.285 9.485 9.285 9.215V6.14C9.285 5.8325 9.03 5.5775 8.7225 5.5775C8.415 5.5775 8.16 5.8325 8.16 6.14V9.215C8.16 9.8825 8.5875 10.64 9.165 10.985L11.49 12.3725C11.58 12.4325 11.6775 12.455 11.775 12.455Z" fill="#DCDCDC"/>
<path d="M17.4252 13.0391C17.5176 12.9405 17.5897 12.8247 17.6373 12.6982C17.6849 12.5718 17.7072 12.4372 17.7028 12.3021C17.6984 12.1671 17.6674 12.0342 17.6117 11.9111C17.556 11.788 17.4765 11.6771 17.3779 11.5847C17.2793 11.4923 17.1635 11.4203 17.037 11.3727C16.9106 11.325 16.776 11.3028 16.6409 11.3072C16.5059 11.3116 16.373 11.3425 16.2499 11.3983C16.1269 11.454 16.0159 11.5334 15.9236 11.6321L12.7525 15.016L11.1861 13.6243C10.9808 13.4537 10.7173 13.3696 10.4512 13.3897C10.185 13.4097 9.93712 13.5325 9.7598 13.732C9.58249 13.9314 9.48966 14.192 9.50092 14.4587C9.51218 14.7253 9.62665 14.9772 9.82015 15.161L12.1344 17.2181C12.3346 17.396 12.5964 17.4887 12.8639 17.4766C13.1315 17.4645 13.3838 17.3485 13.5672 17.1533L17.4252 13.0391Z" fill="#DCDCDC"/>
</svg>
