<svg width="19" height="18" viewBox="0 0 19 18" fill="none" xmlns="http://www.w3.org/2000/svg">
<path d="M11.9763 9.375C11.8863 9.375 11.7925 9.36 11.7025 9.33C11.5334 9.27617 11.3861 9.16953 11.2822 9.02575C11.1782 8.88198 11.1231 8.70866 11.125 8.53125V7.4775C10.2775 7.3425 9.625 6.60375 9.625 5.71875V3.28125C9.625 2.29875 10.4238 1.5 11.4062 1.5H15.7188C16.7012 1.5 17.5 2.29875 17.5 3.28125V5.71875C17.5 6.70125 16.7012 7.5 15.7188 7.5H13.7988L12.6437 9.0375C12.4787 9.255 12.235 9.375 11.9763 9.375ZM11.4062 2.4375C10.9412 2.4375 10.5625 2.81625 10.5625 3.28125V5.71875C10.5625 6.18375 10.9412 6.5625 11.4062 6.5625H12.0625V8.25L13.33 6.5625H15.7225C16.1875 6.5625 16.5662 6.18375 16.5662 5.71875V3.28125C16.5662 2.81625 16.1875 2.4375 15.7225 2.4375H11.4062ZM6.625 10.3125C5.0725 10.3125 3.8125 9.0525 3.8125 7.5C3.8125 5.9475 5.0725 4.6875 6.625 4.6875C8.1775 4.6875 9.4375 5.9475 9.4375 7.5C9.4375 9.0525 8.1775 10.3125 6.625 10.3125ZM6.625 5.625C5.59 5.625 4.75 6.465 4.75 7.5C4.75 8.535 5.59 9.375 6.625 9.375C7.66 9.375 8.5 8.535 8.5 7.5C8.5 6.465 7.66 5.625 6.625 5.625ZM1.75 13.0463C1.75 13.08 1.80625 16.5 6.625 16.5C11.4438 16.5 11.5 13.08 11.5 13.0463V12.6562C11.5 11.88 10.87 11.25 10.0938 11.25H3.15625C2.38 11.25 1.75 11.88 1.75 12.6562V13.0463ZM2.6875 12.6562C2.6875 12.3975 2.8975 12.1875 3.15625 12.1875H10.0938C10.3525 12.1875 10.5625 12.3975 10.5625 12.6562V13.0425C10.5625 13.1437 10.48 15.5625 6.625 15.5625C2.77 15.5625 2.6875 13.1438 2.6875 13.0463V12.6562Z" fill="#181818"/>
</svg>
