<svg width="19" height="18" viewBox="0 0 19 18" fill="none" xmlns="http://www.w3.org/2000/svg">
<path fill-rule="evenodd" clip-rule="evenodd" d="M1.41406 9C1.41406 4.8675 4.78156 1.5 8.91406 1.5C13.0466 1.5 16.4141 4.8675 16.4141 9C16.4141 9.47085 16.3703 9.93177 16.2868 10.3789C16.2514 10.3915 16.2165 10.4056 16.1822 10.4211C16.0186 10.4952 15.8711 10.6009 15.7483 10.7319L12.6468 13.9328L11.1557 12.7061C10.8828 12.4793 10.5325 12.3674 10.1786 12.3941C9.8248 12.4208 9.4952 12.584 9.25946 12.8492C9.02373 13.1144 8.90031 13.4608 8.91528 13.8154C8.93025 14.1699 9.08244 14.5047 9.3397 14.7491L11.0139 16.2003C10.3472 16.3954 9.64254 16.5 8.91406 16.5C4.78156 16.5 1.41406 13.1325 1.41406 9ZM11.6891 11.955C11.8841 11.955 12.0716 11.8575 12.1766 11.6775C12.3416 11.4075 12.2516 11.0625 11.9816 10.905L9.65656 9.5175C9.42406 9.3825 9.19906 8.985 9.19906 8.715V5.64C9.19906 5.3325 8.94406 5.0775 8.63656 5.0775C8.32906 5.0775 8.07406 5.3325 8.07406 5.64V8.715C8.07406 9.3825 8.50156 10.14 9.07906 10.485L11.4041 11.8725C11.4941 11.9325 11.5916 11.955 11.6891 11.955Z" fill="#48BF84"/>
<path d="M17.3393 12.5391C17.4317 12.4405 17.5038 12.3247 17.5514 12.1982C17.599 12.0718 17.6212 11.9372 17.6169 11.8021C17.6125 11.6671 17.5815 11.5342 17.5258 11.4111C17.47 11.288 17.3906 11.1771 17.292 11.0847C17.1934 10.9923 17.0776 10.9203 16.9511 10.8727C16.8246 10.825 16.6901 10.8028 16.555 10.8072C16.42 10.8116 16.2871 10.8425 16.164 10.8983C16.0409 10.954 15.93 11.0334 15.8376 11.1321L12.6666 14.516L11.1001 13.1243C10.8949 12.9537 10.6314 12.8696 10.3652 12.8897C10.0991 12.9097 9.85118 13.0325 9.67386 13.232C9.49655 13.4314 9.40372 13.692 9.41498 13.9587C9.42624 14.2253 9.54071 14.4772 9.73422 14.661L12.0485 16.7181C12.2487 16.896 12.5104 16.9887 12.778 16.9766C13.0456 16.9645 13.2978 16.8485 13.4812 16.6533L17.3393 12.5391Z" fill="#48BF84"/>
</svg>
