<svg width="19" height="18" viewBox="0 0 19 18" fill="none" xmlns="http://www.w3.org/2000/svg">
<path fill-rule="evenodd" clip-rule="evenodd" d="M2.35156 9C2.35156 4.96125 5.62531 1.6875 9.66406 1.6875C13.7028 1.6875 16.9766 4.96125 16.9766 9C16.9766 13.0388 13.7028 16.3125 9.66406 16.3125C5.62531 16.3125 2.35156 13.0388 2.35156 9ZM9.66406 6.1875C9.81325 6.1875 9.95632 6.24676 10.0618 6.35225C10.1673 6.45774 10.2266 6.60082 10.2266 6.75V9.5625C10.2266 9.71168 10.1673 9.85476 10.0618 9.96025C9.95632 10.0657 9.81325 10.125 9.66406 10.125C9.51488 10.125 9.3718 10.0657 9.26632 9.96025C9.16083 9.85476 9.10156 9.71168 9.10156 9.5625V6.75C9.10156 6.60082 9.16083 6.45774 9.26632 6.35225C9.3718 6.24676 9.51488 6.1875 9.66406 6.1875ZM9.66406 12.375C9.81325 12.375 9.95632 12.3157 10.0618 12.2102C10.1673 12.1048 10.2266 11.9617 10.2266 11.8125C10.2266 11.6633 10.1673 11.5202 10.0618 11.4148C9.95632 11.3093 9.81325 11.25 9.66406 11.25C9.51488 11.25 9.3718 11.3093 9.26632 11.4148C9.16083 11.5202 9.10156 11.6633 9.10156 11.8125C9.10156 11.9617 9.16083 12.1048 9.26632 12.2102C9.3718 12.3157 9.51488 12.375 9.66406 12.375Z" fill="black"/>
</svg>
