<svg width="19" height="18" viewBox="0 0 19 18" fill="none" xmlns="http://www.w3.org/2000/svg">
<mask id="mask0_4184_80898" style="mask-type:alpha" maskUnits="userSpaceOnUse" x="0" y="0" width="19" height="18">
<rect x="0.664062" width="18" height="18" fill="#D9D9D9"/>
</mask>
<g mask="url(#mask0_4184_80898)">
<path d="M5.16406 16.5C4.75156 16.5 4.39844 16.3531 4.10469 16.0594C3.81094 15.7656 3.66406 15.4125 3.66406 15V3C3.66406 2.5875 3.81094 2.23438 4.10469 1.94063C4.39844 1.64688 4.75156 1.5 5.16406 1.5H10.5453C10.7453 1.5 10.9359 1.5375 11.1172 1.6125C11.2984 1.6875 11.4578 1.79375 11.5953 1.93125L15.2328 5.56875C15.3703 5.70625 15.4766 5.86562 15.5516 6.04688C15.6266 6.22813 15.6641 6.41875 15.6641 6.61875V15C15.6641 15.4125 15.5172 15.7656 15.2234 16.0594C14.9297 16.3531 14.5766 16.5 14.1641 16.5H5.16406ZM10.4141 6C10.4141 6.2125 10.4859 6.39063 10.6297 6.53438C10.7734 6.67813 10.9516 6.75 11.1641 6.75H14.1641L10.4141 3V6ZM8.85781 11.3438L7.80781 10.2938C7.73281 10.2188 7.65156 10.1625 7.56406 10.125C7.47656 10.0875 7.38594 10.0688 7.29219 10.0688C7.19844 10.0688 7.10469 10.0875 7.01094 10.125C6.91719 10.1625 6.83281 10.2188 6.75781 10.2938C6.60781 10.4438 6.53281 10.6219 6.53281 10.8281C6.53281 11.0344 6.60781 11.2125 6.75781 11.3625L8.35156 12.975C8.42656 13.05 8.50781 13.1031 8.59531 13.1344C8.68281 13.1656 8.77656 13.1812 8.87656 13.1812C8.97656 13.1812 9.07031 13.1656 9.15781 13.1344C9.24531 13.1031 9.32656 13.05 9.40156 12.975L12.5703 9.80625C12.7203 9.65625 12.7953 9.475 12.7953 9.2625C12.7953 9.05 12.7203 8.86875 12.5703 8.71875C12.4203 8.56875 12.2391 8.49375 12.0266 8.49375C11.8141 8.49375 11.6328 8.56875 11.4828 8.71875L8.85781 11.3438Z" fill="#DCDCDC"/>
</g>
</svg>
