<svg width="18" height="18" viewBox="0 0 18 18" fill="none" xmlns="http://www.w3.org/2000/svg">
<path d="M12.1815 2.19816L15.801 5.81766C16.032 6.04876 16.2049 6.33146 16.3052 6.64246C16.4056 6.95345 16.4306 7.28384 16.3783 7.60641C16.3259 7.92897 16.1976 8.23448 16.004 8.49775C15.8104 8.76102 15.557 8.97452 15.2648 9.12066L11.6122 10.9469C11.4806 11.0126 11.3799 11.1273 11.3318 11.2664L10.2517 14.3909C10.1999 14.5411 10.1106 14.6756 9.99247 14.7819C9.87431 14.8881 9.73108 14.9626 9.57623 14.9983C9.42139 15.034 9.26002 15.0297 9.10727 14.9859C8.95452 14.9421 8.81541 14.8602 8.703 14.7479L6.375 12.4199L3.045 15.7492H2.25V14.9527L5.58 11.6242L3.25125 9.29616C3.13875 9.18377 3.0567 9.0446 3.0128 8.89176C2.9689 8.73892 2.96459 8.57743 3.0003 8.42247C3.036 8.2675 3.11053 8.12417 3.21689 8.00595C3.32324 7.88773 3.45792 7.7985 3.60825 7.74666L6.73275 6.66741C6.87185 6.61931 6.98655 6.51861 7.05225 6.38691L8.8785 2.73441C9.02461 2.44198 9.23813 2.18847 9.50146 1.99478C9.7648 1.80109 10.0704 1.67277 10.3931 1.62039C10.7157 1.56802 11.0462 1.59309 11.3573 1.69355C11.6684 1.794 11.9504 1.96696 12.1815 2.19816ZM15.006 6.61266L11.3865 2.99391C11.2815 2.88883 11.153 2.81021 11.0117 2.76452C10.8704 2.71883 10.7202 2.70737 10.5736 2.73111C10.4269 2.75484 10.288 2.81307 10.1683 2.90101C10.0486 2.98895 9.95149 3.10408 9.885 3.23691L8.05875 6.89016C7.86133 7.28469 7.51727 7.58621 7.10025 7.73016L4.2585 8.71266L9.28725 13.7407L10.2682 10.8997C10.4122 10.4826 10.7137 10.1386 11.1082 9.94116L14.7623 8.11416C14.8951 8.04774 15.0103 7.95069 15.0983 7.83101C15.1864 7.71133 15.2447 7.57245 15.2685 7.42581C15.2923 7.27917 15.2809 7.12897 15.2353 6.98759C15.1896 6.84621 15.111 6.71771 15.006 6.61266Z" fill="#181818"/>
</svg>
