<svg width="19" height="18" viewBox="0 0 19 18" fill="none" xmlns="http://www.w3.org/2000/svg">
<path d="M16.4651 5.81911L12.8456 2.19961C12.6145 1.96857 12.3318 1.79574 12.0208 1.69538C11.7098 1.59502 11.3794 1.56999 11.0568 1.62236C10.7342 1.67473 10.4287 1.803 10.1655 1.99659C9.9022 2.19019 9.6887 2.44357 9.54256 2.73586L7.71631 6.38836C7.65061 6.52006 7.53591 6.62076 7.39681 6.66886L4.27231 7.74886C4.12212 7.80076 3.98759 7.88998 3.88134 8.00814C3.7751 8.1263 3.70063 8.26954 3.66494 8.42438C3.62925 8.57922 3.6335 8.7406 3.67729 8.89335C3.72109 9.0461 3.80299 9.18521 3.91531 9.29761L6.24331 11.6256L2.91406 14.9556V15.7506H3.70906L7.03906 12.4206L9.36706 14.7494C9.47946 14.8619 9.61862 14.9439 9.77146 14.9878C9.9243 15.0317 10.0858 15.036 10.2408 15.0003C10.3957 14.9646 10.5391 14.8901 10.6573 14.7837C10.7755 14.6774 10.8647 14.5427 10.9166 14.3924L11.9966 11.2679C12.0445 11.1289 12.1449 11.0142 12.2763 10.9484L15.9288 9.12211C16.2211 8.97597 16.4745 8.76247 16.6681 8.4992C16.8617 8.23593 16.9899 7.93043 17.0423 7.60786C17.0947 7.2853 17.0697 6.9549 16.9693 6.64391C16.8689 6.33291 16.6961 6.05022 16.4651 5.81911Z" fill="#3B82F6"/>
</svg>
