<svg width="18" height="18" viewBox="0 0 18 18" fill="none" xmlns="http://www.w3.org/2000/svg">
<path d="M12.1815 2.20011L15.801 5.81961C16.032 6.05072 16.2049 6.33341 16.3052 6.64441C16.4056 6.9554 16.4306 7.2858 16.3783 7.60836C16.3259 7.93093 16.1976 8.23643 16.004 8.4997C15.8104 8.76297 15.557 8.97647 15.2648 9.12261L11.6122 10.9489C11.4806 11.0146 11.3799 11.1293 11.3318 11.2684L10.2517 14.3929C10.1999 14.5431 10.1106 14.6776 9.99247 14.7838C9.87431 14.8901 9.73108 14.9645 9.57623 15.0002C9.42139 15.0359 9.26002 15.0317 9.10727 14.9879C8.95452 14.9441 8.81541 14.8622 8.703 14.7499L6.375 12.4219L3.045 15.7511H2.25V14.9546L5.58 11.6261L3.25125 9.29811C3.13875 9.18572 3.0567 9.04656 3.0128 8.89372C2.9689 8.74088 2.96459 8.57938 3.0003 8.42442C3.036 8.26946 3.11053 8.12612 3.21689 8.0079C3.32324 7.88968 3.45792 7.80045 3.60825 7.74861L6.73275 6.66936C6.87185 6.62126 6.98655 6.52056 7.05225 6.38886L8.8785 2.73636C9.02461 2.44394 9.23813 2.19043 9.50146 1.99674C9.7648 1.80305 10.0704 1.67472 10.3931 1.62235C10.7157 1.56997 11.0462 1.59505 11.3573 1.6955C11.6684 1.79595 11.9504 1.96891 12.1815 2.20011ZM15.006 6.61461L11.3865 2.99586C11.2815 2.89079 11.153 2.81216 11.0117 2.76647C10.8704 2.72078 10.7202 2.70933 10.5736 2.73306C10.4269 2.75679 10.288 2.81503 10.1683 2.90297C10.0486 2.99091 9.95149 3.10603 9.885 3.23886L8.05875 6.89211C7.86133 7.28664 7.51727 7.58817 7.10025 7.73211L4.2585 8.71461L9.28725 13.7426L10.2682 10.9016C10.4122 10.4846 10.7137 10.1405 11.1082 9.94311L14.7623 8.11611C14.8951 8.04969 15.0103 7.95264 15.0983 7.83296C15.1864 7.71328 15.2447 7.5744 15.2685 7.42776C15.2923 7.28112 15.2809 7.13092 15.2353 6.98954C15.1896 6.84817 15.111 6.71966 15.006 6.61461Z" fill="#DCDCDC"/>
</svg>
