<svg width="19" height="18" viewBox="0 0 19 18" fill="none" xmlns="http://www.w3.org/2000/svg">
<path d="M9.66406 1.5C7.69906 1.5 6.10156 3.0975 6.10156 5.0625C6.10156 6.99 7.60906 8.55 9.57406 8.6175C9.63406 8.61 9.69406 8.61 9.73906 8.6175C9.75406 8.6175 9.76156 8.6175 9.77656 8.6175C9.78406 8.6175 9.78406 8.6175 9.79156 8.6175C11.7116 8.55 13.2191 6.99 13.2266 5.0625C13.2266 3.0975 11.6291 1.5 9.66406 1.5Z" fill="#181818"/>
<path d="M13.4728 10.6205C11.3803 9.22547 7.96781 9.22547 5.86031 10.6205C4.90781 11.2505 4.38281 12.113 4.38281 13.0355C4.38281 13.958 4.90781 14.813 5.85281 15.443C6.90281 16.148 8.28281 16.5005 9.66281 16.5005C11.0428 16.5005 12.4228 16.148 13.4728 15.443C14.4178 14.8055 14.9428 13.9505 14.9428 13.0205C14.9353 12.1055 14.4178 11.243 13.4728 10.6205ZM11.4103 12.4205L9.52031 14.3105C9.43031 14.4005 9.31031 14.4455 9.19031 14.4455C9.07031 14.4455 8.95031 14.393 8.86031 14.3105L7.91531 13.3655C7.73531 13.1855 7.73531 12.8855 7.91531 12.7055C8.09531 12.5255 8.39531 12.5255 8.57531 12.7055L9.19031 13.3205L10.7503 11.7605C10.9303 11.5805 11.2303 11.5805 11.4103 11.7605C11.5978 11.9405 11.5978 12.2405 11.4103 12.4205Z" fill="#181818"/>
</svg>
