<svg width="19" height="18" viewBox="0 0 19 18" fill="none" xmlns="http://www.w3.org/2000/svg">
<path d="M7.52886 4.05594C8.47909 2.35198 8.95383 1.5 9.66406 1.5C10.3743 1.5 10.849 2.35198 11.7993 4.05594L12.0453 4.49693C12.3152 4.98142 12.4502 5.22366 12.6602 5.38341C12.8702 5.54315 13.1327 5.6024 13.6577 5.7209L14.1347 5.8289C15.9797 6.24664 16.9014 6.45513 17.1211 7.16087C17.3401 7.86585 16.7116 8.60158 15.4539 10.0723L15.1284 10.4525C14.7714 10.8703 14.5922 11.0795 14.5119 11.3375C14.4317 11.5963 14.4587 11.8753 14.5127 12.4325L14.5622 12.9402C14.7519 14.9029 14.8472 15.8839 14.2727 16.3197C13.6982 16.7561 12.8342 16.3579 11.1078 15.5629L10.66 15.3574C10.1696 15.1309 9.92431 15.0184 9.66406 15.0184C9.40382 15.0184 9.15857 15.1309 8.66734 15.3574L8.2211 15.5629C6.49389 16.3579 5.62991 16.7554 5.05617 16.3204C4.48093 15.8839 4.57618 14.9029 4.76593 12.9402L4.81543 12.4332C4.86943 11.8753 4.89642 11.5963 4.81543 11.3383C4.73593 11.0795 4.55668 10.8703 4.19969 10.4533L3.8742 10.0723C2.61648 8.60233 1.98799 7.8666 2.20699 7.16087C2.42673 6.45513 3.34921 6.24589 5.19417 5.8289L5.67116 5.7209C6.19539 5.6024 6.45714 5.54315 6.66788 5.38341C6.87788 5.22366 7.01287 4.98142 7.28287 4.49693L7.52886 4.05594Z" fill="#FACC15"/>
</svg>
