<svg width="19" height="18" viewBox="0 0 19 18" fill="none" xmlns="http://www.w3.org/2000/svg">
<path d="M9.53906 1.5C8.0557 1.5 6.60566 1.93987 5.37229 2.76398C4.13892 3.58809 3.17763 4.75943 2.60997 6.12987C2.04231 7.50032 1.89379 9.00832 2.18318 10.4632C2.47257 11.918 3.18687 13.2544 4.23576 14.3033C5.28466 15.3522 6.62103 16.0665 8.07589 16.3559C9.53074 16.6453 11.0387 16.4968 12.4092 15.9291C13.7796 15.3614 14.951 14.4001 15.7751 13.1668C16.5992 11.9334 17.0391 10.4834 17.0391 9C17.0391 7.01087 16.2489 5.10322 14.8424 3.6967C13.4358 2.29018 11.5282 1.5 9.53906 1.5ZM14.4375 6.48281L8.27813 12.6375L4.64063 9C4.51631 8.87568 4.44647 8.70706 4.44647 8.53125C4.44647 8.35543 4.51631 8.18682 4.64063 8.0625C4.76495 7.93818 4.93356 7.86834 5.10938 7.86834C5.28519 7.86834 5.45381 7.93818 5.57813 8.0625L8.2875 10.7719L13.5094 5.55469C13.5709 5.49313 13.644 5.4443 13.7244 5.41099C13.8049 5.37767 13.8911 5.36052 13.9781 5.36052C14.0652 5.36052 14.1514 5.37767 14.2318 5.41099C14.3122 5.4443 14.3853 5.49313 14.4469 5.55469C14.5084 5.61624 14.5573 5.68932 14.5906 5.76975C14.6239 5.85018 14.641 5.93638 14.641 6.02344C14.641 6.11049 14.6239 6.19669 14.5906 6.27712C14.5573 6.35755 14.5084 6.43063 14.4469 6.49219L14.4375 6.48281Z" fill="#48BF84"/>
</svg>
