<svg width="19" height="18" viewBox="0 0 19 18" fill="none" xmlns="http://www.w3.org/2000/svg">
<path d="M13.9766 1.50195C14.4042 1.5019 14.8158 1.66417 15.1284 1.95598C15.4409 2.24779 15.631 2.64736 15.6603 3.07395L15.6641 3.1887V10.7847C15.5741 10.8447 15.4878 10.9152 15.4083 10.9947L12.8516 13.5507L12.1706 12.8682C11.8711 12.568 11.4693 12.392 11.0456 12.3755H12.8516C13.0007 12.3755 13.1438 12.3162 13.2493 12.2107C13.3548 12.1052 13.4141 11.9621 13.4141 11.813C13.4141 11.6638 13.3548 11.5207 13.2493 11.4152C13.1438 11.3097 13.0007 11.2505 12.8516 11.2505H9.09856C8.94938 11.2505 8.8063 11.3097 8.70081 11.4152C8.59533 11.5207 8.53606 11.6638 8.53606 11.813C8.53606 11.9621 8.59533 12.1052 8.70081 12.2107C8.8063 12.3162 8.94938 12.3755 9.09856 12.3755H10.9083C10.5808 12.3889 10.2643 12.4974 9.99746 12.6877C9.73061 12.878 9.52497 13.142 9.40566 13.4473C9.28634 13.7526 9.25852 14.086 9.32558 14.4068C9.39265 14.7277 9.5517 15.022 9.78331 15.254L11.0268 16.5012H5.35156C4.92397 16.5013 4.5123 16.339 4.19975 16.0472C3.8872 15.7554 3.69708 15.3558 3.66781 14.9292L3.66406 14.8137V3.18945C3.66401 2.76186 3.82628 2.35019 4.11809 2.03764C4.40989 1.72509 4.80947 1.53497 5.23606 1.5057L5.35156 1.50195H13.9766ZM7.41406 5.81445C7.41406 5.61554 7.33504 5.42478 7.19439 5.28412C7.05374 5.14347 6.86297 5.06445 6.66406 5.06445C6.46515 5.06445 6.27438 5.14347 6.13373 5.28412C5.99308 5.42478 5.91406 5.61554 5.91406 5.81445C5.91406 6.01337 5.99308 6.20413 6.13373 6.34478C6.27438 6.48544 6.46515 6.56445 6.66406 6.56445C6.86297 6.56445 7.05374 6.48544 7.19439 6.34478C7.33504 6.20413 7.41406 6.01337 7.41406 5.81445ZM9.09856 5.2512C8.94938 5.2512 8.8063 5.31047 8.70081 5.41596C8.59533 5.52144 8.53606 5.66452 8.53606 5.8137C8.53606 5.96289 8.59533 6.10596 8.70081 6.21145C8.8063 6.31694 8.94938 6.3762 9.09856 6.3762H12.8516C13.0007 6.3762 13.1438 6.31694 13.2493 6.21145C13.3548 6.10596 13.4141 5.96289 13.4141 5.8137C13.4141 5.66452 13.3548 5.52144 13.2493 5.41596C13.1438 5.31047 13.0007 5.2512 12.8516 5.2512H9.09856ZM8.53606 8.8137C8.53606 9.1242 8.78806 9.3762 9.09856 9.3762H12.8516C12.9254 9.3762 12.9986 9.36165 13.0668 9.33339C13.1351 9.30512 13.1971 9.26368 13.2493 9.21145C13.3015 9.15922 13.343 9.09721 13.3712 9.02896C13.3995 8.96072 13.4141 8.88757 13.4141 8.8137C13.4141 8.73983 13.3995 8.66669 13.3712 8.59844C13.343 8.5302 13.3015 8.46819 13.2493 8.41596C13.1971 8.36372 13.1351 8.32229 13.0668 8.29402C12.9986 8.26575 12.9254 8.2512 12.8516 8.2512H9.09856C8.94938 8.2512 8.8063 8.31047 8.70081 8.41596C8.59533 8.52145 8.53606 8.66452 8.53606 8.8137ZM7.41406 8.8137C7.41406 8.61479 7.33504 8.42403 7.19439 8.28337C7.05374 8.14272 6.86297 8.0637 6.66406 8.0637C6.46515 8.0637 6.27438 8.14272 6.13373 8.28337C5.99308 8.42403 5.91406 8.61479 5.91406 8.8137C5.91406 9.01262 5.99308 9.20338 6.13373 9.34403C6.27438 9.48469 6.46515 9.5637 6.66406 9.5637C6.86297 9.5637 7.05374 9.48469 7.19439 9.34403C7.33504 9.20338 7.41406 9.01262 7.41406 8.8137ZM7.41406 11.8122C7.41406 11.6133 7.33504 11.4225 7.19439 11.2819C7.05374 11.1412 6.86297 11.0622 6.66406 11.0622C6.46515 11.0622 6.27438 11.1412 6.13373 11.2819C5.99308 11.4225 5.91406 11.6133 5.91406 11.8122C5.91406 12.0111 5.99308 12.2019 6.13373 12.3425C6.27438 12.4832 6.46515 12.5622 6.66406 12.5622C6.86297 12.5622 7.05374 12.4832 7.19439 12.3425C7.33504 12.2019 7.41406 12.0111 7.41406 11.8122ZM12.8516 15.143L16.2041 11.7905C16.256 11.7368 16.3181 11.6939 16.3867 11.6645C16.4553 11.635 16.5292 11.6196 16.6039 11.6189C16.6785 11.6183 16.7526 11.6326 16.8217 11.6609C16.8908 11.6892 16.9536 11.731 17.0064 11.7839C17.0592 11.8367 17.1009 11.8995 17.1292 11.9687C17.1574 12.0378 17.1716 12.1119 17.171 12.1866C17.1703 12.2613 17.1547 12.3351 17.1252 12.4037C17.0957 12.4723 17.0528 12.5343 16.9991 12.5862L13.2491 16.3362C13.1436 16.4415 13.0006 16.5007 12.8516 16.5007C12.7025 16.5007 12.5595 16.4415 12.4541 16.3362L10.5791 14.4605C10.4797 14.3538 10.4256 14.2128 10.4282 14.0671C10.4308 13.9213 10.4898 13.7823 10.5928 13.6792C10.6959 13.5762 10.8349 13.5171 10.9807 13.5146C11.1264 13.512 11.2674 13.5661 11.3741 13.6655L12.8516 15.143Z" fill="#181818"/>
</svg>
