<svg width="19" height="18" viewBox="0 0 19 18" fill="none" xmlns="http://www.w3.org/2000/svg">
<path d="M12.3925 1.5H6.1075C3.3775 1.5 1.75 3.1275 1.75 5.8575V12.1425C1.75 14.8725 3.3775 16.5 6.1075 16.5H12.3925C15.1225 16.5 16.75 14.8725 16.75 12.1425V5.8575C16.75 3.1275 15.1225 1.5 12.3925 1.5ZM7.7275 11.175L6.04 12.8625C5.9275 12.975 5.785 13.0275 5.6425 13.0275C5.5 13.0275 5.35 12.975 5.245 12.8625L4.6825 12.3C4.4575 12.0825 4.4575 11.7225 4.6825 11.505C4.9 11.2875 5.2525 11.2875 5.4775 11.505L5.6425 11.67L6.9325 10.38C7.15 10.1625 7.5025 10.1625 7.7275 10.38C7.945 10.5975 7.945 10.9575 7.7275 11.175ZM7.7275 5.925L6.04 7.6125C5.9275 7.725 5.785 7.7775 5.6425 7.7775C5.5 7.7775 5.35 7.725 5.245 7.6125L4.6825 7.05C4.4575 6.8325 4.4575 6.4725 4.6825 6.255C4.9 6.0375 5.2525 6.0375 5.4775 6.255L5.6425 6.42L6.9325 5.13C7.15 4.9125 7.5025 4.9125 7.7275 5.13C7.945 5.3475 7.945 5.7075 7.7275 5.925ZM13.42 12.465H9.4825C9.175 12.465 8.92 12.21 8.92 11.9025C8.92 11.595 9.175 11.34 9.4825 11.34H13.42C13.735 11.34 13.9825 11.595 13.9825 11.9025C13.9825 12.21 13.735 12.465 13.42 12.465ZM13.42 7.215H9.4825C9.175 7.215 8.92 6.96 8.92 6.6525C8.92 6.345 9.175 6.09 9.4825 6.09H13.42C13.735 6.09 13.9825 6.345 13.9825 6.6525C13.9825 6.96 13.735 7.215 13.42 7.215Z" fill="#181818"/>
</svg>
