<svg width="16" height="25" viewBox="0 0 16 25" fill="none" xmlns="http://www.w3.org/2000/svg">
<path d="M11.5908 6.28023C11.7763 6.09479 11.9965 5.94769 12.2387 5.84733C12.481 5.74696 12.7407 5.69531 13.003 5.69531C13.2652 5.69531 13.5249 5.74696 13.7672 5.84733C14.0095 5.94769 14.2296 6.09479 14.4151 6.28023C14.6005 6.46567 14.7476 6.68582 14.848 6.92811C14.9484 7.17041 15 7.43009 15 7.69234C15 7.95459 14.9484 8.21429 14.848 8.45657C14.7476 8.69886 14.6005 8.91901 14.4151 9.10446L4.88331 18.6362L1 19.6953L2.05908 15.812L11.5908 6.28023Z" stroke="#48BF84" stroke-width="1.2" stroke-linecap="round" stroke-linejoin="round"/>
</svg>
