<svg width="348" height="220" viewBox="0 0 348 220" fill="none" xmlns="http://www.w3.org/2000/svg">
<rect width="348" height="220" fill="#F9FAFB"/>
<path d="M199 82.5H149C144.858 82.5 141.5 85.8579 141.5 90V130C141.5 134.142 144.858 137.5 149 137.5H199C203.142 137.5 206.5 134.142 206.5 130V90C206.5 85.8579 203.142 82.5 199 82.5Z" stroke="#475467" stroke-width="5" stroke-linejoin="round"/>
<path d="M186.656 102.406C189.452 102.406 191.719 100.14 191.719 97.3438C191.719 94.5478 189.452 92.2812 186.656 92.2812C183.86 92.2812 181.594 94.5478 181.594 97.3438C181.594 100.14 183.86 102.406 186.656 102.406Z" stroke="#475467" stroke-width="5" stroke-miterlimit="10"/>
<path d="M181.594 122.626L167.251 108.31C166.338 107.398 165.112 106.869 163.822 106.83C162.532 106.792 161.276 107.248 160.311 108.105L141.094 125.191M168.938 137.847L188.45 118.334C189.343 117.44 190.537 116.912 191.799 116.853C193.061 116.795 194.299 117.21 195.27 118.018L206.906 127.722" stroke="#475467" stroke-width="5" stroke-linecap="round" stroke-linejoin="round"/>
</svg>
