<svg width="24" height="25" viewBox="0 0 24 25" fill="none" xmlns="http://www.w3.org/2000/svg">
<path d="M9.29966 6.99505C9.48288 7.18198 9.58551 7.4333 9.58551 7.69505C9.58551 7.9568 9.48288 8.20812 9.29966 8.39505L7.69966 9.99505C7.51273 10.1783 7.26141 10.2809 6.99966 10.2809C6.7379 10.2809 6.48658 10.1783 6.29966 9.99505L2.52966 6.22505C2.02682 7.33624 1.87457 8.57428 2.0932 9.77419C2.31183 10.9741 2.89094 12.0789 3.75338 12.9413C4.61581 13.8038 5.7206 14.3829 6.92051 14.6015C8.12042 14.8201 9.35847 14.6679 10.4697 14.165L17.3797 21.075C17.7775 21.4729 18.317 21.6964 18.8797 21.6964C19.4423 21.6964 19.9818 21.4729 20.3797 21.075C20.7775 20.6772 21.001 20.1377 21.001 19.575C21.001 19.0124 20.7775 18.4729 20.3797 18.075L13.4697 11.165C13.9725 10.0539 14.1247 8.81581 13.9061 7.6159C13.6875 6.41599 13.1084 5.3112 12.2459 4.44877C11.3835 3.58634 10.2787 3.00722 9.0788 2.78859C7.87889 2.56996 6.64085 2.72221 5.52966 3.22505L9.28966 6.98505L9.29966 6.99505Z" stroke="#48BF84" stroke-width="2" stroke-linecap="round" stroke-linejoin="round"/>
</svg>
