<svg xmlns="http://www.w3.org/2000/svg" width="48" height="43" viewBox="0 0 48 43" fill="none">
<path fill-rule="evenodd" clip-rule="evenodd" d="M23.9995 0.998047C30.0219 0.998047 35.3279 4.87371 37.2412 10.4364C42.9322 11.2087 47.3329 16.0994 47.3329 21.998C47.3329 24.847 46.2969 27.5887 44.4162 29.719C43.9542 30.2394 43.3125 30.5077 42.6662 30.5077C42.1179 30.5077 41.5672 30.3164 41.1215 29.9244C40.1579 29.068 40.0645 27.5957 40.9185 26.6274C42.0455 25.3534 42.6662 23.706 42.6662 21.998C42.6662 18.1387 39.5255 14.998 35.6662 14.998H35.4329C34.3222 14.998 33.3655 14.214 33.1462 13.1244C32.2735 8.80305 28.4282 5.66471 23.9995 5.66471C19.5732 5.66471 15.7255 8.80305 14.8552 13.1244C14.6359 14.214 13.6769 14.998 12.5662 14.998H12.3329C8.47353 14.998 5.33287 18.1387 5.33287 21.998C5.33287 23.706 5.95353 25.3534 7.08287 26.6274C7.93453 27.5957 7.84353 29.068 6.87753 29.9244C5.91153 30.7784 4.43687 30.6827 3.5852 29.719C1.7022 27.5887 0.666199 24.847 0.666199 21.998C0.666199 16.0994 5.06687 11.2087 10.7579 10.4364C12.6735 4.87371 17.9795 0.998047 23.9995 0.998047ZM22.3783 20.3183C23.2977 19.4409 24.7513 19.4479 25.6497 20.3486L32.6497 27.3486C33.562 28.2609 33.562 29.7356 32.6497 30.6479C32.1947 31.1029 31.5973 31.3316 31 31.3316C30.4027 31.3316 29.8053 31.1029 29.3503 30.6479L26.3333 27.6309V40.6649C26.3333 41.9553 25.288 42.9983 24 42.9983C22.712 42.9983 21.6667 41.9553 21.6667 40.6649V27.4956L18.6217 30.4356C17.6953 31.3339 16.2183 31.3036 15.3223 30.3773C14.4263 29.4486 14.452 27.9739 15.3783 27.0779L22.3783 20.3183Z" fill="#181818"/>
</svg>