<svg width="56" height="56" viewBox="0 0 56 56" fill="none" xmlns="http://www.w3.org/2000/svg">
<path fill-rule="evenodd" clip-rule="evenodd" d="M27.9995 7C34.0219 7 39.3279 10.8757 41.2412 16.4383C46.9322 17.2107 51.3329 22.1013 51.3329 28C51.3329 30.849 50.2969 33.5907 48.4162 35.721C47.9542 36.2413 47.3125 36.5097 46.6662 36.5097C46.1179 36.5097 45.5672 36.3183 45.1215 35.9263C44.1579 35.07 44.0645 33.5977 44.9185 32.6293C46.0455 31.3553 46.6662 29.708 46.6662 28C46.6662 24.1407 43.5255 21 39.6662 21H39.4329C38.3222 21 37.3655 20.216 37.1462 19.1263C36.2735 14.805 32.4282 11.6667 27.9995 11.6667C23.5732 11.6667 19.7255 14.805 18.8552 19.1263C18.6359 20.216 17.6769 21 16.5662 21H16.3329C12.4735 21 9.33287 24.1407 9.33287 28C9.33287 29.708 9.95353 31.3553 11.0829 32.6293C11.9345 33.5977 11.8435 35.07 10.8775 35.9263C9.91153 36.7803 8.43687 36.6847 7.5852 35.721C5.7022 33.5907 4.6662 30.849 4.6662 28C4.6662 22.1013 9.06687 17.2107 14.7579 16.4383C16.6735 10.8757 21.9795 7 27.9995 7ZM26.3783 26.3202C27.2977 25.4429 28.7513 25.4499 29.6497 26.3506L36.6497 33.3506C37.562 34.2629 37.562 35.7376 36.6497 36.6499C36.1947 37.1049 35.5973 37.3336 35 37.3336C34.4027 37.3336 33.8053 37.1049 33.3503 36.6499L30.3333 33.6329V46.6669C30.3333 47.9572 29.288 49.0002 28 49.0002C26.712 49.0002 25.6667 47.9572 25.6667 46.6669V33.4976L22.6217 36.4376C21.6953 37.3359 20.2183 37.3056 19.3223 36.3792C18.4263 35.4506 18.452 33.9759 19.3783 33.0799L26.3783 26.3202Z" fill="#181818"/>
<mask id="mask0_1007_92755" style="mask-type:luminance" maskUnits="userSpaceOnUse" x="4" y="7" width="48" height="42">
<path fill-rule="evenodd" clip-rule="evenodd" d="M27.9995 7C34.0219 7 39.3279 10.8757 41.2412 16.4383C46.9322 17.2107 51.3329 22.1013 51.3329 28C51.3329 30.849 50.2969 33.5907 48.4162 35.721C47.9542 36.2413 47.3125 36.5097 46.6662 36.5097C46.1179 36.5097 45.5672 36.3183 45.1215 35.9263C44.1579 35.07 44.0645 33.5977 44.9185 32.6293C46.0455 31.3553 46.6662 29.708 46.6662 28C46.6662 24.1407 43.5255 21 39.6662 21H39.4329C38.3222 21 37.3655 20.216 37.1462 19.1263C36.2735 14.805 32.4282 11.6667 27.9995 11.6667C23.5732 11.6667 19.7255 14.805 18.8552 19.1263C18.6359 20.216 17.6769 21 16.5662 21H16.3329C12.4735 21 9.33287 24.1407 9.33287 28C9.33287 29.708 9.95353 31.3553 11.0829 32.6293C11.9345 33.5977 11.8435 35.07 10.8775 35.9263C9.91153 36.7803 8.43687 36.6847 7.5852 35.721C5.7022 33.5907 4.6662 30.849 4.6662 28C4.6662 22.1013 9.06687 17.2107 14.7579 16.4383C16.6735 10.8757 21.9795 7 27.9995 7ZM26.3783 26.3202C27.2977 25.4429 28.7513 25.4499 29.6497 26.3506L36.6497 33.3506C37.562 34.2629 37.562 35.7376 36.6497 36.6499C36.1947 37.1049 35.5973 37.3336 35 37.3336C34.4027 37.3336 33.8053 37.1049 33.3503 36.6499L30.3333 33.6329V46.6669C30.3333 47.9572 29.288 49.0002 28 49.0002C26.712 49.0002 25.6667 47.9572 25.6667 46.6669V33.4976L22.6217 36.4376C21.6953 37.3359 20.2183 37.3056 19.3223 36.3792C18.4263 35.4506 18.452 33.9759 19.3783 33.0799L26.3783 26.3202Z" fill="white"/>
</mask>
<g mask="url(#mask0_1007_92755)">
<rect width="56" height="56" fill="#434C56"/>
</g>
</svg>
