<svg xmlns="http://www.w3.org/2000/svg" width="46" height="46" viewBox="0 0 46 46" fill="none">
<path d="M23.0212 3.83008C12.4702 3.83008 3.87231 12.4279 3.87231 22.979C3.87231 33.5301 12.4702 42.1279 23.0212 42.1279C33.5723 42.1279 42.1702 33.5301 42.1702 22.979C42.1702 12.4279 33.5723 3.83008 23.0212 3.83008ZM29.4553 27.3833C30.0106 27.9386 30.0106 28.8577 29.4553 29.4131C29.1681 29.7003 28.8042 29.8343 28.4404 29.8343C28.0766 29.8343 27.7127 29.7003 27.4255 29.4131L23.0212 25.0088L18.617 29.4131C18.3298 29.7003 17.9659 29.8343 17.6021 29.8343C17.2383 29.8343 16.8744 29.7003 16.5872 29.4131C16.0319 28.8577 16.0319 27.9386 16.5872 27.3833L20.9915 22.979L16.5872 18.5748C16.0319 18.0194 16.0319 17.1003 16.5872 16.545C17.1425 15.9897 18.0617 15.9897 18.617 16.545L23.0212 20.9492L27.4255 16.545C27.9808 15.9897 28.9 15.9897 29.4553 16.545C30.0106 17.1003 30.0106 18.0194 29.4553 18.5748L25.051 22.979L29.4553 27.3833Z" fill="#0F0F0F"/>
</svg>