<svg width="24" height="25" viewBox="0 0 24 25" fill="none" xmlns="http://www.w3.org/2000/svg">
<g clip-path="url(#clip0_79_4051)">
<path d="M18.3635 12.3968V12.9823C18.3627 14.3545 17.9184 15.6898 17.0967 16.7889C16.2751 17.888 15.1201 18.692 13.8042 19.0811C12.4882 19.4702 11.0818 19.4235 9.79453 18.9479C8.5073 18.4723 7.40828 17.5934 6.66139 16.4422C5.91449 15.291 5.55973 13.9292 5.65002 12.5599C5.74032 11.1906 6.27082 9.8872 7.16241 8.84404C8.054 7.80088 9.25891 7.07388 10.5974 6.77145C11.936 6.46903 13.3364 6.60739 14.5899 7.16591" stroke="#48BF84" stroke-width="1.27273" stroke-linecap="round" stroke-linejoin="round"/>
<path d="M18.3628 7.88916L11.9992 14.2592L10.0901 12.3501" stroke="#48BF84" stroke-width="1.27273" stroke-linecap="round" stroke-linejoin="round"/>
</g>
<defs>
<clipPath id="clip0_79_4051">
<rect width="15.2727" height="15.2727" fill="white" transform="translate(4.36353 5.34229)"/>
</clipPath>
</defs>
</svg>
