<svg width="24" height="25" viewBox="0 0 24 25" fill="none" xmlns="http://www.w3.org/2000/svg">
<g clip-path="url(#clip0_79_4043)">
<path d="M18.3635 12.3682V12.9537C18.3627 14.326 17.9184 15.6612 17.0967 16.7603C16.2751 17.8594 15.1201 18.6635 13.8042 19.0526C12.4882 19.4416 11.0818 19.3949 9.79453 18.9193C8.5073 18.4438 7.40828 17.5649 6.66139 16.4137C5.91449 15.2625 5.55973 13.9007 5.65002 12.5314C5.74032 11.1621 6.27082 9.85864 7.16241 8.81548C8.054 7.77232 9.25891 7.04531 10.5974 6.74289C11.936 6.44047 13.3364 6.57883 14.5899 7.13734" stroke="#FDB022" stroke-width="1.27273" stroke-linecap="round" stroke-linejoin="round"/>
<path d="M18.3628 7.8606L11.9992 14.2306L10.0901 12.3215" stroke="#FDB022" stroke-width="1.27273" stroke-linecap="round" stroke-linejoin="round"/>
</g>
<defs>
<clipPath id="clip0_79_4043">
<rect width="15.2727" height="15.2727" fill="white" transform="translate(4.36353 5.31372)"/>
</clipPath>
</defs>
</svg>
