<svg width="24" height="25" viewBox="0 0 24 25" fill="none" xmlns="http://www.w3.org/2000/svg">
<g clip-path="url(#clip0_79_4039)">
<path d="M18.3635 12.3684V12.9538C18.3627 14.3261 17.9184 15.6613 17.0967 16.7604C16.2751 17.8595 15.1201 18.6636 13.8042 19.0527C12.4882 19.4418 11.0818 19.395 9.79453 18.9195C8.5073 18.4439 7.40828 17.565 6.66139 16.4138C5.91449 15.2626 5.55973 13.9008 5.65002 12.5315C5.74032 11.1622 6.27082 9.85876 7.16241 8.8156C8.054 7.77244 9.25891 7.04543 10.5974 6.74301C11.936 6.44059 13.3364 6.57895 14.5899 7.13746" stroke="#FF6565" stroke-width="1.27273" stroke-linecap="round" stroke-linejoin="round"/>
<path d="M18.3628 7.86072L11.9992 14.2307L10.0901 12.3216" stroke="#FF6565" stroke-width="1.27273" stroke-linecap="round" stroke-linejoin="round"/>
</g>
<defs>
<clipPath id="clip0_79_4039">
<rect width="15.2727" height="15.2727" fill="white" transform="translate(4.36353 5.31384)"/>
</clipPath>
</defs>
</svg>
