<svg width="25" height="25" viewBox="0 0 25 25" fill="none" xmlns="http://www.w3.org/2000/svg">
<g clip-path="url(#clip0_4166_79853)">
<path d="M16.7994 2.5H8.41937C4.77937 2.5 2.60938 4.67 2.60938 8.31V16.68C2.60938 20.33 4.77937 22.5 8.41937 22.5H16.7894C20.4294 22.5 22.5994 20.33 22.5994 16.69V8.31C22.6094 4.67 20.4394 2.5 16.7994 2.5ZM16.6094 13.25H13.3594V16.5C13.3594 16.91 13.0194 17.25 12.6094 17.25C12.1994 17.25 11.8594 16.91 11.8594 16.5V13.25H8.60938C8.19938 13.25 7.85938 12.91 7.85938 12.5C7.85938 12.09 8.19938 11.75 8.60938 11.75H11.8594V8.5C11.8594 8.09 12.1994 7.75 12.6094 7.75C13.0194 7.75 13.3594 8.09 13.3594 8.5V11.75H16.6094C17.0194 11.75 17.3594 12.09 17.3594 12.5C17.3594 12.91 17.0194 13.25 16.6094 13.25Z" fill="white"/>
</g>
<defs>
<clipPath id="clip0_4166_79853">
<rect width="24" height="24" fill="white" transform="translate(0.609375 0.5)"/>
</clipPath>
</defs>
</svg>
