<svg width="25" height="25" viewBox="0 0 25 25" fill="none" xmlns="http://www.w3.org/2000/svg">
<g clip-path="url(#clip0_4175_79898)">
<mask id="mask0_4175_79898" style="mask-type:alpha" maskUnits="userSpaceOnUse" x="0" y="0" width="25" height="25">
<rect x="0.296875" y="0.5" width="24" height="24" fill="#D9D9D9"/>
</mask>
<g mask="url(#mask0_4175_79898)">
<path d="M12.2969 19.5C12.0135 19.5 11.776 19.4042 11.5844 19.2125C11.3927 19.0208 11.2969 18.7833 11.2969 18.5V13.5H6.29688C6.01354 13.5 5.77604 13.4042 5.58437 13.2125C5.39271 13.0208 5.29688 12.7833 5.29688 12.5C5.29688 12.2167 5.39271 11.9792 5.58437 11.7875C5.77604 11.5958 6.01354 11.5 6.29688 11.5H11.2969V6.5C11.2969 6.21667 11.3927 5.97917 11.5844 5.7875C11.776 5.59583 12.0135 5.5 12.2969 5.5C12.5802 5.5 12.8177 5.59583 13.0094 5.7875C13.201 5.97917 13.2969 6.21667 13.2969 6.5V11.5H18.2969C18.5802 11.5 18.8177 11.5958 19.0094 11.7875C19.201 11.9792 19.2969 12.2167 19.2969 12.5C19.2969 12.7833 19.201 13.0208 19.0094 13.2125C18.8177 13.4042 18.5802 13.5 18.2969 13.5H13.2969V18.5C13.2969 18.7833 13.201 19.0208 13.0094 19.2125C12.8177 19.4042 12.5802 19.5 12.2969 19.5Z" fill="#1C1B1F"/>
</g>
</g>
<defs>
<clipPath id="clip0_4175_79898">
<rect width="24" height="24" fill="white" transform="translate(0.296875 0.5)"/>
</clipPath>
</defs>
</svg>
