<svg width="32" height="32" viewBox="0 0 32 32" fill="none" xmlns="http://www.w3.org/2000/svg">
<g clip-path="url(#clip0_4528_146116)">
<path d="M21.5841 2.66797H10.4107C5.5574 2.66797 2.66406 5.5613 2.66406 10.4146V21.5746C2.66406 26.4413 5.5574 29.3346 10.4107 29.3346H21.5707C26.4241 29.3346 29.3174 26.4413 29.3174 21.588V10.4146C29.3307 5.5613 26.4374 2.66797 21.5841 2.66797ZM21.3307 17.0013H16.9974V21.3346C16.9974 21.8813 16.5441 22.3346 15.9974 22.3346C15.4507 22.3346 14.9974 21.8813 14.9974 21.3346V17.0013H10.6641C10.1174 17.0013 9.66406 16.548 9.66406 16.0013C9.66406 15.4546 10.1174 15.0013 10.6641 15.0013H14.9974V10.668C14.9974 10.1213 15.4507 9.66797 15.9974 9.66797C16.5441 9.66797 16.9974 10.1213 16.9974 10.668V15.0013H21.3307C21.8774 15.0013 22.3307 15.4546 22.3307 16.0013C22.3307 16.548 21.8774 17.0013 21.3307 17.0013Z" fill="#48BF84"/>
</g>
<defs>
<clipPath id="clip0_4528_146116">
<rect width="32" height="32" fill="white"/>
</clipPath>
</defs>
</svg>
