<svg width="34" height="32" viewBox="0 0 34 32" fill="none" xmlns="http://www.w3.org/2000/svg">
<path d="M11.4987 10.2259C13.2897 6.50493 15.6306 0.336194 17.0265 0.6439C17.0265 5.33326 17.0227 17.4466 17.0227 17.4466L11.4987 10.2259Z" fill="#F2D422"/>
<path d="M22.5334 10.2255C20.7424 6.50455 18.4225 0.337244 17.0265 0.64495C17.0265 5.33431 17.0304 17.4476 17.0304 17.4476L22.5334 10.2255Z" fill="#F7AC16"/>
<path d="M22.5037 10.2263C26.5902 10.8209 32.8921 11.0178 33.0165 12.4419C28.5423 13.8461 16.9836 17.4697 16.9836 17.4697L22.5037 10.2263Z" fill="#F2D422"/>
<path d="M25.654 20.2675C28.6679 17.4445 33.7271 13.682 33.0155 12.4422C28.5413 13.8464 16.9849 17.4773 16.9849 17.4773L25.654 20.2675Z" fill="#F7AC16"/>
<path d="M11.5015 10.2009C7.41491 10.7955 1.11306 10.9924 0.988641 12.4165C5.46283 13.8207 17.0215 17.4443 17.0215 17.4443L11.5015 10.2009Z" fill="#F48B19"/>
<path d="M8.35116 20.2422C5.33724 17.4191 0.278046 13.6566 0.989642 12.4168C5.46383 13.821 17.0202 17.4519 17.0202 17.4519L8.35116 20.2422Z" fill="#EFB616"/>
<path d="M25.6602 20.0642C26.4349 24.1205 28.3101 30.1401 27.0051 30.7234C24.2147 26.9546 17.0097 17.217 17.0097 17.217L25.6602 20.0642Z" fill="#F2D422"/>
<path d="M17.2017 26.3255C20.8553 28.2503 26.0656 31.8006 27.0044 30.7226C24.214 26.9538 17.0029 17.2207 17.0029 17.2207L17.2017 26.3255Z" fill="#F7AC16"/>
<path d="M17.1939 26.3477C13.6332 28.4391 8.59234 32.2263 7.60474 31.1928C10.2181 27.2992 16.972 17.2434 16.972 17.2434L17.1939 26.3477Z" fill="#F2D422"/>
<path d="M8.363 20.2363C7.77644 24.324 6.27475 30.6695 7.60532 31.1919C10.2187 27.2983 16.9662 17.2383 16.9662 17.2383L8.363 20.2363Z" fill="#F7AC16"/>
</svg>
