<svg width="25" height="25" viewBox="0 0 25 25" fill="none" xmlns="http://www.w3.org/2000/svg">
<path d="M17.4534 4.06V2.5C17.4534 2.09 17.1134 1.75 16.7034 1.75C16.2934 1.75 15.9534 2.09 15.9534 2.5V4H9.45335V2.5C9.45335 2.09 9.11335 1.75 8.70335 1.75C8.29335 1.75 7.95335 2.09 7.95335 2.5V4.06C5.25335 4.31 3.94335 5.92 3.74335 8.31C3.72335 8.6 3.96335 8.84 4.24335 8.84H21.1634C21.4534 8.84 21.6934 8.59 21.6634 8.31C21.4634 5.92 20.1534 4.31 17.4534 4.06Z" fill="#898989"/>
<path d="M20.7031 10.3398H4.70312C4.15312 10.3398 3.70312 10.7898 3.70312 11.3398V17.4998C3.70312 20.4998 5.20312 22.4998 8.70312 22.4998H16.7031C20.2031 22.4998 21.7031 20.4998 21.7031 17.4998V11.3398C21.7031 10.7898 21.2531 10.3398 20.7031 10.3398ZM9.91313 18.7098C9.86313 18.7498 9.81313 18.7998 9.76313 18.8298C9.70313 18.8698 9.64313 18.8998 9.58313 18.9198C9.52313 18.9498 9.46312 18.9698 9.40312 18.9798C9.33312 18.9898 9.27313 18.9998 9.20312 18.9998C9.07313 18.9998 8.94312 18.9698 8.82312 18.9198C8.69312 18.8698 8.59312 18.7998 8.49312 18.7098C8.31312 18.5198 8.20312 18.2598 8.20312 17.9998C8.20312 17.7398 8.31312 17.4798 8.49312 17.2898C8.59312 17.1998 8.69312 17.1298 8.82312 17.0798C9.00312 16.9998 9.20312 16.9798 9.40312 17.0198C9.46312 17.0298 9.52313 17.0498 9.58313 17.0798C9.64313 17.0998 9.70313 17.1298 9.76313 17.1698C9.81313 17.2098 9.86313 17.2498 9.91313 17.2898C10.0931 17.4798 10.2031 17.7398 10.2031 17.9998C10.2031 18.2598 10.0931 18.5198 9.91313 18.7098ZM9.91313 15.2098C9.72313 15.3898 9.46312 15.4998 9.20312 15.4998C8.94313 15.4998 8.68312 15.3898 8.49312 15.2098C8.31312 15.0198 8.20312 14.7598 8.20312 14.4998C8.20312 14.2398 8.31312 13.9798 8.49312 13.7898C8.77312 13.5098 9.21313 13.4198 9.58313 13.5798C9.71313 13.6298 9.82313 13.6998 9.91313 13.7898C10.0931 13.9798 10.2031 14.2398 10.2031 14.4998C10.2031 14.7598 10.0931 15.0198 9.91313 15.2098ZM13.4131 18.7098C13.2231 18.8898 12.9631 18.9998 12.7031 18.9998C12.4431 18.9998 12.1831 18.8898 11.9931 18.7098C11.8131 18.5198 11.7031 18.2598 11.7031 17.9998C11.7031 17.7398 11.8131 17.4798 11.9931 17.2898C12.3631 16.9198 13.0431 16.9198 13.4131 17.2898C13.5931 17.4798 13.7031 17.7398 13.7031 17.9998C13.7031 18.2598 13.5931 18.5198 13.4131 18.7098ZM13.4131 15.2098C13.3631 15.2498 13.3131 15.2898 13.2631 15.3298C13.2031 15.3698 13.1431 15.3998 13.0831 15.4198C13.0231 15.4498 12.9631 15.4698 12.9031 15.4798C12.8331 15.4898 12.7731 15.4998 12.7031 15.4998C12.4431 15.4998 12.1831 15.3898 11.9931 15.2098C11.8131 15.0198 11.7031 14.7598 11.7031 14.4998C11.7031 14.2398 11.8131 13.9798 11.9931 13.7898C12.0831 13.6998 12.1931 13.6298 12.3231 13.5798C12.6931 13.4198 13.1331 13.5098 13.4131 13.7898C13.5931 13.9798 13.7031 14.2398 13.7031 14.4998C13.7031 14.7598 13.5931 15.0198 13.4131 15.2098ZM16.9131 18.7098C16.7231 18.8898 16.4631 18.9998 16.2031 18.9998C15.9431 18.9998 15.6831 18.8898 15.4931 18.7098C15.3131 18.5198 15.2031 18.2598 15.2031 17.9998C15.2031 17.7398 15.3131 17.4798 15.4931 17.2898C15.8631 16.9198 16.5431 16.9198 16.9131 17.2898C17.0931 17.4798 17.2031 17.7398 17.2031 17.9998C17.2031 18.2598 17.0931 18.5198 16.9131 18.7098ZM16.9131 15.2098C16.8631 15.2498 16.8131 15.2898 16.7631 15.3298C16.7031 15.3698 16.6431 15.3998 16.5831 15.4198C16.5231 15.4498 16.4631 15.4698 16.4031 15.4798C16.3331 15.4898 16.2631 15.4998 16.2031 15.4998C15.9431 15.4998 15.6831 15.3898 15.4931 15.2098C15.3131 15.0198 15.2031 14.7598 15.2031 14.4998C15.2031 14.2398 15.3131 13.9798 15.4931 13.7898C15.5931 13.6998 15.6931 13.6298 15.8231 13.5798C16.0031 13.4998 16.2031 13.4798 16.4031 13.5198C16.4631 13.5298 16.5231 13.5498 16.5831 13.5798C16.6431 13.5998 16.7031 13.6298 16.7631 13.6698C16.8131 13.7098 16.8631 13.7498 16.9131 13.7898C17.0931 13.9798 17.2031 14.2398 17.2031 14.4998C17.2031 14.7598 17.0931 15.0198 16.9131 15.2098Z" fill="#898989"/>
</svg>
