<svg width="41" height="41" viewBox="0 0 41 41" fill="none" xmlns="http://www.w3.org/2000/svg">
<g clip-path="url(#clip0_4166_79683)">
<path d="M20.6979 3.73828C11.5146 3.73828 4.03125 11.2216 4.03125 20.4049C4.03125 29.5883 11.5146 37.0716 20.6979 37.0716C29.8812 37.0716 37.3646 29.5883 37.3646 20.4049C37.3646 11.2216 29.8812 3.73828 20.6979 3.73828ZM26.2979 24.2383C26.7812 24.7216 26.7812 25.5216 26.2979 26.0049C26.0479 26.2549 25.7312 26.3716 25.4146 26.3716C25.0979 26.3716 24.7812 26.2549 24.5312 26.0049L20.6979 22.1716L16.8646 26.0049C16.6146 26.2549 16.2979 26.3716 15.9812 26.3716C15.6646 26.3716 15.3479 26.2549 15.0979 26.0049C14.6146 25.5216 14.6146 24.7216 15.0979 24.2383L18.9312 20.4049L15.0979 16.5716C14.6146 16.0883 14.6146 15.2883 15.0979 14.8049C15.5813 14.3216 16.3812 14.3216 16.8646 14.8049L20.6979 18.6383L24.5312 14.8049C25.0146 14.3216 25.8146 14.3216 26.2979 14.8049C26.7812 15.2883 26.7812 16.0883 26.2979 16.5716L22.4646 20.4049L26.2979 24.2383Z" fill="#898989"/>
</g>
<defs>
<clipPath id="clip0_4166_79683">
<rect width="40" height="40" fill="white" transform="translate(0.703125 0.40625)"/>
</clipPath>
</defs>
</svg>
