<svg width="25" height="25" viewBox="0 0 25 25" fill="none" xmlns="http://www.w3.org/2000/svg">
<g clip-path="url(#clip0_4166_79686)">
<path d="M12.6094 2.40625C7.09937 2.40625 2.60938 6.89625 2.60938 12.4062C2.60938 17.9162 7.09937 22.4062 12.6094 22.4062C18.1194 22.4062 22.6094 17.9162 22.6094 12.4062C22.6094 6.89625 18.1194 2.40625 12.6094 2.40625ZM15.9694 14.7062C16.2594 14.9962 16.2594 15.4762 15.9694 15.7662C15.8194 15.9162 15.6294 15.9862 15.4394 15.9862C15.2494 15.9862 15.0594 15.9162 14.9094 15.7662L12.6094 13.4662L10.3094 15.7662C10.1594 15.9162 9.96938 15.9862 9.77938 15.9862C9.58938 15.9862 9.39938 15.9162 9.24938 15.7662C8.95938 15.4762 8.95938 14.9962 9.24938 14.7062L11.5494 12.4062L9.24938 10.1062C8.95938 9.81625 8.95938 9.33625 9.24938 9.04625C9.53938 8.75625 10.0194 8.75625 10.3094 9.04625L12.6094 11.3462L14.9094 9.04625C15.1994 8.75625 15.6794 8.75625 15.9694 9.04625C16.2594 9.33625 16.2594 9.81625 15.9694 10.1062L13.6694 12.4062L15.9694 14.7062Z" fill="#898989"/>
</g>
<defs>
<clipPath id="clip0_4166_79686">
<rect width="24" height="24" fill="white" transform="translate(0.609375 0.40625)"/>
</clipPath>
</defs>
</svg>
