<svg width="24" height="24" viewBox="0 0 24 24" fill="none" xmlns="http://www.w3.org/2000/svg">
<path d="M9.878 4.25073C10.0333 3.81204 10.3207 3.43226 10.7007 3.16365C11.0807 2.89504 11.5346 2.75081 12 2.75081C12.4654 2.75081 12.9193 2.89504 13.2993 3.16365C13.6793 3.43226 13.9667 3.81204 14.122 4.25073C14.1548 4.34364 14.2056 4.42918 14.2715 4.50245C14.3374 4.57573 14.4171 4.6353 14.506 4.67779C14.5949 4.72027 14.6913 4.74482 14.7897 4.75005C14.8881 4.75527 14.9866 4.74106 15.0795 4.70823C15.1724 4.6754 15.2579 4.62459 15.3312 4.55871C15.4045 4.49282 15.4641 4.41315 15.5066 4.32423C15.549 4.23532 15.5736 4.13891 15.5788 4.04051C15.584 3.94211 15.5698 3.84364 15.537 3.75073C15.2784 3.01939 14.7995 2.3862 14.1662 1.93834C13.5328 1.49049 12.7762 1.25 12.0005 1.25C11.2248 1.25 10.4682 1.49049 9.83483 1.93834C9.20148 2.3862 8.72255 3.01939 8.464 3.75073C8.42929 3.84401 8.41349 3.94326 8.41752 4.0427C8.42155 4.14215 8.44534 4.23979 8.48749 4.32995C8.52964 4.42011 8.58931 4.50098 8.66303 4.56785C8.73675 4.63471 8.82304 4.68623 8.91687 4.71941C9.0107 4.75259 9.1102 4.76676 9.20956 4.7611C9.30893 4.75544 9.40617 4.73006 9.49563 4.68644C9.58508 4.64282 9.66496 4.58183 9.73061 4.50702C9.79626 4.43222 9.84636 4.3451 9.878 4.25073ZM2.75 6.00073C2.75 5.80182 2.82902 5.61105 2.96967 5.4704C3.11032 5.32975 3.30109 5.25073 3.5 5.25073H20.5C20.6989 5.25073 20.8897 5.32975 21.0303 5.4704C21.171 5.61105 21.25 5.80182 21.25 6.00073C21.25 6.19964 21.171 6.39041 21.0303 6.53106C20.8897 6.67171 20.6989 6.75073 20.5 6.75073H3.5C3.30109 6.75073 3.11032 6.67171 2.96967 6.53106C2.82902 6.39041 2.75 6.19964 2.75 6.00073ZM5.117 7.75273C5.31536 7.73956 5.51084 7.80568 5.66047 7.93656C5.8101 8.06745 5.90165 8.25238 5.915 8.45073L6.375 15.3507C6.465 16.6977 6.529 17.6357 6.669 18.3407C6.806 19.0257 6.996 19.3877 7.269 19.6437C7.543 19.8997 7.917 20.0657 8.609 20.1557C9.323 20.2487 10.263 20.2507 11.613 20.2507H12.387C13.737 20.2507 14.677 20.2487 15.391 20.1557C16.083 20.0657 16.457 19.8997 16.731 19.6437C17.004 19.3877 17.194 19.0257 17.331 18.3407C17.471 17.6357 17.535 16.6977 17.625 15.3507L18.085 8.45073C18.0916 8.35244 18.1174 8.2564 18.1611 8.1681C18.2048 8.0798 18.2654 8.00097 18.3396 7.93611C18.4137 7.87125 18.4999 7.82162 18.5933 7.79007C18.6866 7.75852 18.7852 7.74567 18.8835 7.75223C18.9818 7.7588 19.0778 7.78466 19.1661 7.82834C19.2544 7.87202 19.3333 7.93267 19.3981 8.00682C19.463 8.08097 19.5126 8.16716 19.5442 8.26049C19.5757 8.35381 19.5886 8.45244 19.582 8.55073L19.118 15.5027C19.033 16.7847 18.964 17.8207 18.802 18.6347C18.633 19.4797 18.347 20.1857 17.755 20.7387C17.164 21.2927 16.44 21.5317 15.585 21.6427C14.763 21.7507 13.725 21.7507 12.439 21.7507H11.561C10.275 21.7507 9.237 21.7507 8.415 21.6427C7.56 21.5317 6.836 21.2927 6.245 20.7387C5.653 20.1857 5.367 19.4787 5.198 18.6347C5.036 17.8207 4.968 16.7847 4.882 15.5027L4.418 8.55073C4.41148 8.45243 4.42439 8.35381 4.456 8.26051C4.4876 8.1672 4.53728 8.08103 4.60219 8.00693C4.6671 7.93282 4.74597 7.87223 4.83431 7.82862C4.92264 7.785 5.0187 7.75922 5.117 7.75273Z" fill="#FF6565"/>
</svg>
