<svg width="24" height="24" viewBox="0 0 24 24" fill="none" xmlns="http://www.w3.org/2000/svg">
<path d="M15.5908 5.58492C15.7763 5.39947 15.9965 5.25237 16.2387 5.15202C16.481 5.05165 16.7407 5 17.003 5C17.2652 5 17.5249 5.05165 17.7672 5.15202C18.0095 5.25237 18.2296 5.39947 18.4151 5.58492C18.6005 5.77036 18.7476 5.99051 18.848 6.2328C18.9484 6.47509 19 6.73478 19 6.99703C19 7.25928 18.9484 7.51897 18.848 7.76126C18.7476 8.00355 18.6005 8.2237 18.4151 8.40915L8.88331 17.9409L5 19L6.05908 15.1167L15.5908 5.58492Z" stroke="#131313" stroke-width="1.2" stroke-linecap="round" stroke-linejoin="round"/>
</svg>
