<svg width="25" height="24" viewBox="0 0 25 24" fill="none" xmlns="http://www.w3.org/2000/svg">
<rect x="0.671875" y="0.5" width="23" height="23" rx="5.5" fill="white"/>
<g clip-path="url(#clip0_4166_79642)">
<path d="M14.4803 7.87602C14.5995 7.7568 14.741 7.66224 14.8968 7.59773C15.0525 7.53321 15.2195 7.5 15.3881 7.5C15.5567 7.5 15.7236 7.53321 15.8794 7.59773C16.0351 7.66224 16.1766 7.7568 16.2959 7.87602C16.4151 7.99523 16.5096 8.13676 16.5742 8.29252C16.6387 8.44828 16.6719 8.61521 16.6719 8.7838C16.6719 8.95239 16.6387 9.11934 16.5742 9.27509C16.5096 9.43085 16.4151 9.57238 16.2959 9.6916L10.1683 15.8191L7.67188 16.5L8.35272 14.0036L14.4803 7.87602Z" stroke="#898989" stroke-width="0.75" stroke-linecap="round" stroke-linejoin="round"/>
</g>
<rect x="0.671875" y="0.5" width="23" height="23" rx="5.5" stroke="#DCDCDC"/>
<defs>
<clipPath id="clip0_4166_79642">
<rect width="12" height="12" fill="white" transform="translate(6.17188 6)"/>
</clipPath>
</defs>
</svg>
