<svg width="25" height="25" viewBox="0 0 25 25" fill="none" xmlns="http://www.w3.org/2000/svg">
<path fill-rule="evenodd" clip-rule="evenodd" d="M1.33594 12.5C1.33594 6.99 5.82594 2.5 11.3359 2.5C16.8459 2.5 21.3359 6.99 21.3359 12.5C21.3359 13.1278 21.2776 13.7423 21.1662 14.3385C21.1191 14.3554 21.0726 14.3741 21.0268 14.3948C20.8086 14.4937 20.612 14.6345 20.4483 14.8093L16.3129 19.077L14.3247 17.4415C13.9609 17.139 13.4938 16.9899 13.022 17.0255C12.5503 17.0611 12.1108 17.2786 11.7965 17.6322C11.4822 17.9858 11.3176 18.4478 11.3376 18.9205C11.3575 19.3932 11.5604 19.8396 11.9035 20.1654L14.1357 22.1004C13.2468 22.3605 12.3072 22.5 11.3359 22.5C5.82594 22.5 1.33594 18.01 1.33594 12.5ZM15.0359 16.44C15.2959 16.44 15.5459 16.31 15.6859 16.07C15.9059 15.71 15.7859 15.25 15.4259 15.04L12.3259 13.19C12.0159 13.01 11.7159 12.48 11.7159 12.12V8.02C11.7159 7.61 11.3759 7.27 10.9659 7.27C10.5559 7.27 10.2159 7.61 10.2159 8.02V12.12C10.2159 13.01 10.7859 14.02 11.5559 14.48L14.6559 16.33C14.7759 16.41 14.9059 16.44 15.0359 16.44Z" fill="white"/>
<path d="M22.567 17.2182C22.6902 17.0867 22.7863 16.9322 22.8498 16.7636C22.9132 16.595 22.9429 16.4156 22.9371 16.2355C22.9312 16.0554 22.8899 15.8783 22.8156 15.7142C22.7413 15.5501 22.6354 15.4022 22.5039 15.279C22.3724 15.1558 22.218 15.0597 22.0494 14.9962C21.8808 14.9327 21.7013 14.9031 21.5213 14.9089C21.3412 14.9148 21.164 14.9561 20.9999 15.0304C20.8358 15.1047 20.6879 15.2106 20.5647 15.3421L16.3367 19.854L14.2481 17.9985C13.9744 17.771 13.6231 17.6588 13.2682 17.6856C12.9134 17.7123 12.5828 17.876 12.3464 18.142C12.11 18.4079 11.9862 18.7554 12.0012 19.1109C12.0162 19.4665 12.1689 19.8023 12.4269 20.0473L15.5125 22.7901C15.7795 23.0273 16.1285 23.151 16.4852 23.1348C16.842 23.1187 17.1784 22.964 17.4229 22.7037L22.567 17.2182Z" fill="white"/>
</svg>
