<svg width="25" height="24" viewBox="0 0 25 24" fill="none" xmlns="http://www.w3.org/2000/svg">
<path fill-rule="evenodd" clip-rule="evenodd" d="M1.33594 12C1.33594 6.49 5.82594 2 11.3359 2C16.8459 2 21.3359 6.49 21.3359 12C21.3359 12.6278 21.2776 13.2423 21.1662 13.8385C21.1191 13.8554 21.0726 13.8741 21.0268 13.8948C20.8086 13.9937 20.612 14.1345 20.4483 14.3093L16.3129 18.577L14.3247 16.9415C13.9609 16.639 13.4938 16.4899 13.022 16.5255C12.5503 16.5611 12.1108 16.7786 11.7965 17.1322C11.4822 17.4858 11.3176 17.9478 11.3376 18.4205C11.3575 18.8932 11.5604 19.3396 11.9035 19.6654L14.1357 21.6004C13.2468 21.8605 12.3072 22 11.3359 22C5.82594 22 1.33594 17.51 1.33594 12ZM15.0359 15.94C15.2959 15.94 15.5459 15.81 15.6859 15.57C15.9059 15.21 15.7859 14.75 15.4259 14.54L12.3259 12.69C12.0159 12.51 11.7159 11.98 11.7159 11.62V7.52C11.7159 7.11 11.3759 6.77 10.9659 6.77C10.5559 6.77 10.2159 7.11 10.2159 7.52V11.62C10.2159 12.51 10.7859 13.52 11.5559 13.98L14.6559 15.83C14.7759 15.91 14.9059 15.94 15.0359 15.94Z" fill="#DCDCDC"/>
<path d="M22.567 16.7182C22.6902 16.5867 22.7863 16.4322 22.8498 16.2636C22.9132 16.095 22.9429 15.9156 22.9371 15.7355C22.9312 15.5554 22.8899 15.3783 22.8156 15.2142C22.7413 15.0501 22.6354 14.9022 22.5039 14.779C22.3724 14.6558 22.218 14.5597 22.0494 14.4962C21.8808 14.4327 21.7013 14.4031 21.5213 14.4089C21.3412 14.4148 21.164 14.4561 20.9999 14.5304C20.8358 14.6047 20.6879 14.7106 20.5647 14.8421L16.3367 19.354L14.2481 17.4985C13.9744 17.271 13.6231 17.1588 13.2682 17.1856C12.9134 17.2123 12.5828 17.376 12.3464 17.642C12.11 17.9079 11.9862 18.2554 12.0012 18.6109C12.0162 18.9665 12.1689 19.3023 12.4269 19.5473L15.5125 22.2901C15.7795 22.5273 16.1285 22.651 16.4852 22.6348C16.842 22.6187 17.1784 22.464 17.4229 22.2037L22.567 16.7182Z" fill="#DCDCDC"/>
</svg>
