<svg width="25" height="24" viewBox="0 0 25 24" fill="none" xmlns="http://www.w3.org/2000/svg">
<path d="M15.635 12.5C15.515 12.5 15.39 12.48 15.27 12.44C15.0446 12.3682 14.8482 12.226 14.7096 12.0343C14.571 11.8426 14.4975 11.6115 14.5 11.375V9.97C13.37 9.79 12.5 8.805 12.5 7.625V4.375C12.5 3.065 13.565 2 14.875 2H20.625C21.935 2 23 3.065 23 4.375V7.625C23 8.935 21.935 10 20.625 10H18.065L16.525 12.05C16.305 12.34 15.98 12.5 15.635 12.5ZM14.875 3.25C14.255 3.25 13.75 3.755 13.75 4.375V7.625C13.75 8.245 14.255 8.75 14.875 8.75H15.75V11L17.44 8.75H20.63C21.25 8.75 21.755 8.245 21.755 7.625V4.375C21.755 3.755 21.25 3.25 20.63 3.25H14.875ZM8.5 13.75C6.43 13.75 4.75 12.07 4.75 10C4.75 7.93 6.43 6.25 8.5 6.25C10.57 6.25 12.25 7.93 12.25 10C12.25 12.07 10.57 13.75 8.5 13.75ZM8.5 7.5C7.12 7.5 6 8.62 6 10C6 11.38 7.12 12.5 8.5 12.5C9.88 12.5 11 11.38 11 10C11 8.62 9.88 7.5 8.5 7.5ZM2 17.395C2 17.44 2.075 22 8.5 22C14.925 22 15 17.44 15 17.395V16.875C15 15.84 14.16 15 13.125 15H3.875C2.84 15 2 15.84 2 16.875V17.395ZM3.25 16.875C3.25 16.53 3.53 16.25 3.875 16.25H13.125C13.47 16.25 13.75 16.53 13.75 16.875V17.39C13.75 17.525 13.64 20.75 8.5 20.75C3.36 20.75 3.25 17.525 3.25 17.395V16.875Z" fill="#181818"/>
</svg>
