<svg width="24" height="24" viewBox="0 0 24 24" fill="none" xmlns="http://www.w3.org/2000/svg">
<path fill-rule="evenodd" clip-rule="evenodd" d="M1 12C1 6.49 5.49 2 11 2C16.51 2 21 6.49 21 12C21 12.6278 20.9417 13.2423 20.8303 13.8385C20.7831 13.8554 20.7366 13.8741 20.6909 13.8948C20.4727 13.9937 20.2761 14.1345 20.1123 14.3093L15.9769 18.577L13.9888 16.9415C13.625 16.639 13.1579 16.4899 12.6861 16.5255C12.2143 16.5611 11.7749 16.7786 11.4605 17.1322C11.1462 17.4858 10.9817 17.9478 11.0016 18.4205C11.0216 18.8932 11.2245 19.3396 11.5675 19.6654L13.7998 21.6004C12.9109 21.8605 11.9713 22 11 22C5.49 22 1 17.51 1 12ZM14.7 15.94C14.96 15.94 15.21 15.81 15.35 15.57C15.57 15.21 15.45 14.75 15.09 14.54L11.99 12.69C11.68 12.51 11.38 11.98 11.38 11.62V7.52C11.38 7.11 11.04 6.77 10.63 6.77C10.22 6.77 9.88 7.11 9.88 7.52V11.62C9.88 12.51 10.45 13.52 11.22 13.98L14.32 15.83C14.44 15.91 14.57 15.94 14.7 15.94Z" fill="#48BF84"/>
<path d="M22.2389 16.7182C22.362 16.5867 22.4581 16.4322 22.5216 16.2636C22.5851 16.095 22.6148 15.9156 22.6089 15.7355C22.6031 15.5554 22.5618 15.3783 22.4875 15.2142C22.4132 15.0501 22.3072 14.9022 22.1758 14.779C22.0443 14.6558 21.8899 14.5597 21.7213 14.4962C21.5527 14.4327 21.3732 14.4031 21.1931 14.4089C21.0131 14.4148 20.8359 14.4561 20.6718 14.5304C20.5077 14.6047 20.3598 14.7106 20.2366 14.8421L16.0086 19.354L13.92 17.4985C13.6463 17.271 13.2949 17.1588 12.9401 17.1856C12.5852 17.2123 12.2547 17.376 12.0183 17.642C11.7819 17.9079 11.6581 18.2554 11.6731 18.6109C11.6881 18.9665 11.8407 19.3023 12.0987 19.5473L15.1844 22.2901C15.4514 22.5273 15.8004 22.651 16.1571 22.6348C16.5139 22.6187 16.8503 22.464 17.0947 22.2037L22.2389 16.7182Z" fill="#48BF84"/>
</svg>
