<svg width="24" height="24" viewBox="0 0 24 24" fill="none" xmlns="http://www.w3.org/2000/svg">
<path d="M17.75 2.00195C18.3201 2.00188 18.869 2.21825 19.2858 2.60732C19.7025 2.9964 19.956 3.52916 19.995 4.09795L20 4.25095V14.379C19.88 14.459 19.765 14.553 19.659 14.659L16.25 18.067L15.342 17.157C14.9427 16.7567 14.407 16.522 13.842 16.5H16.25C16.4489 16.5 16.6397 16.4209 16.7803 16.2803C16.921 16.1396 17 15.9489 17 15.75C17 15.551 16.921 15.3603 16.7803 15.2196C16.6397 15.079 16.4489 15 16.25 15H11.246C11.0471 15 10.8563 15.079 10.7157 15.2196C10.575 15.3603 10.496 15.551 10.496 15.75C10.496 15.9489 10.575 16.1396 10.7157 16.2803C10.8563 16.4209 11.0471 16.5 11.246 16.5H13.659C13.2223 16.5178 12.8003 16.6625 12.4445 16.9163C12.0887 17.1701 11.8145 17.522 11.6555 17.929C11.4964 18.3361 11.4593 18.7807 11.5487 19.2084C11.6381 19.6362 11.8502 20.0287 12.159 20.338L13.817 22.001H6.25C5.67987 22.001 5.13098 21.7847 4.71425 21.3956C4.29751 21.0065 4.04402 20.4737 4.005 19.905L4 19.751V4.25195C3.99993 3.68183 4.2163 3.13293 4.60537 2.7162C4.99444 2.29947 5.52721 2.04598 6.096 2.00695L6.25 2.00195H17.75ZM9 7.75195C9 7.48674 8.89464 7.23238 8.70711 7.04485C8.51957 6.85731 8.26522 6.75195 8 6.75195C7.73478 6.75195 7.48043 6.85731 7.29289 7.04485C7.10536 7.23238 7 7.48674 7 7.75195C7 8.01717 7.10536 8.27152 7.29289 8.45906C7.48043 8.6466 7.73478 8.75195 8 8.75195C8.26522 8.75195 8.51957 8.6466 8.70711 8.45906C8.89464 8.27152 9 8.01717 9 7.75195ZM11.246 7.00095C11.0471 7.00095 10.8563 7.07997 10.7157 7.22062C10.575 7.36128 10.496 7.55204 10.496 7.75095C10.496 7.94987 10.575 8.14063 10.7157 8.28128C10.8563 8.42194 11.0471 8.50095 11.246 8.50095H16.25C16.4489 8.50095 16.6397 8.42194 16.7803 8.28128C16.921 8.14063 17 7.94987 17 7.75095C17 7.55204 16.921 7.36128 16.7803 7.22062C16.6397 7.07997 16.4489 7.00095 16.25 7.00095H11.246ZM10.496 11.751C10.496 12.165 10.832 12.501 11.246 12.501H16.25C16.3485 12.501 16.446 12.4816 16.537 12.4439C16.628 12.4062 16.7107 12.3509 16.7803 12.2813C16.85 12.2116 16.9052 12.129 16.9429 12.038C16.9806 11.947 17 11.8494 17 11.751C17 11.6525 16.9806 11.5549 16.9429 11.4639C16.9052 11.3729 16.85 11.2903 16.7803 11.2206C16.7107 11.151 16.628 11.0957 16.537 11.058C16.446 11.0204 16.3485 11.001 16.25 11.001H11.246C11.0471 11.001 10.8563 11.08 10.7157 11.2206C10.575 11.3613 10.496 11.552 10.496 11.751ZM9 11.751C9 11.4857 8.89464 11.2314 8.70711 11.0438C8.51957 10.8563 8.26522 10.751 8 10.751C7.73478 10.751 7.48043 10.8563 7.29289 11.0438C7.10536 11.2314 7 11.4857 7 11.751C7 12.0162 7.10536 12.2705 7.29289 12.4581C7.48043 12.6456 7.73478 12.751 8 12.751C8.26522 12.751 8.51957 12.6456 8.70711 12.4581C8.89464 12.2705 9 12.0162 9 11.751ZM9 15.749C9 15.4837 8.89464 15.2294 8.70711 15.0418C8.51957 14.8543 8.26522 14.749 8 14.749C7.73478 14.749 7.48043 14.8543 7.29289 15.0418C7.10536 15.2294 7 15.4837 7 15.749C7 16.0142 7.10536 16.2685 7.29289 16.4561C7.48043 16.6436 7.73478 16.749 8 16.749C8.26522 16.749 8.51957 16.6436 8.70711 16.4561C8.89464 16.2685 9 16.0142 9 15.749ZM16.25 20.19L20.72 15.72C20.7892 15.6484 20.872 15.5913 20.9635 15.552C21.055 15.5127 21.1535 15.4921 21.2531 15.4913C21.3526 15.4905 21.4514 15.5095 21.5435 15.5472C21.6357 15.585 21.7194 15.6407 21.7898 15.7112C21.8602 15.7816 21.9158 15.8654 21.9535 15.9576C21.9912 16.0498 22.0101 16.1485 22.0092 16.2481C22.0083 16.3477 21.9875 16.4461 21.9482 16.5376C21.9088 16.6291 21.8517 16.7118 21.78 16.781L16.78 21.781C16.6394 21.9214 16.4488 22.0003 16.25 22.0003C16.0512 22.0003 15.8606 21.9214 15.72 21.781L13.22 19.28C13.0875 19.1378 13.0154 18.9497 13.0188 18.7554C13.0223 18.5611 13.101 18.3757 13.2384 18.2383C13.3758 18.1009 13.5612 18.0222 13.7555 18.0188C13.9498 18.0153 14.1378 18.0875 14.28 18.22L16.25 20.19Z" fill="#3B82F6"/>
</svg>
