<svg width="24" height="24" viewBox="0 0 24 24" fill="none" xmlns="http://www.w3.org/2000/svg">
<path d="M12 1.99609C17.524 1.99609 22.002 6.47409 22.002 11.9981C22.002 17.5211 17.524 21.9981 12 21.9981C6.476 21.9991 2 17.5211 2 11.9981C1.999 6.47409 6.476 1.99609 12 1.99609ZM11.996 10.2461C11.7509 10.2464 11.5145 10.3367 11.3316 10.4999C11.1488 10.663 11.0322 10.8877 11.004 11.1311L10.997 11.2471L11.001 16.7491L11.007 16.8651C11.0349 17.109 11.1516 17.3341 11.3349 17.4975C11.5181 17.6609 11.755 17.7513 12.0005 17.7513C12.246 17.7513 12.4829 17.6609 12.6661 17.4975C12.8494 17.3341 12.9661 17.109 12.994 16.8651L13 16.7481L12.996 11.2461L12.989 11.1291C12.9601 10.8859 12.8429 10.6617 12.6597 10.4991C12.4765 10.3365 12.24 10.2469 11.995 10.2471L11.996 10.2461ZM12.001 6.49709C11.6691 6.49709 11.3508 6.62895 11.1161 6.86365C10.8814 7.09835 10.7495 7.41668 10.7495 7.74859C10.7495 8.08051 10.8814 8.39884 11.1161 8.63354C11.3508 8.86824 11.6691 9.00009 12.001 9.00009C12.1653 9.00003 12.3279 8.9676 12.4797 8.90468C12.6315 8.84175 12.7693 8.74954 12.8854 8.63333C13.0016 8.51712 13.0937 8.37917 13.1565 8.22737C13.2193 8.07556 13.2516 7.91288 13.2515 7.74859C13.2514 7.58431 13.219 7.42165 13.1561 7.26989C13.0932 7.11814 13.0009 6.98027 12.8847 6.86415C12.7685 6.74803 12.6306 6.65594 12.4788 6.59313C12.327 6.53032 12.1643 6.49803 12 6.49809L12.001 6.49709Z" fill="#0F0F0F"/>
</svg>
