<svg width="24" height="24" viewBox="0 0 24 24" fill="none" xmlns="http://www.w3.org/2000/svg">
<path d="M21.068 7.75817L16.242 2.93217C15.9339 2.62411 15.5569 2.39367 15.1423 2.25986C14.7276 2.12604 14.2871 2.09267 13.857 2.1625C13.4269 2.23232 13.0196 2.40334 12.6685 2.66147C12.3175 2.9196 12.0329 3.25744 11.838 3.64717L9.403 8.51717C9.3154 8.69276 9.16246 8.82703 8.977 8.89117L4.811 10.3312C4.61075 10.4004 4.43136 10.5193 4.28971 10.6769C4.14805 10.8344 4.04876 11.0254 4.00117 11.2319C3.95358 11.4383 3.95925 11.6535 4.01764 11.8571C4.07604 12.0608 4.18524 12.2463 4.335 12.3962L7.439 15.5002L3 19.9402V21.0002H4.06L8.5 16.5602L11.604 19.6652C11.7539 19.8152 11.9394 19.9246 12.1432 19.9831C12.347 20.0416 12.5623 20.0474 12.7689 19.9998C12.9755 19.9522 13.1667 19.8528 13.3243 19.711C13.4819 19.5692 13.6009 19.3896 13.67 19.1892L15.11 15.0232C15.1739 14.8379 15.3078 14.685 15.483 14.5972L20.353 12.1622C20.7427 11.9673 21.0806 11.6826 21.3387 11.3316C21.5968 10.9806 21.7678 10.5733 21.8377 10.1432C21.9075 9.71308 21.8741 9.27256 21.7403 8.85789C21.6065 8.44323 21.3761 8.0663 21.068 7.75817Z" fill="#3B82F6"/>
</svg>
