<svg width="24" height="24" viewBox="0 0 24 24" fill="none" xmlns="http://www.w3.org/2000/svg">
<path d="M16.242 2.93283L21.068 7.75883C21.3761 8.06697 21.6065 8.4439 21.7403 8.85856C21.8741 9.27322 21.9075 9.71375 21.8377 10.1438C21.7678 10.5739 21.5968 10.9813 21.3387 11.3323C21.0806 11.6833 20.7427 11.968 20.353 12.1628L15.483 14.5978C15.3074 14.6854 15.1731 14.8384 15.109 15.0238L13.669 19.1898C13.5998 19.3901 13.4808 19.5695 13.3233 19.7111C13.1657 19.8528 12.9748 19.9521 12.7683 19.9997C12.5619 20.0473 12.3467 20.0416 12.143 19.9832C11.9394 19.9248 11.7539 19.8156 11.604 19.6658L8.5 16.5618L4.06 21.0008H3V19.9388L7.44 15.5008L4.335 12.3968C4.18501 12.247 4.0756 12.0614 4.01706 11.8576C3.95853 11.6538 3.95279 11.4385 4.0004 11.2319C4.048 11.0253 4.14738 10.8342 4.28918 10.6766C4.43098 10.5189 4.61055 10.4 4.811 10.3308L8.977 8.89183C9.16246 8.8277 9.3154 8.69343 9.403 8.51783L11.838 3.64783C12.0328 3.25793 12.3175 2.91992 12.6686 2.66166C13.0197 2.40341 13.4272 2.23231 13.8574 2.16248C14.2877 2.09265 14.7283 2.12608 15.1431 2.26002C15.5579 2.39396 15.9339 2.62457 16.242 2.93283ZM20.008 8.81883L15.182 3.99383C15.042 3.85373 14.8707 3.7489 14.6823 3.68798C14.4938 3.62706 14.2936 3.61179 14.0981 3.64343C13.9026 3.67507 13.7174 3.75272 13.5577 3.86997C13.3981 3.98722 13.2687 4.14073 13.18 4.31783L10.745 9.18883C10.4818 9.71487 10.023 10.1169 9.467 10.3088L5.678 11.6188L12.383 18.3228L13.691 14.5348C13.8829 13.9788 14.285 13.5201 14.811 13.2568L19.683 10.8208C19.8602 10.7323 20.0138 10.6029 20.1311 10.4433C20.2485 10.2837 20.3262 10.0985 20.358 9.90303C20.3897 9.70751 20.3745 9.50724 20.3137 9.31874C20.2528 9.13024 20.1481 8.95889 20.008 8.81883Z" fill="#181818"/>
</svg>
