<svg width="24" height="24" viewBox="0 0 24 24" fill="none" xmlns="http://www.w3.org/2000/svg">
<path d="M9.15307 5.40792C10.42 3.13597 11.053 2 12 2C12.947 2 13.58 3.13597 14.8469 5.40792L15.1749 5.99591C15.5349 6.64189 15.7149 6.96488 15.9949 7.17788C16.2749 7.39087 16.6249 7.46987 17.3249 7.62787L17.9609 7.77186C20.4208 8.32885 21.6498 8.60684 21.9428 9.54782C22.2348 10.4878 21.3968 11.4688 19.7198 13.4297L19.2858 13.9367C18.8098 14.4937 18.5708 14.7727 18.4638 15.1167C18.3569 15.4617 18.3928 15.8337 18.4648 16.5767L18.5308 17.2536C18.7838 19.8706 18.9108 21.1785 18.1449 21.7595C17.3789 22.3415 16.2269 21.8105 13.925 20.7506L13.328 20.4766C12.674 20.1746 12.347 20.0246 12 20.0246C11.653 20.0246 11.326 20.1746 10.671 20.4766L10.076 20.7506C7.7731 21.8105 6.62113 22.3405 5.85614 21.7605C5.08916 21.1785 5.21616 19.8706 5.46915 17.2536L5.53515 16.5777C5.60715 15.8337 5.64315 15.4617 5.53515 15.1177C5.42915 14.7727 5.19016 14.4937 4.71417 13.9377L4.28018 13.4297C2.60322 11.4698 1.76524 10.4888 2.05723 9.54782C2.35023 8.60684 3.5802 8.32785 6.04014 7.77186L6.67613 7.62787C7.37511 7.46987 7.7241 7.39087 8.00509 7.17788C8.28509 6.96488 8.46508 6.64189 8.82507 5.99591L9.15307 5.40792Z" fill="#FACC15"/>
</svg>
