<svg width="25" height="25" viewBox="0 0 25 25" fill="none" xmlns="http://www.w3.org/2000/svg">
<path d="M12.6094 2.5C10.6316 2.5 8.69817 3.08649 7.05368 4.1853C5.40918 5.28412 4.12746 6.8459 3.37058 8.67316C2.61371 10.5004 2.41567 12.5111 2.80153 14.4509C3.18738 16.3907 4.13979 18.1725 5.53831 19.5711C6.93684 20.9696 8.71867 21.922 10.6585 22.3078C12.5983 22.6937 14.609 22.4957 16.4362 21.7388C18.2635 20.9819 19.8253 19.7002 20.9241 18.0557C22.0229 16.4112 22.6094 14.4778 22.6094 12.5C22.6094 9.84783 21.5558 7.3043 19.6804 5.42893C17.8051 3.55357 15.2615 2.5 12.6094 2.5ZM19.1406 9.14375L10.9281 17.35L6.07813 12.5C5.91237 12.3342 5.81925 12.1094 5.81925 11.875C5.81925 11.6406 5.91237 11.4158 6.07813 11.25C6.24389 11.0842 6.46871 10.9911 6.70313 10.9911C6.93755 10.9911 7.16237 11.0842 7.32813 11.25L10.9406 14.8625L17.9031 7.90625C17.9852 7.82417 18.0826 7.75907 18.1899 7.71465C18.2971 7.67023 18.4121 7.64737 18.5281 7.64737C18.6442 7.64737 18.7591 7.67023 18.8664 7.71465C18.9736 7.75907 19.0711 7.82417 19.1531 7.90625C19.2352 7.98832 19.3003 8.08576 19.3447 8.193C19.3891 8.30024 19.412 8.41518 19.412 8.53125C19.412 8.64732 19.3891 8.76226 19.3447 8.8695C19.3003 8.97673 19.2352 9.07417 19.1531 9.15625L19.1406 9.14375Z" fill="#48BF84"/>
</svg>
