<svg width="25" height="24" viewBox="0 0 25 24" fill="none" xmlns="http://www.w3.org/2000/svg">
<path d="M16.8931 2H8.51312C4.87312 2 2.70312 4.17 2.70312 7.81V16.19C2.70312 19.83 4.87312 22 8.51312 22H16.8931C20.5331 22 22.7031 19.83 22.7031 16.19V7.81C22.7031 4.17 20.5331 2 16.8931 2ZM10.6731 14.9L8.42312 17.15C8.27312 17.3 8.08313 17.37 7.89313 17.37C7.70313 17.37 7.50312 17.3 7.36312 17.15L6.61312 16.4C6.31312 16.11 6.31312 15.63 6.61312 15.34C6.90312 15.05 7.37312 15.05 7.67312 15.34L7.89313 15.56L9.61312 13.84C9.90312 13.55 10.3731 13.55 10.6731 13.84C10.9631 14.13 10.9631 14.61 10.6731 14.9ZM10.6731 7.9L8.42312 10.15C8.27312 10.3 8.08313 10.37 7.89313 10.37C7.70313 10.37 7.50312 10.3 7.36312 10.15L6.61312 9.4C6.31312 9.11 6.31312 8.63 6.61312 8.34C6.90312 8.05 7.37312 8.05 7.67312 8.34L7.89313 8.56L9.61312 6.84C9.90312 6.55 10.3731 6.55 10.6731 6.84C10.9631 7.13 10.9631 7.61 10.6731 7.9ZM18.2631 16.62H13.0131C12.6031 16.62 12.2631 16.28 12.2631 15.87C12.2631 15.46 12.6031 15.12 13.0131 15.12H18.2631C18.6831 15.12 19.0131 15.46 19.0131 15.87C19.0131 16.28 18.6831 16.62 18.2631 16.62ZM18.2631 9.62H13.0131C12.6031 9.62 12.2631 9.28 12.2631 8.87C12.2631 8.46 12.6031 8.12 13.0131 8.12H18.2631C18.6831 8.12 19.0131 8.46 19.0131 8.87C19.0131 9.28 18.6831 9.62 18.2631 9.62Z" fill="#DCDCDC"/>
</svg>
