<svg width="25" height="24" viewBox="0 0 25 24" fill="none" xmlns="http://www.w3.org/2000/svg">
<path d="M15.6334 2.5V8.4C15.6334 8.84 15.1134 9.06 14.7934 8.77L13.0434 7.16C12.8534 6.98 12.5534 6.98 12.3634 7.16L10.6134 8.76C10.2934 9.06 9.77344 8.83 9.77344 8.4V2.5C9.77344 2.22 9.99344 2 10.2734 2H15.1334C15.4134 2 15.6334 2.22 15.6334 2.5Z" fill="#181818"/>
<path d="M17.6831 2.05891C17.3931 2.01891 17.1331 2.26891 17.1331 2.55891V8.57891C17.1331 9.33891 16.6831 10.0289 15.9831 10.3389C15.2831 10.6389 14.4731 10.5089 13.9131 9.98891L13.0431 9.18891C12.8531 9.00891 12.5631 9.00891 12.3631 9.18891L11.4931 9.98891C11.1331 10.3289 10.6631 10.4989 10.1931 10.4989C9.93312 10.4989 9.67313 10.4489 9.42313 10.3389C8.72313 10.0289 8.27313 9.33891 8.27313 8.57891V2.55891C8.27313 2.26891 8.01312 2.01891 7.72312 2.05891C4.92313 2.40891 3.70312 4.29891 3.70312 6.99891V16.9989C3.70312 19.9989 5.20312 21.9989 8.70312 21.9989H16.7031C20.2031 21.9989 21.7031 19.9989 21.7031 16.9989V6.99891C21.7031 4.29891 20.4831 2.40891 17.6831 2.05891ZM18.2031 18.7489H9.70312C9.29313 18.7489 8.95312 18.4089 8.95312 17.9989C8.95312 17.5889 9.29313 17.2489 9.70312 17.2489H18.2031C18.6131 17.2489 18.9531 17.5889 18.9531 17.9989C18.9531 18.4089 18.6131 18.7489 18.2031 18.7489ZM18.2031 14.7489H13.9531C13.5431 14.7489 13.2031 14.4089 13.2031 13.9989C13.2031 13.5889 13.5431 13.2489 13.9531 13.2489H18.2031C18.6131 13.2489 18.9531 13.5889 18.9531 13.9989C18.9531 14.4089 18.6131 14.7489 18.2031 14.7489Z" fill="#181818"/>
</svg>
