<svg width="16" height="17" viewBox="0 0 16 17" fill="none" xmlns="http://www.w3.org/2000/svg">
<g clip-path="url(#clip0_4831_85771)">
<mask id="mask0_4831_85771" style="mask-type:alpha" maskUnits="userSpaceOnUse" x="0" y="0" width="16" height="17">
<rect y="0.078125" width="16" height="16" fill="#D9D9D9"/>
</mask>
<g mask="url(#mask0_4831_85771)">
<path d="M1.81432 4.25937C1.66988 4.40382 1.59766 4.57049 1.59766 4.75937C1.59766 4.94826 1.66988 5.11493 1.81432 5.25938L5.84766 9.29271C5.91432 9.35938 5.98655 9.4066 6.06432 9.43437C6.1421 9.46215 6.22543 9.47604 6.31432 9.47604C6.40321 9.47604 6.48655 9.46215 6.56432 9.43437C6.6421 9.4066 6.71432 9.35938 6.78099 9.29271L8.98099 7.09271L13.2477 11.8927C13.3699 12.0372 13.5282 12.1094 13.7227 12.1094C13.9171 12.1094 14.081 12.0427 14.2143 11.9094C14.3365 11.7872 14.4004 11.6399 14.406 11.4677C14.4115 11.2955 14.3532 11.1427 14.231 11.0094L9.44766 5.62604C9.38099 5.54826 9.30599 5.48993 9.22266 5.45104C9.13932 5.41215 9.05321 5.39271 8.96432 5.39271C8.87543 5.39271 8.78932 5.40938 8.70599 5.44271C8.62266 5.47604 8.54766 5.52604 8.48099 5.59271L6.31432 7.75938L2.81432 4.25937C2.66988 4.11493 2.50321 4.04271 2.31432 4.04271C2.12543 4.04271 1.95877 4.11493 1.81432 4.25937Z" fill="white"/>
<path d="M14.0736 12.2976C14.1987 12.2975 14.3186 12.2478 14.4071 12.1593C14.4955 12.0709 14.5452 11.9509 14.5453 11.8259L14.546 9.30798C14.546 9.18275 14.4962 9.06264 14.4077 8.97409C14.3191 8.88553 14.199 8.83578 14.0738 8.83578C13.9486 8.83578 13.8284 8.88553 13.7399 8.97409C13.6513 9.06264 13.6016 9.18275 13.6016 9.30798L13.6014 10.6861L12.9338 11.3537L11.5559 11.3537C11.4939 11.3537 11.4325 11.3659 11.3752 11.3896C11.3179 11.4133 11.2659 11.4481 11.222 11.492C11.1782 11.5358 11.1434 11.5879 11.1197 11.6452C11.0959 11.7024 11.0837 11.7638 11.0837 11.8259C11.0837 11.8879 11.0959 11.9493 11.1197 12.0066C11.1434 12.0638 11.1782 12.1159 11.222 12.1598C11.2659 12.2036 11.3179 12.2384 11.3752 12.2621C11.4325 12.2858 11.4939 12.2981 11.5559 12.2981L14.0736 12.2976Z" fill="white"/>
</g>
</g>
<defs>
<clipPath id="clip0_4831_85771">
<rect width="16" height="16" fill="white" transform="translate(0 0.078125)"/>
</clipPath>
</defs>
</svg>
