<svg width="32" height="33" viewBox="0 0 32 33" fill="none" xmlns="http://www.w3.org/2000/svg">
<rect y="0.0820312" width="32" height="32" rx="8" fill="#FF6565"/>
<g clip-path="url(#clip0_4763_83236)">
<path d="M14.7596 11.5629C14.8501 11.307 15.0178 11.0855 15.2395 10.9288C15.4611 10.7721 15.7259 10.688 15.9974 10.688C16.2689 10.688 16.5336 10.7721 16.7553 10.9288C16.977 11.0855 17.1447 11.307 17.2352 11.5629C17.2544 11.6171 17.284 11.667 17.3225 11.7098C17.3609 11.7525 17.4074 11.7873 17.4592 11.812C17.5111 11.8368 17.5673 11.8511 17.6247 11.8542C17.6821 11.8572 17.7396 11.849 17.7938 11.8298C17.848 11.8107 17.8979 11.781 17.9406 11.7426C17.9833 11.7041 18.0181 11.6577 18.0429 11.6058C18.0677 11.5539 18.082 11.4977 18.085 11.4403C18.0881 11.3829 18.0798 11.3255 18.0606 11.2713C17.9098 10.8446 17.6304 10.4753 17.261 10.214C16.8915 9.95278 16.4502 9.8125 15.9977 9.8125C15.5452 9.8125 15.1038 9.95278 14.7344 10.214C14.3649 10.4753 14.0856 10.8446 13.9347 11.2713C13.9145 11.3257 13.9053 11.3836 13.9076 11.4416C13.91 11.4996 13.9238 11.5565 13.9484 11.6091C13.973 11.6617 14.0078 11.7089 14.0508 11.7479C14.0938 11.7869 14.1442 11.817 14.1989 11.8363C14.2536 11.8557 14.3117 11.8639 14.3696 11.8606C14.4276 11.8573 14.4843 11.8425 14.5365 11.8171C14.5887 11.7916 14.6353 11.7561 14.6736 11.7124C14.7119 11.6688 14.7411 11.618 14.7596 11.5629ZM10.6016 12.5838C10.6016 12.4677 10.6477 12.3564 10.7297 12.2744C10.8118 12.1924 10.923 12.1463 11.0391 12.1463H20.9557C21.0718 12.1463 21.183 12.1924 21.2651 12.2744C21.3471 12.3564 21.3932 12.4677 21.3932 12.5838C21.3932 12.6998 21.3471 12.8111 21.2651 12.8931C21.183 12.9752 21.0718 13.0213 20.9557 13.0213H11.0391C10.923 13.0213 10.8118 12.9752 10.7297 12.8931C10.6477 12.8111 10.6016 12.6998 10.6016 12.5838ZM11.9823 13.6058C12.098 13.5981 12.2121 13.6366 12.2993 13.713C12.3866 13.7893 12.44 13.8972 12.4478 14.0129L12.7161 18.0379C12.7686 18.8237 12.806 19.3708 12.8876 19.7821C12.9676 20.1817 13.0784 20.3928 13.2376 20.5422C13.3975 20.6915 13.6156 20.7883 14.0193 20.8408C14.4358 20.8951 14.9841 20.8963 15.7716 20.8963H16.2231C17.0106 20.8963 17.559 20.8951 17.9755 20.8408C18.3791 20.7883 18.5973 20.6915 18.7571 20.5422C18.9164 20.3928 19.0272 20.1817 19.1071 19.7821C19.1888 19.3708 19.2261 18.8237 19.2786 18.0379L19.547 14.0129C19.5508 13.9556 19.5659 13.8996 19.5914 13.8481C19.6169 13.7966 19.6522 13.7506 19.6955 13.7127C19.7387 13.6749 19.789 13.6459 19.8435 13.6275C19.8979 13.6091 19.9554 13.6016 20.0128 13.6055C20.0701 13.6093 20.1261 13.6244 20.1776 13.6499C20.2291 13.6753 20.2751 13.7107 20.313 13.754C20.3508 13.7972 20.3798 13.8475 20.3982 13.902C20.4166 13.9564 20.4241 14.0139 20.4202 14.0713L20.1496 18.1266C20.1 18.8744 20.0597 19.4788 19.9652 19.9536C19.8666 20.4465 19.6998 20.8583 19.3545 21.1809C19.0097 21.5041 18.5874 21.6435 18.0886 21.7083C17.6091 21.7713 17.0036 21.7713 16.2535 21.7713H15.7413C14.9911 21.7713 14.3856 21.7713 13.9061 21.7083C13.4074 21.6435 12.9851 21.5041 12.6403 21.1809C12.295 20.8583 12.1281 20.4459 12.0296 19.9536C11.9351 19.4788 11.8954 18.8744 11.8452 18.1266L11.5746 14.0713C11.5708 14.0139 11.5783 13.9564 11.5967 13.902C11.6152 13.8475 11.6441 13.7973 11.682 13.754C11.7199 13.7108 11.7659 13.6755 11.8174 13.65C11.8689 13.6246 11.925 13.6095 11.9823 13.6058Z" fill="white"/>
</g>
<defs>
<clipPath id="clip0_4763_83236">
<rect width="14" height="14" fill="white" transform="translate(9 9.08203)"/>
</clipPath>
</defs>
</svg>
