<svg width="32" height="33" viewBox="0 0 32 33" fill="none" xmlns="http://www.w3.org/2000/svg">
<rect y="0.0820312" width="32" height="32" rx="8" fill="#EBEBEB"/>
<path d="M18.6931 11.2707C18.8322 11.1316 18.9973 11.0213 19.179 10.946C19.3608 10.8708 19.5555 10.832 19.7522 10.832C19.9489 10.832 20.1437 10.8708 20.3254 10.946C20.5071 11.0213 20.6722 11.1316 20.8113 11.2707C20.9504 11.4098 21.0607 11.5749 21.136 11.7566C21.2113 11.9384 21.25 12.1331 21.25 12.3298C21.25 12.5265 21.2113 12.7213 21.136 12.903C21.0607 13.0847 20.9504 13.2498 20.8113 13.3889L13.6625 20.5377L10.75 21.332L11.5443 18.4196L18.6931 11.2707Z" stroke="#131313" stroke-width="0.75" stroke-linecap="round" stroke-linejoin="round"/>
</svg>
