<svg width="25" height="25" viewBox="0 0 25 25" fill="none" xmlns="http://www.w3.org/2000/svg">
<path fill-rule="evenodd" clip-rule="evenodd" d="M1.5625 12.5C1.5625 6.99 6.0525 2.5 11.5625 2.5C17.0725 2.5 21.5625 6.99 21.5625 12.5C21.5625 13.1278 21.5042 13.7423 21.3928 14.3385C21.3456 14.3554 21.2991 14.3741 21.2534 14.3948C21.0352 14.4937 20.8386 14.6345 20.6748 14.8093L16.5394 19.077L14.5513 17.4415C14.1875 17.139 13.7204 16.9899 13.2486 17.0255C12.7768 17.0611 12.3374 17.2786 12.023 17.6322C11.7087 17.9858 11.5442 18.4478 11.5641 18.9205C11.5841 19.3932 11.787 19.8396 12.13 20.1654L14.3623 22.1004C13.4734 22.3605 12.5338 22.5 11.5625 22.5C6.0525 22.5 1.5625 18.01 1.5625 12.5ZM15.2625 16.44C15.5225 16.44 15.7725 16.31 15.9125 16.07C16.1325 15.71 16.0125 15.25 15.6525 15.04L12.5525 13.19C12.2425 13.01 11.9425 12.48 11.9425 12.12V8.02C11.9425 7.61 11.6025 7.27 11.1925 7.27C10.7825 7.27 10.4425 7.61 10.4425 8.02V12.12C10.4425 13.01 11.0125 14.02 11.7825 14.48L14.8825 16.33C15.0025 16.41 15.1325 16.44 15.2625 16.44Z" fill="#48BF84"/>
<path d="M22.8014 17.2162C22.9245 17.0847 23.0206 16.9303 23.0841 16.7617C23.1476 16.5931 23.1773 16.4136 23.1714 16.2336C23.1656 16.0535 23.1243 15.8763 23.05 15.7122C22.9757 15.5481 22.8697 15.4002 22.7383 15.277C22.6068 15.1539 22.4524 15.0578 22.2838 14.9943C22.1152 14.9308 21.9357 14.9011 21.7556 14.907C21.5756 14.9128 21.3984 14.9541 21.2343 15.0284C21.0702 15.1027 20.9223 15.2087 20.7991 15.3401L16.5711 19.852L14.4825 17.9965C14.2088 17.769 13.8574 17.6568 13.5026 17.6836C13.1477 17.7104 12.8172 17.874 12.5808 18.14C12.3444 18.406 12.2206 18.7534 12.2356 19.109C12.2506 19.4645 12.4032 19.8003 12.6612 20.0454L15.7469 22.7882C16.0139 23.0254 16.3629 23.149 16.7196 23.1329C17.0764 23.1167 17.4128 22.9621 17.6572 22.7018L22.8014 17.2162Z" fill="#48BF84"/>
</svg>
