<svg width="25" height="25" viewBox="0 0 25 25" fill="none" xmlns="http://www.w3.org/2000/svg">
<g id="fluent:person-feedback-48-regular">
<path id="Vector" d="M16.0959 12.7773C15.9759 12.7773 15.8509 12.7573 15.7309 12.7173C15.5055 12.6456 15.3091 12.5034 15.1705 12.3117C15.0319 12.12 14.9585 11.8889 14.9609 11.6523V10.2473C13.8309 10.0673 12.9609 9.08234 12.9609 7.90234V4.65234C12.9609 3.34234 14.0259 2.27734 15.3359 2.27734H21.0859C22.3959 2.27734 23.4609 3.34234 23.4609 4.65234V7.90234C23.4609 9.21234 22.3959 10.2773 21.0859 10.2773H18.5259L16.9859 12.3273C16.7659 12.6173 16.4409 12.7773 16.0959 12.7773ZM15.3359 3.52734C14.7159 3.52734 14.2109 4.03234 14.2109 4.65234V7.90234C14.2109 8.52234 14.7159 9.02734 15.3359 9.02734H16.2109V11.2773L17.9009 9.02734H21.0909C21.7109 9.02734 22.2159 8.52234 22.2159 7.90234V4.65234C22.2159 4.03234 21.7109 3.52734 21.0909 3.52734H15.3359ZM8.96094 14.0273C6.89094 14.0273 5.21094 12.3473 5.21094 10.2773C5.21094 8.20734 6.89094 6.52734 8.96094 6.52734C11.0309 6.52734 12.7109 8.20734 12.7109 10.2773C12.7109 12.3473 11.0309 14.0273 8.96094 14.0273ZM8.96094 7.77734C7.58094 7.77734 6.46094 8.89734 6.46094 10.2773C6.46094 11.6573 7.58094 12.7773 8.96094 12.7773C10.3409 12.7773 11.4609 11.6573 11.4609 10.2773C11.4609 8.89734 10.3409 7.77734 8.96094 7.77734ZM2.46094 17.6723C2.46094 17.7173 2.53594 22.2773 8.96094 22.2773C15.3859 22.2773 15.4609 17.7173 15.4609 17.6723V17.1523C15.4609 16.1173 14.6209 15.2773 13.5859 15.2773H4.33594C3.30094 15.2773 2.46094 16.1173 2.46094 17.1523V17.6723ZM3.71094 17.1523C3.71094 16.8073 3.99094 16.5273 4.33594 16.5273H13.5859C13.9309 16.5273 14.2109 16.8073 14.2109 17.1523V17.6673C14.2109 17.8023 14.1009 21.0273 8.96094 21.0273C3.82094 21.0273 3.71094 17.8023 3.71094 17.6723V17.1523Z" fill="#181818"/>
</g>
</svg>
