<svg width="125" height="76" viewBox="0 0 125 76" fill="none" xmlns="http://www.w3.org/2000/svg">
<path d="M60.2641 70.6924C59.1094 72.6924 56.2226 72.6924 55.0679 70.6924L43.7014 51.0049C42.5467 49.0049 43.99 46.5049 46.2994 46.5049L69.0326 46.5049C71.342 46.5049 72.7854 49.0049 71.6307 51.0049L60.2641 70.6924Z" fill="#48BF84"/>
<path fill-rule="evenodd" clip-rule="evenodd" d="M90.4577 11.4424H6.29102C3.39152 11.4424 1.04102 13.7929 1.04102 16.6924V46.6924C1.04102 49.5919 3.39152 51.9424 6.29102 51.9424H109.791C112.691 51.9424 115.041 49.5919 115.041 46.6924V32.8395C112.671 34.0252 109.996 34.6924 107.166 34.6924C97.432 34.6924 89.541 26.8014 89.541 17.0674C89.541 15.1005 89.8632 13.2089 90.4577 11.4424ZM43.041 31.3174C43.041 34.424 40.5226 36.9424 37.416 36.9424C34.3094 36.9424 31.791 34.424 31.791 31.3174C31.791 28.2108 34.3094 25.6924 37.416 25.6924C40.5226 25.6924 43.041 28.2108 43.041 31.3174ZM57.666 36.9424C60.7726 36.9424 63.291 34.424 63.291 31.3174C63.291 28.2108 60.7726 25.6924 57.666 25.6924C54.5594 25.6924 52.041 28.2108 52.041 31.3174C52.041 34.424 54.5594 36.9424 57.666 36.9424ZM83.541 31.3174C83.541 34.424 81.0226 36.9424 77.916 36.9424C74.8094 36.9424 72.291 34.424 72.291 31.3174C72.291 28.2108 74.8094 25.6924 77.916 25.6924C81.0226 25.6924 83.541 28.2108 83.541 31.3174Z" fill="#48BF84"/>
<path d="M107.249 31.2844C115.054 31.2844 121.381 24.9573 121.381 17.1525C121.381 9.34759 115.054 3.02051 107.249 3.02051C99.4443 3.02051 93.1172 9.34759 93.1172 17.1525C93.1172 24.9573 99.4443 31.2844 107.249 31.2844Z" stroke="#48BF84" stroke-width="2.82639" stroke-linecap="round" stroke-linejoin="round"/>
<path d="M107.25 8.66895V17.1481L112.903 19.9745" stroke="#48BF84" stroke-width="2.82639" stroke-linecap="round" stroke-linejoin="round"/>
</svg>
