<svg width="25" height="25" viewBox="0 0 25 25" fill="none" xmlns="http://www.w3.org/2000/svg">
<g id="game-icons:progression">
<path id="Vector" d="M22.2047 1.88672L15.2953 4.48125L17.775 6.04453C13.3453 11.6227 6.9375 15.0586 1.52344 16.3664L3.05719 19.1602C9.14063 17.1773 15.5813 13.6008 19.7297 7.28203L21.6188 8.47266L22.2047 1.88672ZM22.5656 7.35703L22.3406 9.92578L19.9359 8.40703C19.8516 8.53359 19.7625 8.65547 19.6734 8.78203V23.7633H23.3297V7.35703H22.5656ZM15.5063 13.357C14.9109 13.8727 14.2969 14.3602 13.6734 14.8195V23.7633H17.3297V13.357H15.5063ZM9.70781 17.2945C9.03281 17.6508 8.35781 17.9789 7.67344 18.2883V23.7633H11.3297V17.2945H9.70781ZM1.67344 19.357V23.7633H5.32969V19.357H5.06344C4.36875 19.6148 3.67453 19.8539 2.98453 20.0742L2.65359 20.1773L2.20359 19.357H1.67344Z" fill="#48BF84"/>
</g>
</svg>
