<svg width="16" height="17" viewBox="0 0 16 17" fill="none" xmlns="http://www.w3.org/2000/svg">
<g clip-path="url(#clip0_4831_85767)">
<mask id="mask0_4831_85767" style="mask-type:alpha" maskUnits="userSpaceOnUse" x="0" y="0" width="16" height="17">
<rect y="0.078125" width="16" height="16" fill="#D9D9D9"/>
</mask>
<g mask="url(#mask0_4831_85767)">
<path d="M2.50729 13.2456C2.36285 13.1011 2.29063 12.9345 2.29063 12.7456C2.29063 12.5567 2.36285 12.39 2.50729 12.2456L6.54063 8.21224C6.60729 8.14557 6.67951 8.09835 6.75729 8.07057C6.83507 8.0428 6.9184 8.02891 7.00729 8.02891C7.09618 8.02891 7.17951 8.0428 7.25729 8.07057C7.33507 8.09835 7.40729 8.14557 7.47396 8.21224L9.67396 10.4122L13.9406 5.61224C14.0628 5.46779 14.2212 5.39557 14.4156 5.39557C14.6101 5.39557 14.774 5.46224 14.9073 5.59557C15.0295 5.7178 15.0934 5.86502 15.099 6.03724C15.1045 6.20946 15.0462 6.36224 14.924 6.49557L10.1406 11.8789C10.074 11.9567 9.99896 12.015 9.91563 12.0539C9.83229 12.0928 9.74618 12.1122 9.65729 12.1122C9.5684 12.1122 9.48229 12.0956 9.39896 12.0622C9.31563 12.0289 9.24063 11.9789 9.17396 11.9122L7.00729 9.74557L3.50729 13.2456C3.36285 13.39 3.19618 13.4622 3.00729 13.4622C2.8184 13.4622 2.65174 13.39 2.50729 13.2456ZM2.67396 8.94557C2.6184 8.94557 2.56285 8.93168 2.50729 8.90391C2.45174 8.87613 2.40729 8.82891 2.37396 8.76224L2.04063 8.04557L1.32396 7.71224C1.25729 7.67891 1.21007 7.63446 1.18229 7.57891C1.15451 7.52335 1.14062 7.46779 1.14062 7.41224C1.14062 7.35668 1.15451 7.30113 1.18229 7.24557C1.21007 7.19002 1.25729 7.14557 1.32396 7.11224L2.04063 6.77891L2.37396 6.06224C2.40729 5.99557 2.45174 5.94835 2.50729 5.92057C2.56285 5.89279 2.6184 5.87891 2.67396 5.87891C2.72951 5.87891 2.78507 5.89279 2.84063 5.92057C2.89618 5.94835 2.94063 5.99557 2.97396 6.06224L3.30729 6.77891L4.02396 7.11224C4.14618 7.16779 4.20729 7.26779 4.20729 7.41224C4.20729 7.55668 4.14618 7.65668 4.02396 7.71224L3.30729 8.04557L2.97396 8.76224C2.94063 8.82891 2.89618 8.87613 2.84063 8.90391C2.78507 8.93168 2.72951 8.94557 2.67396 8.94557ZM10.0073 7.61224C9.95174 7.61224 9.89618 7.59835 9.84063 7.57057C9.78507 7.5428 9.74063 7.49557 9.70729 7.42891L9.37396 6.71224L8.65729 6.37891C8.59063 6.34557 8.5434 6.30113 8.51563 6.24557C8.48785 6.19002 8.47396 6.13446 8.47396 6.07891C8.47396 6.02335 8.48785 5.9678 8.51563 5.91224C8.5434 5.85668 8.59063 5.81224 8.65729 5.77891L9.37396 5.44557L9.70729 4.72891C9.74063 4.66224 9.78507 4.61502 9.84063 4.58724C9.89618 4.55946 9.95174 4.54557 10.0073 4.54557C10.0628 4.54557 10.1184 4.55946 10.174 4.58724C10.2295 4.61502 10.274 4.66224 10.3073 4.72891L10.6406 5.44557L11.3573 5.77891C11.424 5.81224 11.4712 5.85668 11.499 5.91224C11.5267 5.9678 11.5406 6.02335 11.5406 6.07891C11.5406 6.13446 11.5267 6.19002 11.499 6.24557C11.4712 6.30113 11.424 6.34557 11.3573 6.37891L10.6406 6.71224L10.3073 7.42891C10.274 7.49557 10.2295 7.5428 10.174 7.57057C10.1184 7.59835 10.0628 7.61224 10.0073 7.61224ZM5.67396 5.61224C5.6184 5.61224 5.56285 5.59557 5.50729 5.56224C5.45174 5.52891 5.40729 5.47891 5.37396 5.41224L4.94063 4.47891L4.00729 4.04557C3.94063 4.01224 3.89063 3.96779 3.85729 3.91224C3.82396 3.85668 3.80729 3.80113 3.80729 3.74557C3.80729 3.69002 3.82396 3.63446 3.85729 3.57891C3.89063 3.52335 3.94063 3.47891 4.00729 3.44557L4.94063 3.01224L5.37396 2.07891C5.40729 2.01224 5.45174 1.96224 5.50729 1.92891C5.56285 1.89557 5.6184 1.87891 5.67396 1.87891C5.72951 1.87891 5.78507 1.89557 5.84063 1.92891C5.89618 1.96224 5.94063 2.01224 5.97396 2.07891L6.40729 3.01224L7.34063 3.44557C7.40729 3.47891 7.45729 3.52335 7.49063 3.57891C7.52396 3.63446 7.54063 3.69002 7.54063 3.74557C7.54063 3.80113 7.52396 3.85668 7.49063 3.91224C7.45729 3.96779 7.40729 4.01224 7.34063 4.04557L6.40729 4.47891L5.97396 5.41224C5.94063 5.47891 5.89618 5.52891 5.84063 5.56224C5.78507 5.59557 5.72951 5.61224 5.67396 5.61224Z" fill="white"/>
<path d="M15.6492 5.33659C15.6491 5.2115 15.5994 5.09155 15.5109 5.0031C15.4225 4.91465 15.3025 4.86492 15.1774 4.86484L12.6595 4.86417C12.5343 4.86417 12.4142 4.91392 12.3256 5.00248C12.2371 5.09103 12.1873 5.21114 12.1873 5.33637C12.1873 5.46161 12.2371 5.58171 12.3256 5.67027C12.4142 5.75882 12.5343 5.80857 12.6595 5.80857L14.0376 5.80879L14.7052 6.47637L14.7052 7.85424C14.7052 7.91625 14.7174 7.97766 14.7412 8.03495C14.7649 8.09224 14.7997 8.14429 14.8435 8.18814C14.8874 8.23199 14.9394 8.26677 14.9967 8.2905C15.054 8.31423 15.1154 8.32644 15.1774 8.32644C15.2394 8.32644 15.3008 8.31423 15.3581 8.2905C15.4154 8.26677 15.4675 8.23199 15.5113 8.18814C15.5552 8.14429 15.5899 8.09224 15.6137 8.03495C15.6374 7.97766 15.6496 7.91625 15.6496 7.85424L15.6492 5.33659Z" fill="white"/>
</g>
</g>
<defs>
<clipPath id="clip0_4831_85767">
<rect width="16" height="16" fill="white" transform="translate(0 0.078125)"/>
</clipPath>
</defs>
</svg>
