<svg width="25" height="25" viewBox="0 0 25 25" fill="none" xmlns="http://www.w3.org/2000/svg">
<g id="info">
<path id="Vector" d="M12.7808 2.7168C18.3048 2.7168 22.7828 7.1948 22.7828 12.7188C22.7828 18.2418 18.3048 22.7188 12.7808 22.7188C7.25676 22.7198 2.78076 18.2418 2.78076 12.7188C2.77976 7.1948 7.25676 2.7168 12.7808 2.7168ZM12.7768 10.9668C12.5317 10.9671 12.2953 11.0574 12.1124 11.2206C11.9295 11.3837 11.8129 11.6084 11.7848 11.8518L11.7778 11.9678L11.7818 17.4698L11.7878 17.5858C11.8157 17.8297 11.9324 18.0548 12.1156 18.2182C12.2988 18.3817 12.5358 18.472 12.7813 18.472C13.0268 18.472 13.2637 18.3817 13.4469 18.2182C13.6301 18.0548 13.7468 17.8297 13.7748 17.5858L13.7808 17.4688L13.7768 11.9668L13.7698 11.8498C13.7409 11.6066 13.6237 11.3824 13.4405 11.2198C13.2572 11.0572 13.0207 10.9676 12.7758 10.9678L12.7768 10.9668ZM12.7818 7.2178C12.4498 7.2178 12.1315 7.34965 11.8968 7.58435C11.6621 7.81905 11.5303 8.13738 11.5303 8.4693C11.5303 8.80122 11.6621 9.11954 11.8968 9.35424C12.1315 9.58894 12.4498 9.7208 12.7818 9.7208C12.946 9.72073 13.1087 9.68831 13.2605 9.62538C13.4122 9.56245 13.5501 9.47025 13.6662 9.35403C13.7823 9.23782 13.8744 9.09987 13.9372 8.94807C14 8.79627 14.0323 8.63358 14.0323 8.4693C14.0322 8.30501 13.9998 8.14235 13.9368 7.9906C13.8739 7.83884 13.7817 7.70097 13.6655 7.58485C13.5493 7.46873 13.4113 7.37664 13.2595 7.31383C13.1077 7.25102 12.945 7.21873 12.7808 7.2188L12.7818 7.2178Z" fill="#0F0F0F"/>
</g>
</svg>
