<svg width="365" height="209" viewBox="0 0 365 209" fill="none" xmlns="http://www.w3.org/2000/svg">
<g clip-path="url(#clip0_5052_89284)">
<rect width="15.1733" height="11.6446" rx="4" transform="matrix(0.766044 0.642788 0.642788 -0.766044 316.08 151.262)" fill="#0AB6ED"/>
<rect width="15.1733" height="11.6446" rx="4" transform="matrix(0.939693 -0.34202 -0.34202 -0.939693 338.414 115.406)" fill="#8C37F9"/>
<rect width="17.4132" height="17.4132" rx="2" transform="matrix(0.970044 0.242928 0.242928 -0.970044 80.998 129.891)" fill="#FFA623"/>
<rect width="17.4132" height="17.4132" rx="2" transform="matrix(0.970044 0.242928 0.242928 -0.970044 220.998 4.89062)" fill="#FF5050"/>
<rect width="8.20752" height="8.20752" rx="2" transform="matrix(-0.930241 -0.366949 -0.366949 0.930241 292.363 173.379)" fill="#FF5050"/>
<rect width="8.20752" height="8.20752" rx="2" transform="matrix(0.996195 -0.0871557 -0.0871557 -0.996195 37.2451 167.469)" fill="#FFDD50"/>
<rect width="8.20752" height="8.20752" rx="2" transform="matrix(0.970044 0.242928 0.242928 -0.970044 177.998 30.0078)" fill="#FFA623"/>
<path d="M165.473 159C166.242 160.333 168.167 160.333 168.937 159L171.535 154.5C172.305 153.167 171.342 151.5 169.803 151.5H164.606C163.067 151.5 162.105 153.167 162.874 154.5L165.473 159Z" fill="#E87B9A"/>
<path d="M262.867 33C263.637 34.3333 265.561 34.3333 266.331 33L268.929 28.5C269.699 27.1667 268.737 25.5 267.197 25.5H262.001C260.461 25.5 259.499 27.1667 260.269 28.5L262.867 33Z" fill="#FA759B"/>
<path d="M224.295 190.361C223.705 188.939 221.797 188.689 220.86 189.911L217.699 194.035C216.763 195.257 217.5 197.034 219.027 197.234L224.179 197.91C225.705 198.11 226.876 196.582 226.286 195.16L224.295 190.361Z" fill="#0AB6ED"/>
<path d="M274.899 118.009C276.618 119.553 279.173 118.623 279.498 116.335L280.593 108.612C280.917 106.324 278.768 104.394 276.724 105.138L269.826 107.648C267.782 108.392 267.377 111.252 269.096 112.797L274.899 118.009Z" fill="#FF5050"/>
<path d="M287.431 10.7003C288.833 11.9603 290.918 11.2016 291.183 9.33471L292.076 3.03392C292.341 1.16702 290.587 -0.407932 288.92 0.199006L283.292 2.24742C281.624 2.85436 281.293 5.18799 282.696 6.44795L287.431 10.7003Z" fill="#8C37F9"/>
<path d="M359.819 14.8794C361.963 15.7425 364.046 13.9949 363.568 11.7337L361.956 4.10225C361.478 1.84108 358.798 0.762222 357.132 2.1603L351.509 6.87881C349.843 8.27689 350.44 11.1033 352.583 11.9664L359.819 14.8794Z" fill="#FFDD50"/>
<circle cx="9.5" cy="9.5" r="7.5" transform="matrix(1 0 0 -1 78.6035 209)" stroke="#8C37F9" stroke-width="4"/>
<circle cx="9.5" cy="9.5" r="7.5" transform="matrix(1 0 0 -1 35.998 116)" stroke="#57D3FB" stroke-width="4"/>
<path d="M93.0204 -3.8068C93.0204 -2.70223 93.9158 -1.8068 95.0204 -1.8068C96.125 -1.8068 97.0204 -2.70223 97.0204 -3.8068V-20.8068C97.0204 -21.9114 96.125 -22.8068 95.0204 -22.8068C93.9158 -22.8068 93.0204 -21.9114 93.0204 -20.8068V-3.8068Z" fill="#FF5050"/>
<path d="M110.974 2.91393C110.11 3.60262 109.968 4.86098 110.657 5.72457C111.346 6.58816 112.604 6.72994 113.468 6.04125L126.759 -4.55807C127.622 -5.24676 127.764 -6.50513 127.075 -7.36871C126.387 -8.2323 125.128 -8.37408 124.265 -7.6854L110.974 2.91393Z" fill="#FF5050"/>
<path d="M116.914 21.1394C115.837 20.8937 114.765 21.5674 114.519 22.6443C114.273 23.7211 114.947 24.7934 116.024 25.0392L132.598 28.822C133.675 29.0678 134.747 28.3941 134.993 27.3172C135.239 26.2403 134.565 25.1681 133.488 24.9223L116.914 21.1394Z" fill="#FF5050"/>
<path d="M106.368 37.1473C105.888 36.1521 104.693 35.7339 103.698 36.2132C102.703 36.6924 102.284 37.8877 102.764 38.8829L110.14 54.1993C110.619 55.1945 111.814 55.6128 112.809 55.1335C113.805 54.6543 114.223 53.459 113.744 52.4638L106.368 37.1473Z" fill="#FF5050"/>
<path d="M87.2767 38.8817C87.756 37.8865 87.3377 36.6913 86.3426 36.212C85.3474 35.7327 84.1521 36.151 83.6728 37.1462L76.2968 52.4626C75.8176 53.4578 76.2358 54.6531 77.231 55.1323C78.2262 55.6116 79.4214 55.1934 79.9007 54.1982L87.2767 38.8817Z" fill="#FF5050"/>
<path d="M74.0173 25.0379C75.0942 24.7921 75.7679 23.7199 75.5221 22.643C75.2763 21.5661 74.2041 20.8924 73.1272 21.1382L56.5534 24.921C55.4766 25.1668 54.8028 26.239 55.0486 27.3159C55.2944 28.3928 56.3667 29.0665 57.4435 28.8207L74.0173 25.0379Z" fill="#FF5050"/>
<path d="M76.573 6.03893C77.4366 6.72762 78.695 6.58583 79.3837 5.72224C80.0724 4.85866 79.9306 3.60029 79.067 2.9116L65.7759 -7.68773C64.9123 -8.37641 63.6539 -8.23463 62.9652 -7.37104C62.2765 -6.50745 62.4183 -5.24908 63.2819 -4.5604L76.573 6.03893Z" fill="#FF5050"/>
<path d="M191.59 83.8872C191.59 84.4618 192.056 84.9277 192.631 84.9277C193.205 84.9277 193.671 84.4618 193.671 83.8872V75.0429C193.671 74.4682 193.205 74.0024 192.631 74.0024C192.056 74.0024 191.59 74.4682 191.59 75.0429V83.8872Z" fill="#F47A8C"/>
<path d="M200.93 87.3838C200.481 87.7421 200.407 88.3967 200.766 88.846C201.124 89.2953 201.779 89.3691 202.228 89.0108L209.143 83.4965C209.592 83.1382 209.666 82.4835 209.307 82.0342C208.949 81.5849 208.294 81.5112 207.845 81.8695L200.93 87.3838Z" fill="#F47A8C"/>
<path d="M204.02 96.8625C203.46 96.7346 202.902 97.0851 202.775 97.6454C202.647 98.2056 202.997 98.7634 203.557 98.8913L212.18 100.859C212.74 100.987 213.298 100.637 213.426 100.076C213.554 99.5162 213.203 98.9584 212.643 98.8305L204.02 96.8625Z" fill="#F47A8C"/>
<path d="M198.534 105.192C198.284 104.674 197.663 104.456 197.145 104.706C196.627 104.955 196.41 105.577 196.659 106.095L200.496 114.063C200.746 114.581 201.367 114.798 201.885 114.549C202.403 114.3 202.621 113.678 202.371 113.16L198.534 105.192Z" fill="#F47A8C"/>
<path d="M188.602 106.094C188.851 105.576 188.633 104.954 188.116 104.705C187.598 104.456 186.976 104.673 186.727 105.191L182.889 113.16C182.64 113.677 182.858 114.299 183.375 114.548C183.893 114.798 184.515 114.58 184.764 114.062L188.602 106.094Z" fill="#F47A8C"/>
<path d="M181.703 98.8915C182.264 98.7636 182.614 98.2058 182.486 97.6455C182.358 97.0853 181.801 96.7348 181.24 96.8626L172.618 98.8307C172.058 98.9585 171.707 99.5164 171.835 100.077C171.963 100.637 172.521 100.987 173.081 100.86L181.703 98.8915Z" fill="#F47A8C"/>
<path d="M183.033 89.0064C183.483 89.3647 184.137 89.291 184.496 88.8417C184.854 88.3924 184.78 87.7377 184.331 87.3794L177.416 81.8651C176.967 81.5068 176.312 81.5806 175.954 82.0299C175.596 82.4792 175.669 83.1338 176.119 83.4921L183.033 89.0064Z" fill="#F47A8C"/>
<path d="M314.124 47.1311C314.124 47.8945 314.739 48.5133 315.498 48.5133C316.257 48.5133 316.872 47.8945 316.872 47.1311V35.3822C316.872 34.6188 316.257 34 315.498 34C314.739 34 314.124 34.6188 314.124 35.3822V47.1311Z" fill="#F47A8C"/>
<path d="M326.46 51.776C325.867 52.252 325.769 53.1217 326.242 53.7185C326.716 54.3153 327.58 54.4133 328.174 53.9374L337.306 46.6121C337.9 46.1361 337.997 45.2664 337.524 44.6696C337.051 44.0728 336.186 43.9748 335.593 44.4507L326.46 51.776Z" fill="#F47A8C"/>
<path d="M330.541 64.3677C329.801 64.1978 329.065 64.6634 328.896 65.4077C328.727 66.1519 329.19 66.8929 329.93 67.0628L341.318 69.6772C342.058 69.847 342.794 69.3814 342.963 68.6372C343.132 67.893 342.669 67.1519 341.929 66.9821L330.541 64.3677Z" fill="#F47A8C"/>
<path d="M323.295 75.4324C322.966 74.7446 322.144 74.4556 321.46 74.7868C320.777 75.118 320.489 75.9441 320.819 76.6318L325.887 87.2172C326.216 87.905 327.037 88.194 327.721 87.8628C328.405 87.5316 328.692 86.7055 328.363 86.0177L323.295 75.4324Z" fill="#F47A8C"/>
<path d="M310.177 76.631C310.507 75.9432 310.219 75.1171 309.535 74.7859C308.852 74.4547 308.03 74.7438 307.701 75.4315L302.633 86.0169C302.303 86.7047 302.591 87.5307 303.275 87.862C303.958 88.1932 304.78 87.9041 305.109 87.2163L310.177 76.631Z" fill="#F47A8C"/>
<path d="M301.066 67.063C301.806 66.8932 302.269 66.1521 302.1 65.4079C301.931 64.6636 301.195 64.198 300.455 64.3679L289.067 66.9823C288.327 67.1521 287.864 67.8932 288.033 68.6374C288.202 69.3816 288.938 69.8473 289.678 69.6774L301.066 67.063Z" fill="#F47A8C"/>
<path d="M302.823 53.9316C303.416 54.4076 304.281 54.3096 304.754 53.7127C305.227 53.1159 305.13 52.2462 304.537 51.7703L295.404 44.445C294.811 43.969 293.946 44.067 293.473 44.6638C293 45.2607 293.097 46.1304 293.69 46.6063L302.823 53.9316Z" fill="#F47A8C"/>
<path d="M2.34153 117.425C2.51106 117.891 3.02391 118.132 3.48701 117.963C3.95011 117.795 4.18809 117.28 4.01855 116.814L1.40932 109.646C1.23978 109.18 0.726935 108.939 0.263838 109.107C-0.199258 109.276 -0.437238 109.79 -0.267703 110.256L2.34153 117.425Z" fill="#57D3FB"/>
<path d="M10.9002 117.519C10.6439 117.942 10.7776 118.494 11.1988 118.753C11.6201 119.012 12.1695 118.88 12.4258 118.458L16.3714 111.96C16.6277 111.538 16.494 110.985 16.0728 110.726C15.6515 110.467 15.1021 110.599 14.8458 111.022L10.9002 117.519Z" fill="#57D3FB"/>
<path d="M16.1868 124.296C15.6976 124.357 15.3515 124.805 15.4137 125.296C15.476 125.788 15.923 126.137 16.4122 126.076L23.9415 125.143C24.4307 125.082 24.7768 124.634 24.7146 124.143C24.6523 123.651 24.2053 123.302 23.7161 123.362L16.1868 124.296Z" fill="#57D3FB"/>
<path d="M14.2226 132.657C13.8689 132.31 13.3036 132.316 12.9599 132.67C12.6162 133.024 12.6243 133.592 12.978 133.939L18.4213 139.272C18.775 139.618 19.3403 139.612 19.684 139.258C20.0276 138.905 20.0195 138.337 19.6659 137.99L14.2226 132.657Z" fill="#57D3FB"/>
<path d="M6.48477 136.301C6.53295 135.809 6.17415 135.368 5.68335 135.318C5.19256 135.268 4.75563 135.627 4.70744 136.119L3.96584 143.704C3.91766 144.197 4.27646 144.637 4.76726 144.687C5.25805 144.737 5.69498 144.379 5.74317 143.886L6.48477 136.301Z" fill="#57D3FB"/>
<path d="M-1.19928 132.487C-0.785518 132.219 -0.667623 131.664 -0.935955 131.247C-1.20429 130.831 -1.75723 130.71 -2.171 130.978L-8.53903 135.102C-8.95279 135.37 -9.07069 135.925 -8.80236 136.342C-8.53402 136.758 -7.98108 136.879 -7.56732 136.611L-1.19928 132.487Z" fill="#57D3FB"/>
<path d="M-3.04378 124.084C-2.57601 124.243 -2.07019 123.991 -1.91401 123.522C-1.75782 123.052 -2.0104 122.543 -2.47817 122.385L-9.67738 119.943C-10.1451 119.785 -10.651 120.036 -10.8072 120.506C-10.9633 120.975 -10.7108 121.484 -10.243 121.643L-3.04378 124.084Z" fill="#57D3FB"/>
</g>
<path d="M115.127 173.232C112.432 173.94 110.222 171.044 111.615 168.632L138.691 121.735C139.557 120.235 141.475 119.721 142.975 120.587L171.944 137.313C173.444 138.179 173.958 140.097 173.092 141.596L145.944 188.619C144.561 191.013 140.982 190.577 140.215 187.92L135.359 171.085C134.887 169.45 133.196 168.49 131.55 168.922L115.127 173.232Z" fill="#463BC3"/>
<path d="M248.395 168.525C251.089 169.233 253.299 166.337 251.906 163.925L224.83 117.028C223.964 115.528 222.047 115.014 220.547 115.88L191.577 132.606C190.077 133.472 189.563 135.39 190.429 136.889L217.578 183.912C218.96 186.306 222.54 185.87 223.306 183.213L228.163 166.378C228.635 164.743 230.325 163.783 231.972 164.215L248.395 168.525Z" fill="#463BC3"/>
<path d="M198.988 33.2958C203.432 31.6135 208.413 33.7254 210.293 38.0892L218.408 56.9253C219.151 58.6482 220.419 60.0919 222.033 61.0496L239.669 71.5187C243.755 73.9441 245.21 79.155 242.97 83.3457L233.303 101.435C232.419 103.089 232.081 104.981 232.339 106.84L235.15 127.156C235.801 131.863 232.634 136.249 227.961 137.111L207.791 140.832C205.946 141.172 204.257 142.088 202.964 143.447L188.833 158.312C185.559 161.756 180.155 162.014 176.568 158.898L161.083 145.449C159.667 144.219 157.897 143.468 156.028 143.306L135.596 141.526C130.862 141.113 127.291 137.049 127.49 132.302L128.351 111.81C128.43 109.936 127.913 108.084 126.875 106.522L115.528 89.4369C112.899 85.4789 113.849 80.153 117.685 77.349L134.243 65.2455C135.758 64.1384 136.883 62.5802 137.458 60.7943L143.74 41.2701C145.195 36.7469 149.952 34.1696 154.536 35.4204L174.322 40.8195C176.132 41.3134 178.052 41.2216 179.807 40.5574L198.988 33.2958Z" fill="url(#paint0_linear_5052_89284)"/>
<path d="M176.59 72.6595C177.695 70.1808 181.213 70.1808 182.318 72.6595L186.514 82.0726C186.97 83.095 187.936 83.7968 189.049 83.9143L199.298 84.9961C201.997 85.2809 203.084 88.6269 201.068 90.4437L193.412 97.3431C192.581 98.0924 192.212 99.2281 192.444 100.323L194.582 110.405C195.145 113.059 192.299 115.127 189.948 113.772L181.021 108.622C180.051 108.063 178.857 108.063 177.887 108.622L168.96 113.772C166.609 115.127 163.763 113.059 164.326 110.405L166.464 100.323C166.697 99.2281 166.328 98.0924 165.496 97.3431L157.84 90.4437C155.824 88.6269 156.911 85.2809 159.61 84.9961L169.859 83.9143C170.972 83.7968 171.939 83.095 172.394 82.0726L176.59 72.6595Z" fill="#FFEFB9"/>
<circle cx="179.454" cy="94.4566" r="41.8085" stroke="url(#paint1_linear_5052_89284)" stroke-width="5.22606"/>
<defs>
<linearGradient id="paint0_linear_5052_89284" x1="206.932" y1="30.2885" x2="152.355" y2="159.002" gradientUnits="userSpaceOnUse">
<stop stop-color="#FFDD77"/>
<stop offset="1" stop-color="#FFBB3E"/>
</linearGradient>
<linearGradient id="paint1_linear_5052_89284" x1="179.454" y1="50.0352" x2="179.454" y2="138.878" gradientUnits="userSpaceOnUse">
<stop stop-color="#FDC745"/>
<stop offset="1" stop-color="#FEA421"/>
</linearGradient>
<clipPath id="clip0_5052_89284">
<rect width="364" height="209" fill="white" transform="matrix(1 0 0 -1 0.998047 209)"/>
</clipPath>
</defs>
</svg>
