<svg width="24" height="25" viewBox="0 0 24 25" fill="none" xmlns="http://www.w3.org/2000/svg">
<g id="m_calendar_black">
<g id="calendar">
<path id="Vector" d="M16.7502 4.49359V2.93359C16.7502 2.52359 16.4102 2.18359 16.0002 2.18359C15.5902 2.18359 15.2502 2.52359 15.2502 2.93359V4.43359H8.75023V2.93359C8.75023 2.52359 8.41023 2.18359 8.00023 2.18359C7.59023 2.18359 7.25023 2.52359 7.25023 2.93359V4.49359C4.55023 4.74359 3.24023 6.35359 3.04023 8.74359C3.02023 9.03359 3.26023 9.27359 3.54023 9.27359H20.4602C20.7502 9.27359 20.9902 9.02359 20.9602 8.74359C20.7602 6.35359 19.4502 4.74359 16.7502 4.49359Z" fill="#48BF84"/>
<path id="Vector_2" d="M20 10.7734H4C3.45 10.7734 3 11.2234 3 11.7734V17.9334C3 20.9334 4.5 22.9334 8 22.9334H16C19.5 22.9334 21 20.9334 21 17.9334V11.7734C21 11.2234 20.55 10.7734 20 10.7734ZM9.21 19.1434C9.16 19.1834 9.11 19.2334 9.06 19.2634C9 19.3034 8.94 19.3334 8.88 19.3534C8.82 19.3834 8.76 19.4034 8.7 19.4134C8.63 19.4234 8.57 19.4334 8.5 19.4334C8.37 19.4334 8.24 19.4034 8.12 19.3534C7.99 19.3034 7.89 19.2334 7.79 19.1434C7.61 18.9534 7.5 18.6934 7.5 18.4334C7.5 18.1734 7.61 17.9134 7.79 17.7234C7.89 17.6334 7.99 17.5634 8.12 17.5134C8.3 17.4334 8.5 17.4134 8.7 17.4534C8.76 17.4634 8.82 17.4834 8.88 17.5134C8.94 17.5334 9 17.5634 9.06 17.6034C9.11 17.6434 9.16 17.6834 9.21 17.7234C9.39 17.9134 9.5 18.1734 9.5 18.4334C9.5 18.6934 9.39 18.9534 9.21 19.1434ZM9.21 15.6434C9.02 15.8234 8.76 15.9334 8.5 15.9334C8.24 15.9334 7.98 15.8234 7.79 15.6434C7.61 15.4534 7.5 15.1934 7.5 14.9334C7.5 14.6734 7.61 14.4134 7.79 14.2234C8.07 13.9434 8.51 13.8534 8.88 14.0134C9.01 14.0634 9.12 14.1334 9.21 14.2234C9.39 14.4134 9.5 14.6734 9.5 14.9334C9.5 15.1934 9.39 15.4534 9.21 15.6434ZM12.71 19.1434C12.52 19.3234 12.26 19.4334 12 19.4334C11.74 19.4334 11.48 19.3234 11.29 19.1434C11.11 18.9534 11 18.6934 11 18.4334C11 18.1734 11.11 17.9134 11.29 17.7234C11.66 17.3534 12.34 17.3534 12.71 17.7234C12.89 17.9134 13 18.1734 13 18.4334C13 18.6934 12.89 18.9534 12.71 19.1434ZM12.71 15.6434C12.66 15.6834 12.61 15.7234 12.56 15.7634C12.5 15.8034 12.44 15.8334 12.38 15.8534C12.32 15.8834 12.26 15.9034 12.2 15.9134C12.13 15.9234 12.07 15.9334 12 15.9334C11.74 15.9334 11.48 15.8234 11.29 15.6434C11.11 15.4534 11 15.1934 11 14.9334C11 14.6734 11.11 14.4134 11.29 14.2234C11.38 14.1334 11.49 14.0634 11.62 14.0134C11.99 13.8534 12.43 13.9434 12.71 14.2234C12.89 14.4134 13 14.6734 13 14.9334C13 15.1934 12.89 15.4534 12.71 15.6434ZM16.21 19.1434C16.02 19.3234 15.76 19.4334 15.5 19.4334C15.24 19.4334 14.98 19.3234 14.79 19.1434C14.61 18.9534 14.5 18.6934 14.5 18.4334C14.5 18.1734 14.61 17.9134 14.79 17.7234C15.16 17.3534 15.84 17.3534 16.21 17.7234C16.39 17.9134 16.5 18.1734 16.5 18.4334C16.5 18.6934 16.39 18.9534 16.21 19.1434ZM16.21 15.6434C16.16 15.6834 16.11 15.7234 16.06 15.7634C16 15.8034 15.94 15.8334 15.88 15.8534C15.82 15.8834 15.76 15.9034 15.7 15.9134C15.63 15.9234 15.56 15.9334 15.5 15.9334C15.24 15.9334 14.98 15.8234 14.79 15.6434C14.61 15.4534 14.5 15.1934 14.5 14.9334C14.5 14.6734 14.61 14.4134 14.79 14.2234C14.89 14.1334 14.99 14.0634 15.12 14.0134C15.3 13.9334 15.5 13.9134 15.7 13.9534C15.76 13.9634 15.82 13.9834 15.88 14.0134C15.94 14.0334 16 14.0634 16.06 14.1034C16.11 14.1434 16.16 14.1834 16.21 14.2234C16.39 14.4134 16.5 14.6734 16.5 14.9334C16.5 15.1934 16.39 15.4534 16.21 15.6434Z" fill="#48BF84"/>
</g>
</g>
</svg>
