<svg width="25" height="25" viewBox="0 0 25 25" fill="none" xmlns="http://www.w3.org/2000/svg">
<mask id="mask0_4612_80677" style="mask-type:alpha" maskUnits="userSpaceOnUse" x="0" y="0" width="25" height="25">
<rect x="0.4375" y="0.5" width="24" height="24" fill="#D9D9D9"/>
</mask>
<g mask="url(#mask0_4612_80677)">
<path d="M6.4375 22.5C5.8875 22.5 5.41667 22.3042 5.025 21.9125C4.63333 21.5208 4.4375 21.05 4.4375 20.5V4.5C4.4375 3.95 4.63333 3.47917 5.025 3.0875C5.41667 2.69583 5.8875 2.5 6.4375 2.5H13.6125C13.8792 2.5 14.1333 2.55 14.375 2.65C14.6167 2.75 14.8292 2.89167 15.0125 3.075L19.8625 7.925C20.0458 8.10833 20.1875 8.32083 20.2875 8.5625C20.3875 8.80417 20.4375 9.05833 20.4375 9.325V20.5C20.4375 21.05 20.2417 21.5208 19.85 21.9125C19.4583 22.3042 18.9875 22.5 18.4375 22.5H6.4375ZM13.4375 8.5C13.4375 8.78333 13.5333 9.02083 13.725 9.2125C13.9167 9.40417 14.1542 9.5 14.4375 9.5H18.4375L13.4375 4.5V8.5ZM11.3625 15.625L9.9625 14.225C9.8625 14.125 9.75417 14.05 9.6375 14C9.52083 13.95 9.4 13.925 9.275 13.925C9.15 13.925 9.025 13.95 8.9 14C8.775 14.05 8.6625 14.125 8.5625 14.225C8.3625 14.425 8.2625 14.6625 8.2625 14.9375C8.2625 15.2125 8.3625 15.45 8.5625 15.65L10.6875 17.8C10.7875 17.9 10.8958 17.9708 11.0125 18.0125C11.1292 18.0542 11.2542 18.075 11.3875 18.075C11.5208 18.075 11.6458 18.0542 11.7625 18.0125C11.8792 17.9708 11.9875 17.9 12.0875 17.8L16.3125 13.575C16.5125 13.375 16.6125 13.1333 16.6125 12.85C16.6125 12.5667 16.5125 12.325 16.3125 12.125C16.1125 11.925 15.8708 11.825 15.5875 11.825C15.3042 11.825 15.0625 11.925 14.8625 12.125L11.3625 15.625Z" fill="#48BF84"/>
</g>
</svg>
