<svg width="24" height="25" viewBox="0 0 24 25" fill="none" xmlns="http://www.w3.org/2000/svg">
<g id="vuesax/bold/archive-book">
<g id="vuesax/bold/archive-book_2">
<g id="archive-book">
<path id="Vector" d="M14.9303 2.75V8.65C14.9303 9.09 14.4103 9.31 14.0903 9.02L12.3403 7.41C12.1503 7.23 11.8503 7.23 11.6603 7.41L9.91031 9.01C9.59031 9.31 9.07031 9.08 9.07031 8.65V2.75C9.07031 2.47 9.29031 2.25 9.57031 2.25H14.4303C14.7103 2.25 14.9303 2.47 14.9303 2.75Z" fill="#48BF84"/>
<path id="Vector_2" d="M16.98 2.30891C16.69 2.26891 16.43 2.51891 16.43 2.80891V8.82891C16.43 9.58891 15.98 10.2789 15.28 10.5889C14.58 10.8889 13.77 10.7589 13.21 10.2389L12.34 9.43891C12.15 9.25891 11.86 9.25891 11.66 9.43891L10.79 10.2389C10.43 10.5789 9.96 10.7489 9.49 10.7489C9.23 10.7489 8.97 10.6989 8.72 10.5889C8.02 10.2789 7.57 9.58891 7.57 8.82891V2.80891C7.57 2.51891 7.31 2.26891 7.02 2.30891C4.22 2.65891 3 4.54891 3 7.24891V17.2489C3 20.2489 4.5 22.2489 8 22.2489H16C19.5 22.2489 21 20.2489 21 17.2489V7.24891C21 4.54891 19.78 2.65891 16.98 2.30891ZM17.5 18.9989H9C8.59 18.9989 8.25 18.6589 8.25 18.2489C8.25 17.8389 8.59 17.4989 9 17.4989H17.5C17.91 17.4989 18.25 17.8389 18.25 18.2489C18.25 18.6589 17.91 18.9989 17.5 18.9989ZM17.5 14.9989H13.25C12.84 14.9989 12.5 14.6589 12.5 14.2489C12.5 13.8389 12.84 13.4989 13.25 13.4989H17.5C17.91 13.4989 18.25 13.8389 18.25 14.2489C18.25 14.6589 17.91 14.9989 17.5 14.9989Z" fill="#48BF84"/>
</g>
</g>
</g>
</svg>
