<svg xmlns="http://www.w3.org/2000/svg" width="24" height="23" viewBox="0 0 24 23" fill="none">
  <path d="M12.8107 7.98633H10.7617V11.19H12.8107C13.3297 11.19 13.7332 11.0595 14.0212 10.7988C14.3092 10.5382 14.4528 10.125 14.4528 9.5587C14.4528 8.99245 14.3088 8.58895 14.0212 8.34783C13.7336 8.1067 13.3297 7.98633 12.8107 7.98633Z" fill="#FF6565"/>
  <path d="M12.2324 0.287109C6.01942 0.287109 0.982422 5.32411 0.982422 11.5371C0.982422 17.7501 6.01942 22.7871 12.2324 22.7871C18.4458 22.7871 23.4828 17.7501 23.4828 11.5371C23.4828 5.32411 18.4458 0.287109 12.2324 0.287109ZM15.7567 12.268C15.1195 12.7997 14.2098 13.0649 13.0278 13.0649H10.7624V16.9776H8.5038V6.09661H13.1755C14.2525 6.09661 15.1113 6.37711 15.7518 6.93811C16.3919 7.49911 16.7125 8.36798 16.7125 9.54398C16.7122 10.828 16.3938 11.7362 15.7567 12.268Z" fill="#FF6565"/>
</svg>