<svg width="25" height="25" viewBox="0 0 25 25" fill="none" xmlns="http://www.w3.org/2000/svg">
<g id="reset">
<path id="Vector" d="M14.2808 21.7188C16.0608 21.7188 17.8009 21.1909 19.2809 20.202C20.7609 19.213 21.9145 17.8074 22.5957 16.1629C23.2769 14.5184 23.4551 12.7088 23.1078 10.9629C22.7606 9.21711 21.9034 7.61347 20.6447 6.35479C19.386 5.09612 17.7824 4.23895 16.0366 3.89169C14.2907 3.54442 12.4811 3.72265 10.8366 4.40384C9.19207 5.08503 7.78647 6.23858 6.79753 7.71862C5.8086 9.19866 5.28076 10.9387 5.28076 12.7188V17.3688L2.58076 14.6688L1.53076 15.7188L6.03076 20.2188L10.5308 15.7188L9.48076 14.6688L6.78076 17.3688V12.7188C6.78076 11.2354 7.22063 9.78535 8.04474 8.55198C8.86885 7.31861 10.0402 6.35731 11.4106 5.78966C12.7811 5.222 14.2891 5.07348 15.7439 5.36286C17.1988 5.65225 18.5352 6.36656 19.5841 7.41545C20.633 8.46435 21.3473 9.80072 21.6367 11.2556C21.926 12.7104 21.7775 14.2184 21.2099 15.5889C20.6422 16.9593 19.6809 18.1307 18.4475 18.9548C17.2142 19.7789 15.7641 20.2188 14.2808 20.2188V21.7188Z" fill="black"/>
</g>
</svg>
