<svg width="27" height="23" viewBox="0 0 27 23" fill="none" xmlns="http://www.w3.org/2000/svg">
<path d="M24.5633 4.71031L19.23 8.52365C18.5233 9.03031 17.51 8.72365 17.2033 7.91031L14.6833 1.19031C14.2566 0.0303126 12.6166 0.0303126 12.19 1.19031L9.65665 7.89698C9.34998 8.72365 8.34998 9.03031 7.64331 8.51031L2.30998 4.69698C1.24331 3.95031 -0.17002 5.00365 0.26998 6.24365L5.81665 21.777C6.00331 22.3103 6.50998 22.657 7.06998 22.657H19.7766C20.3366 22.657 20.8433 22.297 21.03 21.777L26.5766 6.24365C27.03 5.00365 25.6166 3.95031 24.5633 4.71031ZM16.7633 17.017H10.0966C9.54998 17.017 9.09665 16.5636 9.09665 16.017C9.09665 15.4703 9.54998 15.017 10.0966 15.017H16.7633C17.31 15.017 17.7633 15.4703 17.7633 16.017C17.7633 16.5636 17.31 17.017 16.7633 17.017Z" fill="#8492A6"/>
</svg>
