<svg width="32" height="33" viewBox="0 0 32 33" fill="none" xmlns="http://www.w3.org/2000/svg">
<path d="M22.6693 29.6836H9.33594C8.78927 29.6836 8.33594 29.2303 8.33594 28.6836C8.33594 28.1369 8.78927 27.6836 9.33594 27.6836H22.6693C23.2159 27.6836 23.6693 28.1369 23.6693 28.6836C23.6693 29.2303 23.2159 29.6836 22.6693 29.6836Z" fill="white"/>
<path d="M27.1336 7.71031L21.8003 11.5236C21.0936 12.0303 20.0803 11.7236 19.7736 10.9103L17.2536 4.19031C16.827 3.03031 15.187 3.03031 14.7603 4.19031L12.227 10.897C11.9203 11.7236 10.9203 12.0303 10.2136 11.5103L4.88029 7.69698C3.81363 6.95031 2.40029 8.00365 2.84029 9.24365L8.38696 24.777C8.57363 25.3103 9.08029 25.657 9.64029 25.657H22.347C22.907 25.657 23.4136 25.297 23.6003 24.777L29.147 9.24365C29.6003 8.00365 28.187 6.95031 27.1336 7.71031ZM19.3336 20.017H12.667C12.1203 20.017 11.667 19.5636 11.667 19.017C11.667 18.4703 12.1203 18.017 12.667 18.017H19.3336C19.8803 18.017 20.3336 18.4703 20.3336 19.017C20.3336 19.5636 19.8803 20.017 19.3336 20.017Z" fill="white"/>
</svg>
