<svg width="21" height="21" viewBox="0 0 21 21" fill="none" xmlns="http://www.w3.org/2000/svg">
<path id="Vector" d="M14.7525 0.0234375H6.3725C2.7325 0.0234375 0.5625 2.19344 0.5625 5.83344V14.2034C0.5625 17.8534 2.7325 20.0234 6.3725 20.0234H14.7425C18.3825 20.0234 20.5525 17.8534 20.5525 14.2134V5.83344C20.5625 2.19344 18.3925 0.0234375 14.7525 0.0234375ZM13.3525 10.5534L9.8225 14.0834C9.6725 14.2334 9.4825 14.3034 9.2925 14.3034C9.1025 14.3034 8.9125 14.2334 8.7625 14.0834C8.4725 13.7934 8.4725 13.3134 8.7625 13.0234L11.7625 10.0234L8.7625 7.02344C8.4725 6.73344 8.4725 6.25344 8.7625 5.96344C9.0525 5.67344 9.5325 5.67344 9.8225 5.96344L13.3525 9.49344C13.6525 9.78344 13.6525 10.2634 13.3525 10.5534Z" fill="#48BF84"/>
</svg>
