<svg width="17" height="16" viewBox="0 0 17 16" fill="none" xmlns="http://www.w3.org/2000/svg">
<g id="sun" clip-path="url(#clip0_6_9793)">
<path id="Vector" d="M8.507 11.1766C10.2635 11.1766 11.6873 9.75271 11.6873 7.99626C11.6873 6.2398 10.2635 4.81592 8.507 4.81592C6.75055 4.81592 5.32666 6.2398 5.32666 7.99626C5.32666 9.75271 6.75055 11.1766 8.507 11.1766Z" stroke="#FDB022" stroke-width="1.27214" stroke-linecap="round" stroke-linejoin="round"/>
<path id="Vector_2" d="M8.51099 0.997559V2.26904" stroke="#FDB022" stroke-width="1.27214" stroke-linecap="round" stroke-linejoin="round"/>
<path id="Vector_3" d="M8.51099 13.7202V14.9917" stroke="#FDB022" stroke-width="1.27214" stroke-linecap="round" stroke-linejoin="round"/>
<path id="Vector_4" d="M3.55933 3.04858L4.46254 3.9518" stroke="#FDB022" stroke-width="1.27214" stroke-linecap="round" stroke-linejoin="round"/>
<path id="Vector_5" d="M12.553 12.0422L13.4562 12.9455" stroke="#FDB022" stroke-width="1.27214" stroke-linecap="round" stroke-linejoin="round"/>
<path id="Vector_6" d="M1.5083 8.00024H2.77979" stroke="#FDB022" stroke-width="1.27214" stroke-linecap="round" stroke-linejoin="round"/>
<path id="Vector_7" d="M14.231 8.00024H15.5024" stroke="#FDB022" stroke-width="1.27214" stroke-linecap="round" stroke-linejoin="round"/>
<path id="Vector_8" d="M3.55933 12.9455L4.46254 12.0422" stroke="#FDB022" stroke-width="1.27214" stroke-linecap="round" stroke-linejoin="round"/>
<path id="Vector_9" d="M12.553 3.9518L13.4562 3.04858" stroke="#FDB022" stroke-width="1.27214" stroke-linecap="round" stroke-linejoin="round"/>
</g>
<defs>
<clipPath id="clip0_6_9793">
<rect width="15.2656" height="15.2656" fill="white" transform="translate(0.867188 0.36377)"/>
</clipPath>
</defs>
</svg>
