<svg width="17" height="16" viewBox="0 0 17 16" fill="none" xmlns="http://www.w3.org/2000/svg">
<g id="sun" clip-path="url(#clip0_12_9929)">
<path id="Vector" d="M8.507 11.1773C10.2635 11.1773 11.6873 9.75344 11.6873 7.99699C11.6873 6.24054 10.2635 4.81665 8.507 4.81665C6.75055 4.81665 5.32666 6.24054 5.32666 7.99699C5.32666 9.75344 6.75055 11.1773 8.507 11.1773Z" stroke="#FF6565" stroke-width="1.27214" stroke-linecap="round" stroke-linejoin="round"/>
<path id="Vector_2" d="M8.51099 0.998291V2.26978" stroke="#FF6565" stroke-width="1.27214" stroke-linecap="round" stroke-linejoin="round"/>
<path id="Vector_3" d="M8.51099 13.7209V14.9924" stroke="#FF6565" stroke-width="1.27214" stroke-linecap="round" stroke-linejoin="round"/>
<path id="Vector_4" d="M3.55933 3.04932L4.46254 3.95253" stroke="#FF6565" stroke-width="1.27214" stroke-linecap="round" stroke-linejoin="round"/>
<path id="Vector_5" d="M12.553 12.043L13.4562 12.9462" stroke="#FF6565" stroke-width="1.27214" stroke-linecap="round" stroke-linejoin="round"/>
<path id="Vector_6" d="M1.5083 8.00098H2.77979" stroke="#FF6565" stroke-width="1.27214" stroke-linecap="round" stroke-linejoin="round"/>
<path id="Vector_7" d="M14.231 8.00098H15.5024" stroke="#FF6565" stroke-width="1.27214" stroke-linecap="round" stroke-linejoin="round"/>
<path id="Vector_8" d="M3.55933 12.9462L4.46254 12.043" stroke="#FF6565" stroke-width="1.27214" stroke-linecap="round" stroke-linejoin="round"/>
<path id="Vector_9" d="M12.553 3.95253L13.4562 3.04932" stroke="#FF6565" stroke-width="1.27214" stroke-linecap="round" stroke-linejoin="round"/>
</g>
<defs>
<clipPath id="clip0_12_9929">
<rect width="15.2656" height="15.2656" fill="white" transform="translate(0.867188 0.364502)"/>
</clipPath>
</defs>
</svg>
