<svg width="25" height="25" viewBox="0 0 25 25" fill="none" xmlns="http://www.w3.org/2000/svg">
<path d="M18.1875 2.5C18.7576 2.49993 19.3065 2.7163 19.7233 3.10537C20.14 3.49444 20.3935 4.02721 20.4325 4.596L20.4375 4.749V14.877C20.3175 14.957 20.2025 15.051 20.0965 15.157L16.6875 18.565L15.7795 17.655C15.3802 17.2547 14.8445 17.02 14.2795 16.998H16.6875C16.8864 16.998 17.0772 16.919 17.2178 16.7783C17.3585 16.6377 17.4375 16.4469 17.4375 16.248C17.4375 16.0491 17.3585 15.8583 17.2178 15.7177C17.0772 15.577 16.8864 15.498 16.6875 15.498H11.6835C11.4846 15.498 11.2938 15.577 11.1532 15.7177C11.0125 15.8583 10.9335 16.0491 10.9335 16.248C10.9335 16.4469 11.0125 16.6377 11.1532 16.7783C11.2938 16.919 11.4846 16.998 11.6835 16.998H14.0965C13.6598 17.0159 13.2378 17.1606 12.882 17.4143C12.5262 17.6681 12.252 18.02 12.093 18.4271C11.9339 18.8341 11.8968 19.2787 11.9862 19.7065C12.0756 20.1343 12.2877 20.5268 12.5965 20.836L14.2545 22.499H6.6875C6.11737 22.4991 5.56848 22.2827 5.15175 21.8936C4.73501 21.5046 4.48152 20.9718 4.4425 20.403L4.4375 20.249V4.75C4.43743 4.17987 4.6538 3.63098 5.04287 3.21425C5.43194 2.79751 5.96471 2.54402 6.5335 2.505L6.6875 2.5H18.1875ZM9.4375 8.25C9.4375 7.98478 9.33214 7.73043 9.14461 7.54289C8.95707 7.35536 8.70272 7.25 8.4375 7.25C8.17228 7.25 7.91793 7.35536 7.73039 7.54289C7.54286 7.73043 7.4375 7.98478 7.4375 8.25C7.4375 8.51522 7.54286 8.76957 7.73039 8.95711C7.91793 9.14464 8.17228 9.25 8.4375 9.25C8.70272 9.25 8.95707 9.14464 9.14461 8.95711C9.33214 8.76957 9.4375 8.51522 9.4375 8.25ZM11.6835 7.499C11.4846 7.499 11.2938 7.57802 11.1532 7.71867C11.0125 7.85932 10.9335 8.05009 10.9335 8.249C10.9335 8.44791 11.0125 8.63868 11.1532 8.77933C11.2938 8.91998 11.4846 8.999 11.6835 8.999H16.6875C16.8864 8.999 17.0772 8.91998 17.2178 8.77933C17.3585 8.63868 17.4375 8.44791 17.4375 8.249C17.4375 8.05009 17.3585 7.85932 17.2178 7.71867C17.0772 7.57802 16.8864 7.499 16.6875 7.499H11.6835ZM10.9335 12.249C10.9335 12.663 11.2695 12.999 11.6835 12.999H16.6875C16.786 12.999 16.8835 12.9796 16.9745 12.9419C17.0655 12.9042 17.1482 12.849 17.2178 12.7793C17.2875 12.7097 17.3427 12.627 17.3804 12.536C17.4181 12.445 17.4375 12.3475 17.4375 12.249C17.4375 12.1505 17.4181 12.053 17.3804 11.962C17.3427 11.871 17.2875 11.7883 17.2178 11.7187C17.1482 11.649 17.0655 11.5938 16.9745 11.5561C16.8835 11.5184 16.786 11.499 16.6875 11.499H11.6835C11.4846 11.499 11.2938 11.578 11.1532 11.7187C11.0125 11.8593 10.9335 12.0501 10.9335 12.249ZM9.4375 12.249C9.4375 11.9838 9.33214 11.7294 9.14461 11.5419C8.95707 11.3544 8.70272 11.249 8.4375 11.249C8.17228 11.249 7.91793 11.3544 7.73039 11.5419C7.54286 11.7294 7.4375 11.9838 7.4375 12.249C7.4375 12.5142 7.54286 12.7686 7.73039 12.9561C7.91793 13.1436 8.17228 13.249 8.4375 13.249C8.70272 13.249 8.95707 13.1436 9.14461 12.9561C9.33214 12.7686 9.4375 12.5142 9.4375 12.249ZM9.4375 16.247C9.4375 15.9818 9.33214 15.7274 9.14461 15.5399C8.95707 15.3524 8.70272 15.247 8.4375 15.247C8.17228 15.247 7.91793 15.3524 7.73039 15.5399C7.54286 15.7274 7.4375 15.9818 7.4375 16.247C7.4375 16.5122 7.54286 16.7666 7.73039 16.9541C7.91793 17.1416 8.17228 17.247 8.4375 17.247C8.70272 17.247 8.95707 17.1416 9.14461 16.9541C9.33214 16.7666 9.4375 16.5122 9.4375 16.247ZM16.6875 20.688L21.1575 16.218C21.2267 16.1464 21.3095 16.0893 21.401 16.05C21.4925 16.0108 21.591 15.9901 21.6906 15.9893C21.7901 15.9885 21.8889 16.0075 21.981 16.0453C22.0732 16.083 22.1569 16.1388 22.2273 16.2092C22.2977 16.2797 22.3533 16.3634 22.391 16.4556C22.4287 16.5478 22.4476 16.6466 22.4467 16.7462C22.4458 16.8457 22.425 16.9441 22.3857 17.0356C22.3463 17.1271 22.2892 17.2098 22.2175 17.279L17.2175 22.279C17.0769 22.4195 16.8863 22.4983 16.6875 22.4983C16.4887 22.4983 16.2981 22.4195 16.1575 22.279L13.6575 19.778C13.525 19.6358 13.4529 19.4478 13.4563 19.2535C13.4598 19.0592 13.5385 18.8738 13.6759 18.7364C13.8133 18.599 13.9987 18.5203 14.193 18.5168C14.3873 18.5134 14.5753 18.5855 14.7175 18.718L16.6875 20.688Z" fill="#48BF84"/>
</svg>
