<svg xmlns="http://www.w3.org/2000/svg" width="24" height="23" viewBox="0 0 24 23" fill="none">
<path d="M12.0625 0.287109C5.8495 0.287109 0.8125 5.32411 0.8125 11.5371C0.8125 17.7501 5.8495 22.7871 12.0625 22.7871C18.2755 22.7871 23.3125 17.7501 23.3125 11.5371C23.3125 5.32411 18.2755 0.287109 12.0625 0.287109ZM16.429 12.6441C16.429 13.8006 16.2494 14.7014 15.8912 15.346C15.2226 16.5269 13.948 17.1179 12.0659 17.1179C10.1841 17.1179 8.90688 16.5272 8.23375 15.346C7.87488 14.7014 7.696 13.8006 7.696 12.6441V5.95636H10.006V12.6389C10.006 13.3862 10.0945 13.9319 10.2711 14.2761C10.5456 14.8859 11.1441 15.1907 12.0655 15.1907C12.9824 15.1907 13.5786 14.8859 13.8535 14.2761C14.0301 13.9319 14.1179 13.3862 14.1179 12.6389V5.95636H16.4286L16.429 12.6441Z" fill="#FF6565"/>
</svg>