<svg width="328" height="242" viewBox="0 0 328 242" fill="none" xmlns="http://www.w3.org/2000/svg">
<g clip-path="url(#clip0_4184_81816)">
<path d="M16.6641 147.81V144.822H20.0576V148.363" stroke="#263238" stroke-linecap="round" stroke-linejoin="round"/>
<path d="M20.0583 150.932V159.965H18.8828" stroke="#263238" stroke-linecap="round" stroke-linejoin="round"/>
<path d="M18.1404 159.977H16.6641V154.268" stroke="#263238" stroke-linecap="round" stroke-linejoin="round"/>
<path d="M16.6641 151.683V149.283" stroke="#263238" stroke-linecap="round" stroke-linejoin="round"/>
<path d="M24.0938 146.516V144.822H27.4803V147.992" stroke="#263238" stroke-linecap="round" stroke-linejoin="round"/>
<path d="M27.4844 151.686V154.638" stroke="#263238" stroke-linecap="round" stroke-linejoin="round"/>
<path d="M27.4803 156.112V159.975H24.0938V147.807" stroke="#263238" stroke-linecap="round" stroke-linejoin="round"/>
<path d="M304.766 140.33H307.257" stroke="#263238" stroke-linecap="round" stroke-linejoin="round"/>
<path d="M309.977 140.33H314.693V155.22H310.886" stroke="#263238" stroke-linecap="round" stroke-linejoin="round"/>
<path d="M307.718 155.221H299.797V148.924" stroke="#263238" stroke-linecap="round" stroke-linejoin="round"/>
<path d="M299.797 147.312V140.314H302.743" stroke="#263238" stroke-linecap="round" stroke-linejoin="round"/>
<path d="M11.6562 212.502H327.938" stroke="#263238" stroke-linecap="round" stroke-linejoin="round"/>
<path d="M254.165 233.495C233.209 233.495 233.209 241.66 129.092 241.66C63.3757 241.66 38.76 238.861 41.041 233.264C41.4468 232.277 47.6183 229.226 41.1809 227.785C37.6194 226.98 24.297 226.344 21.2043 223.867C17.6358 220.998 28.2014 217.912 46.7436 217.912" stroke="#263238" stroke-width="2" stroke-linecap="round" stroke-linejoin="round"/>
<path d="M282.098 54.9512H57.4991C56.162 54.9512 55.0781 56.0351 55.0781 57.3722V208.873C55.0781 210.21 56.162 211.294 57.4991 211.294H282.098C283.436 211.294 284.519 210.21 284.519 208.873V57.3722C284.519 56.0351 283.436 54.9512 282.098 54.9512Z" fill="#263238"/>
<path d="M281.682 61.8066H57.9219V200.846H281.682V61.8066Z" fill="white" stroke="#263238" stroke-linecap="round" stroke-linejoin="round"/>
<path d="M175.894 204.338H163.705C163.307 204.338 162.984 204.661 162.984 205.059V206.171C162.984 206.569 163.307 206.892 163.705 206.892H175.894C176.292 206.892 176.615 206.569 176.615 206.171V205.059C176.615 204.661 176.292 204.338 175.894 204.338Z" fill="white"/>
<path d="M169.795 60.0451C170.804 60.0451 171.621 59.2274 171.621 58.2188C171.621 57.2102 170.804 56.3926 169.795 56.3926C168.786 56.3926 167.969 57.2102 167.969 58.2188C167.969 59.2274 168.786 60.0451 169.795 60.0451Z" fill="white"/>
<path d="M208.695 181.158V188.456L214.097 184.811L208.695 181.158Z" stroke="#263238" stroke-linecap="round" stroke-linejoin="round"/>
<path d="M214.406 181.158V188.456L219.808 184.811L214.406 181.158Z" stroke="#263238" stroke-linecap="round" stroke-linejoin="round"/>
<path d="M166.995 188.456V181.158L161.586 184.811L166.995 188.456Z" stroke="#263238" stroke-linecap="round" stroke-linejoin="round"/>
<path d="M161.289 181.158V188.456" stroke="#263238" stroke-linecap="round" stroke-linejoin="round"/>
<path d="M159.742 181.158V188.456" stroke="#263238" stroke-linecap="round" stroke-linejoin="round"/>
<path d="M227.586 181.158V188.456L232.995 184.811L227.586 181.158Z" stroke="#263238" stroke-linecap="round" stroke-linejoin="round"/>
<path d="M233.289 188.456V181.158" stroke="#263238" stroke-linecap="round" stroke-linejoin="round"/>
<path d="M234.836 188.456V181.158" stroke="#263238" stroke-linecap="round" stroke-linejoin="round"/>
<path d="M185.885 188.456V181.158L180.477 184.811L185.885 188.456Z" stroke="#263238" stroke-linecap="round" stroke-linejoin="round"/>
<path d="M180.175 188.456V181.158L174.773 184.811L180.175 188.456Z" stroke="#263238" stroke-linecap="round" stroke-linejoin="round"/>
<path d="M194.586 181.158V188.456L199.988 184.811L194.586 181.158Z" stroke="#263238" stroke-linecap="round" stroke-linejoin="round"/>
<path opacity="0.5" d="M280.383 62.8535H59.2188V67.6465H280.383V62.8535Z" fill="#48BF84"/>
<path d="M59.2188 67.6426H280.383" stroke="#263238" stroke-linecap="round" stroke-linejoin="round"/>
<path d="M63.2812 65.1309H70.4463" stroke="#263238" stroke-linecap="round" stroke-linejoin="round"/>
<path d="M78.2734 65.1309H84.7178" stroke="#263238" stroke-linecap="round" stroke-linejoin="round"/>
<path d="M93.0781 65.1309H99.3475" stroke="#263238" stroke-linecap="round" stroke-linejoin="round"/>
<path d="M113.146 67.6426H109.836V199.775H113.146V67.6426Z" fill="#263238"/>
<path d="M112.215 114.146H110.767C110.253 114.146 109.836 114.563 109.836 115.077V122.361C109.836 122.875 110.253 123.292 110.767 123.292H112.215C112.729 123.292 113.146 122.875 113.146 122.361V115.077C113.146 114.563 112.729 114.146 112.215 114.146Z" fill="#48BF84" stroke="#263238" stroke-linecap="round" stroke-linejoin="round"/>
<path d="M274.465 74.041H120.109V175.674H274.465V74.041Z" fill="#263238"/>
<path d="M188.68 116.244V133.471L205.906 124.858L188.68 116.244Z" fill="#48BF84" stroke="#263238" stroke-linecap="round" stroke-linejoin="round"/>
<path opacity="0.5" d="M80.65 72.7051H64.1719V83.5576H80.65V72.7051Z" fill="black"/>
<path d="M70.5938 76.3066V79.9521L74.2322 78.1259L70.5938 76.3066Z" fill="#263238"/>
<g opacity="0.5">
<path d="M63.7421 72.7051H62.6016V73.6567H63.7421V72.7051Z" fill="black"/>
<path d="M63.7421 74.3535H62.6016V75.3051H63.7421V74.3535Z" fill="black"/>
<path d="M63.7421 76.0059H62.6016V76.9575H63.7421V76.0059Z" fill="black"/>
<path d="M63.7421 77.6504H62.6016V78.602H63.7421V77.6504Z" fill="black"/>
<path d="M63.7421 79.3027H62.6016V80.2543H63.7421V79.3027Z" fill="black"/>
<path d="M63.7421 80.9551H62.6016V81.9067H63.7421V80.9551Z" fill="black"/>
<path d="M63.7421 82.6035H62.6016V83.5551H63.7421V82.6035Z" fill="black"/>
<path d="M82.2186 72.7051H81.0781V73.6567H82.2186V72.7051Z" fill="black"/>
<path d="M82.2186 74.3535H81.0781V75.3051H82.2186V74.3535Z" fill="black"/>
<path d="M82.2186 76.0098H81.0781V76.9614H82.2186V76.0098Z" fill="black"/>
<path d="M82.2186 77.6504H81.0781V78.602H82.2186V77.6504Z" fill="black"/>
<path d="M82.2186 79.3027H81.0781V80.2543H82.2186V79.3027Z" fill="black"/>
<path d="M82.2186 80.9551H81.0781V81.9067H82.2186V80.9551Z" fill="black"/>
<path d="M82.2186 82.6035H81.0781V83.5551H82.2186V82.6035Z" fill="black"/>
</g>
<path d="M67.8828 86.1426H76.937" stroke="#263238" stroke-linecap="round" stroke-linejoin="round"/>
<path opacity="0.5" d="M103.775 72.7051H87.2969V83.5576H103.775V72.7051Z" fill="black"/>
<path d="M93.7109 76.3066V79.9521L97.3564 78.1259L93.7109 76.3066Z" fill="#263238"/>
<g opacity="0.5">
<path d="M86.8593 72.7051H85.7188V73.6567H86.8593V72.7051Z" fill="black"/>
<path d="M86.8593 74.3535H85.7188V75.3051H86.8593V74.3535Z" fill="black"/>
<path d="M86.8593 76.0059H85.7188V76.9575H86.8593V76.0059Z" fill="black"/>
<path d="M86.8593 77.6504H85.7188V78.602H86.8593V77.6504Z" fill="black"/>
<path d="M86.8593 79.3027H85.7188V80.2543H86.8593V79.3027Z" fill="black"/>
<path d="M86.8593 80.9551H85.7188V81.9067H86.8593V80.9551Z" fill="black"/>
<path d="M86.8593 82.6035H85.7188V83.5551H86.8593V82.6035Z" fill="black"/>
<path d="M105.336 72.7051H104.195V73.6567H105.336V72.7051Z" fill="black"/>
<path d="M105.336 74.3535H104.195V75.3051H105.336V74.3535Z" fill="black"/>
<path d="M105.336 76.0098H104.195V76.9614H105.336V76.0098Z" fill="black"/>
<path d="M105.336 77.6504H104.195V78.602H105.336V77.6504Z" fill="black"/>
<path d="M105.336 79.3027H104.195V80.2543H105.336V79.3027Z" fill="black"/>
<path d="M105.336 80.9551H104.195V81.9067H105.336V80.9551Z" fill="black"/>
<path d="M105.336 82.6035H104.195V83.5551H105.336V82.6035Z" fill="black"/>
</g>
<path d="M91.0078 86.1426H100.055" stroke="#263238" stroke-linecap="round" stroke-linejoin="round"/>
<path opacity="0.5" d="M80.65 91.1543H64.1719V102.007H80.65V91.1543Z" fill="black"/>
<path d="M70.5938 94.7559V98.3943L74.2322 96.5751L70.5938 94.7559Z" fill="#263238"/>
<g opacity="0.5">
<path d="M63.7421 91.1543H62.6016V92.1059H63.7421V91.1543Z" fill="black"/>
<path d="M63.7421 92.7988H62.6016V93.7504H63.7421V92.7988Z" fill="black"/>
<path d="M63.7421 94.4512H62.6016V95.4028H63.7421V94.4512Z" fill="black"/>
<path d="M63.7421 96.1035H62.6016V97.0551H63.7421V96.1035Z" fill="black"/>
<path d="M63.7421 97.752H62.6016V98.7036H63.7421V97.752Z" fill="black"/>
<path d="M63.7421 99.3965H62.6016V100.348H63.7421V99.3965Z" fill="black"/>
<path d="M63.7421 101.049H62.6016V102H63.7421V101.049Z" fill="black"/>
<path d="M82.2186 91.1543H81.0781V92.1059H82.2186V91.1543Z" fill="black"/>
<path d="M82.2186 92.7988H81.0781V93.7504H82.2186V92.7988Z" fill="black"/>
<path d="M82.2186 94.4473H81.0781V95.3989H82.2186V94.4473Z" fill="black"/>
<path d="M82.2186 96.1035H81.0781V97.0551H82.2186V96.1035Z" fill="black"/>
<path d="M82.2186 97.752H81.0781V98.7036H82.2186V97.752Z" fill="black"/>
<path d="M82.2186 99.3965H81.0781V100.348H82.2186V99.3965Z" fill="black"/>
<path d="M82.2186 101.049H81.0781V102H82.2186V101.049Z" fill="black"/>
</g>
<path d="M67.8828 104.588H76.937" stroke="#263238" stroke-linecap="round" stroke-linejoin="round"/>
<path opacity="0.5" d="M103.775 91.1543H87.2969V102.007H103.775V91.1543Z" fill="black"/>
<path d="M93.7109 94.7598V98.3982L97.3564 96.579L93.7109 94.7598Z" fill="#263238"/>
<g opacity="0.5">
<path d="M86.8593 91.1543H85.7188V92.1059H86.8593V91.1543Z" fill="black"/>
<path d="M86.8593 92.7988H85.7188V93.7504H86.8593V92.7988Z" fill="black"/>
<path d="M86.8593 94.4512H85.7188V95.4028H86.8593V94.4512Z" fill="black"/>
<path d="M86.8593 96.1035H85.7188V97.0551H86.8593V96.1035Z" fill="black"/>
<path d="M86.8593 97.752H85.7188V98.7036H86.8593V97.752Z" fill="black"/>
<path d="M86.8593 99.3965H85.7188V100.348H86.8593V99.3965Z" fill="black"/>
<path d="M86.8593 101.049H85.7188V102H86.8593V101.049Z" fill="black"/>
<path d="M105.336 91.1543H104.195V92.1059H105.336V91.1543Z" fill="black"/>
<path d="M105.336 92.7988H104.195V93.7504H105.336V92.7988Z" fill="black"/>
<path d="M105.336 94.4473H104.195V95.3989H105.336V94.4473Z" fill="black"/>
<path d="M105.336 96.1035H104.195V97.0551H105.336V96.1035Z" fill="black"/>
<path d="M105.336 97.752H104.195V98.7036H105.336V97.752Z" fill="black"/>
<path d="M105.336 99.3965H104.195V100.348H105.336V99.3965Z" fill="black"/>
<path d="M105.336 101.049H104.195V102H105.336V101.049Z" fill="black"/>
</g>
<path d="M91.0078 104.588H100.055" stroke="#263238" stroke-linecap="round" stroke-linejoin="round"/>
<path opacity="0.5" d="M80.65 109.596H64.1719V120.448H80.65V109.596Z" fill="black"/>
<path d="M70.5938 113.209V116.847L74.2322 115.028L70.5938 113.209Z" fill="#263238"/>
<g opacity="0.5">
<path d="M63.7421 109.596H62.6016V110.547H63.7421V109.596Z" fill="black"/>
<path d="M63.7421 111.244H62.6016V112.196H63.7421V111.244Z" fill="black"/>
<path d="M63.7421 112.896H62.6016V113.848H63.7421V112.896Z" fill="black"/>
<path d="M63.7421 114.549H62.6016V115.5H63.7421V114.549Z" fill="black"/>
<path d="M63.7421 116.193H62.6016V117.145H63.7421V116.193Z" fill="black"/>
<path d="M63.7421 117.846H62.6016V118.797H63.7421V117.846Z" fill="black"/>
<path d="M63.7421 119.494H62.6016V120.446H63.7421V119.494Z" fill="black"/>
<path d="M82.2186 109.596H81.0781V110.547H82.2186V109.596Z" fill="black"/>
<path d="M82.2186 111.244H81.0781V112.196H82.2186V111.244Z" fill="black"/>
<path d="M82.2186 112.9H81.0781V113.852H82.2186V112.9Z" fill="black"/>
<path d="M82.2186 114.549H81.0781V115.5H82.2186V114.549Z" fill="black"/>
<path d="M82.2186 116.193H81.0781V117.145H82.2186V116.193Z" fill="black"/>
<path d="M82.2186 117.846H81.0781V118.797H82.2186V117.846Z" fill="black"/>
<path d="M82.2186 119.494H81.0781V120.446H82.2186V119.494Z" fill="black"/>
</g>
<path d="M67.8828 123.041H76.937" stroke="#263238" stroke-linecap="round" stroke-linejoin="round"/>
<path opacity="0.5" d="M103.775 109.596H87.2969V120.448H103.775V109.596Z" fill="black"/>
<path d="M93.7109 113.209V116.847L97.3564 115.028L93.7109 113.209Z" fill="#263238"/>
<g opacity="0.5">
<path d="M86.8593 109.596H85.7188V110.547H86.8593V109.596Z" fill="black"/>
<path d="M86.8593 111.244H85.7188V112.196H86.8593V111.244Z" fill="black"/>
<path d="M86.8593 112.896H85.7188V113.848H86.8593V112.896Z" fill="black"/>
<path d="M86.8593 114.549H85.7188V115.5H86.8593V114.549Z" fill="black"/>
<path d="M86.8593 116.193H85.7188V117.145H86.8593V116.193Z" fill="black"/>
<path d="M86.8593 117.846H85.7188V118.797H86.8593V117.846Z" fill="black"/>
<path d="M86.8593 119.494H85.7188V120.446H86.8593V119.494Z" fill="black"/>
<path d="M105.336 109.596H104.195V110.547H105.336V109.596Z" fill="black"/>
<path d="M105.336 111.244H104.195V112.196H105.336V111.244Z" fill="black"/>
<path d="M105.336 112.9H104.195V113.852H105.336V112.9Z" fill="black"/>
<path d="M105.336 114.549H104.195V115.5H105.336V114.549Z" fill="black"/>
<path d="M105.336 116.193H104.195V117.145H105.336V116.193Z" fill="black"/>
<path d="M105.336 117.846H104.195V118.797H105.336V117.846Z" fill="black"/>
<path d="M105.336 119.494H104.195V120.446H105.336V119.494Z" fill="black"/>
</g>
<path d="M91.0078 123.041H100.055" stroke="#263238" stroke-linecap="round" stroke-linejoin="round"/>
<path opacity="0.5" d="M80.65 128.049H64.1719V138.901H80.65V128.049Z" fill="black"/>
<path d="M70.5938 131.654V135.293L74.2322 133.474L70.5938 131.654Z" fill="#263238"/>
<g opacity="0.5">
<path d="M63.7421 128.049H62.6016V129H63.7421V128.049Z" fill="black"/>
<path d="M63.7421 129.697H62.6016V130.649H63.7421V129.697Z" fill="black"/>
<path d="M63.7421 131.346H62.6016V132.297H63.7421V131.346Z" fill="black"/>
<path d="M63.7421 132.994H62.6016V133.946H63.7421V132.994Z" fill="black"/>
<path d="M63.7421 134.646H62.6016V135.598H63.7421V134.646Z" fill="black"/>
<path d="M63.7421 136.299H62.6016V137.25H63.7421V136.299Z" fill="black"/>
<path d="M63.7421 137.947H62.6016V138.899H63.7421V137.947Z" fill="black"/>
<path d="M82.2186 128.049H81.0781V129H82.2186V128.049Z" fill="black"/>
<path d="M82.2186 129.697H81.0781V130.649H82.2186V129.697Z" fill="black"/>
<path d="M82.2186 131.346H81.0781V132.297H82.2186V131.346Z" fill="black"/>
<path d="M82.2186 132.994H81.0781V133.946H82.2186V132.994Z" fill="black"/>
<path d="M82.2186 134.646H81.0781V135.598H82.2186V134.646Z" fill="black"/>
<path d="M82.2186 136.299H81.0781V137.25H82.2186V136.299Z" fill="black"/>
<path d="M82.2186 137.947H81.0781V138.899H82.2186V137.947Z" fill="black"/>
</g>
<path d="M67.8828 141.49H76.937" stroke="#263238" stroke-linecap="round" stroke-linejoin="round"/>
<path opacity="0.5" d="M103.775 128.049H87.2969V138.901H103.775V128.049Z" fill="black"/>
<path d="M93.7109 131.654V135.293L97.3564 133.474L93.7109 131.654Z" fill="#263238"/>
<g opacity="0.5">
<path d="M86.8593 128.049H85.7188V129H86.8593V128.049Z" fill="black"/>
<path d="M86.8593 129.697H85.7188V130.649H86.8593V129.697Z" fill="black"/>
<path d="M86.8593 131.346H85.7188V132.297H86.8593V131.346Z" fill="black"/>
<path d="M86.8593 132.994H85.7188V133.946H86.8593V132.994Z" fill="black"/>
<path d="M86.8593 134.646H85.7188V135.598H86.8593V134.646Z" fill="black"/>
<path d="M86.8593 136.299H85.7188V137.25H86.8593V136.299Z" fill="black"/>
<path d="M86.8593 137.947H85.7188V138.899H86.8593V137.947Z" fill="black"/>
<path d="M105.336 128.049H104.195V129H105.336V128.049Z" fill="black"/>
<path d="M105.336 129.697H104.195V130.649H105.336V129.697Z" fill="black"/>
<path d="M105.336 131.346H104.195V132.297H105.336V131.346Z" fill="black"/>
<path d="M105.336 132.994H104.195V133.946H105.336V132.994Z" fill="black"/>
<path d="M105.336 134.646H104.195V135.598H105.336V134.646Z" fill="black"/>
<path d="M105.336 136.299H104.195V137.25H105.336V136.299Z" fill="black"/>
<path d="M105.336 137.947H104.195V138.899H105.336V137.947Z" fill="black"/>
</g>
<path d="M91.0078 141.49H100.055" stroke="#263238" stroke-linecap="round" stroke-linejoin="round"/>
<path opacity="0.5" d="M80.65 146.502H64.1719V157.354H80.65V146.502Z" fill="black"/>
<path d="M70.5938 150.104V153.742L74.2322 151.923L70.5938 150.104Z" fill="#263238"/>
<g opacity="0.5">
<path d="M63.7421 146.502H62.6016V147.454H63.7421V146.502Z" fill="black"/>
<path d="M63.7421 148.146H62.6016V149.098H63.7421V148.146Z" fill="black"/>
<path d="M63.7421 149.799H62.6016V150.75H63.7421V149.799Z" fill="black"/>
<path d="M63.7421 151.447H62.6016V152.399H63.7421V151.447Z" fill="black"/>
<path d="M63.7421 153.1H62.6016V154.051H63.7421V153.1Z" fill="black"/>
<path d="M63.7421 154.744H62.6016V155.696H63.7421V154.744Z" fill="black"/>
<path d="M63.7421 156.396H62.6016V157.348H63.7421V156.396Z" fill="black"/>
<path d="M82.2186 146.502H81.0781V147.454H82.2186V146.502Z" fill="black"/>
<path d="M82.2186 148.146H81.0781V149.098H82.2186V148.146Z" fill="black"/>
<path d="M82.2186 149.799H81.0781V150.75H82.2186V149.799Z" fill="black"/>
<path d="M82.2186 151.447H81.0781V152.399H82.2186V151.447Z" fill="black"/>
<path d="M82.2186 153.1H81.0781V154.051H82.2186V153.1Z" fill="black"/>
<path d="M82.2186 154.744H81.0781V155.696H82.2186V154.744Z" fill="black"/>
<path d="M82.2186 156.396H81.0781V157.348H82.2186V156.396Z" fill="black"/>
</g>
<path d="M67.8828 159.936H76.937" stroke="#263238" stroke-linecap="round" stroke-linejoin="round"/>
<path opacity="0.5" d="M103.775 146.502H87.2969V157.354H103.775V146.502Z" fill="black"/>
<path d="M93.7109 150.104V153.742L97.3564 151.923L93.7109 150.104Z" fill="#263238"/>
<g opacity="0.5">
<path d="M86.8593 146.502H85.7188V147.454H86.8593V146.502Z" fill="black"/>
<path d="M86.8593 148.146H85.7188V149.098H86.8593V148.146Z" fill="black"/>
<path d="M86.8593 149.799H85.7188V150.75H86.8593V149.799Z" fill="black"/>
<path d="M86.8593 151.447H85.7188V152.399H86.8593V151.447Z" fill="black"/>
<path d="M86.8593 153.1H85.7188V154.051H86.8593V153.1Z" fill="black"/>
<path d="M86.8593 154.744H85.7188V155.696H86.8593V154.744Z" fill="black"/>
<path d="M86.8593 156.396H85.7188V157.348H86.8593V156.396Z" fill="black"/>
<path d="M105.336 146.502H104.195V147.454H105.336V146.502Z" fill="black"/>
<path d="M105.336 148.146H104.195V149.098H105.336V148.146Z" fill="black"/>
<path d="M105.336 149.799H104.195V150.75H105.336V149.799Z" fill="black"/>
<path d="M105.336 151.447H104.195V152.399H105.336V151.447Z" fill="black"/>
<path d="M105.336 153.1H104.195V154.051H105.336V153.1Z" fill="black"/>
<path d="M105.336 154.744H104.195V155.696H105.336V154.744Z" fill="black"/>
<path d="M105.336 156.396H104.195V157.348H105.336V156.396Z" fill="black"/>
</g>
<path d="M91.0078 159.936H100.055" stroke="#263238" stroke-linecap="round" stroke-linejoin="round"/>
<path opacity="0.5" d="M80.65 164.947H64.1719V175.8H80.65V164.947Z" fill="black"/>
<path d="M70.5938 168.549V172.194L74.2322 170.375L70.5938 168.549Z" fill="#263238"/>
<g opacity="0.5">
<path d="M63.7421 164.947H62.6016V165.899H63.7421V164.947Z" fill="black"/>
<path d="M63.7421 166.596H62.6016V167.547H63.7421V166.596Z" fill="black"/>
<path d="M63.7421 168.248H62.6016V169.2H63.7421V168.248Z" fill="black"/>
<path d="M63.7421 169.9H62.6016V170.852H63.7421V169.9Z" fill="black"/>
<path d="M63.7421 171.545H62.6016V172.497H63.7421V171.545Z" fill="black"/>
<path d="M63.7421 173.197H62.6016V174.149H63.7421V173.197Z" fill="black"/>
<path d="M63.7421 174.846H62.6016V175.797H63.7421V174.846Z" fill="black"/>
<path d="M82.2186 164.947H81.0781V165.899H82.2186V164.947Z" fill="black"/>
<path d="M82.2186 166.596H81.0781V167.547H82.2186V166.596Z" fill="black"/>
<path d="M82.2186 168.252H81.0781V169.204H82.2186V168.252Z" fill="black"/>
<path d="M82.2186 169.9H81.0781V170.852H82.2186V169.9Z" fill="black"/>
<path d="M82.2186 171.545H81.0781V172.497H82.2186V171.545Z" fill="black"/>
<path d="M82.2186 173.197H81.0781V174.149H82.2186V173.197Z" fill="black"/>
<path d="M82.2186 174.846H81.0781V175.797H82.2186V174.846Z" fill="black"/>
</g>
<path d="M67.8828 178.385H76.937" stroke="#263238" stroke-linecap="round" stroke-linejoin="round"/>
<path opacity="0.5" d="M103.775 164.947H87.2969V175.8H103.775V164.947Z" fill="black"/>
<path d="M93.7109 168.549V172.194L97.3564 170.375L93.7109 168.549Z" fill="#263238"/>
<g opacity="0.5">
<path d="M86.8593 164.947H85.7188V165.899H86.8593V164.947Z" fill="black"/>
<path d="M86.8593 166.596H85.7188V167.547H86.8593V166.596Z" fill="black"/>
<path d="M86.8593 168.248H85.7188V169.2H86.8593V168.248Z" fill="black"/>
<path d="M86.8593 169.9H85.7188V170.852H86.8593V169.9Z" fill="black"/>
<path d="M86.8593 171.545H85.7188V172.497H86.8593V171.545Z" fill="black"/>
<path d="M86.8593 173.197H85.7188V174.149H86.8593V173.197Z" fill="black"/>
<path d="M86.8593 174.846H85.7188V175.797H86.8593V174.846Z" fill="black"/>
<path d="M105.336 164.947H104.195V165.899H105.336V164.947Z" fill="black"/>
<path d="M105.336 166.596H104.195V167.547H105.336V166.596Z" fill="black"/>
<path d="M105.336 168.252H104.195V169.204H105.336V168.252Z" fill="black"/>
<path d="M105.336 169.9H104.195V170.852H105.336V169.9Z" fill="black"/>
<path d="M105.336 171.545H104.195V172.497H105.336V171.545Z" fill="black"/>
<path d="M105.336 173.197H104.195V174.149H105.336V173.197Z" fill="black"/>
<path d="M105.336 174.846H104.195V175.797H105.336V174.846Z" fill="black"/>
</g>
<path d="M91.0078 178.385H100.055" stroke="#263238" stroke-linecap="round" stroke-linejoin="round"/>
<path opacity="0.5" d="M80.65 183.396H64.1719V194.249H80.65V183.396Z" fill="black"/>
<path d="M70.5938 187.002V190.64L74.2322 188.821L70.5938 187.002Z" fill="#263238"/>
<g opacity="0.5">
<path d="M63.7421 183.396H62.6016V184.348H63.7421V183.396Z" fill="black"/>
<path d="M63.7421 185.049H62.6016V186H63.7421V185.049Z" fill="black"/>
<path d="M63.7421 186.693H62.6016V187.645H63.7421V186.693Z" fill="black"/>
<path d="M63.7421 188.346H62.6016V189.297H63.7421V188.346Z" fill="black"/>
<path d="M63.7421 189.994H62.6016V190.946H63.7421V189.994Z" fill="black"/>
<path d="M63.7421 191.643H62.6016V192.594H63.7421V191.643Z" fill="black"/>
<path d="M63.7421 193.295H62.6016V194.247H63.7421V193.295Z" fill="black"/>
<path d="M82.2186 183.396H81.0781V184.348H82.2186V183.396Z" fill="black"/>
<path d="M82.2186 185.049H81.0781V186H82.2186V185.049Z" fill="black"/>
<path d="M82.2186 186.689H81.0781V187.641H82.2186V186.689Z" fill="black"/>
<path d="M82.2186 188.346H81.0781V189.297H82.2186V188.346Z" fill="black"/>
<path d="M82.2186 189.994H81.0781V190.946H82.2186V189.994Z" fill="black"/>
<path d="M82.2186 191.643H81.0781V192.594H82.2186V191.643Z" fill="black"/>
<path d="M82.2186 193.299H81.0781V194.25H82.2186V193.299Z" fill="black"/>
</g>
<path d="M67.8828 196.838H76.937" stroke="#263238" stroke-linecap="round" stroke-linejoin="round"/>
<path opacity="0.5" d="M103.775 183.396H87.2969V194.249H103.775V183.396Z" fill="black"/>
<path d="M93.7109 187.002V190.64L97.3564 188.821L93.7109 187.002Z" fill="#263238"/>
<g opacity="0.5">
<path d="M86.8593 183.396H85.7188V184.348H86.8593V183.396Z" fill="black"/>
<path d="M86.8593 185.049H85.7188V186H86.8593V185.049Z" fill="black"/>
<path d="M86.8593 186.693H85.7188V187.645H86.8593V186.693Z" fill="black"/>
<path d="M86.8593 188.346H85.7188V189.297H86.8593V188.346Z" fill="black"/>
<path d="M86.8593 189.994H85.7188V190.946H86.8593V189.994Z" fill="black"/>
<path d="M86.8593 191.643H85.7188V192.594H86.8593V191.643Z" fill="black"/>
<path d="M86.8593 193.295H85.7188V194.247H86.8593V193.295Z" fill="black"/>
<path d="M105.336 183.396H104.195V184.348H105.336V183.396Z" fill="black"/>
<path d="M105.336 185.049H104.195V186H105.336V185.049Z" fill="black"/>
<path d="M105.336 186.689H104.195V187.641H105.336V186.689Z" fill="black"/>
<path d="M105.336 188.346H104.195V189.297H105.336V188.346Z" fill="black"/>
<path d="M105.336 189.994H104.195V190.946H105.336V189.994Z" fill="black"/>
<path d="M105.336 191.643H104.195V192.594H105.336V191.643Z" fill="black"/>
<path d="M105.336 193.299H104.195V194.25H105.336V193.299Z" fill="black"/>
</g>
<path d="M91.0078 196.838H100.055" stroke="#263238" stroke-linecap="round" stroke-linejoin="round"/>
<path d="M285.572 219.594H54.0243C47.3491 219.594 27.4844 216.795 27.4844 216.795H312.112C312.112 216.795 292.247 219.594 285.572 219.594Z" fill="#999999" stroke="#263238" stroke-linecap="round" stroke-linejoin="round"/>
<path d="M312.111 216.774H27.4841C27.2935 216.769 27.1111 216.695 26.971 216.566C26.8309 216.437 26.7427 216.261 26.723 216.071C26.7032 215.882 26.7533 215.691 26.8638 215.536C26.9743 215.381 27.1376 215.271 27.3232 215.227L54.024 209.518H285.571L312.272 215.227C312.458 215.271 312.621 215.381 312.732 215.536C312.842 215.691 312.892 215.882 312.872 216.071C312.853 216.261 312.765 216.437 312.625 216.566C312.484 216.695 312.302 216.769 312.111 216.774Z" fill="#BFBFBF" stroke="#263238" stroke-linecap="round" stroke-linejoin="round"/>
<path d="M296.564 213.147H43.0312L54.5694 210.432H285.025L296.564 213.147Z" stroke="#263238" stroke-linecap="round" stroke-linejoin="round"/>
<path d="M15.3545 6.10352C14.6578 7.27093 14.17 8.55079 13.9127 9.88569C13.3934 9.81632 12.87 9.78101 12.346 9.77996C10.2971 9.77981 8.2835 10.3132 6.50339 11.3277C4.72327 12.3422 3.23803 13.8028 2.19388 15.5657C1.14973 17.3286 0.582667 19.333 0.548514 21.3816C0.514362 23.4302 1.0143 25.4524 1.99911 27.2491" stroke="#263238" stroke-linecap="round" stroke-linejoin="round"/>
<path d="M42.2561 16.6309C40.7213 15.5025 38.8743 14.8779 36.9697 14.8431C37.5798 12.2412 37.288 9.50912 36.1422 7.09465C34.9964 4.68018 33.0645 2.72649 30.663 1.55368C28.2616 0.380866 25.5329 0.0584928 22.9243 0.63938C20.3156 1.22027 17.9816 2.66996 16.3047 4.75094" stroke="#263238" stroke-linecap="round" stroke-linejoin="round"/>
<path d="M3.08594 28.8934C4.69918 30.9373 6.94303 32.3904 9.46806 33.0264H39.317C40.76 32.6155 42.0817 31.8607 43.1686 30.8265C44.2556 29.7923 45.0753 28.5098 45.5574 27.0891C46.0395 25.6683 46.1696 24.1518 45.9364 22.6697C45.7033 21.1876 45.1139 19.7842 44.2189 18.5801" stroke="#263238" stroke-linecap="round" stroke-linejoin="round"/>
<path d="M131.324 11.7988C129.433 13.0745 127.953 14.8707 127.062 16.97C126.172 19.0694 125.908 21.382 126.304 23.6278C126.7 25.8737 127.739 27.9567 129.294 29.6247C130.849 31.2926 132.855 32.4741 135.067 33.0261H164.916C165.97 32.7243 166.962 32.236 167.843 31.5844" stroke="#263238" stroke-linecap="round" stroke-linejoin="round"/>
<path d="M161.899 7.47582C160.903 5.15935 159.191 3.22292 157.014 1.95044C154.837 0.677958 152.31 0.136374 149.803 0.405093C147.295 0.673813 144.94 1.7387 143.083 3.44362C141.225 5.14854 139.962 7.4038 139.48 9.87872C138.96 9.80935 138.437 9.77404 137.913 9.77299C136.474 9.77163 135.047 10.0339 133.703 10.5467" stroke="#263238" stroke-linecap="round" stroke-linejoin="round"/>
<path d="M169.396 30.1257C170.536 28.7915 171.274 27.161 171.523 25.4239C171.773 23.6868 171.524 21.9146 170.805 20.3135C170.087 18.7124 168.928 17.3483 167.465 16.3799C166.001 15.4115 164.293 14.8786 162.538 14.8432C162.968 13.0066 162.954 11.0942 162.5 9.26367" stroke="#263238" stroke-linecap="round" stroke-linejoin="round"/>
<path d="M23.3203 113.854V64.6426" stroke="#263238" stroke-linecap="round" stroke-linejoin="round"/>
<path d="M50.6562 21.5371L121.605 21.5371" stroke="#263238" stroke-linecap="round" stroke-linejoin="round"/>
<path d="M148.516 34.0332V45.3125" stroke="#263238" stroke-linecap="round" stroke-linejoin="round"/>
<path d="M31.5095 78.1035H14.1797V95.3852H31.5095V78.1035Z" fill="#263238" stroke="#263238" stroke-linecap="round" stroke-linejoin="round"/>
<path d="M27.4883 87.656L19.0156 82.7637V92.5435L27.4883 87.656Z" fill="white" stroke="#263238" stroke-linecap="round" stroke-linejoin="round"/>
<path d="M31.5095 78.1035H14.1797V81.2705H31.5095V78.1035Z" fill="white" stroke="#263238" stroke-linecap="round" stroke-linejoin="round"/>
<path d="M14.1797 81.2705H16.6643L18.2022 78.1035H15.7175L14.1797 81.2705Z" fill="#263238" stroke="#263238" stroke-linecap="round" stroke-linejoin="round"/>
<path d="M31.5089 79.4924V78.1035H29.6971L28.1641 81.2705H30.6487L31.5089 79.4924Z" fill="#263238" stroke="#263238" stroke-linecap="round" stroke-linejoin="round"/>
<path d="M22.8614 78.1035H20.3768L18.8438 81.2705H21.3284L22.8614 78.1035Z" fill="#263238" stroke="#263238" stroke-linecap="round" stroke-linejoin="round"/>
<path d="M27.5225 78.1035H25.0379L23.5 81.2705H25.9846L27.5225 78.1035Z" fill="#263238" stroke="#263238" stroke-linecap="round" stroke-linejoin="round"/>
<path d="M38.9961 48.1509L24.1 25.0645L9.19531 48.1509H16.5195V64.6426H31.672V48.1509H38.9961Z" fill="#48BF84" stroke="#263238" stroke-linecap="round" stroke-linejoin="round"/>
<path d="M24.0988 22.8926C19.6867 22.892 15.3735 24.1998 11.7047 26.6506C8.03594 29.1015 5.17637 32.5853 3.48765 36.6614C1.79893 40.7375 1.35693 45.2229 2.21754 49.5503C3.07815 53.8776 5.20271 57.8526 8.32253 60.9724C11.4424 64.0922 15.4173 66.2168 19.7446 67.0774C24.072 67.938 28.5574 67.496 32.6335 65.8073C36.7096 64.1186 40.1934 61.259 42.6443 57.5902C45.0951 53.9214 46.403 49.6082 46.4023 45.1961C46.395 39.2831 44.0429 33.6144 39.8617 29.4332C35.6806 25.2521 30.0118 22.8999 24.0988 22.8926ZM4.85961 45.2084C4.85471 41.4709 5.93922 37.813 7.98049 34.6822C10.0218 31.5514 12.9313 29.0834 16.3531 27.5801C19.775 26.0768 23.5608 25.6035 27.2474 26.2179C30.934 26.8323 34.3617 28.508 37.111 31.0398L9.93013 58.2084C6.66753 54.6655 4.85743 50.0247 4.85961 45.2084ZM24.0988 64.4476C19.7711 64.4501 15.5703 62.9861 12.1817 60.2942L39.1754 33.3005C41.4186 36.134 42.8177 39.5424 43.2121 43.1348C43.6066 46.7272 42.9804 50.358 41.4054 53.6107C39.8305 56.8634 37.3705 59.6063 34.3078 61.5247C31.245 63.4431 27.7035 64.4593 24.0896 64.4568L24.0988 64.4476Z" fill="#A34747"/>
</g>
<defs>
<clipPath id="clip0_4184_81816">
<rect width="327.391" height="241.322" fill="white" transform="translate(0.546875 0.337891)"/>
</clipPath>
</defs>
</svg>
