<svg width="17" height="17" viewBox="0 0 17 17" fill="none" xmlns="http://www.w3.org/2000/svg">
<g id="XCircle">
<path id="Vector" d="M8.53125 1.26172C7.14678 1.26172 5.79341 1.67226 4.64226 2.44143C3.49112 3.2106 2.59391 4.30385 2.0641 5.58293C1.53428 6.86202 1.39566 8.26948 1.66576 9.62735C1.93585 10.9852 2.60254 12.2325 3.58151 13.2115C4.56047 14.1904 5.80775 14.8571 7.16562 15.1272C8.52349 15.3973 9.93095 15.2587 11.21 14.7289C12.4891 14.1991 13.5824 13.3019 14.3515 12.1507C15.1207 10.9996 15.5313 9.64619 15.5313 8.26172C15.5293 6.4058 14.7912 4.62647 13.4788 3.31414C12.1665 2.00181 10.3872 1.26368 8.53125 1.26172ZM11.0661 10.0346C11.1161 10.0846 11.1558 10.144 11.1828 10.2094C11.2099 10.2748 11.2239 10.3448 11.2239 10.4156C11.2239 10.4863 11.2099 10.5564 11.1828 10.6217C11.1558 10.6871 11.1161 10.7465 11.0661 10.7965C11.016 10.8466 10.9566 10.8862 10.8913 10.9133C10.8259 10.9404 10.7558 10.9543 10.6851 10.9543C10.6143 10.9543 10.5443 10.9404 10.4789 10.9133C10.4136 10.8862 10.3542 10.8466 10.3041 10.7965L8.53125 9.02297L6.75837 10.7965C6.70834 10.8466 6.64895 10.8862 6.58358 10.9133C6.51822 10.9404 6.44816 10.9543 6.37741 10.9543C6.30665 10.9543 6.2366 10.9404 6.17123 10.9133C6.10587 10.8862 6.04647 10.8466 5.99644 10.7965C5.94642 10.7465 5.90673 10.6871 5.87966 10.6217C5.85258 10.5564 5.83865 10.4863 5.83865 10.4156C5.83865 10.3448 5.85258 10.2748 5.87966 10.2094C5.90673 10.144 5.94642 10.0846 5.99644 10.0346L7.77 8.26172L5.99644 6.48883C5.89541 6.3878 5.83865 6.25076 5.83865 6.10787C5.83865 5.96498 5.89541 5.82795 5.99644 5.72691C6.09748 5.62587 6.23452 5.56911 6.37741 5.56911C6.52029 5.56911 6.65733 5.62587 6.75837 5.72691L8.53125 7.50047L10.3041 5.72691C10.3542 5.67688 10.4136 5.6372 10.4789 5.61012C10.5443 5.58305 10.6143 5.56911 10.6851 5.56911C10.7558 5.56911 10.8259 5.58305 10.8913 5.61012C10.9566 5.6372 11.016 5.67688 11.0661 5.72691C11.1161 5.77694 11.1558 5.83633 11.1828 5.9017C11.2099 5.96706 11.2239 6.03712 11.2239 6.10787C11.2239 6.17862 11.2099 6.24868 11.1828 6.31405C11.1558 6.37941 11.1161 6.43881 11.0661 6.48883L9.2925 8.26172L11.0661 10.0346Z" fill="#898989"/>
</g>
</svg>
