<svg xmlns="http://www.w3.org/2000/svg" width="25" height="25" viewBox="0 0 25 25" fill="none">
  <g clip-path="url(#clip0_17_7780)">
    <path d="M17.0177 6.95931C16.673 6.51477 16.2043 6.18242 15.6707 6.0043L14.2927 5.5563C14.1869 5.51865 14.0953 5.44917 14.0306 5.35741C13.9659 5.26565 13.9311 5.1561 13.9311 5.04381C13.9311 4.93151 13.9659 4.82196 14.0306 4.7302C14.0953 4.63844 14.1869 4.56896 14.2927 4.53131L15.6707 4.08331C16.0785 3.94256 16.4489 3.71072 16.7536 3.40541C17.0584 3.1001 17.2896 2.72935 17.4297 2.32131L17.4407 2.28731L17.8887 0.910305C17.9259 0.803819 17.9954 0.711545 18.0874 0.646257C18.1794 0.58097 18.2894 0.545898 18.4022 0.545898C18.515 0.545898 18.625 0.58097 18.717 0.646257C18.809 0.711545 18.8784 0.803819 18.9157 0.910305L19.3627 2.28731C19.5021 2.70604 19.7373 3.08644 20.0496 3.39824C20.3619 3.71004 20.7427 3.94462 21.1617 4.08331L22.5387 4.53131L22.5667 4.53831C22.6725 4.57596 22.764 4.64544 22.8288 4.7372C22.8935 4.82896 22.9283 4.93851 22.9283 5.05081C22.9283 5.1631 22.8935 5.27265 22.8288 5.36441C22.764 5.45617 22.6725 5.52565 22.5667 5.5633L21.1887 6.01131C20.7701 6.1504 20.3896 6.38513 20.0775 6.69689C19.7654 7.00864 19.5302 7.38883 19.3907 7.80731L18.9427 9.18431C18.9052 9.29044 18.8358 9.38235 18.7439 9.44737C18.652 9.51238 18.5422 9.54729 18.4297 9.54729C18.3171 9.54729 18.2074 9.51238 18.1155 9.44737C18.0236 9.38235 17.9541 9.29044 17.9167 9.18431L17.4687 7.80731C17.3679 7.50113 17.2158 7.21436 17.0187 6.95931H17.0177ZM24.7127 10.7603L23.9467 10.5123C23.7141 10.4348 23.5029 10.3042 23.3296 10.1308C23.1564 9.95734 23.026 9.74593 22.9487 9.5133L22.6987 8.7493C22.678 8.69024 22.6394 8.63906 22.5884 8.60285C22.5373 8.56665 22.4763 8.5472 22.4137 8.5472C22.3511 8.5472 22.2901 8.56665 22.239 8.60285C22.1879 8.63906 22.1494 8.69024 22.1287 8.7493L21.8807 9.5133C21.8049 9.74447 21.6766 9.95496 21.5059 10.1283C21.3352 10.3016 21.1267 10.433 20.8967 10.5123L20.1317 10.7603C20.0726 10.781 20.0214 10.8196 19.9852 10.8706C19.949 10.9217 19.9296 10.9827 19.9296 11.0453C19.9296 11.1079 19.949 11.1689 19.9852 11.22C20.0214 11.2711 20.0726 11.3096 20.1317 11.3303L20.8967 11.5793C21.1299 11.6569 21.3417 11.7879 21.5154 11.9619C21.689 12.1358 21.8195 12.3479 21.8967 12.5813L22.1447 13.3453C22.1654 13.4044 22.2039 13.4555 22.255 13.4918C22.306 13.528 22.3671 13.5474 22.4297 13.5474C22.4923 13.5474 22.5533 13.528 22.6044 13.4918C22.6554 13.4555 22.694 13.4044 22.7147 13.3453L22.9637 12.5813C23.041 12.3485 23.1715 12.137 23.345 11.9636C23.5184 11.7902 23.7299 11.6596 23.9627 11.5823L24.7277 11.3343C24.7868 11.3136 24.8379 11.2751 24.8741 11.224C24.9103 11.1729 24.9298 11.1119 24.9298 11.0493C24.9298 10.9867 24.9103 10.9257 24.8741 10.8746C24.8379 10.8236 24.7868 10.785 24.7277 10.7643L24.7127 10.7603ZM13.0017 4.54731H5.67969C4.95034 4.54731 4.25087 4.83704 3.73514 5.35276C3.21942 5.86849 2.92969 6.56796 2.92969 7.29731V17.7973C2.92969 18.1584 3.00082 18.516 3.13902 18.8497C3.27722 19.1833 3.47978 19.4865 3.73514 19.7418C3.9905 19.9972 4.29366 20.1998 4.62731 20.338C4.96095 20.4762 5.31855 20.5473 5.67969 20.5473H20.1797C20.5408 20.5473 20.8984 20.4762 21.2321 20.338C21.5657 20.1998 21.8689 19.9972 22.1242 19.7418C22.3796 19.4865 22.5822 19.1833 22.7204 18.8497C22.8586 18.516 22.9297 18.1584 22.9297 17.7973V14.4783C22.6797 14.594 22.3991 14.6267 22.1292 14.5714C21.8593 14.5162 21.6142 14.376 21.4297 14.1713V17.7973C21.4297 18.4873 20.8697 19.0473 20.1797 19.0473H5.67969C4.98969 19.0473 4.42969 18.4873 4.42969 17.7973V7.29731C4.42969 6.60731 4.98969 6.04731 5.67969 6.04731H13.3027C13.2691 6.00206 13.2381 5.95499 13.2097 5.90631C13.0742 5.7104 12.9851 5.48623 12.949 5.25078C12.913 5.01533 12.931 4.77477 13.0017 4.54731ZM6.92969 9.29731C6.92969 9.09839 7.00871 8.90763 7.14936 8.76698C7.29001 8.62632 7.48078 8.54731 7.67969 8.54731H12.1797C12.3786 8.54731 12.5694 8.62632 12.71 8.76698C12.8507 8.90763 12.9297 9.09839 12.9297 9.29731C12.9297 9.49622 12.8507 9.68698 12.71 9.82763C12.5694 9.96829 12.3786 10.0473 12.1797 10.0473H7.67969C7.48078 10.0473 7.29001 9.96829 7.14936 9.82763C7.00871 9.68698 6.92969 9.49622 6.92969 9.29731ZM7.67969 11.5473C7.48078 11.5473 7.29001 11.6263 7.14936 11.767C7.00871 11.9076 6.92969 12.0984 6.92969 12.2973C6.92969 12.4962 7.00871 12.687 7.14936 12.8276C7.29001 12.9683 7.48078 13.0473 7.67969 13.0473H16.1797C16.3786 13.0473 16.5694 12.9683 16.71 12.8276C16.8507 12.687 16.9297 12.4962 16.9297 12.2973C16.9297 12.0984 16.8507 11.9076 16.71 11.767C16.5694 11.6263 16.3786 11.5473 16.1797 11.5473H7.67969ZM6.92969 15.2973C6.92969 15.0984 7.00871 14.9076 7.14936 14.767C7.29001 14.6263 7.48078 14.5473 7.67969 14.5473H14.1797C14.3786 14.5473 14.5694 14.6263 14.71 14.767C14.8507 14.9076 14.9297 15.0984 14.9297 15.2973C14.9297 15.4962 14.8507 15.687 14.71 15.8276C14.5694 15.9683 14.3786 16.0473 14.1797 16.0473H7.67969C7.48078 16.0473 7.29001 15.9683 7.14936 15.8276C7.00871 15.687 6.92969 15.4962 6.92969 15.2973Z" fill="#48BF84"/>
  </g>
  <defs>
    <clipPath id="clip0_17_7780">
      <rect width="24" height="24" fill="white" transform="translate(0.929688 0.546875)"/>
    </clipPath>
  </defs>
</svg>