<svg width="10" height="11" viewBox="0 0 10 11" fill="none" xmlns="http://www.w3.org/2000/svg">
<path id="Vector" d="M3.57653 2.46568C4.21002 1.32971 4.52651 0.761719 5 0.761719C5.47349 0.761719 5.78998 1.32971 6.42347 2.46568L6.58746 2.75967C6.76746 3.08266 6.85746 3.24416 6.99745 3.35066C7.13745 3.45716 7.31245 3.49665 7.66244 3.57565L7.98043 3.64765C9.2104 3.92614 9.82489 4.06514 9.97138 4.53563C10.1174 5.00562 9.69839 5.49611 8.85991 6.47658L8.64291 6.73008C8.40492 7.00857 8.28542 7.14807 8.23192 7.32006C8.17843 7.49256 8.19642 7.67856 8.23242 8.05005L8.26542 8.38854C8.39192 9.69701 8.45542 10.351 8.07243 10.6415C7.68944 10.9325 7.11345 10.667 5.96248 10.137L5.66398 10C5.33699 9.849 5.1735 9.77401 5 9.77401C4.8265 9.77401 4.66301 9.849 4.33551 10L4.03802 10.137C2.88655 10.667 2.31056 10.932 1.92807 10.642C1.54458 10.351 1.60808 9.69701 1.73458 8.38854L1.76758 8.05055C1.80357 7.67856 1.82157 7.49256 1.76758 7.32056C1.71458 7.14807 1.59508 7.00857 1.35709 6.73058L1.14009 6.47658C0.301611 5.49661 -0.11738 5.00612 0.0286168 4.53563C0.175113 4.06514 0.790099 3.92564 2.02007 3.64765L2.33806 3.57565C2.68755 3.49665 2.86205 3.45716 3.00255 3.35066C3.14254 3.24416 3.23254 3.08266 3.41254 2.75967L3.57653 2.46568Z" fill="#181818"/>
</svg>
