<svg width="24" height="25" viewBox="0 0 24 25" fill="none" xmlns="http://www.w3.org/2000/svg">
<path d="M16.7502 3.59125V2.03125C16.7502 1.62125 16.4102 1.28125 16.0002 1.28125C15.5902 1.28125 15.2502 1.62125 15.2502 2.03125V3.53125H8.75023V2.03125C8.75023 1.62125 8.41023 1.28125 8.00023 1.28125C7.59023 1.28125 7.25023 1.62125 7.25023 2.03125V3.59125C4.55023 3.84125 3.24023 5.45125 3.04023 7.84125C3.02023 8.13125 3.26023 8.37125 3.54023 8.37125H20.4602C20.7502 8.37125 20.9902 8.12125 20.9602 7.84125C20.7602 5.45125 19.4502 3.84125 16.7502 3.59125Z" fill="#292D32"/>
<path d="M19 15.0312C16.79 15.0312 15 16.8212 15 19.0312C15 19.7812 15.21 20.4912 15.58 21.0912C16.27 22.2512 17.54 23.0312 19 23.0312C20.46 23.0312 21.73 22.2512 22.42 21.0912C22.79 20.4912 23 19.7812 23 19.0312C23 16.8212 21.21 15.0312 19 15.0312ZM21.07 18.6012L18.94 20.5713C18.8 20.7013 18.61 20.7712 18.43 20.7712C18.24 20.7712 18.05 20.7013 17.9 20.5513L16.91 19.5613C16.62 19.2713 16.62 18.7912 16.91 18.5012C17.2 18.2112 17.68 18.2112 17.97 18.5012L18.45 18.9813L20.05 17.5012C20.35 17.2212 20.83 17.2413 21.11 17.5413C21.39 17.8413 21.37 18.3112 21.07 18.6012Z" fill="#292D32"/>
<path d="M20 9.87122H4C3.45 9.87122 3 10.3212 3 10.8712V17.0312C3 20.0312 4.5 22.0312 8 22.0312H12.93C13.62 22.0312 14.1 21.3612 13.88 20.7112C13.68 20.1312 13.51 19.4912 13.51 19.0312C13.51 16.0012 15.98 13.5312 19.01 13.5312C19.3 13.5312 19.59 13.5512 19.87 13.6012C20.47 13.6912 21.01 13.2212 21.01 12.6212V10.8812C21 10.3212 20.55 9.87122 20 9.87122ZM9.21 18.2412C9.02 18.4212 8.76 18.5312 8.5 18.5312C8.24 18.5312 7.98 18.4212 7.79 18.2412C7.61 18.0512 7.5 17.7912 7.5 17.5312C7.5 17.2712 7.61 17.0112 7.79 16.8212C7.89 16.7312 7.99 16.6612 8.12 16.6112C8.49 16.4512 8.93 16.5412 9.21 16.8212C9.39 17.0112 9.5 17.2712 9.5 17.5312C9.5 17.7912 9.39 18.0512 9.21 18.2412ZM9.21 14.7412C9.16 14.7812 9.11 14.8212 9.06 14.8612C9 14.9012 8.94 14.9312 8.88 14.9512C8.82 14.9812 8.76 15.0012 8.7 15.0112C8.63 15.0212 8.56 15.0312 8.5 15.0312C8.24 15.0312 7.98 14.9212 7.79 14.7412C7.61 14.5512 7.5 14.2912 7.5 14.0312C7.5 13.7712 7.61 13.5112 7.79 13.3212C8.02 13.0912 8.37 12.9812 8.7 13.0512C8.76 13.0612 8.82 13.0812 8.88 13.1112C8.94 13.1312 9 13.1612 9.06 13.2012C9.11 13.2412 9.16 13.2812 9.21 13.3212C9.39 13.5112 9.5 13.7712 9.5 14.0312C9.5 14.2912 9.39 14.5512 9.21 14.7412ZM12.71 14.7412C12.52 14.9212 12.26 15.0312 12 15.0312C11.74 15.0312 11.48 14.9212 11.29 14.7412C11.11 14.5512 11 14.2912 11 14.0312C11 13.7712 11.11 13.5112 11.29 13.3212C11.67 12.9512 12.34 12.9512 12.71 13.3212C12.89 13.5112 13 13.7712 13 14.0312C13 14.2912 12.89 14.5512 12.71 14.7412Z" fill="#292D32"/>
</svg>
