<svg width="24" height="25" viewBox="0 0 24 25" fill="none" xmlns="http://www.w3.org/2000/svg">
<g id="vuesax/bold/calendar-add">
<g id="calendar-add">
<path id="Vector" d="M16.7502 3.59125V2.03125C16.7502 1.62125 16.4102 1.28125 16.0002 1.28125C15.5902 1.28125 15.2502 1.62125 15.2502 2.03125V3.53125H8.75023V2.03125C8.75023 1.62125 8.41023 1.28125 8.00023 1.28125C7.59023 1.28125 7.25023 1.62125 7.25023 2.03125V3.59125C4.55023 3.84125 3.24023 5.45125 3.04023 7.84125C3.02023 8.13125 3.26023 8.37125 3.54023 8.37125H20.4602C20.7502 8.37125 20.9902 8.12125 20.9602 7.84125C20.7602 5.45125 19.4502 3.84125 16.7502 3.59125Z" fill="#292D32"/>
<path id="Vector_2" d="M20 9.87122H4C3.45 9.87122 3 10.3212 3 10.8712V17.0312C3 20.0312 4.5 22.0312 8 22.0312H12.93C13.62 22.0312 14.1 21.3612 13.88 20.7112C13.68 20.1312 13.51 19.4912 13.51 19.0312C13.51 16.0012 15.98 13.5312 19.01 13.5312C19.3 13.5312 19.59 13.5512 19.87 13.6012C20.47 13.6912 21.01 13.2212 21.01 12.6212V10.8812C21 10.3212 20.55 9.87122 20 9.87122ZM9.21 17.7412C9.11 17.8312 9 17.9012 8.88 17.9512C8.76 18.0012 8.63 18.0312 8.5 18.0312C8.37 18.0312 8.24 18.0012 8.12 17.9512C8 17.9012 7.89 17.8312 7.79 17.7412C7.61 17.5512 7.5 17.2912 7.5 17.0312C7.5 16.9712 7.51 16.9012 7.52 16.8412C7.53 16.7712 7.55 16.7112 7.58 16.6512C7.6 16.5912 7.63 16.5312 7.67 16.4712C7.7 16.4212 7.75 16.3712 7.79 16.3212C7.89 16.2312 8 16.1612 8.12 16.1112C8.36 16.0112 8.64 16.0112 8.88 16.1112C9 16.1612 9.11 16.2312 9.21 16.3212C9.25 16.3712 9.3 16.4212 9.33 16.4712C9.37 16.5312 9.4 16.5912 9.42 16.6512C9.45 16.7112 9.47 16.7712 9.48 16.8412C9.49 16.9012 9.5 16.9712 9.5 17.0312C9.5 17.2912 9.39 17.5512 9.21 17.7412ZM9.21 14.2412C9.11 14.3312 9 14.4012 8.88 14.4512C8.76 14.5012 8.63 14.5312 8.5 14.5312C8.37 14.5312 8.24 14.5012 8.12 14.4512C7.99 14.4012 7.89 14.3312 7.79 14.2412C7.61 14.0512 7.5 13.7912 7.5 13.5312C7.5 13.2712 7.61 13.0112 7.79 12.8212C7.89 12.7312 8 12.6612 8.12 12.6112C8.36 12.5112 8.64 12.5112 8.88 12.6112C9 12.6612 9.11 12.7312 9.21 12.8212C9.25 12.8712 9.3 12.9212 9.33 12.9712C9.37 13.0312 9.4 13.0912 9.42 13.1512C9.45 13.2112 9.47 13.2712 9.48 13.3312C9.49 13.4012 9.5 13.4712 9.5 13.5312C9.5 13.7912 9.39 14.0512 9.21 14.2412ZM12.71 14.2412C12.52 14.4212 12.27 14.5312 12 14.5312C11.87 14.5312 11.74 14.5012 11.62 14.4512C11.49 14.4012 11.39 14.3312 11.29 14.2412C11.11 14.0512 11 13.7912 11 13.5312C11 13.4712 11.01 13.4012 11.02 13.3312C11.03 13.2712 11.05 13.2112 11.08 13.1512C11.1 13.0912 11.13 13.0312 11.17 12.9712C11.21 12.9212 11.25 12.8712 11.29 12.8212C11.66 12.4512 12.33 12.4512 12.71 12.8212C12.75 12.8712 12.79 12.9212 12.83 12.9712C12.87 13.0312 12.9 13.0912 12.92 13.1512C12.95 13.2112 12.97 13.2712 12.98 13.3312C12.99 13.4012 13 13.4712 13 13.5312C13 13.7912 12.89 14.0512 12.71 14.2412Z" fill="#292D32"/>
<path id="Vector_3" d="M21.83 16.2012C20.27 14.6413 17.73 14.6413 16.17 16.2012C14.61 17.7613 14.61 20.3012 16.17 21.8612C17.73 23.4212 20.27 23.4212 21.83 21.8612C23.39 20.3012 23.39 17.7613 21.83 16.2012ZM21.07 19.5912C20.94 19.7312 20.75 19.8113 20.54 19.8113H19.8V20.5912C19.8 20.8012 19.72 20.9813 19.58 21.1213C19.44 21.2613 19.26 21.3412 19.05 21.3412C18.64 21.3412 18.3 21.0012 18.3 20.5912V19.8113H17.55C17.14 19.8113 16.8 19.4813 16.8 19.0613C16.8 18.6513 17.14 18.3113 17.55 18.3113H18.3V17.6012C18.3 17.1912 18.63 16.8512 19.05 16.8512C19.46 16.8512 19.8 17.1912 19.8 17.6012V18.3113H20.54C20.96 18.3113 21.29 18.6513 21.29 19.0613C21.29 19.2713 21.21 19.4612 21.07 19.5912Z" fill="#292D32"/>
</g>
</g>
</svg>
