<svg width="24" height="25" viewBox="0 0 24 25" fill="none" xmlns="http://www.w3.org/2000/svg">
<g id="vuesax/bold/calendar">
<g id="calendar">
<path id="Vector" d="M16.7502 3.59125V2.03125C16.7502 1.62125 16.4102 1.28125 16.0002 1.28125C15.5902 1.28125 15.2502 1.62125 15.2502 2.03125V3.53125H8.75023V2.03125C8.75023 1.62125 8.41023 1.28125 8.00023 1.28125C7.59023 1.28125 7.25023 1.62125 7.25023 2.03125V3.59125C4.55023 3.84125 3.24023 5.45125 3.04023 7.84125C3.02023 8.13125 3.26023 8.37125 3.54023 8.37125H20.4602C20.7502 8.37125 20.9902 8.12125 20.9602 7.84125C20.7602 5.45125 19.4502 3.84125 16.7502 3.59125Z" fill="#292D32"/>
<path id="Vector_2" d="M20 9.87122H4C3.45 9.87122 3 10.3212 3 10.8712V17.0312C3 20.0312 4.5 22.0312 8 22.0312H16C19.5 22.0312 21 20.0312 21 17.0312V10.8712C21 10.3212 20.55 9.87122 20 9.87122ZM9.21 18.2412C9.16 18.2812 9.11 18.3312 9.06 18.3612C9 18.4012 8.94 18.4312 8.88 18.4512C8.82 18.4812 8.76 18.5012 8.7 18.5112C8.63 18.5212 8.57 18.5312 8.5 18.5312C8.37 18.5312 8.24 18.5012 8.12 18.4512C7.99 18.4012 7.89 18.3312 7.79 18.2412C7.61 18.0512 7.5 17.7912 7.5 17.5312C7.5 17.2712 7.61 17.0112 7.79 16.8212C7.89 16.7312 7.99 16.6612 8.12 16.6112C8.3 16.5312 8.5 16.5112 8.7 16.5512C8.76 16.5612 8.82 16.5812 8.88 16.6112C8.94 16.6312 9 16.6612 9.06 16.7012C9.11 16.7412 9.16 16.7812 9.21 16.8212C9.39 17.0112 9.5 17.2712 9.5 17.5312C9.5 17.7912 9.39 18.0512 9.21 18.2412ZM9.21 14.7412C9.02 14.9212 8.76 15.0312 8.5 15.0312C8.24 15.0312 7.98 14.9212 7.79 14.7412C7.61 14.5512 7.5 14.2912 7.5 14.0312C7.5 13.7712 7.61 13.5112 7.79 13.3212C8.07 13.0412 8.51 12.9512 8.88 13.1112C9.01 13.1612 9.12 13.2312 9.21 13.3212C9.39 13.5112 9.5 13.7712 9.5 14.0312C9.5 14.2912 9.39 14.5512 9.21 14.7412ZM12.71 18.2412C12.52 18.4212 12.26 18.5312 12 18.5312C11.74 18.5312 11.48 18.4212 11.29 18.2412C11.11 18.0512 11 17.7912 11 17.5312C11 17.2712 11.11 17.0112 11.29 16.8212C11.66 16.4512 12.34 16.4512 12.71 16.8212C12.89 17.0112 13 17.2712 13 17.5312C13 17.7912 12.89 18.0512 12.71 18.2412ZM12.71 14.7412C12.66 14.7812 12.61 14.8212 12.56 14.8612C12.5 14.9012 12.44 14.9312 12.38 14.9512C12.32 14.9812 12.26 15.0012 12.2 15.0112C12.13 15.0212 12.07 15.0312 12 15.0312C11.74 15.0312 11.48 14.9212 11.29 14.7412C11.11 14.5512 11 14.2912 11 14.0312C11 13.7712 11.11 13.5112 11.29 13.3212C11.38 13.2312 11.49 13.1612 11.62 13.1112C11.99 12.9512 12.43 13.0412 12.71 13.3212C12.89 13.5112 13 13.7712 13 14.0312C13 14.2912 12.89 14.5512 12.71 14.7412ZM16.21 18.2412C16.02 18.4212 15.76 18.5312 15.5 18.5312C15.24 18.5312 14.98 18.4212 14.79 18.2412C14.61 18.0512 14.5 17.7912 14.5 17.5312C14.5 17.2712 14.61 17.0112 14.79 16.8212C15.16 16.4512 15.84 16.4512 16.21 16.8212C16.39 17.0112 16.5 17.2712 16.5 17.5312C16.5 17.7912 16.39 18.0512 16.21 18.2412ZM16.21 14.7412C16.16 14.7812 16.11 14.8212 16.06 14.8612C16 14.9012 15.94 14.9312 15.88 14.9512C15.82 14.9812 15.76 15.0012 15.7 15.0112C15.63 15.0212 15.56 15.0312 15.5 15.0312C15.24 15.0312 14.98 14.9212 14.79 14.7412C14.61 14.5512 14.5 14.2912 14.5 14.0312C14.5 13.7712 14.61 13.5112 14.79 13.3212C14.89 13.2312 14.99 13.1612 15.12 13.1112C15.3 13.0312 15.5 13.0112 15.7 13.0512C15.76 13.0612 15.82 13.0812 15.88 13.1112C15.94 13.1312 16 13.1612 16.06 13.2012C16.11 13.2412 16.16 13.2812 16.21 13.3212C16.39 13.5112 16.5 13.7712 16.5 14.0312C16.5 14.2912 16.39 14.5512 16.21 14.7412Z" fill="#292D32"/>
</g>
</g>
</svg>
