<svg xmlns="http://www.w3.org/2000/svg" width="21" height="20" viewBox="0 0 21 20" fill="none">
  <path d="M9.4319 3.73047H3.19276C2.71999 3.73047 2.26657 3.90912 1.93227 4.22711C1.59797 4.54511 1.41016 4.97641 1.41016 5.42612V17.2957C1.41016 17.7454 1.59797 18.1767 1.93227 18.4947C2.26657 18.8127 2.71999 18.9913 3.19276 18.9913H15.671C16.1438 18.9913 16.5972 18.8127 16.9315 18.4947C17.2658 18.1767 17.4536 17.7454 17.4536 17.2957V11.3609" stroke="#344054" stroke-width="2" stroke-linecap="round" stroke-linejoin="round"/>
  <path d="M16.1165 2.45841C16.4711 2.12113 16.952 1.93164 17.4535 1.93164C17.9549 1.93164 18.4358 2.12113 18.7904 2.45841C19.145 2.7957 19.3442 3.25316 19.3442 3.73015C19.3442 4.20715 19.145 4.6646 18.7904 5.00189L10.323 13.0562L6.75781 13.9041L7.64912 10.5128L16.1165 2.45841Z" stroke="#344054" stroke-width="2" stroke-linecap="round" stroke-linejoin="round"/>
</svg>