<svg xmlns="http://www.w3.org/2000/svg" width="33" height="33" viewBox="0 0 33 33" fill="none">
  <path fill-rule="evenodd" clip-rule="evenodd" d="M17.237 3.47756C19.0989 3.47437 20.9361 3.90348 22.6039 4.73106C24.2722 5.55895 25.7257 6.76298 26.8493 8.24829C27.9732 9.73361 28.7365 11.4596 29.0796 13.2903C29.4225 15.1209 29.3357 17.0063 28.8258 18.7976C28.3161 20.589 27.397 22.2375 26.1415 23.6131C24.886 24.9888 23.3281 26.0543 21.5906 26.7251C19.8532 27.3962 17.9836 27.6544 16.1293 27.4797C14.4972 27.3259 12.9162 26.8405 11.4823 26.0555L7.41468 27.9933C5.71433 28.8032 3.93911 27.0283 4.74879 25.3279L6.68594 21.2594C5.76658 19.5807 5.2601 17.7034 5.21314 15.7834C5.16073 13.6403 5.68279 11.5222 6.72516 9.64898C7.76753 7.77572 9.29221 6.21552 11.141 5.13032C12.9892 4.04548 15.094 3.47482 17.237 3.47756ZM17.237 3.47756C17.2377 3.47756 17.2385 3.47756 17.2391 3.47756L17.2373 4.67756L17.2351 3.47756C17.2357 3.47756 17.2364 3.47756 17.237 3.47756ZM21.537 6.88093C20.2017 6.21825 18.7305 5.87476 17.2396 5.87756H17.2356C15.5202 5.87509 13.8353 6.33173 12.3559 7.2001C10.8765 8.06848 9.65645 9.31695 8.82234 10.8159C7.98823 12.3149 7.57049 14.0098 7.61242 15.7248C7.65437 17.4397 8.15449 19.1122 9.06089 20.5685C9.27698 20.9159 9.30135 21.3491 9.12553 21.7184L7.40039 25.3416L11.0228 23.616C11.392 23.4402 11.8254 23.4645 12.1727 23.6805C13.4386 24.4679 14.8702 24.9506 16.3545 25.0904C17.8388 25.2303 19.3353 25.0234 20.726 24.4864C22.1169 23.9493 23.3637 23.0965 24.3689 21.9954C25.3738 20.8941 26.1093 19.5746 26.5175 18.1407C26.9257 16.7067 26.9951 15.1976 26.7205 13.7322C26.446 12.2669 25.8349 10.8853 24.9354 9.69634C24.0359 8.50741 22.8725 7.54362 21.537 6.88093Z" fill="#475467"/>
  <path fill-rule="evenodd" clip-rule="evenodd" d="M18.5359 10.7576C18.5359 10.0949 17.9987 9.55762 17.3359 9.55762C16.6732 9.55762 16.1359 10.0949 16.1359 10.7576V14.3576H12.5359C11.8732 14.3576 11.3359 14.8949 11.3359 15.5576C11.3359 16.2204 11.8732 16.7576 12.5359 16.7576H16.1359V20.3576C16.1359 21.0203 16.6732 21.5576 17.3359 21.5576C17.9987 21.5576 18.5359 21.0203 18.5359 20.3576V16.7576H22.1359C22.7987 16.7576 23.3359 16.2204 23.3359 15.5576C23.3359 14.8949 22.7987 14.3576 22.1359 14.3576H18.5359V10.7576Z" fill="#475467"/>
</svg>