<svg xmlns="http://www.w3.org/2000/svg" width="25" height="26" viewBox="0 0 25 26" fill="none">
  <path fill-rule="evenodd" clip-rule="evenodd" d="M12.737 0.47658C14.5989 0.473396 16.4361 0.9025 18.1039 1.73008C19.7722 2.55797 21.2257 3.76201 22.3493 5.24732C23.4732 6.73263 24.2365 8.45863 24.5796 10.2893C24.9225 12.12 24.8357 14.0053 24.3258 15.7966C23.8161 17.588 22.897 19.2365 21.6415 20.6122C20.386 21.9878 18.8281 23.0533 17.0906 23.7242C15.3532 24.3952 13.4836 24.6534 11.6293 24.4787C9.99724 24.325 8.41621 23.8395 6.98234 23.0546L2.91468 24.9923C1.21433 25.8022 -0.560891 24.0274 0.24879 22.3269L2.18594 18.2584C1.26658 16.5797 0.760101 14.7024 0.713141 12.7825C0.660725 10.6394 1.18279 8.52127 2.22516 6.64801C3.26753 4.77474 4.79221 3.21455 6.641 2.12935C8.48921 1.0445 10.594 0.473844 12.737 0.47658ZM12.737 0.47658C12.7377 0.47658 12.7385 0.47658 12.7391 0.47658L12.7373 1.67658L12.7351 0.47658C12.7357 0.47658 12.7364 0.47658 12.737 0.47658ZM17.037 3.87996C15.7017 3.21727 14.2305 2.87378 12.7396 2.87658H12.7356C11.0201 2.87412 9.33532 3.33076 7.85591 4.19912C6.3765 5.06751 5.15645 6.31597 4.32234 7.81497C3.48823 9.31396 3.07049 11.0089 3.11242 12.7238C3.15437 14.4387 3.65449 16.1112 4.56089 17.5675C4.77698 17.9149 4.80135 18.3482 4.62553 18.7174L2.90039 22.3406L6.52281 20.615C6.89202 20.4392 7.3254 20.4635 7.67268 20.6795C8.93865 21.4669 10.3702 21.9496 11.8545 22.0894C13.3388 22.2293 14.8353 22.0224 16.226 21.4854C17.6169 20.9483 18.8637 20.0955 19.8689 18.9944C20.8738 17.8931 21.6093 16.5736 22.0175 15.1397C22.4257 13.7058 22.4951 12.1966 22.2205 10.7313C21.946 9.26589 21.3349 7.88429 20.4354 6.69537C19.5359 5.50644 18.3725 4.54265 17.037 3.87996Z" fill="#3B82F6"/>
</svg>