<svg width="33" height="33" viewBox="0 0 33 33" fill="none" xmlns="http://www.w3.org/2000/svg">
<path d="M15.7867 4.62234C16.0112 3.93135 16.9888 3.93136 17.2133 4.62234L19.1544 10.5965C19.4556 11.5236 20.3195 12.1512 21.2943 12.1512H27.5759C28.3025 12.1512 28.6045 13.0809 28.0167 13.508L22.9348 17.2002C22.1462 17.7732 21.8162 18.7887 22.1175 19.7158L24.0586 25.69C24.2831 26.3809 23.4922 26.9555 22.9044 26.5285L17.8225 22.8363C17.0339 22.2633 15.9661 22.2633 15.1775 22.8363L10.0956 26.5285C9.50777 26.9555 8.71691 26.3809 8.94142 25.69L10.8825 19.7158C11.1838 18.7887 10.8538 17.7732 10.0652 17.2002L4.98325 13.508C4.39547 13.0809 4.69755 12.1512 5.42409 12.1512H11.7057C12.6805 12.1512 13.5444 11.5236 13.8456 10.5965L15.7867 4.62234Z" fill="#ffde01"/>
</svg>
