<svg xmlns="http://www.w3.org/2000/svg" width="25" height="25" viewBox="0 0 25 25" fill="none">
  <path d="M13.8294 21.3564C13.6535 21.6595 13.4012 21.9111 13.0976 22.086C12.794 22.2609 12.4497 22.3529 12.0994 22.3529C11.749 22.3529 11.4047 22.2609 11.1011 22.086C10.7975 21.9111 10.5452 21.6595 10.3694 21.3564" stroke="#667085" stroke-width="2" stroke-linecap="round" stroke-linejoin="round"/>
  <path fill-rule="evenodd" clip-rule="evenodd" d="M19.2999 11.2353C19.5593 12.97 20.0311 14.1847 20.4772 15.0026C20.809 15.6109 21.1321 16.0099 21.3566 16.2468C21.469 16.3656 21.5574 16.4443 21.6106 16.4886C21.6373 16.5108 21.6551 16.5244 21.6628 16.5301L21.6657 16.5322C22.0241 16.7785 22.1828 17.2289 22.0564 17.6462C21.9287 18.068 21.54 18.3564 21.0994 18.3564H3.09935C2.65868 18.3564 2.26996 18.068 2.14226 17.6462C2.01592 17.2289 2.17456 16.7785 2.53304 16.5323L2.5359 16.5301C2.5436 16.5244 2.56145 16.5108 2.58807 16.4886C2.64129 16.4443 2.72967 16.3656 2.84215 16.2468C3.06658 16.0099 3.38966 15.6109 3.72146 15.0026C4.38228 13.7911 5.09935 11.7091 5.09935 8.35645C5.09935 6.49993 5.83685 4.71945 7.1496 3.4067C8.46236 2.09394 10.2428 1.35645 12.0994 1.35645C13.0454 1.35645 13.9717 1.54795 14.8264 1.9095C14.3337 2.39068 13.9316 2.96434 13.6483 3.60241C13.1527 3.44092 12.6304 3.35645 12.0994 3.35645C10.7733 3.35645 9.5015 3.88323 8.56382 4.82091C7.62614 5.75859 7.09935 7.03036 7.09935 8.35645C7.09935 12.0038 6.31642 14.4218 5.47725 15.9603C5.40115 16.0998 5.32476 16.2318 5.24868 16.3564H18.95C18.8739 16.2318 18.7976 16.0998 18.7215 15.9603C18.1136 14.8459 17.5352 13.2699 17.2626 11.0995C17.7026 11.2139 18.1643 11.2748 18.6402 11.2748C18.8635 11.2748 19.0836 11.2614 19.2999 11.2353Z" fill="#667085"/>
  <path d="M18.6402 2.07764V8.93396" stroke="#667085" stroke-width="2" stroke-linecap="round" stroke-linejoin="round"/>
  <path d="M15.212 5.50586H22.0684" stroke="#667085" stroke-width="2" stroke-linecap="round" stroke-linejoin="round"/>
</svg>