<svg width="25" height="25" viewBox="0 0 25 25" fill="none" xmlns="http://www.w3.org/2000/svg">
<path d="M14.23 21.3564C14.0542 21.6595 13.8019 21.9111 13.4982 22.086C13.1946 22.2609 12.8504 22.3529 12.5 22.3529C12.1496 22.3529 11.8054 22.2609 11.5018 22.086C11.1982 21.9111 10.9458 21.6595 10.77 21.3564" stroke="#667085" stroke-width="2" stroke-linecap="round" stroke-linejoin="round"/>
<path fill-rule="evenodd" clip-rule="evenodd" d="M7.55027 3.4067C8.86302 2.09394 10.6435 1.35645 12.5 1.35645C14.3565 1.35645 16.137 2.09394 17.4498 3.4067C18.7625 4.71945 19.5 6.49993 19.5 8.35645C19.5 11.7091 20.2171 13.7911 20.8779 15.0026C21.2097 15.6109 21.5328 16.0099 21.7572 16.2468C21.8697 16.3656 21.9581 16.4443 22.0113 16.4886C22.0379 16.5108 22.0558 16.5244 22.0635 16.5301C22.0647 16.531 22.0656 16.5317 22.0663 16.5322C22.4248 16.7785 22.5835 17.2289 22.4571 17.6462C22.3294 18.068 21.9407 18.3564 21.5 18.3564H3.50002C3.05935 18.3564 2.67062 18.068 2.54292 17.6462C2.41658 17.2289 2.57522 16.7785 2.93371 16.5323C2.93441 16.5317 2.93536 16.531 2.93656 16.5301C2.94426 16.5244 2.96212 16.5108 2.98874 16.4886C3.04195 16.4443 3.13034 16.3656 3.24281 16.2468C3.46724 16.0099 3.79033 15.6109 4.12212 15.0026C4.78295 13.7911 5.50002 11.7091 5.50002 8.35645C5.50002 6.49993 6.23751 4.71945 7.55027 3.4067ZM2.94381 16.5254C2.94389 16.5253 2.94397 16.5253 2.94405 16.5252C2.94405 16.5252 2.94404 16.5252 2.94404 16.5252L2.94381 16.5254ZM5.64934 16.3564H19.3507C19.2746 16.2318 19.1982 16.0998 19.1221 15.9603C18.2829 14.4218 17.5 12.0038 17.5 8.35645C17.5 7.03036 16.9732 5.75859 16.0356 4.82091C15.0979 3.88323 13.8261 3.35645 12.5 3.35645C11.1739 3.35645 9.90217 3.88323 8.96448 4.82091C8.0268 5.75859 7.50002 7.03036 7.50002 8.35645C7.50002 12.0038 6.71708 14.4218 5.87791 15.9603C5.80181 16.0998 5.72543 16.2318 5.64934 16.3564Z" fill="#667085"/>
</svg>
