<svg width="24" height="25" viewBox="0 0 24 25" fill="none" xmlns="http://www.w3.org/2000/svg">
<path d="M13.73 21.3564C13.5542 21.6595 13.3019 21.9111 12.9982 22.086C12.6946 22.2609 12.3504 22.3529 12 22.3529C11.6496 22.3529 11.3054 22.2609 11.0018 22.086C10.6982 21.9111 10.4458 21.6595 10.27 21.3564" stroke="#48BF84" stroke-width="2" stroke-linecap="round" stroke-linejoin="round"/>
<path fill-rule="evenodd" clip-rule="evenodd" d="M19.7442 13.5374C19.9438 14.1262 20.1638 14.6101 20.3779 15.0026C20.7097 15.6109 21.0328 16.0099 21.2572 16.2468C21.3697 16.3656 21.4581 16.4443 21.5113 16.4886C21.5379 16.5108 21.5558 16.5244 21.5635 16.5301L21.5663 16.5322C21.9248 16.7785 22.0835 17.2289 21.9571 17.6462C21.8294 18.068 21.4407 18.3564 21 18.3564H3.00002C2.55935 18.3564 2.17062 18.068 2.04292 17.6462C1.91658 17.2289 2.07522 16.7785 2.43371 16.5323L2.43656 16.5301C2.44426 16.5244 2.46212 16.5108 2.48874 16.4886C2.54195 16.4443 2.63034 16.3656 2.74281 16.2468C2.96724 16.0099 3.29033 15.6109 3.62212 15.0026C4.28295 13.7911 5.00002 11.7091 5.00002 8.35645C5.00002 6.49993 5.73751 4.71945 7.05027 3.4067C8.36302 2.09394 10.1435 1.35645 12 1.35645C12.2818 1.35645 12.5618 1.37343 12.8387 1.40684C12.0577 1.9575 11.3942 2.66373 10.8933 3.48045C9.98071 3.6876 9.13674 4.14866 8.46448 4.82091C7.5268 5.75859 7.00002 7.03036 7.00002 8.35645C7.00002 12.0038 6.21708 14.4218 5.37791 15.9603C5.30181 16.0998 5.22543 16.2318 5.14934 16.3564H18.8507C18.7746 16.2318 18.6982 16.0998 18.6221 15.9603C18.3387 15.4407 18.0617 14.8208 17.8191 14.087C18.4963 13.9957 19.1428 13.8077 19.7442 13.5374Z" fill="#48BF84"/>
<circle cx="16.8735" cy="7.14038" r="5.80737" fill="#48BF84"/>
</svg>
