<svg width="24" height="25" viewBox="0 0 24 25" fill="none" xmlns="http://www.w3.org/2000/svg">
<g id="fluent-emoji-high-contrast:input-numbers">
<g id="Group">
<path id="Vector" d="M8.61001 4.46037C8.89726 4.57512 9.08626 4.85337 9.08626 5.16312V10.7904C9.08626 10.9913 9.00645 11.1839 8.86439 11.326C8.72233 11.4681 8.52966 11.5479 8.32876 11.5479C8.12786 11.5479 7.93518 11.4681 7.79313 11.326C7.65107 11.1839 7.57126 10.9913 7.57126 10.7904V7.15587C7.57112 7.14811 7.56872 7.14056 7.56434 7.13415C7.55996 7.12774 7.55381 7.12276 7.54663 7.11981C7.53945 7.11686 7.53157 7.11607 7.52395 7.11755C7.51633 7.11902 7.50931 7.1227 7.50376 7.12812C7.43591 7.20295 7.35379 7.26346 7.26221 7.30609C7.17063 7.34871 7.07145 7.37259 6.97051 7.37632C6.86957 7.38005 6.7689 7.36355 6.67443 7.32779C6.57995 7.29204 6.49359 7.23775 6.42041 7.16812C6.34723 7.09849 6.28871 7.01493 6.24831 6.92235C6.2079 6.82977 6.18642 6.73005 6.18512 6.62905C6.18383 6.52804 6.20274 6.4278 6.24076 6.33422C6.27879 6.24063 6.33514 6.1556 6.40651 6.08412L7.78051 4.64112C7.88491 4.53159 8.01971 4.45583 8.16756 4.42362C8.3154 4.3914 8.46951 4.4042 8.61001 4.46037ZM15.6225 5.92137C15.4883 5.92812 15.2768 5.99412 15.0383 6.27762C14.9745 6.35469 14.8962 6.41839 14.8077 6.46503C14.7192 6.51167 14.6224 6.54033 14.5228 6.54936C14.4232 6.55839 14.3228 6.54761 14.2274 6.51763C14.132 6.48766 14.0435 6.43909 13.9669 6.37472C13.8904 6.31036 13.8273 6.23148 13.7814 6.14262C13.7355 6.05377 13.7077 5.95671 13.6995 5.85704C13.6913 5.75737 13.7029 5.65706 13.7337 5.5619C13.7645 5.46674 13.8138 5.37862 13.8788 5.30262C14.3453 4.74762 14.9303 4.43937 15.5468 4.40862C15.834 4.39557 16.1207 4.44289 16.3885 4.54753C16.6563 4.65217 16.8992 4.8118 17.1015 5.01612C17.9265 5.83887 18.0285 7.24287 16.971 8.37837C16.6635 8.70837 16.2908 9.09837 15.9135 9.49212V9.49287L15.5483 9.87387C15.5354 9.8871 15.5268 9.90383 15.5234 9.92195C15.52 9.94007 15.5221 9.95879 15.5293 9.97575C15.5365 9.99272 15.5485 10.0072 15.5639 10.0173C15.5793 10.0275 15.5973 10.0329 15.6158 10.0329H17.172C17.3729 10.0329 17.5656 10.1127 17.7076 10.2547C17.8497 10.3968 17.9295 10.5895 17.9295 10.7904C17.9295 10.9913 17.8497 11.1839 17.7076 11.326C17.5656 11.4681 17.3729 11.5479 17.172 11.5479H14.1345C13.32 11.5479 12.8325 10.5759 13.4153 9.93387C13.7843 9.52737 14.331 8.95512 14.853 8.40912C15.228 8.01687 15.5895 7.63887 15.8625 7.34562C16.1513 7.03587 16.2263 6.76437 16.227 6.57387C16.2283 6.48409 16.2118 6.39495 16.1783 6.31164C16.1448 6.22833 16.0951 6.15251 16.032 6.08862C15.9793 6.03353 15.9156 5.99016 15.8451 5.96134C15.7745 5.93252 15.6987 5.9189 15.6225 5.92137ZM7.51426 14.8584C7.56103 14.7607 7.63068 14.6757 7.71729 14.6107C7.80389 14.5456 7.90491 14.5024 8.01177 14.4847C8.11863 14.4671 8.22818 14.4754 8.33112 14.5091C8.43407 14.5428 8.52737 14.6008 8.60312 14.6782C8.67887 14.7556 8.73483 14.8502 8.76625 14.9538C8.79768 15.0575 8.80364 15.1672 8.78363 15.2736C8.76363 15.3801 8.71824 15.4801 8.65133 15.5653C8.58442 15.6505 8.49795 15.7182 8.39926 15.7629C8.39045 15.7668 8.38109 15.7693 8.37151 15.7704C8.19028 15.7894 8.022 15.8732 7.89751 16.0063C7.77303 16.1393 7.70069 16.3128 7.69377 16.4949C7.68684 16.677 7.74579 16.8555 7.8598 16.9977C7.97382 17.1398 8.13525 17.2361 8.31451 17.2689C8.42595 17.302 8.52693 17.3634 8.60765 17.4471C8.68836 17.5308 8.74606 17.6339 8.77515 17.7465C8.80424 17.859 8.80372 17.9772 8.77365 18.0895C8.74358 18.2018 8.68498 18.3045 8.60354 18.3874C8.5221 18.4704 8.42059 18.5309 8.30886 18.5631C8.19713 18.5953 8.07898 18.598 7.96589 18.571C7.8528 18.544 7.7486 18.4883 7.66342 18.4091C7.57824 18.33 7.51497 18.2302 7.47976 18.1194C7.45019 18.0239 7.40202 17.9352 7.33802 17.8584C7.27402 17.7816 7.19546 17.7183 7.10686 17.672C7.01826 17.6257 6.92138 17.5974 6.8218 17.5888C6.72222 17.5801 6.62191 17.5913 6.52665 17.6215C6.43139 17.6518 6.34307 17.7007 6.26678 17.7652C6.19048 17.8298 6.12772 17.9089 6.08211 17.9978C6.0365 18.0867 6.00895 18.1838 6.00103 18.2835C5.99312 18.3831 6.00501 18.4833 6.03601 18.5784C6.13271 18.8822 6.29462 19.1612 6.51042 19.3959C6.72622 19.6306 6.99069 19.8153 7.28534 19.9371C7.57999 20.0589 7.89769 20.1149 8.21622 20.1011C8.53475 20.0873 8.84642 20.004 9.12942 19.8572C9.41242 19.7103 9.65991 19.5034 9.85459 19.2509C10.0493 18.9984 10.1864 18.7064 10.2565 18.3954C10.3265 18.0843 10.3277 17.7618 10.2601 17.4502C10.1924 17.1386 10.0575 16.8456 9.86476 16.5916C9.85162 16.5744 9.84451 16.5533 9.84451 16.5316C9.84451 16.5099 9.85162 16.4889 9.86476 16.4716C10.0502 16.228 10.1825 15.9482 10.253 15.6503C10.3236 15.3524 10.3308 15.043 10.2743 14.7421C10.2178 14.4412 10.0988 14.1555 9.925 13.9034C9.75118 13.6514 9.52641 13.4387 9.26522 13.2789C9.00403 13.1192 8.71224 13.0161 8.40869 12.9761C8.10514 12.9362 7.7966 12.9605 7.503 13.0473C7.20941 13.1341 6.93729 13.2815 6.70423 13.48C6.47117 13.6786 6.28236 13.9238 6.15001 14.1999C6.10682 14.2895 6.08171 14.3868 6.07611 14.4861C6.0705 14.5854 6.08452 14.6849 6.11736 14.7788C6.18368 14.9685 6.32262 15.124 6.50363 15.2112C6.68464 15.2985 6.89289 15.3102 7.08256 15.2439C7.17647 15.2111 7.263 15.16 7.3372 15.0938C7.4114 15.0275 7.47182 14.9472 7.51501 14.8576L7.51426 14.8584ZM15.366 13.9426C15.4147 13.7477 15.384 13.5414 15.2807 13.3691C15.1773 13.1968 15.0097 13.0726 14.8148 13.0239C14.6198 12.9751 14.4135 13.0058 14.2412 13.1092C14.0689 13.2126 13.9447 13.3802 13.896 13.5751L13.1025 16.7589C13.0746 16.8706 13.0725 16.9871 13.0964 17.0998C13.1202 17.2124 13.1695 17.3181 13.2403 17.4088C13.3112 17.4996 13.4018 17.573 13.5053 17.6234C13.6088 17.6739 13.7224 17.7001 13.8375 17.7001H15.5355C15.5873 17.7001 15.6293 17.7421 15.6293 17.7939V19.3336C15.6293 19.5345 15.7091 19.7272 15.8511 19.8693C15.9932 20.0113 16.1859 20.0911 16.3868 20.0911C16.5877 20.0911 16.7803 20.0113 16.9224 19.8693C17.0645 19.7272 17.1443 19.5345 17.1443 19.3336V17.7609C17.1443 17.7159 17.1758 17.6784 17.2185 17.6656C17.3726 17.6175 17.5072 17.5213 17.6028 17.3913C17.6984 17.2612 17.75 17.104 17.75 16.9426C17.75 16.7812 17.6984 16.624 17.6028 16.4939C17.5072 16.3639 17.3726 16.2678 17.2185 16.2196C17.1973 16.2138 17.1786 16.2013 17.1651 16.184C17.1516 16.1667 17.144 16.1456 17.1435 16.1236V15.7066C17.1373 15.5099 17.0548 15.3234 16.9135 15.1865C16.7722 15.0495 16.5832 14.9729 16.3864 14.9729C16.1896 14.9729 16.0006 15.0495 15.8592 15.1865C15.7179 15.3234 15.6355 15.5099 15.6293 15.7066V16.0914C15.6293 16.1162 15.6194 16.1401 15.6018 16.1577C15.5842 16.1752 15.5604 16.1851 15.5355 16.1851H14.9273C14.9131 16.1851 14.899 16.1818 14.8863 16.1756C14.8735 16.1693 14.8624 16.1603 14.8536 16.1491C14.8449 16.1379 14.8388 16.1248 14.8358 16.1109C14.8329 16.097 14.8331 16.0827 14.8365 16.0689L15.366 13.9426Z" fill="#344054"/>
<path id="Vector_2" d="M4.5 1C4.00754 1 3.51991 1.097 3.06494 1.28545C2.60997 1.47391 2.19657 1.75013 1.84835 2.09835C1.14509 2.80161 0.75 3.75544 0.75 4.75V19.75C0.75 20.7446 1.14509 21.6984 1.84835 22.4016C2.19657 22.7499 2.60997 23.0261 3.06494 23.2145C3.51991 23.403 4.00754 23.5 4.5 23.5H19.5C20.4946 23.5 21.4484 23.1049 22.1516 22.4016C22.8549 21.6984 23.25 20.7446 23.25 19.75V4.75C23.25 4.25754 23.153 3.76991 22.9645 3.31494C22.7761 2.85997 22.4999 2.44657 22.1516 2.09835C21.8034 1.75013 21.39 1.47391 20.9351 1.28545C20.4801 1.097 19.9925 1 19.5 1H4.5ZM2.25 4.75C2.25 4.15326 2.48705 3.58097 2.90901 3.15901C3.33097 2.73705 3.90326 2.5 4.5 2.5H19.5C20.0967 2.5 20.669 2.73705 21.091 3.15901C21.5129 3.58097 21.75 4.15326 21.75 4.75V19.75C21.75 20.3467 21.5129 20.919 21.091 21.341C20.669 21.7629 20.0967 22 19.5 22H4.5C3.90326 22 3.33097 21.7629 2.90901 21.341C2.48705 20.919 2.25 20.3467 2.25 19.75V4.75Z" fill="#344054"/>
</g>
</g>
</svg>
