<svg xmlns="http://www.w3.org/2000/svg" width="25" height="25" viewBox="0 0 25 25" fill="none">
  <path d="M13.8294 21.3564C13.6535 21.6595 13.4012 21.9111 13.0976 22.086C12.794 22.2609 12.4497 22.3529 12.0994 22.3529C11.749 22.3529 11.4047 22.2609 11.1011 22.086C10.7975 21.9111 10.5452 21.6595 10.3694 21.3564" stroke="#48BF84" stroke-width="2" stroke-linecap="round" stroke-linejoin="round"/>
  <path fill-rule="evenodd" clip-rule="evenodd" d="M19.1669 10.0753C19.3605 12.4435 19.9376 14.0133 20.4772 15.0026C20.809 15.6109 21.1321 16.0099 21.3566 16.2468C21.469 16.3656 21.5574 16.4443 21.6106 16.4886C21.6373 16.5108 21.6551 16.5244 21.6628 16.5301L21.6657 16.5322C22.0241 16.7785 22.1828 17.2289 22.0564 17.6462C21.9287 18.068 21.54 18.3564 21.0994 18.3564H3.09935C2.65868 18.3564 2.26996 18.068 2.14226 17.6462C2.01592 17.2289 2.17456 16.7785 2.53304 16.5323L2.5359 16.5301C2.5436 16.5244 2.56145 16.5108 2.58807 16.4886C2.64129 16.4443 2.72967 16.3656 2.84215 16.2468C3.06658 16.0099 3.38966 15.6109 3.72146 15.0026C4.38228 13.7911 5.09935 11.7091 5.09935 8.35645C5.09935 6.49993 5.83685 4.71945 7.1496 3.4067C8.46236 2.09394 10.2428 1.35645 12.0994 1.35645C13.1107 1.35645 14.0995 1.57531 15.0024 1.98682C14.5563 2.48687 14.2118 3.07949 14.0012 3.73227C13.4035 3.48646 12.7581 3.35645 12.0994 3.35645C10.7733 3.35645 9.5015 3.88323 8.56382 4.82091C7.62614 5.75859 7.09935 7.03036 7.09935 8.35645C7.09935 12.0038 6.31642 14.4218 5.47725 15.9603C5.40115 16.0998 5.32476 16.2318 5.24868 16.3564H18.95C18.8739 16.2318 18.7976 16.0998 18.7215 15.9603C18.0043 14.6455 17.3282 12.6883 17.1468 9.8703C17.6174 10.0217 18.1193 10.1034 18.6402 10.1034C18.8182 10.1034 18.9939 10.0939 19.1669 10.0753Z" fill="#48BF84"/>
  <circle cx="18.6402" cy="5.23016" r="3.5954" fill="#48BF84"/>
</svg>