<svg width="386" height="267" viewBox="0 0 386 267" fill="none" xmlns="http://www.w3.org/2000/svg">
<path d="M67 140.586C67 124.039 70.2591 107.655 76.5912 92.3678C82.9233 77.0808 92.2044 63.1907 103.905 51.4905C115.605 39.7903 129.495 30.5092 144.782 24.1771C160.069 17.845 176.453 14.5859 193 14.5859C209.547 14.5859 225.931 17.845 241.218 24.1771C256.505 30.5092 270.395 39.7903 282.095 51.4905C293.796 63.1907 303.077 77.0808 309.409 92.3678C315.741 107.655 319 124.039 319 140.586" stroke="#48BF84" stroke-width="28" stroke-linecap="round" stroke-linejoin="round"/>
<path d="M67 140.586C67 113.977 75.4237 88.0518 91.0639 66.525C106.704 44.9982 128.758 28.9753 154.064 20.7528C179.37 12.5303 206.63 12.5303 231.936 20.7528C257.242 28.9753 279.296 44.9982 294.936 66.525" stroke="#2E90FA" stroke-width="28" stroke-linecap="round" stroke-linejoin="round"/>
<path d="M67 140.469C67 117.232 73.4259 94.4469 85.5673 74.6339C97.7088 54.8209 115.093 38.7514 135.797 28.2019C156.502 17.6524 179.72 13.034 202.886 14.8572C226.051 16.6803 248.262 24.8741 267.061 38.5326" stroke="#FDB022" stroke-width="28" stroke-linecap="round" stroke-linejoin="round"/>
<path d="M67 140.734C67 107.317 80.275 75.2685 103.905 51.6389C127.534 28.0093 159.583 14.7344 193 14.7344" stroke="#D92D20" stroke-width="28" stroke-linecap="round" stroke-linejoin="round"/>
</svg>
