<svg width="348" height="221" viewBox="0 0 348 221" fill="none" xmlns="http://www.w3.org/2000/svg">
<rect width="348" height="220" transform="translate(0 0.5)" fill="#F9FAFB"/>
<path d="M199 83H149C144.858 83 141.5 86.3579 141.5 90.5V130.5C141.5 134.642 144.858 138 149 138H199C203.142 138 206.5 134.642 206.5 130.5V90.5C206.5 86.3579 203.142 83 199 83Z" stroke="#475467" stroke-width="5" stroke-linejoin="round"/>
<path d="M186.656 102.906C189.452 102.906 191.719 100.64 191.719 97.8438C191.719 95.0478 189.452 92.7812 186.656 92.7812C183.86 92.7812 181.594 95.0478 181.594 97.8438C181.594 100.64 183.86 102.906 186.656 102.906Z" stroke="#475467" stroke-width="5" stroke-miterlimit="10"/>
<path d="M181.594 123.126L167.251 108.81C166.338 107.898 165.112 107.369 163.822 107.33C162.532 107.292 161.276 107.748 160.311 108.605L141.094 125.691M168.938 138.347L188.45 118.834C189.343 117.94 190.537 117.412 191.799 117.353C193.061 117.295 194.299 117.71 195.27 118.518L206.906 128.222" stroke="#475467" stroke-width="5" stroke-linecap="round" stroke-linejoin="round"/>
</svg>
