<svg width="24" height="25" viewBox="0 0 24 25" fill="none" xmlns="http://www.w3.org/2000/svg">
<g id="bell">
<path id="Vector" d="M18 8.48047C18 6.88917 17.3679 5.36305 16.2426 4.23783C15.1174 3.11261 13.5913 2.48047 12 2.48047C10.4087 2.48047 8.88258 3.11261 7.75736 4.23783C6.63214 5.36305 6 6.88917 6 8.48047C6 15.4805 3 17.4805 3 17.4805H21C21 17.4805 18 15.4805 18 8.48047Z" stroke="black" stroke-width="2" stroke-linecap="round" stroke-linejoin="round"/>
<path id="Vector_2" d="M13.7295 21.4805C13.5537 21.7835 13.3014 22.0351 12.9978 22.21C12.6941 22.3849 12.3499 22.4769 11.9995 22.4769C11.6492 22.4769 11.3049 22.3849 11.0013 22.21C10.6977 22.0351 10.4453 21.7835 10.2695 21.4805" stroke="black" stroke-width="2" stroke-linecap="round" stroke-linejoin="round"/>
<path id="Vector_3" d="M11.9922 6.64453V9.98047" stroke="black" stroke-width="2" stroke-linecap="round" stroke-linejoin="round"/>
<path id="Vector_4" d="M11.9922 12.7998H12.0022" stroke="black" stroke-width="2" stroke-linecap="round" stroke-linejoin="round"/>
</g>
</svg>
