<svg width="174" height="25" viewBox="0 0 174 25" fill="none" xmlns="http://www.w3.org/2000/svg">
<rect width="173" height="24.0675" transform="translate(0.117188)" fill="#E2DFDA"/>
<path d="M51.0587 16.2529C51.8196 15.7747 52.9278 15.253 53.8494 14.9391C54.4952 14.7191 54.6176 14.6599 54.5826 14.5843C54.5595 14.5344 54.5266 13.6865 54.5093 12.7001L54.478 10.9065L51.9556 9.79589L51.2105 10.6153L50.4632 10.2977V7.77401L50.7269 8.00613C51.316 8.52467 52.3603 8.88629 53.1198 8.83474C53.5756 8.8038 53.7047 8.70457 54.0854 8.09239C54.3912 7.60058 54.5315 7.24485 54.6499 6.66007C54.7497 6.16766 54.7216 6.05871 54.5118 6.12531C54.4308 6.15099 54.3936 6.21005 54.393 6.31338C54.3913 6.64621 54.3423 6.70775 54.0269 6.77324C53.4969 6.88326 52.7268 6.66871 52.2383 6.27497C52.1182 6.1782 51.9987 6.09903 51.9726 6.09903C51.9465 6.09903 51.7541 6.20407 51.5451 6.33246C50.6531 6.88043 49.1247 7.52732 48.1142 7.78461C47.9157 7.83515 47.8789 7.86404 47.9145 7.9414C47.9385 7.99356 47.9722 8.85302 47.9894 9.85132L48.0207 11.6664L49.1868 12.1956C49.8282 12.4867 50.3714 12.7231 50.394 12.7211C50.4167 12.719 50.597 12.5319 50.7949 12.3054L51.1546 11.8934L51.574 12.0845C51.8046 12.1896 52.0028 12.2756 52.0144 12.2756C52.026 12.2756 52.0355 12.8486 52.0355 13.5488V14.822L51.9091 14.706C51.3159 14.1616 49.9028 13.7204 49.0809 13.8231C48.8029 13.8578 48.7533 13.8868 48.5236 14.1493C48.0841 14.6515 47.5995 15.8251 47.5995 16.3874C47.5995 16.5323 47.6168 16.5486 47.7539 16.5328C47.8916 16.517 47.9102 16.4896 47.9254 16.2808C47.9348 16.1519 47.9794 16.0159 48.0245 15.9784C48.1438 15.8794 48.8156 15.8457 49.1767 15.9207C49.5398 15.996 50.0823 16.2476 50.3228 16.452C50.4155 16.5308 50.495 16.5961 50.4995 16.5973C50.504 16.5984 50.7557 16.4434 51.0587 16.2529ZM50.1825 16.1141C49.6273 15.7673 48.6922 15.5792 48.2031 15.716C48.0078 15.7706 47.9888 15.6369 48.1735 15.5075C48.3377 15.3925 49.0907 15.3905 49.5259 15.5039C50.1477 15.6658 50.8097 16.0875 50.6826 16.2406C50.5927 16.3489 50.5348 16.3343 50.1825 16.1141ZM52.3832 15.0666C52.2668 14.9427 52.2615 14.8836 52.247 13.5412L52.232 12.1448L51.7657 11.9481C51.3095 11.7557 51.3016 11.7492 51.4048 11.646C51.5079 11.5429 51.522 11.5457 52.0536 11.7746L52.597 12.0086V13.6021C52.597 14.4784 52.5761 15.1955 52.5506 15.1955C52.5251 15.1955 52.4498 15.1375 52.3832 15.0666ZM49.2472 12.004L48.2278 11.5193L48.2058 9.77774C48.1937 8.81992 48.1977 8.01907 48.2146 7.9981C48.2314 7.97712 48.3147 7.9428 48.3997 7.92182L48.5541 7.88368V11.3606L48.9612 11.5474C50.5475 12.2755 50.5289 12.2652 50.464 12.3865C50.4305 12.4491 50.3724 12.4976 50.3349 12.4945C50.2974 12.4913 49.8079 12.2705 49.2472 12.004ZM52.2346 8.53949C51.4668 8.32884 50.4632 7.61162 50.4632 7.27349C50.4632 7.18343 50.479 7.10974 50.4982 7.10974C50.5174 7.10974 50.6956 7.26167 50.8941 7.44736C51.5819 8.09082 52.6944 8.48148 53.4464 8.34365C53.5815 8.31891 53.6986 8.30524 53.7067 8.31329C53.7149 8.32134 53.6688 8.39495 53.6044 8.47687C53.493 8.61844 53.4631 8.62557 53 8.6208C52.732 8.61804 52.3876 8.58145 52.2346 8.53949ZM58.8808 16.0693C59.315 15.7778 59.8854 15.422 60.1484 15.2786C60.6019 15.0314 60.7241 14.8925 60.5478 14.8248C60.5045 14.8082 60.3616 14.8494 60.2304 14.9163L59.9917 15.0381L59.7617 14.9104C59.6351 14.8402 59.3611 14.6712 59.1526 14.5348L58.7736 14.2869V8.1673L60.4073 8.19833L60.814 7.63518C61.2612 7.01585 61.6663 6.29203 61.5915 6.24582C61.5652 6.22958 61.3184 6.24 61.043 6.26897C60.7677 6.29793 60.1444 6.32208 59.658 6.32263L58.7736 6.32363L58.7753 5.88846C58.777 5.46527 58.8352 4.55476 58.9172 3.67049C58.942 3.40347 58.9368 3.23532 58.9039 3.23532C58.8338 3.23532 57.0721 4.4031 56.4913 4.83451L56.0393 5.1703L56.0927 6.46605L55.8548 6.94231C55.7239 7.20426 55.5312 7.56085 55.4265 7.73475C55.3218 7.90865 55.2361 8.06657 55.2361 8.08569C55.2361 8.10482 55.4256 8.12046 55.6572 8.12046H56.0784V14.2339L55.8257 14.4154C55.6867 14.5152 55.573 14.615 55.573 14.6371C55.573 14.6967 56.2592 15.3277 56.747 15.7165C57.1917 16.0711 57.9693 16.5993 58.0466 16.5993C58.0712 16.5993 58.4466 16.3608 58.8808 16.0693ZM57.6225 16.0504C57.0735 15.6795 56.7332 15.4147 56.2569 14.9876L55.8458 14.619L56.154 14.4168L56.5513 14.7696C56.9731 15.1442 57.5951 15.6101 58.0929 15.9243L58.395 16.1149L58.2692 16.2167C58.2001 16.2727 58.1147 16.3179 58.0795 16.3172C58.0443 16.3165 57.8387 16.1964 57.6225 16.0504ZM56.3389 9.84711C56.3198 7.52316 56.2901 5.5333 56.2731 5.42521C56.2454 5.25036 56.2624 5.21469 56.4269 5.10178L56.6118 4.97487L56.6261 9.42061C56.6393 13.4975 56.6328 13.8749 56.5473 13.9694C56.496 14.0261 56.4359 14.0725 56.4139 14.0725C56.3918 14.0725 56.3581 12.1711 56.3389 9.84711ZM59.4334 7.96623C58.7741 7.94846 58.7736 7.94834 58.7736 7.80985V7.67125H59.6439C60.1226 7.67125 60.5134 7.69021 60.5124 7.71337C60.508 7.81303 60.291 8.00714 60.1964 7.99609C60.1396 7.98945 59.7962 7.97601 59.4334 7.96623ZM55.5748 7.9099C55.5802 7.78116 55.7439 7.67125 55.9301 7.67125C56.1107 7.67125 56.1345 7.68761 56.1345 7.81163C56.1345 7.94265 56.1158 7.95201 55.8537 7.95201C55.6993 7.95201 55.5738 7.93306 55.5748 7.9099ZM87.9162 16.5117C89.195 16.2691 90.417 15.5514 91.1559 14.609C91.5119 14.1549 91.9128 13.3567 92.0438 12.8413C92.1619 12.3764 92.2196 11.7141 92.142 11.7141C92.1103 11.7141 91.974 11.8846 91.8391 12.093C91.3197 12.8955 90.347 13.7005 89.5144 14.017L89.3759 14.0697V5.15688L89.9795 5.13614C90.5037 5.11814 90.6259 5.09449 90.9079 4.95645C91.3769 4.72681 91.7488 4.3212 92.045 3.71628C92.37 3.05233 92.674 2 92.5407 2C92.521 2 92.3927 2.10334 92.2557 2.22963C92.1187 2.35593 91.8632 2.52649 91.6879 2.60865C91.38 2.75299 91.3361 2.75795 90.3866 2.75534C89.5889 2.75315 89.1767 2.71945 88.1967 2.5763C86.3463 2.30602 85.9301 2.26462 85.0803 2.26631C84.2173 2.26802 83.7147 2.35221 83.0957 2.59874C81.4074 3.27114 80.6542 4.68632 81.105 6.33919C81.2008 6.69035 81.272 6.78244 81.3238 6.62198C81.448 6.23673 81.7688 5.69652 82.0242 5.44244C82.5684 4.90112 83.2088 4.6511 84.1819 4.60011C84.9694 4.55885 87.3693 4.76897 87.7596 4.91335C87.8239 4.93712 87.5401 5.07529 86.9177 5.32329C86.4013 5.52905 85.8062 5.77498 85.5952 5.86982C85.2336 6.0324 85.2135 6.05108 85.2444 6.19697C85.3515 6.70241 85.3872 7.74016 85.3868 10.3384C85.3863 13.9353 85.372 14.034 84.8902 13.7565C84.0504 13.2728 83.3899 12.3749 83.0757 11.2898C82.8961 10.6693 82.8981 9.43643 83.08 8.7662C83.254 8.12462 83.6377 7.37975 84.0721 6.84002C84.2784 6.58359 84.4357 6.36222 84.4216 6.3481C84.3277 6.2542 83.1694 6.84208 82.594 7.27568C81.2879 8.25981 80.6149 9.59575 80.6171 11.1997C80.6189 12.5702 81.1017 13.7581 82.0615 14.7537C82.9986 15.7258 84.0697 16.2857 85.4301 16.5144C86.0563 16.6197 87.3543 16.6183 87.9162 16.5117ZM85.5576 16.3487C83.2374 15.9674 81.5515 14.4982 80.9751 12.3551C80.8955 12.059 80.8705 11.7669 80.8699 11.1245C80.8691 10.3964 80.8868 10.2255 81.0005 9.86356C81.1768 9.30224 81.4569 8.75858 81.7739 8.36256C82.0853 7.97354 82.2591 7.79295 82.115 8.00816C81.7741 8.51741 81.5337 8.9734 81.3819 9.39906C81.2116 9.87653 81.207 9.91466 81.2069 10.8719C81.2069 12.0153 81.2587 12.2666 81.6777 13.146C82.3884 14.6374 83.6964 15.6412 85.3625 15.9738C87.2268 16.346 88.8601 16.0758 90.2597 15.1634C90.5148 14.9971 90.7235 14.8713 90.7235 14.8837C90.7235 14.8962 90.5151 15.064 90.2603 15.2567C89.6927 15.6858 88.834 16.1052 88.1967 16.2644C87.5754 16.4197 86.2478 16.4621 85.5576 16.3487ZM86.2229 14.3022C85.9558 14.2441 85.6904 14.1704 85.6333 14.1385C85.5382 14.0852 85.5425 14.0754 85.6851 14.0212C85.974 13.9114 87.2677 13.3525 87.6294 13.1813L87.9885 13.0113L87.967 5.56559L88.2248 5.06023L88.5056 5.07626C88.66 5.08507 88.8179 5.10323 88.8565 5.11661C88.9119 5.1358 88.9267 6.10081 88.9267 9.68829V14.2356L88.7161 14.3007C88.6003 14.3364 88.1013 14.3752 87.6071 14.3868C86.879 14.4039 86.6166 14.3878 86.2229 14.3022ZM85.5344 13.7215C85.6104 13.5127 85.6297 7.38832 85.5564 6.74733C85.4976 6.23373 85.5005 6.18248 85.5919 6.11563C85.7551 5.9963 85.8239 6.0311 85.8645 6.25344C85.8857 6.36925 85.9158 7.81225 85.9315 9.46009C85.9628 12.7393 85.937 13.1925 85.6956 13.6043C85.5419 13.8666 85.4599 13.9262 85.5344 13.7215ZM81.3756 5.98672C81.5145 5.4629 82.0213 4.85736 82.5634 4.56745C83.1148 4.27258 83.632 4.17395 84.6311 4.17313C85.538 4.17238 86.1868 4.23659 87.9568 4.50227C89.1286 4.67815 90.2155 4.73689 90.5911 4.64464C90.9748 4.55038 91.3995 4.24191 91.6846 3.8504C91.8185 3.66652 91.9356 3.51608 91.9449 3.51608C91.987 3.51608 91.7567 3.90866 91.5597 4.17284C91.288 4.5371 90.9543 4.76998 90.525 4.89476C90.0934 5.02023 89.4714 4.98385 87.6633 4.72742C86.9221 4.62229 86.0135 4.50546 85.6443 4.46779C84.8396 4.3857 83.7007 4.42767 83.2274 4.55687C82.4963 4.75638 81.8734 5.21725 81.5181 5.8216C81.4192 5.98963 81.3552 6.06393 81.3756 5.98672ZM6.89185 16.2289C7.26108 15.9306 8.42377 15.1955 8.52639 15.1955C8.55288 15.1955 8.57456 13.9826 8.57456 12.5002V9.80499H10.9329V15.057L11.186 15.3464C11.4326 15.6282 12.1595 16.261 12.4565 16.4522L12.6043 16.5475L13.3549 16.0201C13.7677 15.7301 14.401 15.3098 14.7623 15.0861C15.3457 14.725 15.4121 14.6681 15.3558 14.5778C15.2857 14.4655 15.2211 14.479 14.7993 14.6942C14.5708 14.8108 14.557 14.8116 14.3903 14.7168C14.2954 14.6628 14.1103 14.5158 13.9791 14.39L13.7405 14.1614V9.23467C13.7405 4.11634 13.7578 3.65957 13.9909 2.64702C14.0334 2.46242 14.0554 2.2907 14.0398 2.26541C13.9805 2.16941 12.3724 3.18458 11.362 3.95589C11.0518 4.19268 10.7805 4.39905 10.7591 4.41449C10.7377 4.42994 10.7569 4.61945 10.8017 4.83563C10.8522 5.07957 10.8953 5.74526 10.9154 6.59035L10.9477 7.95201H8.56113L8.59147 5.80423C8.62232 3.61957 8.64723 3.34014 8.87777 2.59221C8.92492 2.43923 8.95324 2.30382 8.9407 2.29128C8.90456 2.25514 8.54789 2.84489 8.43768 3.12302C8.1736 3.78946 8.16821 3.90574 8.14159 9.50565L8.11645 14.7933L7.81104 14.6883C7.64307 14.6305 7.3591 14.5666 7.17999 14.5463C6.79353 14.5026 5.96834 14.6007 5.47442 14.749L5.12127 14.8551L5.80382 14.1971C6.7809 13.2551 7.03399 12.8996 7.16386 12.2869C7.20662 12.0852 7.22724 10.8556 7.2279 8.46864C7.22847 6.53225 7.25404 4.70788 7.28478 4.41449C7.3511 3.78169 7.50217 3.20041 7.73209 2.69334C7.8721 2.38454 7.88352 2.32943 7.80185 2.35651C7.74815 2.37431 7.52734 2.45234 7.31116 2.5299C6.79854 2.71381 6.38876 2.71345 5.40109 2.52821C4.34066 2.32932 3.80556 2.34869 3.28571 2.60478C2.85859 2.81518 2.61202 3.0692 2.40362 3.51352C2.2802 3.77665 2.25757 3.90322 2.25757 4.33027C2.25757 4.60822 2.27879 4.91143 2.30474 5.00408L2.35191 5.17253L2.45434 4.976C2.60195 4.69276 2.89449 4.43243 3.17729 4.33266C3.49553 4.22037 3.5846 4.22298 4.2678 4.36455C4.64009 4.4417 4.93557 4.4717 5.11439 4.45053C5.38953 4.41794 5.90372 4.19864 6.27236 3.95665C6.44993 3.84009 6.43909 3.86149 6.16006 4.1784C4.73482 5.79712 4.59399 6.06677 4.54449 7.27188L4.51593 7.96744L3.6389 7.89981L3.20453 8.41723C2.67318 9.05018 2.11719 9.79433 2.11719 9.87256C2.11719 9.90647 2.16945 9.91453 2.24353 9.89204C2.31301 9.87094 2.85862 9.83916 3.45597 9.82142L4.54208 9.78917L4.51657 11.6641C4.48757 13.7961 4.46554 13.9438 4.05303 14.7744C3.91498 15.0523 3.60957 15.5401 3.37435 15.8582C3.13913 16.1764 2.9599 16.45 2.97605 16.4661C2.9922 16.4823 3.25175 16.4166 3.55282 16.3202C3.86151 16.2213 4.35542 16.1163 4.68542 16.0794C5.19712 16.0222 5.31655 16.0261 5.6364 16.11C5.83758 16.1627 6.1072 16.2796 6.23554 16.3697C6.36388 16.4597 6.47656 16.5356 6.48593 16.5383C6.49529 16.5409 6.67796 16.4017 6.89185 16.2289ZM12.3008 16.0565C12.1507 15.9448 11.8194 15.6491 11.5646 15.3994L11.1014 14.9453V10.2369C11.1014 7.13928 11.08 5.34763 11.039 4.99962C10.9773 4.47679 10.9781 4.46939 11.1092 4.36022C11.1821 4.29948 11.2695 4.24894 11.3035 4.24791C11.4146 4.24455 11.4377 5.24698 11.438 10.0945L11.4382 14.8481L11.8453 15.2254C12.0692 15.4329 12.4007 15.7036 12.582 15.8269C12.8306 15.996 12.8926 16.0636 12.8346 16.1024C12.5947 16.263 12.5762 16.2614 12.3008 16.0565ZM6.30124 16.1184C6.08946 15.9583 5.4897 15.8132 5.04011 15.8132C4.67012 15.8132 4.13927 15.9099 3.66134 16.0645C3.59957 16.0845 3.63748 16.0493 3.74557 15.9864C4.05015 15.8092 4.45763 15.6984 5.0005 15.645C5.59096 15.5871 5.99337 15.642 6.42486 15.8396C6.73153 15.98 6.73581 15.9851 6.63678 16.0945C6.51702 16.2269 6.451 16.2316 6.30124 16.1184ZM3.84871 15.392C4.28775 14.7226 4.46885 14.2826 4.59701 13.5738C4.62839 13.4003 4.67182 11.7296 4.69352 9.86115C4.73152 6.58823 4.73728 6.45328 4.851 6.17061C4.9774 5.85642 5.34573 5.31348 5.68046 4.94793L5.88612 4.72333L5.66588 5.06023C5.39731 5.47108 5.18595 5.88363 5.09052 6.18325C5.03781 6.34874 5.00869 7.30192 4.97986 9.80499C4.93779 13.4575 4.92905 13.5677 4.62732 14.249C4.55012 14.4234 4.35974 14.7518 4.20425 14.979C3.84216 15.508 3.55014 15.8472 3.84871 15.392ZM2.69982 9.29963H4.47553V9.58039H3.89442C3.5748 9.58039 3.11625 9.59705 2.87541 9.61741L2.43751 9.65442L2.69982 9.29963ZM8.57456 9.29736L9.73969 9.31253C10.9 9.32765 10.9049 9.32823 10.9228 9.45405L10.9407 9.58039H8.57456V9.29736ZM2.43149 4.56029C2.50083 4.33126 2.73533 4.08739 3.02506 3.94302C3.3935 3.75941 3.79169 3.75157 4.56336 3.91271C5.13067 4.03118 5.52077 4.01412 5.9788 3.8508C6.12624 3.79823 6.12778 3.79959 6.01968 3.88706C5.59966 4.22695 5.00299 4.31332 4.2676 4.14067C3.66107 3.99827 3.57218 3.9956 3.19239 4.10839C2.9982 4.16606 2.81475 4.27663 2.64771 4.43668C2.46412 4.61259 2.40551 4.6461 2.43149 4.56029ZM18.2431 16.1021C18.5925 15.8595 19.1752 15.4773 19.538 15.2527C19.9009 15.0281 20.1978 14.8254 20.1978 14.8022C20.1978 14.779 20.165 14.7328 20.1249 14.6995C20.0712 14.6549 19.9734 14.6754 19.7543 14.7769C19.3767 14.9518 19.3432 14.9502 19.0428 14.7436L18.794 14.5724V7.69338L18.6139 7.44367C18.3117 7.02459 18.0181 6.70261 17.6573 6.3945L17.3129 6.1004L16.9445 6.3024C16.1914 6.71532 14.6389 7.82269 14.6389 7.94691C14.6389 7.97303 14.6733 8.023 14.7154 8.05795C14.7746 8.10705 14.8656 8.07715 15.1159 7.92645C15.4973 7.69681 15.5254 7.7045 15.8974 8.13991L16.1549 8.4414V14.3515L15.8774 14.5629C15.7247 14.6792 15.5984 14.7964 15.5966 14.8233C15.59 14.9254 16.6573 15.9114 17.109 16.2204C17.3684 16.3979 17.5868 16.5431 17.5943 16.5431C17.6018 16.5431 17.8938 16.3447 18.2431 16.1021ZM17.1036 15.9177C16.8479 15.7281 16.473 15.4106 16.2705 15.2122L15.9023 14.8513L16.1671 14.6342L16.5962 15.0354C16.8322 15.256 17.2239 15.5759 17.4667 15.7462L17.9082 16.0559L17.7756 16.1579C17.7026 16.214 17.6262 16.2604 17.6057 16.2611C17.5852 16.2618 17.3593 16.1073 17.1036 15.9177ZM16.3795 8.31543L16.0452 7.94502C15.7198 7.58442 15.7143 7.57309 15.8375 7.51695C15.9847 7.44988 16.1783 7.58751 16.5163 7.99944L16.7165 8.24339V14.0648L16.3795 14.3047V8.31543ZM23.026 16.0464C23.4316 15.7732 24.0098 15.4054 24.3109 15.2289C24.612 15.0525 24.8584 14.8894 24.8584 14.8665C24.8584 14.8436 24.8308 14.7973 24.797 14.7636C24.7527 14.7192 24.6435 14.7397 24.4029 14.8374C24.0993 14.9608 24.0563 14.9655 23.9127 14.8913C23.8261 14.8465 23.7253 14.7738 23.6887 14.7296C23.6387 14.6694 23.6257 13.8406 23.6366 11.399L23.6511 8.14854L24.0722 7.93888C24.3039 7.82358 24.5221 7.72882 24.5572 7.72832C24.5923 7.72781 24.7754 7.87624 24.9643 8.05815L25.3076 8.3889V15.1329L25.628 15.4791C25.8043 15.6695 26.1598 15.9902 26.418 16.1919L26.8876 16.5585L27.0662 16.4258C27.6696 15.9773 28.5447 15.3721 28.9418 15.1285C29.3456 14.8808 29.3964 14.8321 29.3469 14.7397C29.2772 14.6095 29.3073 14.6071 28.9536 14.771C28.6236 14.9238 28.5371 14.9051 28.178 14.603L28.0028 14.4555V7.77816L27.8109 7.47822C27.5526 7.07429 27.0347 6.55383 26.6397 6.30117L26.3158 6.09399L25.7355 6.37391C25.2078 6.62842 24.2549 7.23048 23.8129 7.58851L23.6379 7.73035L23.5379 7.57446C23.3016 7.20605 22.8389 6.6819 22.5033 6.40252L22.1416 6.10141L21.7733 6.30527C21.0427 6.70975 19.4679 7.8361 19.4679 7.9542C19.4679 7.97631 19.5023 8.023 19.5444 8.05795C19.6036 8.10706 19.6953 8.07672 19.9482 7.92445C20.1282 7.81608 20.2938 7.72741 20.3161 7.72741C20.3385 7.72741 20.4979 7.88332 20.6704 8.07388L20.9839 8.42036V14.4977L20.4029 14.9315L20.9331 15.4473C21.367 15.8694 22.183 16.5388 22.2679 16.5423C22.2793 16.5427 22.6204 16.3196 23.026 16.0464ZM21.9303 16.0003C21.7341 15.8564 21.3903 15.5616 21.1664 15.3452C20.781 14.9728 20.7642 14.9463 20.8522 14.849C20.9033 14.7925 20.9737 14.7463 21.0086 14.7463C21.0435 14.7463 21.2101 14.8869 21.3789 15.0587C21.5477 15.2305 21.8753 15.5136 22.107 15.6879C22.3386 15.8622 22.5468 16.0195 22.5696 16.0376C22.5925 16.0556 22.5383 16.1134 22.4491 16.1661C22.2873 16.2617 22.2865 16.2615 21.9303 16.0003ZM26.5701 15.997C26.3888 15.8548 26.0811 15.5766 25.8863 15.3789L25.5322 15.0195V8.31909L24.811 7.62913L24.9544 7.56376C25.0891 7.50241 25.1216 7.5221 25.4835 7.88397L25.8691 8.26955V14.9005L26.2805 15.2913C26.5068 15.5063 26.8128 15.7653 26.9605 15.8669C27.2351 16.0558 27.2356 16.062 26.988 16.2048C26.9224 16.2426 26.8148 16.1891 26.5701 15.997ZM21.2085 11.3521V8.3509L20.9257 8.01108C20.7702 7.82417 20.6186 7.67125 20.5888 7.67125C20.4869 7.67125 20.5347 7.57699 20.6674 7.51654C20.7875 7.46179 20.8325 7.48884 21.1447 7.80383L21.4893 8.15156V11.1595C21.4893 14.0022 21.4837 14.1725 21.3866 14.2603C21.3301 14.3114 21.267 14.3532 21.2462 14.3532C21.2255 14.3532 21.2085 13.0027 21.2085 11.3521ZM36.5344 16.0727C36.9029 15.814 37.4829 15.4188 37.8233 15.1944C38.3632 14.8385 38.4351 14.7731 38.3865 14.6821C38.3558 14.6248 38.3182 14.5778 38.3029 14.5778C38.2877 14.5778 38.121 14.6557 37.9325 14.7509L37.5897 14.9239L37.0362 14.3813L37.0611 7.04545L35.3816 5.9954C32.3614 4.10709 30.927 3.119 30.3635 2.53859C30.2258 2.39678 30.0892 2.28076 30.06 2.28076C29.9374 2.28076 30.1103 4.49789 30.3082 5.46471L30.368 5.75688L30.9401 6.03896C31.2548 6.1941 31.7367 6.4519 32.011 6.61184L32.5098 6.90265L32.3198 7.00307C32.2154 7.05831 31.6372 7.32264 31.035 7.59048L29.94 8.07747L29.9769 8.59029C29.9971 8.87234 30.0164 10.4044 30.0197 11.9949L30.0257 14.8867L30.3479 15.2585C30.525 15.463 30.7711 15.7187 30.8946 15.8268C31.2053 16.0987 31.7691 16.487 31.8531 16.487C31.8913 16.487 32.4519 16.1332 33.0987 15.7009C33.7456 15.2685 34.2976 14.9163 34.3254 14.9182C34.3532 14.9201 34.5023 15.0986 34.6567 15.3148C34.8897 15.6411 35.7593 16.5431 35.8408 16.5431C35.8538 16.5431 36.166 16.3314 36.5344 16.0727ZM31.4842 15.9898C31.2834 15.8408 30.9234 15.513 30.684 15.2613L30.2489 14.8037V11.9197C30.2489 10.3336 30.233 8.84803 30.2136 8.61851C30.1787 8.20624 30.1801 8.20038 30.3285 8.13276C30.4111 8.09511 30.4902 8.06431 30.5042 8.06431C30.5182 8.06431 30.5296 9.54539 30.5296 11.3556V14.6469L30.9495 15.0783C31.1804 15.3156 31.5587 15.6336 31.79 15.785L32.2107 16.0602L32.058 16.1609C31.974 16.2163 31.8927 16.2614 31.8772 16.2611C31.8618 16.2609 31.6849 16.1388 31.4842 15.9898ZM35.4006 15.8205C35.1684 15.5775 34.8871 15.2431 34.7755 15.0773L34.5725 14.7759V7.86764L32.7616 6.84678C31.7656 6.28531 30.8575 5.78236 30.7436 5.72912C30.5712 5.64854 30.5303 5.5955 30.4994 5.41268C30.479 5.29188 30.4711 5.18614 30.4819 5.17771C30.4927 5.16928 31.4744 5.73483 32.6633 6.4345L34.8252 7.70662L34.8541 14.5869L35.0341 14.8491C35.1331 14.9933 35.4247 15.325 35.6822 15.5862L36.1503 16.0612L36.0211 16.1605C35.9501 16.2152 35.8764 16.2604 35.8574 16.2611C35.8383 16.2618 35.6328 16.0635 35.4006 15.8205ZM33.0664 14.5727L32.713 14.2868L32.7348 10.965C32.755 7.88393 32.7815 7.30975 32.9097 7.18159C32.9271 7.16423 33.2514 7.32914 33.6305 7.54806L34.3198 7.94609L34.3488 14.5087L33.9132 14.6839C33.6736 14.7803 33.4645 14.8591 33.4487 14.8589C33.4328 14.8587 33.2608 14.7299 33.0664 14.5727ZM43.0565 15.1795L43.5391 14.8693L43.7865 15.2132C44.0918 15.6376 44.9356 16.487 45.0519 16.487C45.099 16.487 45.5209 16.2128 45.9895 15.8777C46.4581 15.5426 47.0247 15.1473 47.2486 14.9991C47.4725 14.851 47.6557 14.7113 47.6557 14.6888C47.6557 14.6662 47.6225 14.6202 47.5819 14.5865C47.5269 14.5408 47.4184 14.5677 47.155 14.6923L46.8018 14.8593L46.2519 14.3989V8.14133L46.5046 7.95201C46.6436 7.84788 46.7573 7.7478 46.7573 7.7296C46.7573 7.6385 45.6813 6.66326 45.1246 6.24978L44.9239 6.10066L44.2543 6.5102C43.1861 7.16353 42.3775 7.72338 42.3775 7.80957C42.3775 7.95605 42.4834 7.95715 42.7666 7.81364C43.114 7.63761 43.137 7.63764 43.3689 7.81449L43.5566 7.95772V14.5061L43.1368 14.6823C42.9059 14.7793 42.6847 14.8586 42.6452 14.8586C42.6058 14.8586 42.4157 14.7293 42.2228 14.5714L41.8721 14.2842V7.49188L41.4931 7.09923C41.1065 6.69872 40.4227 6.15518 40.3054 6.15518C40.1819 6.15518 37.8814 7.71986 37.8442 7.82919C37.837 7.85042 37.8553 7.90569 37.8848 7.95201C37.9309 8.02422 37.9797 8.01329 38.2266 7.87535L38.5145 7.71447L39.1488 8.1504L39.1778 14.8167L39.374 15.084C39.6368 15.442 40.2218 15.983 40.6743 16.2866L41.0432 16.534L41.8086 16.0119C42.2296 15.7247 42.7911 15.3501 43.0565 15.1795ZM44.6393 15.8772C44.4254 15.6654 44.1448 15.3341 44.0158 15.1409L43.7813 14.7896V7.8413L43.5528 7.69012C43.3247 7.53914 43.3245 7.53885 43.4545 7.46841C43.5952 7.39221 43.7231 7.4446 43.9918 7.68847L44.1182 7.80313V14.7245L44.2549 14.9098C44.4247 15.1399 44.809 15.5469 45.1284 15.8346L45.3703 16.0527L45.2356 16.1563C45.1614 16.2132 45.0845 16.2604 45.0645 16.2611C45.0446 16.2618 44.8532 16.0891 44.6393 15.8772ZM40.7762 16.0566C40.3706 15.7852 40.0035 15.4543 39.7004 15.0868L39.4015 14.7244V8.062L39.1422 7.88066C38.9996 7.78093 38.8458 7.6728 38.8004 7.64037C38.7314 7.59107 38.7402 7.57129 38.8537 7.51955C38.974 7.46474 39.0323 7.48908 39.3639 7.73263L39.7384 8.00759V14.6865L40.1529 15.1064C40.5063 15.4644 41.0948 15.9118 41.3277 15.9996C41.4112 16.031 41.2089 16.2018 41.085 16.2044C41.0381 16.2054 40.8991 16.1389 40.7762 16.0566ZM63.5824 16.0051C64.0104 15.7091 64.5467 15.351 64.774 15.2092C65.1514 14.9738 65.1924 14.9601 65.2435 15.0515C65.3724 15.2818 66.012 16.0173 66.3083 16.2758L66.6275 16.5544L67.4874 15.9402C67.9604 15.6024 68.5435 15.1946 68.7833 15.0339C69.1692 14.7753 69.2125 14.7292 69.1604 14.6319C69.1033 14.5252 69.0919 14.5269 68.7682 14.6903C68.5848 14.7829 68.4123 14.8586 68.3849 14.8586C68.3575 14.8586 68.2165 14.7542 68.0716 14.6267L67.8081 14.3947L67.8318 11.1313C67.8448 9.33635 67.8742 7.78566 67.8972 7.68529C67.9328 7.52987 67.9234 7.50269 67.8343 7.50208C67.4964 7.49974 65.3741 6.66678 64.7527 6.29261L64.4375 6.1028L63.641 6.90375C62.8392 7.71006 62.1696 8.27694 61.3141 8.87375L60.8505 9.19714L60.9645 9.35722C61.1767 9.6552 61.9383 10.213 62.5076 10.4873C62.8165 10.6362 63.1119 10.7583 63.1641 10.7588C63.2163 10.7592 63.2723 10.781 63.2885 10.8073C63.3212 10.8602 62.2572 11.3356 61.4522 11.6279C60.9559 11.8081 60.936 11.8219 60.9498 11.9754C60.9577 12.0633 60.9798 12.7971 60.9989 13.6059L61.0336 15.0766L61.2933 15.3794C61.7049 15.8593 62.5522 16.5431 62.7354 16.5431C62.7733 16.5431 63.1544 16.301 63.5824 16.0051ZM62.4189 16.0525C62.2515 15.9399 61.9187 15.6519 61.6794 15.4127L61.2442 14.9777V14.0285C61.2442 13.5064 61.2281 12.8156 61.2084 12.4935L61.1725 11.9077L61.3151 11.8427C61.3935 11.807 61.4728 11.7929 61.4913 11.8115C61.5098 11.83 61.525 12.5071 61.525 13.3161V14.787L61.9906 15.2299C62.2467 15.4735 62.5873 15.7486 62.7475 15.8412C62.9077 15.9339 63.0393 16.0232 63.0399 16.0397C63.0406 16.0562 62.9696 16.1119 62.8822 16.1635C62.7263 16.2557 62.7177 16.2536 62.4189 16.0525ZM66.1781 15.8272C65.9439 15.5878 65.6602 15.2684 65.5477 15.1172L65.3433 14.8424V8.75622L64.88 8.63287C64.4454 8.51714 63.5434 8.11911 63.2945 7.93317C63.1854 7.85167 63.1852 7.84731 63.288 7.73378L63.393 7.61771L63.6241 7.76127C64.012 8.00216 64.6673 8.28911 65.1436 8.42663L65.5959 8.5572L65.625 14.6741L65.9794 15.0892C66.1743 15.3175 66.4699 15.6266 66.6363 15.7761L66.9388 16.0478L66.8008 16.1538C66.7249 16.2121 66.6496 16.2604 66.6334 16.2611C66.6172 16.2618 66.4124 16.0665 66.1781 15.8272ZM64.0518 14.6688C63.5587 14.3038 63.591 14.4524 63.612 12.6479C63.6242 11.5985 63.6516 11.0249 63.6914 10.9851C63.7348 10.9417 63.8452 10.9488 64.0799 11.0099C64.2603 11.0569 64.5681 11.1117 64.764 11.1318L65.1202 11.1683L65.0906 14.5882L64.7582 14.7234C64.5753 14.7977 64.3985 14.858 64.3651 14.8572C64.3317 14.8564 64.1908 14.7716 64.0518 14.6688ZM64.4168 10.7246C63.2747 10.5186 62.339 10.096 61.616 9.45975L61.3982 9.26806L61.9529 8.85354C62.258 8.62556 62.6272 8.34007 62.7734 8.21912L63.0392 7.99922L63.2079 8.11929C63.4795 8.31268 64.2748 8.66656 64.6987 8.78263L65.0906 8.88992L65.1213 10.8157L64.9936 10.8107C64.9234 10.8079 64.6638 10.7692 64.4168 10.7246ZM72.0458 16.0464C72.4514 15.7732 73.0296 15.4054 73.3307 15.2289C73.6318 15.0525 73.8782 14.8894 73.8782 14.8665C73.8782 14.8436 73.8506 14.7973 73.8169 14.7636C73.7725 14.7192 73.6625 14.74 73.4198 14.8386L73.084 14.9751L72.699 14.7371V8.11407L73.1233 7.92074C73.3566 7.81441 73.5707 7.72741 73.5991 7.72741C73.6275 7.72741 73.803 7.87638 73.9891 8.05847L74.3274 8.38953V15.1598L74.8207 15.6409C75.092 15.9055 75.4567 16.2198 75.6312 16.3393L75.9484 16.5567L76.1907 16.3622C76.5789 16.0507 77.5193 15.3984 77.9911 15.1133C78.3724 14.8828 78.419 14.8373 78.3691 14.744C78.3088 14.6313 78.3071 14.6316 77.8604 14.8224C77.6726 14.9026 77.6468 14.9007 77.4674 14.7933C77.3618 14.7301 77.2185 14.6261 77.149 14.5621L77.0227 14.446V7.75398L76.8158 7.4459C76.5465 7.04491 76.065 6.56539 75.6652 6.30015L75.3466 6.08873L74.7608 6.37128C74.2288 6.62787 73.276 7.22936 72.8335 7.58799L72.6591 7.72932L72.5011 7.48972C72.2541 7.11524 71.8591 6.67489 71.4994 6.37293L71.1701 6.09653L70.7975 6.30366C70.0574 6.71511 68.4877 7.83677 68.4877 7.9542C68.4877 7.97631 68.5222 8.023 68.5643 8.05795C68.6234 8.10706 68.7152 8.07672 68.9681 7.92445C69.148 7.81608 69.3136 7.72741 69.336 7.72741C69.3584 7.72741 69.5178 7.88332 69.6902 8.07388L70.0038 8.42036V14.4977L69.4291 14.9267L69.8147 15.3197C70.1329 15.644 71.2147 16.5423 71.2878 16.5429C71.2991 16.543 71.6402 16.3196 72.0458 16.0464ZM70.9501 16.0003C70.7539 15.8564 70.4102 15.5616 70.1862 15.3452C69.8008 14.9728 69.784 14.9463 69.8721 14.849C69.9232 14.7925 69.9936 14.7463 70.0284 14.7463C70.0633 14.7463 70.23 14.8871 70.3988 15.0591C70.5676 15.2312 70.8952 15.5131 71.1268 15.6857C71.3584 15.8583 71.5666 16.0154 71.5895 16.0349C71.6124 16.0544 71.5581 16.1134 71.469 16.1661C71.3071 16.2617 71.3064 16.2615 70.9501 16.0003ZM75.4965 15.9327C75.2702 15.7506 74.9651 15.4735 74.8185 15.3168L74.552 15.0319V8.33177L74.1854 7.97225C73.8359 7.62958 73.8247 7.61048 73.9467 7.56476C74.1053 7.50532 74.2718 7.61466 74.6309 8.01407L74.888 8.30008L74.917 14.9893L75.4258 15.4153C75.7056 15.6496 76.0047 15.8918 76.0904 15.9535L76.2462 16.0658L75.908 16.2638L75.4965 15.9327ZM70.2284 11.3567C70.2284 7.97083 70.2766 8.34282 69.768 7.8075L69.5506 7.57877L69.6874 7.51646C69.8136 7.45896 69.8528 7.48378 70.1947 7.838L70.5653 8.22185V14.109L70.4353 14.2311C70.3639 14.2983 70.2881 14.3532 70.2669 14.3532C70.2457 14.3532 70.2284 13.0048 70.2284 11.3567ZM95.7227 15.8369C96.1387 15.5565 96.6617 15.2191 96.885 15.0871C97.2378 14.8786 97.2836 14.8334 97.2349 14.7423C97.1749 14.6302 97.0908 14.6448 96.7341 14.8293C96.4972 14.9518 96.3856 14.9366 96.1224 14.7459L95.8894 14.5771V7.71359L95.6414 7.36608C95.505 7.17494 95.174 6.8108 94.9057 6.55688L94.418 6.09519L93.9886 6.33032C93.2138 6.75451 91.7342 7.81483 91.7342 7.94581C91.7342 7.97254 91.7672 8.02178 91.8075 8.05523C91.8623 8.10073 91.962 8.06716 92.203 7.92199C92.5772 7.69654 92.6214 7.70902 92.9836 8.14252L93.1942 8.39453V14.4058L92.9437 14.5901C92.8059 14.6914 92.6922 14.7919 92.691 14.8133C92.6829 14.9567 93.7393 15.9207 94.3664 16.3422C94.6649 16.5428 94.6701 16.544 94.8174 16.4459C94.8993 16.3913 95.3067 16.1172 95.7227 15.8369ZM94.2788 15.9865C94.0645 15.8359 93.6885 15.5224 93.4434 15.2898L92.9976 14.8669L93.2452 14.6142L93.6829 15.0324C93.9237 15.2624 94.2975 15.5744 94.5137 15.7258C94.7299 15.8772 94.9255 16.0166 94.9483 16.0357C94.9712 16.0548 94.9176 16.1131 94.8292 16.1653C94.6692 16.2598 94.6671 16.2591 94.2788 15.9865ZM93.4567 14.2602C93.4358 14.2393 93.4188 12.8853 93.4188 11.2514V8.28058L93.0981 7.94442C92.8408 7.67463 92.7937 7.59802 92.8595 7.55639C93.0213 7.45403 93.1307 7.50792 93.4408 7.84291L93.7557 8.18302V14.0529L93.6252 14.1755C93.5534 14.2429 93.4776 14.281 93.4567 14.2602ZM100.06 16.0748C100.437 15.8173 100.968 15.4745 101.238 15.313C101.508 15.1516 101.729 15.001 101.729 14.9784C101.729 14.853 101.597 14.8165 101.416 14.892C101.156 15.0009 101.09 14.9925 100.891 14.8251L100.717 14.6794L100.746 8.15019L101.027 8.01557C101.708 7.68892 101.623 7.68422 102.036 8.07082L102.403 8.41409V15.1698L102.894 15.652C103.369 16.1184 103.887 16.5431 103.981 16.5431C104.006 16.5431 104.268 16.3676 104.565 16.153C104.861 15.9384 105.374 15.5939 105.704 15.3875C106.035 15.181 106.311 15.0073 106.319 15.0014C106.326 14.9956 106.301 14.9479 106.263 14.8956C106.198 14.8066 106.178 14.8064 105.956 14.8936L105.719 14.9868L105.098 14.508V8.13617L105.533 7.93903C106.041 7.70915 106.049 7.71107 106.488 8.1605L106.783 8.46239V15.2022L107.078 15.5142C107.372 15.8256 108.142 16.4733 108.281 16.5269C108.322 16.5424 108.652 16.341 109.015 16.0792C109.378 15.8174 109.934 15.4355 110.252 15.2306C110.766 14.8989 110.823 14.846 110.771 14.7492C110.714 14.6432 110.705 14.644 110.399 14.7842C110.048 14.9447 110.001 14.9349 109.622 14.6224L109.422 14.4574V7.75548L109.268 7.52756C108.87 6.93983 108.14 6.25809 107.823 6.17859C107.582 6.11797 106.291 6.80492 105.505 7.41218C105.281 7.58555 105.078 7.72721 105.056 7.72697C105.033 7.72675 104.959 7.62893 104.891 7.50963C104.621 7.03887 103.649 6.15518 103.4 6.15518C103.143 6.15518 101.891 6.85225 101.164 7.40031C100.769 7.69793 100.698 7.73294 100.653 7.65295C100.403 7.20611 99.3785 6.15518 99.1929 6.15518C98.989 6.15518 96.8294 7.60318 96.5736 7.91144C96.4773 8.0275 96.6428 8.16737 96.7784 8.08443C96.8299 8.05289 96.9881 7.95956 97.13 7.87704L97.388 7.72699L98.0232 8.39288V14.5181L97.7727 14.7024C97.6349 14.8037 97.5212 14.9125 97.52 14.9441C97.5146 15.0853 99.1633 16.5416 99.3298 16.5428C99.3537 16.543 99.6821 16.3324 100.06 16.0748ZM98.9661 15.9784C98.759 15.8229 98.4063 15.5239 98.1824 15.3141L97.7751 14.9327L98.0793 14.7334L98.4475 15.0778C98.65 15.2673 99.0058 15.5654 99.2382 15.7403L99.6608 16.0584L99.5298 16.1591C99.4578 16.2145 99.3862 16.2602 99.3708 16.2606C99.3553 16.261 99.1732 16.134 98.9661 15.9784ZM103.666 16.028C103.512 15.8995 103.215 15.6287 103.007 15.4262L102.628 15.0581L102.623 8.37314L102.443 8.16557C102.344 8.05141 102.169 7.88443 102.054 7.79452L101.846 7.63103L101.99 7.56527C102.12 7.50628 102.16 7.51989 102.376 7.69738C102.509 7.80621 102.696 7.99378 102.791 8.1142L102.964 8.33315V14.9475L103.203 15.175C103.455 15.4152 104.035 15.8881 104.191 15.9812C104.274 16.0303 104.269 16.0487 104.144 16.1481C104.066 16.2096 103.991 16.2603 103.975 16.2608C103.96 16.2613 103.821 16.1565 103.666 16.028ZM108.074 16.056C107.935 15.9496 107.638 15.6816 107.414 15.4603L107.007 15.0579V8.37742L106.611 7.9899C106.393 7.77677 106.223 7.59575 106.232 7.58764C106.242 7.57954 106.308 7.55479 106.38 7.53265C106.491 7.49864 106.571 7.55274 106.899 7.88097L107.288 8.26955V14.9011L107.669 15.2589C107.878 15.4556 108.181 15.7051 108.341 15.8132C108.502 15.9212 108.633 16.028 108.634 16.0504C108.635 16.0727 108.566 16.1266 108.481 16.1701C108.336 16.2446 108.312 16.238 108.074 16.056ZM98.3039 8.38352L98.0703 8.08068C97.9418 7.91412 97.7902 7.75297 97.7334 7.72257C97.5943 7.64817 97.6034 7.58915 97.7651 7.51547C97.8887 7.45917 97.929 7.48414 98.2429 7.81094L98.5856 8.16791L98.5566 14.1992L98.3039 14.3669V8.38352ZM114.683 16.0178C115.493 15.5059 116.738 14.7736 117.271 14.4958C117.698 14.2733 117.697 14.2735 117.612 14.1361C117.57 14.0702 117.508 14.0163 117.472 14.0163C117.437 14.0163 117.064 14.1832 116.644 14.3872L115.88 14.7581L115.557 14.4754C115.209 14.171 114.235 13.1858 113.894 12.7918C113.703 12.5717 113.685 12.5243 113.701 12.2674L113.717 11.9849L115.679 10.9326C116.759 10.3538 117.65 9.85387 117.661 9.8216C117.672 9.78934 117.442 9.41233 117.151 8.98381C116.549 8.09754 116.091 7.37063 115.662 6.61842C115.499 6.33275 115.357 6.09903 115.347 6.09903C115.337 6.09903 114.915 6.26061 114.41 6.45811C113.474 6.82448 112.313 7.21117 111.425 7.45238L110.929 7.58703L110.966 7.78356C110.986 7.89165 111.016 9.27434 111.031 10.8562L111.059 13.7323L111.455 14.1972C112.106 14.9612 113.705 16.5431 113.827 16.5431C113.841 16.5431 114.226 16.3067 114.683 16.0178ZM113.279 15.7687C112.697 15.2301 112.054 14.5588 111.547 13.9596L111.287 13.6513L111.246 7.7328L111.379 7.6993C111.453 7.68087 111.529 7.68175 111.548 7.70127C111.568 7.72078 111.593 9.04226 111.603 10.6379L111.623 13.539L111.94 13.9023C112.513 14.5579 112.979 15.036 113.549 15.5524C113.858 15.8322 114.118 16.0776 114.127 16.0978C114.135 16.1179 114.081 16.1748 114.006 16.2241C113.871 16.3126 113.861 16.3064 113.279 15.7687ZM113.689 9.98128C113.689 9.18264 113.673 8.41196 113.654 8.26868C113.633 8.12033 113.64 8.00816 113.67 8.00816C113.699 8.00816 113.793 8.15345 113.88 8.33103C114.116 8.81365 114.62 9.6641 114.965 10.1607C115.133 10.4027 115.262 10.608 115.252 10.6169C115.205 10.6579 113.753 11.4334 113.723 11.4334C113.704 11.4334 113.689 10.7799 113.689 9.98128ZM115.077 9.98453C114.629 9.30746 114.203 8.58378 113.912 8.00496C113.735 7.65166 113.69 7.50123 113.691 7.2654L113.694 6.96936L113.949 7.47472C114.407 8.3845 114.653 8.81181 115.143 9.55231C115.409 9.95379 115.644 10.3102 115.667 10.3443C115.69 10.3804 115.651 10.4319 115.572 10.4677C115.444 10.526 115.42 10.5018 115.077 9.98453ZM17.4393 5.16177C17.6439 5.01688 18.0629 4.70735 18.3702 4.47392C18.6775 4.2405 18.9537 4.03259 18.9839 4.01191C19.0504 3.96635 18.5388 3.3293 17.9237 2.69172L17.4745 2.22609L16.7677 2.74474C15.8519 3.41668 15.4865 3.70326 15.4835 3.7518C15.4763 3.86958 16.9018 5.42521 17.0169 5.42521C17.0446 5.42521 17.2346 5.30666 17.4393 5.16177ZM16.6255 4.73736C16.057 4.14512 15.8004 3.81139 15.8381 3.71324C15.9016 3.54779 16.0352 3.6339 16.4252 4.09163C16.6423 4.34641 16.9221 4.65384 17.0469 4.77481C17.2541 4.9756 17.2654 5.0011 17.1776 5.06781C17.1247 5.108 17.0668 5.14169 17.0488 5.14267C17.0309 5.14365 16.8404 4.96127 16.6255 4.73736ZM94.5878 5.24733C95.0771 4.91615 96.2825 4.00482 96.2825 3.96608C96.2825 3.92348 95.5571 3.05646 95.0882 2.53863L94.7878 2.20692L94.1454 2.67194C93.7921 2.9277 93.3319 3.27429 93.1229 3.44214L92.7427 3.74733L93.0106 4.08841C93.3609 4.53453 94.2002 5.42521 94.2702 5.42521C94.3004 5.42521 94.4433 5.34517 94.5878 5.24733ZM93.9741 4.76544C93.5578 4.33684 93.0547 3.7453 93.0879 3.72342C93.1 3.71544 93.1536 3.67553 93.2069 3.63475C93.2916 3.57004 93.3238 3.58455 93.4596 3.74866C93.5452 3.8521 93.834 4.17865 94.1012 4.47432C94.5486 4.96932 94.5787 5.01716 94.481 5.07818C94.4226 5.11463 94.3675 5.14446 94.3585 5.14446C94.3496 5.14446 94.1766 4.9739 93.9741 4.76544ZM120.702 16.2139C120.479 16.0399 120.132 15.8831 119.75 15.7841C119.359 15.6825 118.64 15.6465 118.392 15.716C118.22 15.7641 118.199 15.7193 118.317 15.5572C118.389 15.4591 118.467 15.4485 119.089 15.4515C119.879 15.4553 120.151 15.5333 120.77 15.9336C121.101 16.1476 121.117 16.1678 121.018 16.2406C120.881 16.3408 120.862 16.3392 120.702 16.2139ZM122.683 15.0655C122.565 14.9393 122.561 14.8954 122.561 13.5473V12.1591L122.112 11.9566C121.865 11.8453 121.663 11.7356 121.663 11.713C121.663 11.6903 121.699 11.6419 121.743 11.6055C121.806 11.5531 121.932 11.5859 122.346 11.7625L122.87 11.9857L122.885 13.5906C122.893 14.4733 122.879 15.1955 122.853 15.1955C122.827 15.1955 122.75 15.137 122.683 15.0655ZM119.585 12.0035L118.546 11.5134L118.518 9.77483C118.503 8.8186 118.503 8.01907 118.518 7.9981C118.534 7.97712 118.616 7.9428 118.701 7.92182L118.855 7.88368V11.353L119.431 11.6146C120.978 12.3181 120.897 12.2718 120.789 12.392C120.735 12.4515 120.676 12.4987 120.657 12.4969C120.639 12.4951 120.156 12.273 119.585 12.0035ZM122.561 8.53768C122.103 8.41801 121.509 8.09915 121.143 7.77766C120.865 7.53257 120.82 7.46623 120.82 7.29518V7.09687L121.173 7.42681C121.878 8.08628 122.99 8.48241 123.748 8.34365C123.883 8.31891 124.004 8.3092 124.017 8.32209C124.03 8.33497 123.981 8.40858 123.909 8.48567C123.789 8.61342 123.737 8.6255 123.323 8.62213C123.074 8.62009 122.731 8.58209 122.561 8.53768Z" fill="black"/>
<path d="M50.3228 16.452C50.0823 16.2476 49.5398 15.996 49.1767 15.9207C48.8156 15.8457 48.1438 15.8794 48.0245 15.9784C47.9794 16.0159 47.9348 16.1519 47.9254 16.2808C47.9102 16.4896 47.8916 16.517 47.7539 16.5328C47.6168 16.5486 47.5995 16.5323 47.5995 16.3874C47.5995 15.8251 48.0841 14.6515 48.5236 14.1493C48.7533 13.8868 48.8029 13.8578 49.0809 13.8231C49.9028 13.7204 51.3159 14.1616 51.9091 14.706L52.0355 14.822V13.5488C52.0355 12.8486 52.026 12.2756 52.0144 12.2756C52.0028 12.2756 51.8046 12.1896 51.574 12.0845L51.1546 11.8934L50.7949 12.3054C50.597 12.5319 50.4167 12.719 50.394 12.7211C50.3714 12.7231 49.8282 12.4867 49.1868 12.1956L48.0207 11.6664L47.9894 9.85132C47.9722 8.85302 47.9385 7.99356 47.9145 7.9414C47.8789 7.86404 47.9157 7.83515 48.1142 7.78461C49.1247 7.52732 50.6531 6.88043 51.5451 6.33246C51.7541 6.20407 51.9465 6.09903 51.9726 6.09903C51.9987 6.09903 52.1182 6.1782 52.2383 6.27497C52.7268 6.66871 53.4969 6.88326 54.0269 6.77324C54.3423 6.70775 54.3913 6.64621 54.393 6.31338C54.3936 6.21005 54.4308 6.15099 54.5118 6.12531C54.7216 6.05871 54.7497 6.16766 54.6499 6.66007C54.5315 7.24485 54.3912 7.60058 54.0854 8.09239C53.7047 8.70457 53.5756 8.8038 53.1198 8.83474C52.3603 8.88629 51.316 8.52467 50.7269 8.00613L50.4632 7.77401V10.2977L51.2105 10.6153L51.9556 9.79589L54.478 10.9065L54.5093 12.7001C54.5266 13.6865 54.5595 14.5344 54.5826 14.5843C54.6176 14.6599 54.4952 14.7191 53.8494 14.9391C52.9278 15.253 51.8196 15.7747 51.0587 16.2529C50.7557 16.4434 50.504 16.5984 50.4995 16.5973C50.495 16.5961 50.4155 16.5308 50.3228 16.452ZM50.6826 16.2406C50.8097 16.0875 50.1477 15.6658 49.5259 15.5039C49.0907 15.3905 48.3377 15.3925 48.1735 15.5075C47.9888 15.6369 48.0078 15.7706 48.2031 15.716C48.6922 15.5792 49.6273 15.7673 50.1825 16.1141C50.5348 16.3343 50.5927 16.3489 50.6826 16.2406ZM52.597 13.6021V12.0086L52.0536 11.7746C51.522 11.5457 51.5079 11.5429 51.4048 11.646C51.3016 11.7492 51.3095 11.7557 51.7657 11.9481L52.232 12.1448L52.247 13.5412C52.2615 14.8836 52.2668 14.9427 52.3832 15.0666C52.4498 15.1375 52.5251 15.1955 52.5506 15.1955C52.5761 15.1955 52.597 14.4784 52.597 13.6021ZM50.464 12.3865C50.5289 12.2652 50.5475 12.2755 48.9612 11.5474L48.5541 11.3606V7.88368L48.3997 7.92182C48.3147 7.9428 48.2314 7.97712 48.2146 7.9981C48.1977 8.01907 48.1937 8.81992 48.2058 9.77774L48.2278 11.5193L49.2472 12.004C49.8079 12.2705 50.2974 12.4913 50.3349 12.4945C50.3724 12.4976 50.4305 12.4491 50.464 12.3865ZM53.6044 8.47687C53.6688 8.39495 53.7149 8.32134 53.7067 8.31329C53.6986 8.30524 53.5815 8.31891 53.4464 8.34365C52.6944 8.48148 51.5819 8.09082 50.8941 7.44736C50.6956 7.26167 50.5174 7.10974 50.4982 7.10974C50.479 7.10974 50.4632 7.18343 50.4632 7.27349C50.4632 7.61162 51.4668 8.32884 52.2346 8.53949C52.3876 8.58145 52.732 8.61804 53 8.6208C53.4631 8.62557 53.493 8.61844 53.6044 8.47687ZM57.5876 16.3279C56.9017 15.8785 55.573 14.7634 55.573 14.6371C55.573 14.615 55.6867 14.5152 55.8257 14.4154L56.0784 14.2339V8.12046H55.6572C55.4256 8.12046 55.2361 8.10482 55.2361 8.08569C55.2361 8.06657 55.3218 7.90865 55.4265 7.73475C55.5312 7.56085 55.7239 7.20426 55.8548 6.94231L56.0927 6.46605L56.0393 5.1703L56.4913 4.83451C57.0721 4.4031 58.8338 3.23532 58.9039 3.23532C58.9368 3.23532 58.942 3.40347 58.9172 3.67049C58.8352 4.55476 58.777 5.46527 58.7753 5.88846L58.7736 6.32363L59.658 6.32263C60.1444 6.32208 60.7677 6.29793 61.043 6.26897C61.3184 6.24 61.5652 6.22958 61.5915 6.24582C61.6663 6.29203 61.2612 7.01585 60.814 7.63518L60.4073 8.19833L58.7736 8.1673V14.2869L59.1526 14.5348C59.3611 14.6712 59.6351 14.8402 59.7617 14.9104L59.9917 15.0381L60.2304 14.9163C60.3616 14.8494 60.5045 14.8082 60.5478 14.8248C60.7241 14.8925 60.6019 15.0314 60.1484 15.2786C59.8854 15.422 59.315 15.7778 58.8808 16.0693C58.4466 16.3608 58.0712 16.5993 58.0466 16.5993C58.022 16.5993 57.8154 16.4772 57.5876 16.3279ZM58.2692 16.2167L58.395 16.1149L58.0929 15.9243C57.5951 15.6101 56.9731 15.1442 56.5513 14.7696L56.154 14.4168L55.8458 14.619L56.2569 14.9876C56.887 15.5526 57.9309 16.3141 58.0795 16.3172C58.1147 16.3179 58.2001 16.2727 58.2692 16.2167ZM56.5473 13.9694C56.6328 13.8749 56.6393 13.4975 56.6261 9.42061L56.6118 4.97487L56.4269 5.10178C56.2624 5.21469 56.2454 5.25036 56.2731 5.42521C56.2901 5.5333 56.3198 7.52316 56.3389 9.84711C56.3581 12.1711 56.3918 14.0725 56.4139 14.0725C56.4359 14.0725 56.496 14.0261 56.5473 13.9694ZM60.4051 7.88185C60.4631 7.81236 60.5114 7.73653 60.5124 7.71337C60.5134 7.69021 60.1226 7.67125 59.6439 7.67125H58.7736V7.80985C58.7736 7.94834 58.7741 7.94846 59.4334 7.96623C59.7962 7.97601 60.1396 7.98945 60.1964 7.99609C60.2532 8.00273 60.3472 7.95133 60.4051 7.88185ZM56.1345 7.81163C56.1345 7.68761 56.1107 7.67125 55.9301 7.67125C55.7439 7.67125 55.5802 7.78116 55.5748 7.9099C55.5738 7.93306 55.6993 7.95201 55.8537 7.95201C56.1158 7.95201 56.1345 7.94265 56.1345 7.81163ZM85.4301 16.5144C84.0697 16.2857 82.9986 15.7258 82.0615 14.7537C81.1017 13.7581 80.6189 12.5702 80.6171 11.1997C80.6149 9.59575 81.2879 8.25981 82.594 7.27568C83.1694 6.84208 84.3277 6.2542 84.4216 6.3481C84.4357 6.36222 84.2784 6.58359 84.0721 6.84002C83.6377 7.37975 83.254 8.12462 83.08 8.7662C82.8981 9.43643 82.8961 10.6693 83.0757 11.2898C83.3899 12.3749 84.0504 13.2728 84.8902 13.7565C85.372 14.034 85.3863 13.9353 85.3868 10.3384C85.3874 7.74016 85.3515 6.70241 85.2444 6.19697C85.2135 6.05108 85.2336 6.0324 85.5952 5.86982C85.8062 5.77498 86.4013 5.52905 86.9177 5.32329C87.5401 5.07529 87.8239 4.93712 87.7596 4.91335C87.3693 4.76897 84.9694 4.55885 84.1819 4.60011C83.2088 4.6511 82.5684 4.90112 82.0242 5.44244C81.7688 5.69652 81.448 6.23673 81.3238 6.62198C81.272 6.78244 81.2008 6.69035 81.105 6.33919C80.6542 4.68632 81.4074 3.27114 83.0957 2.59874C83.7147 2.35221 84.2173 2.26802 85.0803 2.26631C85.9301 2.26462 86.3463 2.30602 88.1967 2.5763C89.1767 2.71945 89.5889 2.75315 90.3866 2.75534C91.3361 2.75795 91.38 2.75299 91.6879 2.60865C91.8632 2.52649 92.1187 2.35593 92.2557 2.22963C92.3927 2.10334 92.521 2 92.5407 2C92.674 2 92.37 3.05233 92.045 3.71628C91.7488 4.3212 91.3769 4.72681 90.9079 4.95645C90.6259 5.09449 90.5037 5.11814 89.9795 5.13614L89.3759 5.15688V14.0697L89.5144 14.017C90.347 13.7005 91.3197 12.8955 91.8391 12.093C91.974 11.8846 92.1103 11.7141 92.142 11.7141C92.2196 11.7141 92.1619 12.3764 92.0438 12.8413C91.9128 13.3567 91.5119 14.1549 91.1559 14.609C90.417 15.5514 89.195 16.2691 87.9162 16.5117C87.3543 16.6183 86.0563 16.6197 85.4301 16.5144ZM88.1967 16.2644C88.834 16.1052 89.6927 15.6858 90.2603 15.2567C90.5151 15.064 90.7235 14.8962 90.7235 14.8837C90.7235 14.8713 90.5148 14.9971 90.2597 15.1634C88.8601 16.0758 87.2268 16.346 85.3625 15.9738C83.6964 15.6412 82.3884 14.6374 81.6777 13.146C81.2587 12.2666 81.2067 12.0153 81.2069 10.8719C81.2069 9.91466 81.2116 9.87653 81.3819 9.39906C81.5337 8.9734 81.7741 8.51741 82.115 8.00816C82.2591 7.79295 82.0853 7.97354 81.7739 8.36256C81.4569 8.75858 81.1768 9.30224 81.0005 9.86356C80.8868 10.2255 80.8691 10.3964 80.8699 11.1245C80.8705 11.7669 80.8955 12.059 80.9751 12.3551C81.5515 14.4982 83.2374 15.9674 85.5576 16.3487C86.2478 16.4621 87.5754 16.4197 88.1967 16.2644ZM88.7161 14.3007L88.9267 14.2356V9.68829C88.9267 6.10081 88.9119 5.1358 88.8565 5.11661C88.8179 5.10323 88.66 5.08507 88.5056 5.07626L88.2248 5.06023L87.967 5.56559L87.9885 13.0113L87.6294 13.1813C87.2677 13.3525 85.974 13.9114 85.6851 14.0212C85.5425 14.0754 85.5382 14.0852 85.6333 14.1385C85.6904 14.1704 85.9558 14.2441 86.2229 14.3022C86.6166 14.3878 86.879 14.4039 87.6071 14.3868C88.1013 14.3752 88.6003 14.3364 88.7161 14.3007ZM85.6956 13.6043C85.937 13.1925 85.9628 12.7393 85.9315 9.46009C85.9158 7.81225 85.8857 6.36925 85.8645 6.25344C85.8239 6.0311 85.7551 5.9963 85.5919 6.11563C85.5005 6.18248 85.4976 6.23373 85.5564 6.74733C85.6297 7.38832 85.6104 13.5127 85.5344 13.7215C85.4599 13.9262 85.5419 13.8666 85.6956 13.6043ZM81.9617 5.25895C82.5129 4.72211 83.1805 4.48282 84.2686 4.43213C85.0696 4.39482 85.7121 4.45068 87.6633 4.72742C89.4714 4.98385 90.0934 5.02023 90.525 4.89476C90.9543 4.76998 91.288 4.5371 91.5597 4.17284C91.7567 3.90866 91.987 3.51608 91.9449 3.51608C91.9356 3.51608 91.8185 3.66652 91.6846 3.8504C91.3995 4.24191 90.9748 4.55038 90.5911 4.64464C90.2155 4.73689 89.1286 4.67815 87.9568 4.50227C86.1868 4.23659 85.538 4.17238 84.6311 4.17313C83.632 4.17395 83.1148 4.27258 82.5634 4.56745C82.1879 4.76823 81.6812 5.27188 81.5309 5.59369C81.3344 6.01426 81.327 6.14657 81.5181 5.8216C81.6169 5.65357 81.8165 5.40039 81.9617 5.25895ZM120.686 16.4931C120.539 16.3313 119.98 16.0514 119.611 15.9553C119.23 15.8561 118.641 15.8437 118.336 15.9284C118.159 15.9775 118.125 16.0113 118.124 16.1387C118.123 16.4249 118.064 16.5431 117.922 16.5431C117.809 16.5431 117.788 16.5153 117.788 16.3642C117.788 15.8222 118.183 14.8347 118.64 14.2336L118.927 13.856L119.327 13.8185C119.821 13.7722 120.625 13.901 121.148 14.1102C121.54 14.2668 122.14 14.5996 122.197 14.6913C122.309 14.873 122.337 14.6425 122.337 13.5151V12.2839L122.014 12.1356C121.47 11.8857 121.455 11.8888 121.073 12.3318C120.888 12.5468 120.719 12.7232 120.698 12.7238C120.676 12.7244 120.133 12.486 119.49 12.194L118.322 11.6632L118.294 9.82164C118.278 8.80878 118.248 7.95241 118.226 7.91859C118.199 7.87848 118.375 7.80147 118.731 7.69714C119.787 7.38737 121.016 6.84452 121.943 6.27838L122.308 6.05558L122.502 6.22596C122.979 6.64463 123.857 6.89342 124.385 6.7595C124.654 6.69114 124.665 6.68018 124.705 6.44913C124.754 6.16225 124.788 6.09905 124.895 6.09905C125.008 6.09905 125.002 6.66208 124.885 7.05737C124.759 7.4829 124.444 8.09025 124.154 8.46741C123.918 8.77331 123.895 8.7879 123.586 8.82714C122.834 8.92244 121.89 8.63642 121.171 8.09561L120.764 7.78913V10.2854L121.115 10.4382C121.514 10.6121 121.583 10.6219 121.646 10.5143C121.671 10.472 121.823 10.2938 121.984 10.1182L122.278 9.79892L124.795 10.8948L124.829 12.61C124.847 13.5533 124.869 14.4088 124.877 14.5109L124.891 14.6967L124.33 14.8812C123.225 15.2442 122.212 15.7216 121.264 16.3269C121.029 16.4767 120.825 16.5993 120.81 16.5993C120.794 16.5993 120.738 16.5515 120.686 16.4931ZM121.018 16.2406C121.117 16.1678 121.101 16.1476 120.77 15.9336C120.151 15.5333 119.879 15.4553 119.089 15.4515C118.467 15.4485 118.389 15.4591 118.317 15.5572C118.199 15.7193 118.22 15.7641 118.392 15.716C118.64 15.6465 119.359 15.6825 119.75 15.7841C120.132 15.8831 120.479 16.0399 120.702 16.2139C120.862 16.3392 120.881 16.3408 121.018 16.2406ZM122.885 13.5906L122.87 11.9857L122.346 11.7625C121.932 11.5859 121.806 11.5531 121.743 11.6055C121.699 11.6419 121.663 11.6903 121.663 11.713C121.663 11.7356 121.865 11.8453 122.112 11.9566L122.561 12.1591V13.5473C122.561 14.8954 122.565 14.9393 122.683 15.0655C122.75 15.137 122.827 15.1955 122.853 15.1955C122.879 15.1955 122.893 14.4733 122.885 13.5906ZM120.789 12.392C120.897 12.2718 120.978 12.3181 119.431 11.6146L118.855 11.353V7.88368L118.701 7.92182C118.616 7.9428 118.534 7.97712 118.518 7.9981C118.503 8.01907 118.503 8.8186 118.518 9.77483L118.546 11.5134L119.585 12.0035C120.156 12.273 120.639 12.4951 120.657 12.4969C120.676 12.4987 120.735 12.4515 120.789 12.392ZM123.909 8.48567C123.981 8.40858 124.03 8.33497 124.017 8.32209C124.004 8.3092 123.883 8.31891 123.748 8.34365C122.99 8.48241 121.878 8.08628 121.173 7.42681L120.82 7.09687V7.29518C120.82 7.46623 120.865 7.53257 121.143 7.77766C121.509 8.09915 122.103 8.41801 122.561 8.53768C122.731 8.58209 123.074 8.62009 123.323 8.62213C123.737 8.6255 123.789 8.61342 123.909 8.48567ZM6.23554 16.3697C6.1072 16.2796 5.83758 16.1627 5.6364 16.11C5.31655 16.0261 5.19712 16.0222 4.68542 16.0794C4.35542 16.1163 3.86151 16.2213 3.55282 16.3202C3.25175 16.4166 2.9922 16.4823 2.97605 16.4661C2.9599 16.45 3.13913 16.1764 3.37435 15.8582C3.60957 15.5401 3.91498 15.0523 4.05303 14.7744C4.46554 13.9438 4.48757 13.7961 4.51657 11.6641L4.54208 9.78917L3.45597 9.82142C2.85862 9.83916 2.31301 9.87094 2.24353 9.89204C2.16945 9.91453 2.11719 9.90647 2.11719 9.87256C2.11719 9.79433 2.67318 9.05018 3.20453 8.41723L3.6389 7.89981L4.51593 7.96744L4.54449 7.27188C4.59399 6.06677 4.73482 5.79712 6.16006 4.1784C6.43909 3.86149 6.44993 3.84009 6.27236 3.95665C5.90372 4.19864 5.38953 4.41794 5.11439 4.45053C4.93557 4.4717 4.64009 4.4417 4.2678 4.36455C3.5846 4.22298 3.49553 4.22037 3.17729 4.33266C2.89449 4.43243 2.60195 4.69276 2.45434 4.976L2.35191 5.17253L2.30474 5.00408C2.27879 4.91143 2.25757 4.60822 2.25757 4.33027C2.25757 3.90322 2.2802 3.77665 2.40362 3.51352C2.61202 3.0692 2.85859 2.81518 3.28571 2.60478C3.80556 2.34869 4.34066 2.32932 5.40109 2.52821C6.38876 2.71345 6.79854 2.71381 7.31116 2.5299C7.52734 2.45234 7.74815 2.37431 7.80185 2.35651C7.88352 2.32943 7.8721 2.38454 7.73209 2.69334C7.50217 3.20041 7.3511 3.78169 7.28478 4.41449C7.25404 4.70788 7.22847 6.53225 7.2279 8.46864C7.22724 10.8556 7.20662 12.0852 7.16386 12.2869C7.03399 12.8996 6.7809 13.2551 5.80382 14.1971L5.12127 14.8551L5.47442 14.749C5.96834 14.6007 6.79353 14.5026 7.17999 14.5463C7.3591 14.5666 7.64307 14.6305 7.81104 14.6883L8.11645 14.7933L8.14159 9.50565C8.16821 3.90574 8.1736 3.78946 8.43768 3.12302C8.54789 2.84489 8.90456 2.25514 8.9407 2.29128C8.95324 2.30382 8.92492 2.43923 8.87777 2.59221C8.64723 3.34014 8.62232 3.61957 8.59147 5.80423L8.56113 7.95201H10.9477L10.9154 6.59035C10.8953 5.74526 10.8522 5.07957 10.8017 4.83563C10.7569 4.61945 10.7377 4.42994 10.7591 4.41449C10.7805 4.39905 11.0518 4.19268 11.362 3.95589C12.3724 3.18458 13.9805 2.16941 14.0398 2.26541C14.0554 2.2907 14.0334 2.46242 13.9909 2.64702C13.7578 3.65957 13.7405 4.11634 13.7405 9.23467V14.1614L13.9791 14.39C14.1103 14.5158 14.2954 14.6628 14.3903 14.7168C14.557 14.8116 14.5708 14.8108 14.7993 14.6942C15.2211 14.479 15.2857 14.4655 15.3558 14.5778C15.4121 14.6681 15.3457 14.725 14.7623 15.0861C14.401 15.3098 13.7677 15.7301 13.3549 16.0201L12.6043 16.5475L12.4565 16.4522C12.1595 16.261 11.4326 15.6282 11.186 15.3464L10.9329 15.057V9.80499H8.57456V12.5002C8.57456 13.9826 8.55288 15.1955 8.52639 15.1955C8.42377 15.1955 7.26108 15.9306 6.89185 16.2289C6.67796 16.4017 6.49529 16.5409 6.48593 16.5383C6.47656 16.5356 6.36388 16.4597 6.23554 16.3697ZM12.8346 16.1024C12.8926 16.0636 12.8306 15.996 12.582 15.8269C12.4007 15.7036 12.0692 15.4329 11.8453 15.2254L11.4382 14.8481L11.438 10.0945C11.4377 5.24698 11.4146 4.24455 11.3035 4.24791C11.2695 4.24894 11.1821 4.29948 11.1092 4.36022C10.9781 4.46939 10.9773 4.47679 11.039 4.99962C11.08 5.34763 11.1014 7.13928 11.1014 10.2369V14.9453L11.5646 15.3994C11.8194 15.6491 12.1507 15.9448 12.3008 16.0565C12.5762 16.2614 12.5947 16.263 12.8346 16.1024ZM6.63678 16.0945C6.73581 15.9851 6.73153 15.98 6.42486 15.8396C5.99337 15.642 5.59096 15.5871 5.0005 15.645C4.45763 15.6984 4.05015 15.8092 3.74557 15.9864C3.63748 16.0493 3.59957 16.0845 3.66134 16.0645C4.13927 15.9099 4.67012 15.8132 5.04011 15.8132C5.4897 15.8132 6.08946 15.9583 6.30124 16.1184C6.451 16.2316 6.51702 16.2269 6.63678 16.0945ZM4.20425 14.979C4.35974 14.7518 4.55012 14.4234 4.62732 14.249C4.92905 13.5677 4.93779 13.4575 4.97986 9.80499C5.00869 7.30192 5.03781 6.34874 5.09052 6.18325C5.18595 5.88363 5.39731 5.47108 5.66588 5.06023L5.88612 4.72333L5.68046 4.94793C5.34573 5.31348 4.9774 5.85642 4.851 6.17061C4.73728 6.45328 4.73152 6.58823 4.69352 9.86115C4.67182 11.7296 4.62839 13.4003 4.59701 13.5738C4.46885 14.2826 4.28775 14.7226 3.84871 15.392C3.55014 15.8472 3.84216 15.508 4.20425 14.979ZM3.89442 9.58039H4.47553V9.29963H2.69982L2.43751 9.65442L2.87541 9.61741C3.11625 9.59705 3.5748 9.58039 3.89442 9.58039ZM10.9228 9.45405C10.9049 9.32823 10.9 9.32765 9.73969 9.31253L8.57456 9.29736V9.58039H10.9407L10.9228 9.45405ZM3.19239 4.10839C3.57218 3.9956 3.66107 3.99827 4.2676 4.14067C5.00299 4.31332 5.59966 4.22695 6.01968 3.88706C6.12778 3.79959 6.12624 3.79823 5.9788 3.8508C5.52077 4.01412 5.13067 4.03118 4.56336 3.91271C3.79169 3.75157 3.3935 3.75941 3.02506 3.94302C2.73533 4.08739 2.50083 4.33126 2.43149 4.56029C2.40551 4.6461 2.46412 4.61259 2.64771 4.43668C2.81475 4.27663 2.9982 4.16606 3.19239 4.10839ZM17.109 16.2204C16.6573 15.9114 15.59 14.9254 15.5966 14.8233C15.5984 14.7964 15.7247 14.6792 15.8774 14.5629L16.1549 14.3515V8.4414L15.8974 8.13991C15.5254 7.7045 15.4973 7.69681 15.1159 7.92645C14.8656 8.07715 14.7746 8.10705 14.7154 8.05795C14.6733 8.023 14.6389 7.97303 14.6389 7.94691C14.6389 7.82269 16.1914 6.71532 16.9445 6.3024L17.3129 6.1004L17.6573 6.3945C18.0181 6.70261 18.3117 7.02459 18.6139 7.44367L18.794 7.69338V14.5724L19.0428 14.7436C19.3432 14.9502 19.3767 14.9518 19.7543 14.7769C19.9734 14.6754 20.0712 14.6549 20.1249 14.6995C20.165 14.7328 20.1978 14.779 20.1978 14.8022C20.1978 14.8254 19.9009 15.0281 19.538 15.2527C19.1752 15.4773 18.5925 15.8595 18.2431 16.1021C17.8938 16.3447 17.6018 16.5431 17.5943 16.5431C17.5868 16.5431 17.3684 16.3979 17.109 16.2204ZM17.7756 16.1579L17.9082 16.0559L17.4667 15.7462C17.2239 15.5759 16.8322 15.256 16.5962 15.0354L16.1671 14.6342L15.9023 14.8513L16.2705 15.2122C16.6162 15.551 17.5237 16.2639 17.6057 16.2611C17.6262 16.2604 17.7026 16.214 17.7756 16.1579ZM16.7165 8.24339L16.5163 7.99944C16.1783 7.58751 15.9847 7.44988 15.8375 7.51695C15.7143 7.57309 15.7198 7.58442 16.0452 7.94502L16.3795 8.31543V14.3047L16.7165 14.0648V8.24339ZM21.8553 16.2523C21.6397 16.0932 21.2247 15.731 20.9331 15.4473L20.4029 14.9315L20.9839 14.4977V8.42036L20.6704 8.07388C20.4979 7.88332 20.3385 7.72741 20.3161 7.72741C20.2938 7.72741 20.1282 7.81608 19.9482 7.92445C19.6953 8.07672 19.6036 8.10706 19.5444 8.05795C19.5023 8.023 19.4679 7.97631 19.4679 7.9542C19.4679 7.8361 21.0427 6.70975 21.7733 6.30527L22.1416 6.10141L22.5033 6.40252C22.8389 6.6819 23.3016 7.20605 23.5379 7.57446L23.6379 7.73035L23.8129 7.58851C24.2549 7.23048 25.2078 6.62842 25.7355 6.37391L26.3158 6.09399L26.6397 6.30117C27.0347 6.55383 27.5526 7.07429 27.8109 7.47822L28.0028 7.77816V14.4555L28.178 14.603C28.5371 14.9051 28.6236 14.9238 28.9536 14.771C29.3073 14.6071 29.2772 14.6095 29.3469 14.7397C29.3964 14.8321 29.3456 14.8808 28.9418 15.1285C28.5447 15.3721 27.6696 15.9773 27.0662 16.4258L26.8876 16.5585L26.418 16.1919C26.1598 15.9902 25.8043 15.6695 25.628 15.4791L25.3076 15.1329V8.3889L24.9643 8.05815C24.7754 7.87624 24.5923 7.72781 24.5572 7.72832C24.5221 7.72882 24.3039 7.82358 24.0722 7.93888L23.6511 8.14854L23.6366 11.399C23.6257 13.8406 23.6387 14.6694 23.6887 14.7296C23.7253 14.7738 23.8261 14.8465 23.9127 14.8913C24.0563 14.9655 24.0993 14.9608 24.4029 14.8374C24.6435 14.7397 24.7527 14.7192 24.797 14.7636C24.8308 14.7973 24.8584 14.8436 24.8584 14.8665C24.8584 14.8894 24.612 15.0525 24.3109 15.2289C24.0098 15.4054 23.4316 15.7732 23.026 16.0464C22.6204 16.3196 22.2793 16.5427 22.2679 16.5423C22.2566 16.5418 22.0709 16.4113 21.8553 16.2523ZM22.5696 16.0376C22.5468 16.0195 22.3386 15.8622 22.107 15.6879C21.8753 15.5136 21.5477 15.2305 21.3789 15.0587C21.2101 14.8869 21.0435 14.7463 21.0086 14.7463C20.9737 14.7463 20.9033 14.7925 20.8522 14.849C20.7642 14.9463 20.781 14.9728 21.1664 15.3452C21.3903 15.5616 21.7341 15.8564 21.9303 16.0003C22.2865 16.2615 22.2873 16.2617 22.4491 16.1661C22.5383 16.1134 22.5925 16.0556 22.5696 16.0376ZM27.1527 16.1027C27.2105 16.064 27.1639 16.0068 26.9605 15.8669C26.8128 15.7653 26.5068 15.5063 26.2805 15.2913L25.8691 14.9005V8.26955L25.4835 7.88397C25.1216 7.5221 25.0891 7.50241 24.9544 7.56376L24.811 7.62913L25.5322 8.31909V15.0195L25.8863 15.3789C26.0811 15.5766 26.3888 15.8548 26.5701 15.997C26.9021 16.2577 26.9171 16.2604 27.1527 16.1027ZM21.3866 14.2603C21.4837 14.1725 21.4893 14.0022 21.4893 11.1595V8.15156L21.1447 7.80383C20.8325 7.48884 20.7875 7.46179 20.6674 7.51654C20.5347 7.57699 20.4869 7.67125 20.5888 7.67125C20.6186 7.67125 20.7702 7.82417 20.9257 8.01108L21.2085 8.3509V11.3521C21.2085 13.0027 21.2255 14.3532 21.2462 14.3532C21.267 14.3532 21.3301 14.3114 21.3866 14.2603ZM35.3773 16.1255C35.1354 15.8959 34.8111 15.531 34.6567 15.3148C34.5023 15.0986 34.3532 14.9201 34.3254 14.9182C34.2976 14.9163 33.7456 15.2685 33.0987 15.7009C32.4519 16.1332 31.8913 16.487 31.8531 16.487C31.7691 16.487 31.2053 16.0987 30.8946 15.8268C30.7711 15.7187 30.525 15.463 30.3479 15.2585L30.0257 14.8867L30.0197 11.9949C30.0164 10.4044 29.9971 8.87234 29.9769 8.59029L29.94 8.07747L31.035 7.59048C31.6372 7.32264 32.2154 7.05831 32.3198 7.00307L32.5098 6.90265L32.011 6.61184C31.7367 6.4519 31.2548 6.1941 30.9401 6.03896L30.368 5.75688L30.3082 5.46471C30.1103 4.49789 29.9374 2.28076 30.06 2.28076C30.0892 2.28076 30.2258 2.39678 30.3635 2.53859C30.927 3.119 32.3614 4.10709 35.3816 5.9954L37.0611 7.04545L37.0362 14.3813L37.5897 14.9239L37.9325 14.7509C38.121 14.6557 38.2877 14.5778 38.3029 14.5778C38.3182 14.5778 38.3558 14.6248 38.3865 14.6821C38.4351 14.7731 38.3632 14.8385 37.8233 15.1944C37.4829 15.4188 36.9029 15.814 36.5344 16.0727C36.166 16.3314 35.8538 16.5431 35.8408 16.5431C35.8278 16.5431 35.6192 16.3552 35.3773 16.1255ZM32.058 16.1609L32.2107 16.0602L31.79 15.785C31.5587 15.6336 31.1804 15.3156 30.9495 15.0783L30.5296 14.6469V11.3556C30.5296 9.54539 30.5182 8.06431 30.5042 8.06431C30.4902 8.06431 30.4111 8.09511 30.3285 8.13276C30.1801 8.20038 30.1787 8.20624 30.2136 8.61851C30.233 8.84803 30.2489 10.3336 30.2489 11.9197V14.8037L30.684 15.2613C31.0512 15.6474 31.7817 16.2595 31.8772 16.2611C31.8927 16.2614 31.974 16.2163 32.058 16.1609ZM36.0211 16.1605L36.1503 16.0612L35.6822 15.5862C35.4247 15.325 35.1331 14.9933 35.0341 14.8491L34.8541 14.5869L34.8252 7.70662L32.6633 6.4345C31.4744 5.73483 30.4927 5.16928 30.4819 5.17771C30.4711 5.18614 30.479 5.29188 30.4994 5.41268C30.5303 5.5955 30.5712 5.64854 30.7436 5.72912C30.8575 5.78236 31.7656 6.28531 32.7616 6.84678L34.5725 7.86764V14.7759L34.7755 15.0773C34.974 15.3721 35.7887 16.2636 35.8574 16.2611C35.8764 16.2604 35.9501 16.2152 36.0211 16.1605ZM33.9132 14.6839L34.3488 14.5087L34.3198 7.94609L33.6305 7.54806C33.2514 7.32914 32.9271 7.16423 32.9097 7.18159C32.7815 7.30975 32.755 7.88393 32.7348 10.965L32.713 14.2868L33.0664 14.5727C33.2608 14.7299 33.4328 14.8587 33.4487 14.8589C33.4645 14.8591 33.6736 14.7803 33.9132 14.6839ZM40.6743 16.2866C40.2218 15.983 39.6368 15.442 39.374 15.084L39.1778 14.8167L39.1488 8.1504L38.5145 7.71447L38.2266 7.87535C37.9797 8.01329 37.9309 8.02422 37.8848 7.95201C37.8553 7.90569 37.837 7.85042 37.8442 7.82919C37.8814 7.71986 40.1819 6.15518 40.3054 6.15518C40.4227 6.15518 41.1065 6.69872 41.4931 7.09923L41.8721 7.49188V14.2842L42.2228 14.5714C42.4157 14.7293 42.6058 14.8586 42.6452 14.8586C42.6847 14.8586 42.9059 14.7793 43.1368 14.6823L43.5566 14.5061V7.95772L43.3689 7.81449C43.137 7.63764 43.114 7.63761 42.7666 7.81364C42.4834 7.95715 42.3775 7.95605 42.3775 7.80957C42.3775 7.72338 43.1861 7.16353 44.2543 6.5102L44.9239 6.10066L45.1246 6.24978C45.6813 6.66326 46.7573 7.6385 46.7573 7.7296C46.7573 7.7478 46.6436 7.84788 46.5046 7.95201L46.2519 8.14133V14.3989L46.8018 14.8593L47.155 14.6923C47.4184 14.5677 47.5269 14.5408 47.5819 14.5865C47.6225 14.6202 47.6557 14.6662 47.6557 14.6888C47.6557 14.7113 47.4725 14.851 47.2486 14.9991C47.0247 15.1473 46.4581 15.5426 45.9895 15.8777C45.5209 16.2128 45.099 16.487 45.0519 16.487C44.9356 16.487 44.0918 15.6376 43.7865 15.2132L43.5391 14.8693L43.0565 15.1795C42.7911 15.3501 42.2296 15.7247 41.8086 16.0119L41.0432 16.534L40.6743 16.2866ZM45.2356 16.1563L45.3703 16.0527L45.1284 15.8346C44.809 15.5469 44.4247 15.1399 44.2549 14.9098L44.1182 14.7245V7.80313L43.9918 7.68847C43.7231 7.4446 43.5952 7.39221 43.4545 7.46841C43.3245 7.53885 43.3247 7.53914 43.5528 7.69012L43.7813 7.8413V14.7896L44.0158 15.1409C44.2318 15.4643 44.9804 16.264 45.0645 16.2611C45.0845 16.2604 45.1614 16.2132 45.2356 16.1563ZM41.2825 16.1138C41.3563 16.0554 41.3718 16.0162 41.3277 15.9996C41.0948 15.9118 40.5063 15.4644 40.1529 15.1064L39.7384 14.6865V8.00759L39.3639 7.73263C39.0323 7.48908 38.974 7.46474 38.8537 7.51955C38.7402 7.57129 38.7314 7.59107 38.8004 7.64037C38.8458 7.6728 38.9996 7.78093 39.1422 7.88066L39.4015 8.062V14.7244L39.7004 15.0868C40.118 15.5931 40.8807 16.2087 41.085 16.2044C41.1319 16.2034 41.2208 16.1627 41.2825 16.1138ZM62.3344 16.3113C61.8983 16.0069 61.6107 15.7495 61.2933 15.3794L61.0336 15.0766L60.9989 13.6059C60.9798 12.7971 60.9577 12.0633 60.9498 11.9754C60.936 11.8219 60.9559 11.8081 61.4522 11.6279C62.2572 11.3356 63.3212 10.8602 63.2885 10.8073C63.2723 10.781 63.2163 10.7592 63.1641 10.7588C63.1119 10.7583 62.8165 10.6362 62.5076 10.4873C61.9383 10.213 61.1767 9.6552 60.9645 9.35722L60.8505 9.19714L61.3141 8.87375C62.1696 8.27694 62.8392 7.71006 63.641 6.90375L64.4375 6.1028L64.7527 6.29261C65.3741 6.66678 67.4964 7.49974 67.8343 7.50208C67.9234 7.50269 67.9328 7.52987 67.8972 7.68529C67.8742 7.78566 67.8448 9.33635 67.8318 11.1313L67.8081 14.3947L68.0716 14.6267C68.2165 14.7542 68.3575 14.8586 68.3849 14.8586C68.4123 14.8586 68.5848 14.7829 68.7682 14.6903C69.0919 14.5269 69.1033 14.5252 69.1604 14.6319C69.2125 14.7292 69.1692 14.7753 68.7833 15.0339C68.5435 15.1946 67.9604 15.6024 67.4874 15.9402L66.6275 16.5544L66.3083 16.2758C66.012 16.0173 65.3724 15.2818 65.2435 15.0515C65.1924 14.9601 65.1514 14.9738 64.774 15.2092C64.5467 15.351 64.0104 15.7091 63.5824 16.0051C63.1544 16.301 62.7733 16.5431 62.7354 16.5431C62.6976 16.5431 62.5171 16.4388 62.3344 16.3113ZM63.0399 16.0397C63.0393 16.0232 62.9077 15.9339 62.7475 15.8412C62.5873 15.7486 62.2467 15.4735 61.9906 15.2299L61.525 14.787V13.3161C61.525 12.5071 61.5098 11.83 61.4913 11.8115C61.4728 11.7929 61.3935 11.807 61.3151 11.8427L61.1725 11.9077L61.2084 12.4935C61.2281 12.8156 61.2442 13.5064 61.2442 14.0285V14.9777L61.6794 15.4127C61.9187 15.6519 62.2515 15.9399 62.4189 16.0525C62.7177 16.2536 62.7263 16.2557 62.8822 16.1635C62.9696 16.1119 63.0406 16.0562 63.0399 16.0397ZM66.8008 16.1538L66.9388 16.0478L66.6363 15.7761C66.4699 15.6266 66.1743 15.3175 65.9794 15.0892L65.625 14.6741L65.5959 8.5572L65.1436 8.42663C64.6673 8.28911 64.012 8.00216 63.6241 7.76127L63.393 7.61771L63.288 7.73378C63.1852 7.84731 63.1854 7.85167 63.2945 7.93317C63.5434 8.11911 64.4454 8.51714 64.88 8.63287L65.3433 8.75622V14.8424L65.5477 15.1172C65.7538 15.3942 66.5788 16.2634 66.6334 16.2611C66.6496 16.2604 66.7249 16.2121 66.8008 16.1538ZM64.7582 14.7234L65.0906 14.5882L65.1202 11.1683L64.764 11.1318C64.5681 11.1117 64.2603 11.0569 64.0799 11.0099C63.8452 10.9488 63.7348 10.9417 63.6914 10.9851C63.6516 11.0249 63.6242 11.5985 63.612 12.6479C63.5947 14.1367 63.6006 14.2582 63.6962 14.3659C63.834 14.5211 64.2892 14.8555 64.3651 14.8572C64.3985 14.858 64.5753 14.7977 64.7582 14.7234ZM65.0906 8.88992L64.6987 8.78263C64.2748 8.66656 63.4795 8.31268 63.2079 8.11929L63.0392 7.99922L62.7734 8.21912C62.6272 8.34007 62.258 8.62556 61.9529 8.85354L61.3982 9.26806L61.616 9.45975C62.1407 9.92149 62.8691 10.3166 63.5935 10.5322C63.9718 10.6449 64.759 10.8014 64.9936 10.8107L65.1213 10.8157L65.0906 8.88992ZM70.7338 16.1277C70.4404 15.8994 70.0268 15.5358 69.8147 15.3197L69.4291 14.9267L70.0038 14.4977V8.42036L69.6902 8.07388C69.5178 7.88332 69.3584 7.72741 69.336 7.72741C69.3136 7.72741 69.148 7.81608 68.9681 7.92445C68.7152 8.07672 68.6234 8.10706 68.5643 8.05795C68.5222 8.023 68.4877 7.97631 68.4877 7.9542C68.4877 7.83677 70.0574 6.71511 70.7975 6.30366L71.1701 6.09653L71.4994 6.37293C71.8591 6.67489 72.2541 7.11524 72.5011 7.48972L72.6591 7.72932L72.8335 7.58799C73.276 7.22936 74.2288 6.62787 74.7608 6.37128L75.3466 6.08873L75.6652 6.30015C76.065 6.56539 76.5465 7.04491 76.8158 7.4459L77.0227 7.75398V14.446L77.149 14.5621C77.2185 14.6261 77.3618 14.7301 77.4674 14.7933C77.6468 14.9007 77.6726 14.9026 77.8604 14.8224C78.3071 14.6316 78.3088 14.6313 78.3691 14.744C78.419 14.8373 78.3724 14.8828 77.9911 15.1133C77.5193 15.3984 76.5789 16.0507 76.1907 16.3622L75.9484 16.5567L75.6312 16.3393C75.4567 16.2198 75.092 15.9055 74.8207 15.6409L74.3274 15.1598V8.38953L73.9891 8.05847C73.803 7.87638 73.6275 7.72741 73.5991 7.72741C73.5707 7.72741 73.3566 7.81441 73.1233 7.92074L72.699 8.11407V14.7371L73.084 14.9751L73.4198 14.8386C73.6625 14.74 73.7725 14.7192 73.8169 14.7636C73.8506 14.7973 73.8782 14.8436 73.8782 14.8665C73.8782 14.8894 73.6318 15.0525 73.3307 15.2289C73.0296 15.4054 72.4514 15.7732 72.0458 16.0464C71.6402 16.3196 71.2991 16.543 71.2878 16.5429C71.2765 16.5428 71.0271 16.356 70.7338 16.1277ZM71.5895 16.0349C71.5666 16.0154 71.3584 15.8583 71.1268 15.6857C70.8952 15.5131 70.5676 15.2312 70.3988 15.0591C70.23 14.8871 70.0633 14.7463 70.0284 14.7463C69.9936 14.7463 69.9232 14.7925 69.8721 14.849C69.784 14.9463 69.8008 14.9728 70.1862 15.3452C70.4102 15.5616 70.7539 15.8564 70.9501 16.0003C71.3064 16.2615 71.3071 16.2617 71.469 16.1661C71.5581 16.1134 71.6124 16.0544 71.5895 16.0349ZM76.0904 15.9535C76.0047 15.8918 75.7056 15.6496 75.4258 15.4153L74.917 14.9893L74.888 8.30008L74.6309 8.01407C74.2718 7.61466 74.1053 7.50532 73.9467 7.56476C73.8247 7.61048 73.8359 7.62958 74.1854 7.97225L74.552 8.33177V15.0319L74.8185 15.3168C74.9651 15.4735 75.2702 15.7506 75.4965 15.9327L75.908 16.2638L76.2462 16.0658L76.0904 15.9535ZM70.4353 14.2311L70.5653 14.109V8.22185L70.1947 7.838C69.8528 7.48378 69.8136 7.45896 69.6874 7.51646L69.5506 7.57877L69.768 7.8075C70.2766 8.34282 70.2284 7.97083 70.2284 11.3567C70.2284 13.0048 70.2457 14.3532 70.2669 14.3532C70.2881 14.3532 70.3639 14.2983 70.4353 14.2311ZM94.3664 16.3422C93.7393 15.9207 92.6829 14.9567 92.691 14.8133C92.6922 14.7919 92.8059 14.6914 92.9437 14.5901L93.1942 14.4058V8.39453L92.9836 8.14252C92.6214 7.70902 92.5772 7.69654 92.203 7.92199C91.962 8.06716 91.8623 8.10073 91.8075 8.05523C91.7672 8.02178 91.7342 7.97254 91.7342 7.94581C91.7342 7.81483 93.2138 6.75451 93.9886 6.33032L94.418 6.09519L94.9057 6.55688C95.174 6.8108 95.505 7.17494 95.6414 7.36608L95.8894 7.71359V14.5771L96.1224 14.7459C96.3856 14.9366 96.4972 14.9518 96.7341 14.8293C97.0908 14.6448 97.1749 14.6302 97.2349 14.7423C97.2836 14.8334 97.2378 14.8786 96.885 15.0871C96.6617 15.2191 96.1387 15.5565 95.7227 15.8369C95.3067 16.1172 94.8993 16.3913 94.8174 16.4459C94.6701 16.544 94.6649 16.5428 94.3664 16.3422ZM94.9483 16.0357C94.9255 16.0166 94.7299 15.8772 94.5137 15.7258C94.2975 15.5744 93.9237 15.2624 93.6829 15.0324L93.2452 14.6142L92.9976 14.8669L93.4434 15.2898C93.6885 15.5224 94.0645 15.8359 94.2788 15.9865C94.6671 16.2591 94.6692 16.2598 94.8292 16.1653C94.9176 16.1131 94.9712 16.0548 94.9483 16.0357ZM93.7557 8.18302L93.4408 7.84291C93.1307 7.50792 93.0213 7.45403 92.8595 7.55639C92.7937 7.59802 92.8408 7.67463 93.0981 7.94442L93.4188 8.28058V11.2514C93.4188 12.8853 93.4358 14.2393 93.4567 14.2602C93.4776 14.281 93.5534 14.2429 93.6252 14.1755L93.7557 14.0529V8.18302ZM98.8373 16.1999C98.3435 15.8232 97.5165 15.0349 97.52 14.9441C97.5212 14.9125 97.6349 14.8037 97.7727 14.7024L98.0232 14.5181V8.39288L97.388 7.72699L97.13 7.87704C96.9881 7.95956 96.8299 8.05289 96.7784 8.08443C96.6428 8.16737 96.4773 8.0275 96.5736 7.91144C96.8294 7.60318 98.989 6.15518 99.1929 6.15518C99.3785 6.15518 100.403 7.20611 100.653 7.65295C100.698 7.73294 100.769 7.69793 101.164 7.40031C101.891 6.85225 103.143 6.15518 103.4 6.15518C103.649 6.15518 104.621 7.0389 104.89 7.50966C104.958 7.62896 105.033 7.72676 105.055 7.727C105.078 7.72722 105.28 7.58558 105.504 7.4122C106.29 6.80494 107.581 6.11799 107.823 6.17861C108.14 6.25812 108.87 6.93986 109.267 7.52759L109.421 7.75551V14.4574L109.622 14.6224C110.001 14.935 110.048 14.9447 110.398 14.7842C110.704 14.6441 110.714 14.6432 110.771 14.7492C110.822 14.8461 110.765 14.899 110.251 15.2306C109.934 15.4356 109.377 15.8174 109.014 16.0792C108.651 16.341 108.321 16.5425 108.281 16.5269C108.141 16.4733 107.371 15.8256 107.077 15.5142L106.782 15.2022V8.46242L106.487 8.16053C106.049 7.7111 106.04 7.70918 105.533 7.93906L105.098 8.1362V14.508L105.718 14.9868L105.955 14.8936C106.177 14.8065 106.197 14.8066 106.262 14.8956C106.301 14.948 106.326 14.9956 106.318 15.0015C106.311 15.0073 106.034 15.181 105.704 15.3875C105.373 15.594 104.86 15.9384 104.564 16.153C104.268 16.3676 104.005 16.5431 103.98 16.5431C103.887 16.5431 103.369 16.1185 102.894 15.652L102.402 15.1698V8.41412L102.035 8.07085C101.622 7.68425 101.708 7.68895 101.027 8.0156L100.746 8.15022L100.717 14.6794L100.89 14.8252C101.089 14.9925 101.155 15.0009 101.416 14.892C101.596 14.8165 101.729 14.853 101.729 14.9784C101.729 15.001 101.508 15.1516 101.237 15.3131C100.967 15.4745 100.437 15.8173 100.059 16.0749C99.6817 16.3324 99.3532 16.543 99.3294 16.5428C99.3055 16.5427 99.0839 16.3884 98.8369 16.1999L98.8373 16.1999ZM99.5298 16.1591L99.6608 16.0584L99.2382 15.7403C99.0058 15.5654 98.65 15.2673 98.4475 15.0778L98.0793 14.7334L97.7751 14.9327L98.1824 15.3141C98.5599 15.6678 99.3063 16.2622 99.3708 16.2606C99.3862 16.2602 99.4578 16.2145 99.5298 16.1591ZM104.144 16.1481C104.269 16.0487 104.274 16.0303 104.191 15.9812C104.035 15.8881 103.455 15.4152 103.203 15.175L102.964 14.9475V8.33315L102.791 8.1142C102.696 7.99378 102.509 7.80621 102.376 7.69738C102.16 7.51989 102.12 7.50628 101.99 7.56527L101.846 7.63103L102.054 7.79452C102.169 7.88443 102.344 8.05141 102.443 8.16557L102.623 8.37314L102.628 15.0581L103.007 15.4262C103.401 15.8097 103.927 16.2623 103.975 16.2608C103.991 16.2603 104.066 16.2096 104.144 16.1481ZM108.634 16.0504C108.633 16.028 108.502 15.9212 108.341 15.8132C108.181 15.7051 107.878 15.4556 107.669 15.2589L107.288 14.9011V8.26955L106.899 7.88097C106.571 7.55274 106.491 7.49864 106.38 7.53265C106.308 7.55479 106.242 7.57954 106.232 7.58764C106.223 7.59575 106.393 7.77677 106.611 7.9899L107.007 8.37742V15.0579L107.414 15.4603C107.638 15.6816 107.935 15.9496 108.074 16.056C108.312 16.238 108.336 16.2446 108.481 16.1701C108.566 16.1266 108.635 16.0727 108.634 16.0504ZM98.5856 8.16791L98.2429 7.81094C97.929 7.48414 97.8887 7.45917 97.7651 7.51547C97.6034 7.58915 97.5943 7.64817 97.7334 7.72257C97.7902 7.75297 97.9418 7.91412 98.0703 8.08068L98.3039 8.38352V14.3669L98.5566 14.1992L98.5856 8.16791ZM113.367 16.1555C112.807 15.6569 111.959 14.7887 111.455 14.1972L111.059 13.7323L111.031 10.8562C111.016 9.27434 110.986 7.89165 110.966 7.78356L110.929 7.58703L111.425 7.45238C112.313 7.21117 113.474 6.82448 114.41 6.45811C114.915 6.26061 115.337 6.09903 115.347 6.09903C115.357 6.09903 115.499 6.33275 115.662 6.61842C116.091 7.37063 116.549 8.09754 117.151 8.98381C117.442 9.41233 117.672 9.78934 117.661 9.8216C117.65 9.85387 116.759 10.3538 115.679 10.9326L113.717 11.9849L113.701 12.2674C113.685 12.5243 113.703 12.5717 113.894 12.7918C114.235 13.1858 115.209 14.171 115.557 14.4754L115.88 14.7581L116.644 14.3872C117.064 14.1832 117.437 14.0163 117.472 14.0163C117.508 14.0163 117.57 14.0702 117.612 14.1361C117.697 14.2735 117.698 14.2733 117.271 14.4958C116.738 14.7736 115.493 15.5059 114.683 16.0178C114.226 16.3067 113.841 16.5431 113.827 16.5431C113.813 16.5431 113.606 16.3687 113.367 16.1555ZM114.127 16.0978C114.118 16.0776 113.858 15.8322 113.549 15.5524C112.979 15.036 112.513 14.5579 111.94 13.9023L111.623 13.539L111.603 10.6379C111.593 9.04226 111.568 7.72078 111.548 7.70127C111.529 7.68175 111.453 7.68087 111.379 7.6993L111.246 7.7328L111.287 13.6513L111.547 13.9596C112.054 14.5588 112.697 15.2301 113.279 15.7687C113.861 16.3064 113.871 16.3126 114.006 16.2241C114.081 16.1748 114.135 16.1179 114.127 16.0978ZM114.495 11.0333C114.901 10.8132 115.242 10.6259 115.252 10.6169C115.262 10.608 115.133 10.4027 114.965 10.1607C114.62 9.6641 114.116 8.81365 113.88 8.33103C113.793 8.15345 113.699 8.00816 113.67 8.00816C113.64 8.00816 113.633 8.12033 113.654 8.26868C113.673 8.41196 113.689 9.18264 113.689 9.98128C113.689 10.7799 113.704 11.4334 113.723 11.4334C113.742 11.4334 114.089 11.2534 114.495 11.0333ZM115.667 10.3443C115.644 10.3102 115.409 9.95379 115.143 9.55231C114.653 8.81181 114.407 8.3845 113.949 7.47472L113.694 6.96936L113.691 7.2654C113.69 7.50123 113.735 7.65166 113.912 8.00496C114.203 8.58378 114.629 9.30746 115.077 9.98453C115.42 10.5018 115.444 10.526 115.572 10.4677C115.651 10.4319 115.69 10.3804 115.667 10.3443ZM16.5126 4.96199C16.0419 4.4818 15.4794 3.82019 15.4835 3.7518C15.4865 3.70326 15.8519 3.41668 16.7677 2.74474L17.4745 2.22609L17.9237 2.69172C18.5388 3.3293 19.0504 3.96635 18.9839 4.01191C18.9537 4.03259 18.6775 4.2405 18.3702 4.47392C17.6147 5.04775 17.0777 5.42521 17.0169 5.42521C16.9893 5.42521 16.7623 5.21678 16.5126 4.96199ZM17.1776 5.06781C17.2654 5.0011 17.2541 4.9756 17.0469 4.77481C16.9221 4.65384 16.6423 4.34641 16.4252 4.09163C16.2081 3.83684 15.9945 3.6284 15.9506 3.6284C15.7819 3.6284 15.8098 3.80343 16.0201 4.0642C16.2809 4.38749 17.0035 5.14515 17.0488 5.14267C17.0668 5.14169 17.1247 5.108 17.1776 5.06781ZM93.7469 4.92738C93.4892 4.65356 93.1579 4.27601 93.0106 4.08841L92.7427 3.74733L93.1229 3.44214C93.3319 3.27429 93.7921 2.9277 94.1454 2.67194L94.7878 2.20692L95.0882 2.53863C95.5571 3.05646 96.2825 3.92348 96.2825 3.96608C96.2825 4.04334 94.3768 5.42521 94.2702 5.42521C94.2401 5.42521 94.0046 5.2012 93.7469 4.92738ZM94.481 5.07818C94.5787 5.01716 94.5486 4.96932 94.1012 4.47432C93.834 4.17865 93.5452 3.8521 93.4596 3.74866C93.3238 3.58455 93.2916 3.57004 93.2069 3.63475C93.1536 3.67553 93.1 3.71544 93.0879 3.72342C93.0412 3.75423 94.2843 5.14446 94.3585 5.14446C94.3675 5.14446 94.4226 5.11463 94.481 5.07818Z" fill="black"/>
<rect x="2.11719" y="20.6094" width="169" height="0.7" fill="black"/>
<rect x="2.11719" y="22.3086" width="169" height="1.75781" fill="black"/>
</svg>
