<svg xmlns="http://www.w3.org/2000/svg" width="16" height="17" viewBox="0 0 16 17" fill="none">
  <g clip-path="url(#clip0_368_2666)">
    <path d="M14.6665 7.74514V8.35847C14.6656 9.79609 14.2001 11.1949 13.3394 12.3464C12.4786 13.4978 11.2687 14.3401 9.89004 14.7477C8.51142 15.1554 7.03797 15.1064 5.68944 14.6082C4.34092 14.11 3.18957 13.1892 2.4071 11.9832C1.62464 10.7772 1.25299 9.35051 1.34758 7.91601C1.44217 6.48151 1.99793 5.11602 2.93198 4.02319C3.86603 2.93035 5.12832 2.16873 6.53059 1.8519C7.93286 1.53508 9.39998 1.68003 10.7131 2.26514M14.6665 3.02514L7.9998 9.69847L5.9998 7.69847" stroke="#039855" stroke-width="1.33333" stroke-linecap="round" stroke-linejoin="round"/>
  </g>
  <defs>
    <clipPath id="clip0_368_2666">
      <rect width="16" height="16" fill="white" transform="translate(-0.000244141 0.358398)"/>
    </clipPath>
  </defs>
</svg>