<svg xmlns="http://www.w3.org/2000/svg" width="16" height="17" viewBox="0 0 16 17" fill="none">
  <g clip-path="url(#clip0_5187_32856)">
    <path d="M8.0005 5.52162V8.18829M8.0005 10.855H8.00717M6.8605 2.09495L1.21384 11.5216C1.09741 11.7232 1.03581 11.9518 1.03516 12.1846C1.03451 12.4174 1.09483 12.6464 1.21012 12.8486C1.32541 13.0509 1.49165 13.2195 1.69231 13.3375C1.89296 13.4556 2.12104 13.5191 2.35384 13.5216H13.6472C13.88 13.5191 14.108 13.4556 14.3087 13.3375C14.5094 13.2195 14.6756 13.0509 14.7909 12.8486C14.9062 12.6464 14.9665 12.4174 14.9658 12.1846C14.9652 11.9518 14.9036 11.7232 14.7872 11.5216L9.1405 2.09495C9.02166 1.89903 8.85432 1.73703 8.65463 1.62461C8.45495 1.51219 8.22966 1.45312 8.0005 1.45312C7.77135 1.45313 7.54606 1.51219 7.34637 1.62461C7.14669 1.73703 6.97935 1.89903 6.8605 2.09495Z" stroke="#DC6803" stroke-width="1.33333" stroke-linecap="round" stroke-linejoin="round"/>
  </g>
  <defs>
    <clipPath id="clip0_5187_32856">
      <rect width="16" height="16" fill="white" transform="translate(0 0.1875)"/>
    </clipPath>
  </defs>
</svg>