<svg xmlns="http://www.w3.org/2000/svg" width="16" height="17" viewBox="0 0 16 17" fill="none">
  <g clip-path="url(#clip0_166_25122)">
    <path d="M5.37929 13.6297C5.28868 13.7368 5.15925 13.8034 5.01949 13.815C4.87972 13.8267 4.74106 13.7823 4.63401 13.6917L3.01947 12.3251C2.91242 12.2345 2.84575 12.105 2.83413 11.9653C2.8225 11.8255 2.86688 11.6868 2.95749 11.5798C3.0481 11.4727 3.17753 11.4061 3.3173 11.3945C3.45706 11.3828 3.59572 11.4272 3.70277 11.5178L5.31731 12.8844C5.42436 12.975 5.49103 13.1045 5.50265 13.2442C5.51428 13.384 5.4699 13.5226 5.37929 13.6297ZM8.9515 6.95388C9.07125 7.05524 9.21836 7.11881 9.37424 7.13656C9.53012 7.15431 9.68776 7.12544 9.82722 7.05359C9.96669 6.98175 10.0817 6.87016 10.1578 6.73294C10.2338 6.59572 10.2675 6.43903 10.2545 6.28269C10.2415 6.12635 10.1824 5.97737 10.0847 5.8546C9.98705 5.73182 9.85517 5.64077 9.70575 5.59295C9.55633 5.54514 9.39608 5.5427 9.24528 5.58595C9.09448 5.62921 8.95989 5.71621 8.85853 5.83596C8.72261 5.99653 8.65605 6.20452 8.67348 6.41417C8.69092 6.62383 8.79093 6.81797 8.9515 6.95388ZM11.9041 13.2489L8.90474 15.5278C8.76234 15.636 8.59481 15.7064 8.41782 15.7323C8.24083 15.7582 8.06016 15.7387 7.89272 15.6758C7.72528 15.6129 7.57653 15.5086 7.46038 15.3725C7.34424 15.2365 7.26449 15.0732 7.2286 14.898L6.7327 12.6968L3.655 10.0917L1.40114 9.9654C1.22239 9.95895 1.04819 9.90727 0.894834 9.81519C0.741481 9.72311 0.613986 9.59365 0.524275 9.4389C0.434563 9.28415 0.385566 9.10917 0.381865 8.93034C0.378165 8.7515 0.419881 8.57465 0.503115 8.41632L2.25526 5.08171C2.33076 4.93887 2.43781 4.81511 2.56828 4.71982C2.69876 4.62453 2.84923 4.56022 3.00827 4.53177L5.91236 4.0229C6.49842 3.42859 7.17245 2.92801 7.91079 2.53874C9.94277 1.45796 11.9748 1.42077 12.7559 1.45664C12.9902 1.46677 13.2145 1.5545 13.3935 1.70602C13.5725 1.85754 13.6961 2.06427 13.7448 2.29369C13.9077 3.05685 14.2082 5.06836 13.4779 7.25096C13.2159 8.04346 12.8336 8.79092 12.3443 9.4671L12.3221 12.4154C12.3203 12.5769 12.2817 12.7359 12.2093 12.8804C12.1369 13.0248 12.0325 13.1508 11.9041 13.2489ZM4.43517 9.36646L7.31812 11.8067C9.98691 10.8146 11.7211 9.16998 12.4749 6.91553C13.1405 4.92592 12.8236 3.04335 12.7097 2.51392C12.1677 2.48817 10.2586 2.48653 8.40628 3.47169C6.30834 4.58844 4.97277 6.57045 4.43517 9.36646ZM3.42852 9.02102C3.72092 7.574 4.21253 6.32475 4.90335 5.27328L3.19154 5.5737L1.43897 8.90882L1.45361 8.90995L3.42852 9.02102ZM11.2642 12.4067L11.2777 10.6688C10.3575 11.5227 9.20733 12.2144 7.82712 12.7442L8.26174 14.6709L8.26527 14.6851L11.2642 12.4067Z" fill="#039855"/>
  </g>
  <defs>
    <clipPath id="clip0_166_25122">
      <rect width="16" height="16" fill="white" transform="translate(-0.000244141 0.358398)"/>
    </clipPath>
  </defs>
</svg>