<svg width="57" height="56" viewBox="0 0 57 56" fill="none" xmlns="http://www.w3.org/2000/svg">
<rect x="4.66138" y="4" width="48" height="48" rx="24" fill="#F2F4F7"/>
<path d="M39.0364 27.4081V28.3281C39.0351 30.4845 38.3369 32.5828 37.0457 34.3099C35.7545 36.0371 33.9397 37.3006 31.8717 37.912C29.8038 38.5234 27.5936 38.45 25.5708 37.7027C23.5481 36.9554 21.821 35.5742 20.6473 33.7652C19.4736 31.9561 18.9162 29.8162 19.0581 27.6644C19.1999 25.5127 20.0336 23.4644 21.4347 21.8252C22.8357 20.1859 24.7292 19.0435 26.8326 18.5683C28.936 18.093 31.1366 18.3104 33.1064 19.1881" stroke="#98A2B3" stroke-width="2" stroke-linecap="round" stroke-linejoin="round"/>
<path d="M39.0364 20.3281L29.0364 30.3381L26.0364 27.3381" stroke="#98A2B3" stroke-width="2" stroke-linecap="round" stroke-linejoin="round"/>
<rect x="4.66138" y="4" width="48" height="48" rx="24" stroke="#F9FAFB" stroke-width="8"/>
</svg>
