<svg width="57" height="56" viewBox="0 0 57 56" fill="none" xmlns="http://www.w3.org/2000/svg">
<rect x="4.6615" y="4" width="48" height="48" rx="24" fill="#D1FADF"/>
<path d="M39.0365 27.4081V28.3281C39.0353 30.4845 38.337 32.5828 37.0458 34.3099C35.7547 36.0371 33.9398 37.3006 31.8719 37.912C29.8039 38.5234 27.5938 38.45 25.571 37.7027C23.5482 36.9554 21.8212 35.5742 20.6475 33.7652C19.4738 31.9561 18.9163 29.8162 19.0582 27.6644C19.2001 25.5127 20.0337 23.4644 21.4348 21.8252C22.8359 20.1859 24.7293 19.0435 26.8327 18.5683C28.9361 18.093 31.1368 18.3104 33.1065 19.1881" stroke="#48BF84" stroke-width="2" stroke-linecap="round" stroke-linejoin="round"/>
<path d="M39.0365 20.3281L29.0365 30.3381L26.0365 27.3381" stroke="#48BF84" stroke-width="2" stroke-linecap="round" stroke-linejoin="round"/>
<rect x="4.6615" y="4" width="48" height="48" rx="24" stroke="#ECFDF3" stroke-width="8"/>
</svg>
