<svg xmlns="http://www.w3.org/2000/svg" width="21" height="21" viewBox="0 0 21 21" fill="none">
  <path d="M10.3177 18.9186C11.4123 18.92 12.4963 18.7051 13.5076 18.2863C14.5188 17.8674 15.4373 17.2528 16.2102 16.4778C16.9852 15.7048 17.5998 14.7864 18.0187 13.7751C18.4376 12.7639 18.6525 11.6798 18.651 10.5853C18.6524 9.49074 18.4375 8.4067 18.0186 7.39547C17.5998 6.38424 16.9852 5.46575 16.2102 4.69279C15.4373 3.9178 14.5188 3.30321 13.5076 2.88433C12.4963 2.46545 11.4123 2.25054 10.3177 2.25196C9.22316 2.25056 8.13912 2.46548 7.12789 2.88436C6.11666 3.30324 5.19818 3.91782 4.42522 4.69279C3.65025 5.46575 3.03566 6.38424 2.61678 7.39547C2.1979 8.4067 1.98299 9.49074 1.98438 10.5853C1.98296 11.6798 2.19787 12.7639 2.61675 13.7751C3.03563 14.7864 3.65023 15.7048 4.42522 16.4778C5.19818 17.2528 6.11666 17.8673 7.12789 18.2862C8.13912 18.7051 9.22316 18.92 10.3177 18.9186Z" stroke="#667085" stroke-width="1.66667" stroke-linejoin="round"/>
  <path d="M6.98438 10.5801L9.48437 13.0801L14.4844 8.08008" stroke="#667085" stroke-width="1.66667" stroke-linecap="round" stroke-linejoin="round"/>
</svg>