<svg width="57" height="56" viewBox="0 0 57 56" fill="none" xmlns="http://www.w3.org/2000/svg">
<rect x="4.32812" y="4" width="48" height="48" rx="24" fill="#F2F4F7"/>
<g clip-path="url(#clip0_1007_92604)">
<path d="M33.0846 33.0929C33.0846 31.9679 32.6377 30.889 31.8422 30.0936C31.0468 29.2981 29.9679 28.8512 28.8429 28.8512C27.7179 28.8512 26.639 29.2981 25.8436 30.0936C25.0481 30.889 24.6012 31.9679 24.6012 33.0929" stroke="#667085" stroke-width="1.69668" stroke-linecap="round" stroke-linejoin="round"/>
<path d="M28.8356 19.5192V25.4576" stroke="#667085" stroke-width="1.69668" stroke-linecap="round" stroke-linejoin="round"/>
<path d="M22.234 26.4918L23.4383 27.6961" stroke="#667085" stroke-width="1.69668" stroke-linecap="round" stroke-linejoin="round"/>
<path d="M19.5074 33.0895H21.2028" stroke="#667085" stroke-width="1.69668" stroke-linecap="round" stroke-linejoin="round"/>
<path d="M36.4762 33.0895H38.1715" stroke="#667085" stroke-width="1.69668" stroke-linecap="round" stroke-linejoin="round"/>
<path d="M34.234 27.6961L35.4383 26.4918" stroke="#667085" stroke-width="1.69668" stroke-linecap="round" stroke-linejoin="round"/>
<path d="M38.171 36.4801H19.5074" stroke="#667085" stroke-width="1.69668" stroke-linecap="round" stroke-linejoin="round"/>
<path d="M25.4449 22.9125L28.8383 19.5192L32.2317 22.9125" stroke="#667085" stroke-width="1.69668" stroke-linecap="round" stroke-linejoin="round"/>
</g>
<rect x="4.32812" y="4" width="48" height="48" rx="24" stroke="#F9FAFB" stroke-width="8"/>
<defs>
<clipPath id="clip0_1007_92604">
<rect width="20.3602" height="20.3602" fill="white" transform="translate(18.6481 17.8199)"/>
</clipPath>
</defs>
</svg>
