<svg width="57" height="56" viewBox="0 0 57 56" fill="none" xmlns="http://www.w3.org/2000/svg">
<rect x="4.99487" y="4" width="48" height="48" rx="24" fill="#D1FADF"/>
<g clip-path="url(#clip0_1007_92642)">
<path d="M19.5027 26.2678V32.1045C19.5027 32.9104 20.156 33.5637 20.9619 33.5637H29.717C30.5229 33.5637 31.1762 32.9104 31.1762 32.1045V26.2678C31.1762 25.4619 30.5229 24.8086 29.717 24.8086H20.9619C20.156 24.8086 19.5027 25.4619 19.5027 26.2678Z" stroke="#48BF84" stroke-width="1.57143" stroke-linecap="round" stroke-linejoin="round"/>
<path d="M23.1667 36.4766H27.5443" stroke="#48BF84" stroke-width="1.57143" stroke-linecap="round" stroke-linejoin="round"/>
<path d="M25.3308 36.4731V33.5547" stroke="#48BF84" stroke-width="1.57143" stroke-linecap="round" stroke-linejoin="round"/>
<path d="M29.7292 21.8928V21.1632C29.7292 20.7602 30.0559 20.4336 30.4588 20.4336H37.7548C38.1576 20.4336 38.4844 20.7602 38.4844 21.1632V35.755C38.4844 36.1579 38.1576 36.4846 37.7548 36.4846H31.918" stroke="#48BF84" stroke-width="1.57143" stroke-linecap="round" stroke-linejoin="round"/>
<path d="M35.3727 23.9003C35.2719 23.9003 35.1902 23.8185 35.1902 23.7177C35.1902 23.6169 35.2719 23.5352 35.3727 23.5352" stroke="#48BF84" stroke-width="1.57143" stroke-linecap="round" stroke-linejoin="round"/>
<path d="M35.3777 23.9003C35.4785 23.9003 35.5602 23.8185 35.5602 23.7177C35.5602 23.6169 35.4785 23.5352 35.3777 23.5352" stroke="#48BF84" stroke-width="1.57143" stroke-linecap="round" stroke-linejoin="round"/>
<path d="M34.0964 27.0078H38.474" stroke="#48BF84" stroke-width="1.57143" stroke-linecap="round" stroke-linejoin="round"/>
</g>
<rect x="4.99487" y="4" width="48" height="48" rx="24" stroke="#ECFDF3" stroke-width="8"/>
<defs>
<clipPath id="clip0_1007_92642">
<rect width="22" height="22" fill="white" transform="translate(17.9949 16)"/>
</clipPath>
</defs>
</svg>
