<svg width="24" height="24" viewBox="0 0 24 24" fill="none" xmlns="http://www.w3.org/2000/svg">
<path d="M16 2V6" stroke="#F2F4F7" stroke-width="2" stroke-linecap="round" stroke-linejoin="round"/>
<path d="M8 2V6" stroke="#F2F4F7" stroke-width="2" stroke-linecap="round" stroke-linejoin="round"/>
<path d="M3 10H21" stroke="#F2F4F7" stroke-width="2" stroke-linecap="round" stroke-linejoin="round"/>
<path fill-rule="evenodd" clip-rule="evenodd" d="M4 6C4 5.44772 4.44772 5 5 5H19C19.5523 5 20 5.44772 20 6V13.4262C20.0015 13.4262 20.0029 13.4262 20.0044 13.4262C20.7006 13.4262 21.3712 13.5357 22 13.7383V6C22 4.34315 20.6569 3 19 3H5C3.34315 3 2 4.34315 2 6V20C2 21.6569 3.34315 23 5 23H14.2757C13.9455 22.3859 13.7111 21.7125 13.5927 21H5C4.44772 21 4 20.5523 4 20V6Z" fill="#F2F4F7"/>
<path d="M18.6189 23.9094L18.3566 22.598C18.1818 22.5252 18.0177 22.4485 17.8644 22.3681C17.7111 22.2877 17.5546 22.1894 17.3949 22.0735L16.1272 22.4669L15.2529 20.9806L16.2583 20.1064C16.2292 19.9315 16.2146 19.7421 16.2146 19.5381C16.2146 19.3341 16.2292 19.1447 16.2583 18.9698L15.2529 18.0955L16.1272 16.6093L17.3949 17.0027C17.5552 16.8861 17.712 16.7879 17.8653 16.7081C18.0186 16.6282 18.1823 16.5516 18.3566 16.4781L18.6189 15.1667H20.3675L20.6297 16.4781C20.8046 16.551 20.9687 16.6276 21.122 16.7081C21.2752 16.7885 21.4317 16.8867 21.5914 17.0027L22.8591 16.6093L23.7334 18.0955L22.728 18.9698C22.7571 19.1447 22.7717 19.3341 22.7717 19.5381C22.7717 19.7421 22.7571 19.9315 22.728 20.1064L23.7334 20.9806L22.8591 22.4669L21.5914 22.0735C21.4312 22.19 21.2747 22.2885 21.122 22.369C20.9692 22.4494 20.8052 22.5257 20.6297 22.598L20.3675 23.9094H18.6189ZM19.4932 21.2866C19.974 21.2866 20.3858 21.1153 20.7285 20.7726C21.0712 20.4298 21.2423 20.0184 21.2417 19.5381C21.2417 19.0572 21.0704 18.6455 20.7277 18.3027C20.3849 17.96 19.9734 17.789 19.4932 17.7896C19.0123 17.7896 18.6005 17.9609 18.2578 18.3036C17.9151 18.6463 17.744 19.0578 17.7446 19.5381C17.7446 20.0189 17.916 20.4307 18.2587 20.7734C18.6014 21.1161 19.0129 21.2872 19.4932 21.2866Z" fill="white"/>
</svg>
