<svg width="24" height="24" viewBox="0 0 24 24" fill="none" xmlns="http://www.w3.org/2000/svg">
<path d="M15.1667 8.04167H8.83333M15.1667 11.2083H8.83333M12 17.5417L8.83333 14.375H10.4167C11.2565 14.375 12.062 14.0414 12.6558 13.4475C13.2497 12.8536 13.5833 12.0482 13.5833 11.2083C13.5833 10.3685 13.2497 9.56303 12.6558 8.96916C12.062 8.3753 11.2565 8.04167 10.4167 8.04167M21.5 12C21.5 13.2476 21.2543 14.4829 20.7769 15.6355C20.2994 16.7881 19.5997 17.8354 18.7175 18.7175C17.8354 19.5997 16.7881 20.2994 15.6355 20.7769C14.4829 21.2543 13.2476 21.5 12 21.5C10.7524 21.5 9.5171 21.2543 8.36451 20.7769C7.21191 20.2994 6.16464 19.5997 5.28249 18.7175C4.40033 17.8354 3.70056 16.7881 3.22314 15.6355C2.74572 14.4829 2.5 13.2476 2.5 12C2.5 9.48044 3.50089 7.06408 5.28249 5.28249C7.06408 3.50089 9.48044 2.5 12 2.5C14.5196 2.5 16.9359 3.50089 18.7175 5.28249C20.4991 7.06408 21.5 9.48044 21.5 12Z" stroke="white" stroke-width="1.58333" stroke-linecap="round" stroke-linejoin="round"/>
</svg>
