<svg width="14" height="14" viewBox="0 0 14 14" fill="none" xmlns="http://www.w3.org/2000/svg">
<path d="M9.44416 1.16663H4.55583C2.4325 1.16663 1.16666 2.43246 1.16666 4.55579V9.43829C1.16666 11.5675 2.4325 12.8333 4.55583 12.8333H9.43833C11.5617 12.8333 12.8275 11.5675 12.8275 9.44413V4.55579C12.8333 2.43246 11.5675 1.16663 9.44416 1.16663ZM8.6275 7.30913L6.56833 9.36829C6.48083 9.45579 6.37 9.49663 6.25916 9.49663C6.14833 9.49663 6.0375 9.45579 5.95 9.36829C5.78083 9.19913 5.78083 8.91913 5.95 8.74996L7.7 6.99996L5.95 5.24996C5.78083 5.08079 5.78083 4.80079 5.95 4.63163C6.11916 4.46246 6.39916 4.46246 6.56833 4.63163L8.6275 6.69079C8.8025 6.85996 8.8025 7.13996 8.6275 7.30913Z" fill="#FACC15"/>
</svg>
