<svg width="16" height="16" viewBox="0 0 16 16" fill="none" xmlns="http://www.w3.org/2000/svg">
<path d="M7.99999 1.33337C4.31999 1.33337 1.33333 4.32004 1.33333 8.00004C1.33333 11.68 4.31999 14.6667 7.99999 14.6667C11.68 14.6667 14.6667 11.68 14.6667 8.00004C14.6667 4.32004 11.68 1.33337 7.99999 1.33337ZM10.6867 8.35337L8.68666 10.3534C8.58666 10.4534 8.45999 10.5 8.33333 10.5C8.20666 10.5 8.07999 10.4534 7.97999 10.3534C7.78666 10.16 7.78666 9.84004 7.97999 9.64671L9.12666 8.50004H5.66666C5.39333 8.50004 5.16666 8.27337 5.16666 8.00004C5.16666 7.72671 5.39333 7.50004 5.66666 7.50004H9.12666L7.97999 6.35337C7.78666 6.16004 7.78666 5.84004 7.97999 5.64671C8.17333 5.45337 8.49333 5.45337 8.68666 5.64671L10.6867 7.64671C10.88 7.84004 10.88 8.16004 10.6867 8.35337Z" fill="white"/>
</svg>
