<svg width="14" height="14" viewBox="0 0 14 14" fill="none" xmlns="http://www.w3.org/2000/svg">
<path d="M9.44416 1.16669H4.55583C2.4325 1.16669 1.16666 2.43252 1.16666 4.55585V9.43835C1.16666 11.5675 2.4325 12.8334 4.55583 12.8334H9.43833C11.5617 12.8334 12.8275 11.5675 12.8275 9.44419V4.55585C12.8333 2.43252 11.5675 1.16669 9.44416 1.16669ZM3.77416 5.41335C3.605 5.24419 3.605 4.96419 3.77416 4.79502C4.52666 4.04252 5.7575 4.04252 6.51583 4.79502C6.685 4.96419 6.685 5.24419 6.51583 5.41335C6.42833 5.50085 6.3175 5.54169 6.20666 5.54169C6.09583 5.54169 5.985 5.50085 5.8975 5.41335C5.48333 4.99919 4.80666 4.99919 4.3925 5.41335C4.22333 5.58835 3.94333 5.58835 3.77416 5.41335ZM9.1 10.5467H4.9C4.49166 10.5467 4.15916 10.2142 4.15916 9.80002C4.15916 8.23085 5.43666 6.95335 7.00583 6.95335C8.575 6.95335 9.8525 8.23085 9.8525 9.80002C9.84666 10.2084 9.50833 10.5467 9.1 10.5467ZM10.2258 5.41335C10.0567 5.58252 9.77666 5.58252 9.6075 5.41335C9.19333 4.99919 8.51666 4.99919 8.1025 5.41335C8.015 5.50085 7.90416 5.54169 7.79333 5.54169C7.6825 5.54169 7.57166 5.50085 7.48416 5.41335C7.315 5.24419 7.315 4.96419 7.48416 4.79502C8.23666 4.04252 9.4675 4.04252 10.2258 4.79502C10.395 4.97002 10.395 5.24419 10.2258 5.41335Z" fill="#EF4444"/>
</svg>
