<svg width="14" height="14" viewBox="0 0 14 14" fill="none" xmlns="http://www.w3.org/2000/svg">
<path d="M9.44417 1.16666H4.55584C2.4325 1.16666 1.16667 2.43249 1.16667 4.55582V9.43832C1.16667 11.5675 2.4325 12.8333 4.55584 12.8333H9.43834C11.5617 12.8333 12.8275 11.5675 12.8275 9.44416V4.55582C12.8333 2.43249 11.5675 1.16666 9.44417 1.16666ZM4.95834 3.72166C5.55917 3.72166 6.05501 4.21166 6.05501 4.81832C6.05501 5.42499 5.565 5.91499 4.95834 5.91499C4.35167 5.91499 3.86167 5.41332 3.86167 4.81249C3.86167 4.21166 4.35751 3.72166 4.95834 3.72166ZM7 11.13C5.43084 11.13 4.15334 9.85249 4.15334 8.28332C4.15334 7.87499 4.48584 7.53666 4.89417 7.53666H9.09417C9.50251 7.53666 9.835 7.86916 9.835 8.28332C9.84667 9.85249 8.56917 11.13 7 11.13ZM9.04167 5.90332C8.44084 5.90332 7.945 5.41332 7.945 4.80666C7.945 4.19999 8.435 3.70999 9.04167 3.70999C9.64834 3.70999 10.1383 4.19999 10.1383 4.80666C10.1383 5.41332 9.6425 5.90332 9.04167 5.90332Z" fill="#48bf84"/>
</svg>
