<svg width="14" height="14" viewBox="0 0 14 14" fill="none" xmlns="http://www.w3.org/2000/svg">
<path d="M10.5119 7.19246L9.80023 6.48079C9.63106 6.33496 9.5319 6.11913 9.52606 5.87996C9.5144 5.61746 9.6194 5.35496 9.81189 5.16246L10.5119 4.46246C11.1186 3.85579 11.3461 3.27246 11.1536 2.81163C10.9669 2.35663 10.3894 2.10579 9.53773 2.10579H3.44189V1.60413C3.44189 1.36496 3.24356 1.16663 3.00439 1.16663C2.76523 1.16663 2.56689 1.36496 2.56689 1.60413V12.3958C2.56689 12.635 2.76523 12.8333 3.00439 12.8333C3.24356 12.8333 3.44189 12.635 3.44189 12.3958V9.54913H9.53773C10.3777 9.54913 10.9436 9.29246 11.1361 8.83163C11.3286 8.37079 11.1069 7.79329 10.5119 7.19246Z" fill="#FB923C"/>
</svg>
