<svg width="20" height="20" viewBox="0 0 20 20" fill="none" xmlns="http://www.w3.org/2000/svg">
<path d="M17.4686 15.6094L12.4999 7.32812V3.125H13.1249C13.2906 3.125 13.4496 3.05915 13.5668 2.94194C13.684 2.82473 13.7499 2.66576 13.7499 2.5C13.7499 2.33424 13.684 2.17527 13.5668 2.05806C13.4496 1.94085 13.2906 1.875 13.1249 1.875H6.87489C6.70913 1.875 6.55015 1.94085 6.43294 2.05806C6.31573 2.17527 6.24989 2.33424 6.24989 2.5C6.24989 2.66576 6.31573 2.82473 6.43294 2.94194C6.55015 3.05915 6.70913 3.125 6.87489 3.125H7.49989V7.32812L4.35926 12.5547C4.35926 12.5625 4.35145 12.5703 4.35145 12.5781L2.53114 15.6094C2.41803 15.7989 2.35711 16.015 2.35457 16.2357C2.35204 16.4563 2.40798 16.6738 2.51671 16.8658C2.62543 17.0579 2.78307 17.2177 2.9736 17.3291C3.16413 17.4405 3.38075 17.4995 3.60145 17.5H16.3983C16.619 17.4995 16.8356 17.4405 17.0262 17.3291C17.2167 17.2177 17.3743 17.0579 17.4831 16.8658C17.5918 16.6738 17.6477 16.4563 17.6452 16.2357C17.6427 16.015 17.5817 15.7989 17.4686 15.6094ZM8.5702 7.96875C8.68723 7.77552 8.74936 7.55403 8.74989 7.32812V3.125H11.2499V7.32812C11.2504 7.55403 11.3125 7.77552 11.4296 7.96875L14.4608 13.0312C13.4374 13.5859 12.0077 13.4297 10.2811 12.5625C9.16395 12.0078 7.72645 11.5078 6.35145 11.6719L8.5702 7.96875Z" fill="#48BF84"/>
</svg>
