<svg width="130" height="56" viewBox="0 0 130 56" fill="none" xmlns="http://www.w3.org/2000/svg">
<rect x="115.19" y="28" width="2.46835" height="2.625" fill="#64748B" fill-opacity="0.15"/>
<rect x="105.316" y="42.875" width="2.46835" height="2.625" fill="#64748B"/>
<rect x="127.532" y="38.5" width="2.46835" height="2.625" fill="#64748B"/>
<rect x="122.595" y="12.25" width="2.46835" height="2.625" fill="#64748B" fill-opacity="0.35"/>
<rect x="104.494" width="2.46835" height="2.625" fill="#64748B"/>
<rect x="6.58203" y="14" width="2.46835" height="2.625" fill="#64748B"/>
<rect x="18.9238" width="2.46835" height="2.625" fill="#64748B" fill-opacity="0.1"/>
<rect x="12.3418" y="38.5" width="2.46835" height="2.625" fill="#64748B" fill-opacity="0.15"/>
<rect x="25.5063" y="53.375" width="2.46835" height="2.625" fill="#64748B"/>
<rect x="17.2783" y="21.875" width="2.46835" height="2.625" fill="#64748B" fill-opacity="0.5"/>
<rect y="27.125" width="2.46835" height="2.625" fill="#64748B" fill-opacity="0.35"/>
<path fill-rule="evenodd" clip-rule="evenodd" d="M77.8862 17.2572V20.835C81.905 22.0894 84.8332 25.7275 84.8332 30.0728V41.5922C84.8332 46.9716 80.3733 51.3332 74.875 51.3332H55.127C49.6263 51.3332 45.1665 46.9716 45.1665 41.5922V30.0728C45.1665 25.7275 48.097 22.0894 52.1135 20.835V17.2572C52.1372 10.301 57.8987 4.6665 64.9643 4.6665C72.1247 4.6665 77.8862 10.301 77.8862 17.2572ZM65.0117 8.72427C69.8248 8.72427 73.7369 12.5502 73.7369 17.2572V20.3318H56.2627V17.2108C56.2864 12.527 60.1986 8.72427 65.0117 8.72427ZM67.0745 38.3947C67.0745 39.5309 66.1498 40.4352 64.988 40.4352C63.8499 40.4352 62.9252 39.5309 62.9252 38.3947V33.2471C62.9252 32.1341 63.8499 31.2298 64.988 31.2298C66.1498 31.2298 67.0745 32.1341 67.0745 33.2471V38.3947Z" fill="#64748B"/>
</svg>
