<svg width="10" height="12" viewBox="0 0 10 12" fill="none" xmlns="http://www.w3.org/2000/svg">
<path fill-rule="evenodd" clip-rule="evenodd" d="M8.22157 3.3143V4.20874C9.22628 4.52235 9.95832 5.43187 9.95832 6.51819V9.39805C9.95832 10.7429 8.84337 11.8333 7.46878 11.8333H2.53179C1.15661 11.8333 0.0416565 10.7429 0.0416565 9.39805V6.51819C0.0416565 5.43187 0.774293 4.52235 1.77841 4.20874V3.3143C1.78433 1.57525 3.22471 0.166626 4.9911 0.166626C6.7812 0.166626 8.22157 1.57525 8.22157 3.3143ZM5.00295 1.18107C6.20623 1.18107 7.18426 2.13754 7.18426 3.3143V4.08295H2.81572V3.3027C2.82164 2.13175 3.79968 1.18107 5.00295 1.18107ZM5.51864 8.59867C5.51864 8.88272 5.28747 9.10879 4.99703 9.10879C4.71251 9.10879 4.48134 8.88272 4.48134 8.59867V7.31178C4.48134 7.03353 4.71251 6.80746 4.99703 6.80746C5.28747 6.80746 5.51864 7.03353 5.51864 7.31178V8.59867Z" fill="#64748B"/>
</svg>
