<svg width="18" height="18" viewBox="0 0 18 18" fill="none" xmlns="http://www.w3.org/2000/svg">
<path d="M13.8525 12.6225L14.145 14.9925C14.22 15.615 13.5525 16.05 13.02 15.7275L10.425 14.1825C10.245 14.0775 10.2 13.8525 10.2975 13.6725C10.6725 12.9825 10.875 12.2025 10.875 11.4225C10.875 8.6775 8.52001 6.4425 5.62501 6.4425C5.03251 6.4425 4.45501 6.5325 3.91501 6.7125C3.63751 6.8025 3.36751 6.5475 3.43501 6.2625C4.11751 3.5325 6.74251 1.5 9.87751 1.5C13.5375 1.5 16.5 4.2675 16.5 7.68C16.5 9.705 15.4575 11.4975 13.8525 12.6225Z" fill="#292D32"/>
<path d="M9.75 11.4225C9.75 12.315 9.42 13.14 8.865 13.7925C8.1225 14.6925 6.945 15.27 5.625 15.27L3.6675 16.4325C3.3375 16.635 2.9175 16.3575 2.9625 15.975L3.15 14.4975C2.145 13.8 1.5 12.6825 1.5 11.4225C1.5 10.1025 2.205 8.94 3.285 8.25C3.9525 7.815 4.755 7.5675 5.625 7.5675C7.905 7.5675 9.75 9.2925 9.75 11.4225Z" fill="#292D32"/>
</svg>
