<svg width="14" height="14" viewBox="0 0 14 14" fill="none" xmlns="http://www.w3.org/2000/svg">
<path d="M7.00002 1.16666C3.78585 1.16666 1.16669 3.78582 1.16669 6.99999C1.16669 10.2142 3.78585 12.8333 7.00002 12.8333C10.2142 12.8333 12.8334 10.2142 12.8334 6.99999C12.8334 3.78582 10.2142 1.16666 7.00002 1.16666ZM4.66669 7.58332C4.34002 7.58332 4.08335 7.32082 4.08335 6.99999C4.08335 6.67916 4.34585 6.41666 4.66669 6.41666C4.98752 6.41666 5.25002 6.67916 5.25002 6.99999C5.25002 7.32082 4.99335 7.58332 4.66669 7.58332ZM7.00002 7.58332C6.67335 7.58332 6.41669 7.32082 6.41669 6.99999C6.41669 6.67916 6.67919 6.41666 7.00002 6.41666C7.32085 6.41666 7.58335 6.67916 7.58335 6.99999C7.58335 7.32082 7.32669 7.58332 7.00002 7.58332ZM9.33335 7.58332C9.00669 7.58332 8.75002 7.32082 8.75002 6.99999C8.75002 6.67916 9.01252 6.41666 9.33335 6.41666C9.65419 6.41666 9.91669 6.67916 9.91669 6.99999C9.91669 7.32082 9.66002 7.58332 9.33335 7.58332Z" fill="#FB923C"/>
</svg>
