<svg width="36" height="37" viewBox="0 0 36 37" fill="none" xmlns="http://www.w3.org/2000/svg">
<path d="M29.9961 12.873V27.498C29.9961 31.998 27.3111 33.498 23.9961 33.498H11.9961C8.68109 33.498 5.99609 31.998 5.99609 27.498V12.873C5.99609 7.99805 8.68109 6.87305 11.9961 6.87305C11.9961 7.80305 12.3711 8.64304 12.9861 9.25804C13.6011 9.87304 14.4411 10.248 15.3711 10.248H20.6211C22.4811 10.248 23.9961 8.73305 23.9961 6.87305C27.3111 6.87305 29.9961 7.99805 29.9961 12.873Z" stroke="#435B65" stroke-width="2" stroke-linecap="round" stroke-linejoin="round"/>
<path d="M24.0039 6.87305C24.0039 8.73305 22.4889 10.248 20.6289 10.248H15.3789C14.4489 10.248 13.6089 9.87304 12.9939 9.25804C12.3789 8.64304 12.0039 7.80305 12.0039 6.87305C12.0039 5.01305 13.5189 3.49805 15.3789 3.49805H20.6289C21.5589 3.49805 22.3989 3.87305 23.014 4.48805C23.629 5.10305 24.0039 5.94305 24.0039 6.87305Z" stroke="#435B65" stroke-width="2" stroke-linecap="round" stroke-linejoin="round"/>
<path d="M12.0039 20.002H18.0039" stroke="#435B65" stroke-width="2" stroke-linecap="round" stroke-linejoin="round"/>
<path d="M12.0039 25.998H24.0039" stroke="#435B65" stroke-width="2" stroke-linecap="round" stroke-linejoin="round"/>
</svg>
