<svg width="20" height="20" viewBox="0 0 20 20" fill="none" xmlns="http://www.w3.org/2000/svg">
<path fill-rule="evenodd" clip-rule="evenodd" d="M14.6348 17.5005C14.5031 17.5005 14.3706 17.4697 14.249 17.4064L9.99981 15.1864L5.75147 17.4064C5.46981 17.5522 5.12981 17.5272 4.87481 17.3405C4.61814 17.1539 4.49064 16.838 4.54481 16.5255L5.35397 11.8355L1.92064 8.51471C1.69231 8.29388 1.60981 7.96221 1.70731 7.65888C1.80481 7.35721 2.06564 7.13638 2.38064 7.09138L7.13064 6.40138L9.25397 2.12971C9.53564 1.56305 10.4648 1.56305 10.7465 2.12971L12.8698 6.40138L17.6198 7.09138C17.9348 7.13638 18.1956 7.35721 18.2931 7.65888C18.3906 7.96221 18.3081 8.29388 18.0798 8.51471L14.6465 11.8355L15.4556 16.5255C15.5098 16.838 15.3815 17.1539 15.1256 17.3405C14.9806 17.4472 14.8081 17.5005 14.6348 17.5005Z" fill="#231F20"/>
<mask id="mask0_1506_10449" style="mask-type:luminance" maskUnits="userSpaceOnUse" x="1" y="1" width="18" height="17">
<path fill-rule="evenodd" clip-rule="evenodd" d="M14.6348 17.5005C14.5031 17.5005 14.3706 17.4697 14.249 17.4064L9.99981 15.1864L5.75147 17.4064C5.46981 17.5522 5.12981 17.5272 4.87481 17.3405C4.61814 17.1539 4.49064 16.838 4.54481 16.5255L5.35397 11.8355L1.92064 8.51471C1.69231 8.29388 1.60981 7.96221 1.70731 7.65888C1.80481 7.35721 2.06564 7.13638 2.38064 7.09138L7.13064 6.40138L9.25397 2.12971C9.53564 1.56305 10.4648 1.56305 10.7465 2.12971L12.8698 6.40138L17.6198 7.09138C17.9348 7.13638 18.1956 7.35721 18.2931 7.65888C18.3906 7.96221 18.3081 8.29388 18.0798 8.51471L14.6465 11.8355L15.4556 16.5255C15.5098 16.838 15.3815 17.1539 15.1256 17.3405C14.9806 17.4472 14.8081 17.5005 14.6348 17.5005Z" fill="white"/>
</mask>
<g mask="url(#mask0_1506_10449)">
<rect width="20" height="20" fill="#0D2129"/>
</g>
</svg>
