<svg width="20" height="20" viewBox="0 0 20 20" fill="none" xmlns="http://www.w3.org/2000/svg">
<path fill-rule="evenodd" clip-rule="evenodd" d="M14.295 7.605L9.727 13.605C9.539 13.852 9.248 13.998 8.938 14H8.931C8.624 14 8.334 13.858 8.144 13.616L5.712 10.509C5.372 10.075 5.448 9.446 5.883 9.106C6.317 8.765 6.947 8.841 7.287 9.277L8.92 11.363L12.704 6.394C13.038 5.955 13.665 5.869 14.106 6.204C14.545 6.539 14.63 7.166 14.295 7.605ZM10 0C4.477 0 0 4.477 0 10C0 15.522 4.477 20 10 20C15.523 20 20 15.522 20 10C20 4.477 15.523 0 10 0Z" fill="#231F20"/>
<mask id="mask0_1506_10455" style="mask-type:luminance" maskUnits="userSpaceOnUse" x="0" y="0" width="20" height="20">
<path fill-rule="evenodd" clip-rule="evenodd" d="M14.295 7.605L9.727 13.605C9.539 13.852 9.248 13.998 8.938 14H8.931C8.624 14 8.334 13.858 8.144 13.616L5.712 10.509C5.372 10.075 5.448 9.446 5.883 9.106C6.317 8.765 6.947 8.841 7.287 9.277L8.92 11.363L12.704 6.394C13.038 5.955 13.665 5.869 14.106 6.204C14.545 6.539 14.63 7.166 14.295 7.605ZM10 0C4.477 0 0 4.477 0 10C0 15.522 4.477 20 10 20C15.523 20 20 15.522 20 10C20 4.477 15.523 0 10 0Z" fill="white"/>
</mask>
<g mask="url(#mask0_1506_10455)">
<rect x="-2" y="-2.00049" width="24" height="24" fill="#48BF84"/>
</g>
</svg>
