<svg width="16" height="17" viewBox="0 0 16 17" fill="none" xmlns="http://www.w3.org/2000/svg">
<path fill-rule="evenodd" clip-rule="evenodd" d="M12.6666 8.33197H4.75663L7.17863 5.4253C7.41463 5.14264 7.37596 4.72197 7.09329 4.48664C6.80996 4.25064 6.38996 4.2893 6.15463 4.57197L2.82129 8.57197C2.79529 8.6033 2.78196 8.63997 2.76263 8.67464C2.74663 8.70264 2.72729 8.72664 2.71529 8.7573C2.68529 8.83397 2.66729 8.91464 2.66729 8.99597C2.66729 8.99664 2.66663 8.99797 2.66663 8.99864C2.66663 8.9993 2.66729 9.00064 2.66729 9.0013C2.66729 9.08264 2.68529 9.1633 2.71529 9.23997C2.72729 9.27064 2.74663 9.29464 2.76263 9.32264C2.78196 9.3573 2.79529 9.39397 2.82129 9.4253L6.15463 13.4253C6.28663 13.5833 6.47596 13.6653 6.66663 13.6653C6.81729 13.6653 6.96863 13.6146 7.09329 13.5106C7.37596 13.2753 7.41463 12.8546 7.17863 12.572L4.75663 9.6653H12.6666C13.0346 9.6653 13.3333 9.36664 13.3333 8.99864C13.3333 8.63064 13.0346 8.33197 12.6666 8.33197" fill="#48BF84"/>
</svg>
