<svg xmlns="http://www.w3.org/2000/svg" width="21" height="21" viewBox="0 0 21 21" fill="none">
  <g clip-path="url(#clip0_1878_170791)">
    <path d="M3.24219 5.13672H4.90885H18.2422" stroke="#344054" stroke-width="1.66667" stroke-linecap="round" stroke-linejoin="round"/>
    <path d="M16.5749 5.13607V16.8027C16.5749 17.2448 16.3993 17.6687 16.0867 17.9812C15.7742 18.2938 15.3502 18.4694 14.9082 18.4694H6.57487C6.13284 18.4694 5.70892 18.2938 5.39636 17.9812C5.0838 17.6687 4.9082 17.2448 4.9082 16.8027V5.13607M7.4082 5.13607V3.4694C7.4082 3.02737 7.5838 2.60345 7.89636 2.29089C8.20892 1.97833 8.63284 1.80273 9.07487 1.80273H12.4082C12.8502 1.80273 13.2742 1.97833 13.5867 2.29089C13.8993 2.60345 14.0749 3.02737 14.0749 3.4694V5.13607" stroke="#344054" stroke-width="1.66667" stroke-linecap="round" stroke-linejoin="round"/>
  </g>
  <defs>
    <clipPath id="clip0_1878_170791">
      <rect width="20" height="20" fill="white" transform="translate(0.742188 0.136719)"/>
    </clipPath>
  </defs>
</svg>