<svg width="40" height="41" viewBox="0 0 40 41" fill="none" xmlns="http://www.w3.org/2000/svg">
<rect y="0.998047" width="40" height="40" rx="8" fill="#F2F4FF"/>
<g clip-path="url(#clip0_1007_92703)">
<path d="M20 10.998L20.117 11.005C20.3402 11.0314 20.5481 11.1321 20.707 11.2911C20.8659 11.45 20.9667 11.6578 20.993 11.881L21 11.998V15.998L21.005 16.148C21.0408 16.6242 21.2458 17.0719 21.5829 17.4101C21.92 17.7483 22.3669 17.9547 22.843 17.992L23 17.998H27L27.117 18.005C27.3402 18.0314 27.5481 18.1321 27.707 18.2911C27.8659 18.45 27.9667 18.6578 27.993 18.881L28 18.998V27.998C28 28.7633 27.7077 29.4996 27.1827 30.0563C26.6578 30.6131 25.9399 30.9482 25.176 30.993L25 30.998H15C14.2348 30.9981 13.4985 30.7057 12.9417 30.1808C12.385 29.6558 12.0499 28.9379 12.005 28.174L12 27.998V13.998C12 13.2328 12.2923 12.4965 12.8173 11.9398C13.3422 11.383 14.0601 11.0479 14.824 11.003L15 10.998H20Z" fill="#6563FF"/>
<path d="M27.001 15.9971H23.001L23 11.9961L27.001 15.9971Z" fill="#6563FF"/>
</g>
<defs>
<clipPath id="clip0_1007_92703">
<rect width="24" height="24" fill="white" transform="translate(8 8.99805)"/>
</clipPath>
</defs>
</svg>
