<svg xmlns="http://www.w3.org/2000/svg" width="25" height="24" viewBox="0 0 25 24" fill="none">
  <path d="M3.19531 6H5.19531H21.1953" stroke="#344054" stroke-width="2" stroke-linecap="round" stroke-linejoin="round"/>
  <path d="M19.1953 6V20C19.1953 20.5304 18.9846 21.0391 18.6095 21.4142C18.2345 21.7893 17.7257 22 17.1953 22H7.19531C6.66488 22 6.15617 21.7893 5.7811 21.4142C5.40603 21.0391 5.19531 20.5304 5.19531 20V6M8.19531 6V4C8.19531 3.46957 8.40603 2.96086 8.7811 2.58579C9.15617 2.21071 9.66488 2 10.1953 2H14.1953C14.7257 2 15.2345 2.21071 15.6095 2.58579C15.9846 2.96086 16.1953 3.46957 16.1953 4V6" stroke="#344054" stroke-width="2" stroke-linecap="round" stroke-linejoin="round"/>
</svg>