<svg xmlns="http://www.w3.org/2000/svg" width="25" height="24" viewBox="0 0 25 24" fill="none">
  <path d="M16.8121 3.75204C17.0505 3.51361 17.3336 3.32448 17.6451 3.19545C17.9566 3.06641 18.2905 3 18.6277 3C18.9649 3 19.2988 3.06641 19.6103 3.19545C19.9218 3.32448 20.2048 3.51361 20.4433 3.75204C20.6817 3.99046 20.8708 4.27351 20.9999 4.58503C21.1289 4.89655 21.1953 5.23043 21.1953 5.56761C21.1953 5.90479 21.1289 6.23868 20.9999 6.55019C20.8708 6.86171 20.6817 7.14476 20.4433 7.38319L8.18814 19.6383L3.19531 21L4.55699 16.0072L16.8121 3.75204Z" stroke="#344054" stroke-width="2" stroke-linecap="round" stroke-linejoin="round"/>
</svg>