<svg xmlns="http://www.w3.org/2000/svg" width="25" height="25" viewBox="0 0 25 25" fill="none">
  <path d="M17.5469 3.35772C17.8095 3.09508 18.1213 2.88674 18.4645 2.7446C18.8076 2.60246 19.1754 2.5293 19.5469 2.5293C19.9183 2.5293 20.2861 2.60246 20.6293 2.7446C20.9724 2.88674 21.2842 3.09508 21.5469 3.35772C21.8095 3.62037 22.0179 3.93217 22.16 4.27533C22.3021 4.61849 22.3753 4.98629 22.3753 5.35772C22.3753 5.72916 22.3021 6.09696 22.16 6.44012C22.0179 6.78328 21.8095 7.09508 21.5469 7.35772L8.04688 20.8577L2.54688 22.3577L4.04688 16.8577L17.5469 3.35772Z" stroke="#48BF84" stroke-width="2" stroke-linecap="round" stroke-linejoin="round"/>
</svg>