<svg width="174" height="174" viewBox="0 0 174 174" fill="none" xmlns="http://www.w3.org/2000/svg">
<rect x="13" y="13" width="148" height="148" rx="74" fill="#D1FADF"/>
<path d="M117 84.2337V86.9937C116.996 93.463 114.902 99.7578 111.028 104.939C107.155 110.121 101.71 113.911 95.5061 115.745C89.3023 117.58 82.6718 117.359 76.6034 115.117C70.535 112.876 65.354 108.732 61.8329 103.305C58.3118 97.8778 56.6394 91.4579 57.065 85.0027C57.4907 78.5474 59.9916 72.4027 64.1948 67.485C68.3981 62.5672 74.0784 59.1399 80.3886 57.7142C86.6988 56.2885 93.3008 56.9407 99.21 59.5737" stroke="#48BF84" stroke-width="6" stroke-linecap="round" stroke-linejoin="round"/>
<path d="M117 63L87 93.03L78 84.03" stroke="#48BF84" stroke-width="6" stroke-linecap="round" stroke-linejoin="round"/>
<rect x="13" y="13" width="148" height="148" rx="74" stroke="#ECFDF3" stroke-width="24.6667"/>
</svg>
