<svg width="40" height="41" viewBox="0 0 40 41" fill="none" xmlns="http://www.w3.org/2000/svg">
<rect y="0.998047" width="40" height="40" rx="8" fill="#F2F4FF"/>
<path fill-rule="evenodd" clip-rule="evenodd" d="M19.5269 12.8978C21.7089 10.7108 25.2299 10.3158 27.6619 12.2178C30.5749 14.4958 30.7659 18.7408 28.2349 21.2778L26.8119 22.7028C26.4189 23.0968 25.7829 23.0968 25.3899 22.7028C24.9969 22.3098 24.9969 21.6708 25.3899 21.2778L26.8119 19.8518C28.4669 18.1948 28.3769 15.4398 26.5399 13.9018C24.9129 12.5388 22.4709 12.7988 20.9719 14.3008L19.6989 15.5758C19.3069 15.9698 18.6689 15.9698 18.2769 15.5758C17.8839 15.1828 17.8799 14.5478 18.4539 13.9728L19.5269 12.8978ZM21.2931 18.2908L17.2931 22.2908C16.9021 22.6818 16.9021 23.3138 17.2931 23.7048C17.4881 23.8998 17.7441 23.9978 18.0001 23.9978C18.2561 23.9978 18.5121 23.8998 18.7071 23.7048L22.7071 19.7048C23.0981 19.3138 23.0981 18.6818 22.7071 18.2908C22.3161 17.8998 21.6841 17.8998 21.2931 18.2908ZM20.2798 26.3947L19.0058 27.6657C17.5048 29.1627 15.0578 29.4207 13.4298 28.0637C11.5908 26.5317 11.4998 23.7857 13.1568 22.1327L14.5818 20.7127C14.9748 20.3207 14.9748 19.6847 14.5818 19.2917C14.1888 18.9007 13.5508 18.9007 13.1568 19.2917L11.8818 20.5647C9.70981 22.7307 9.32881 26.2147 11.2068 28.6387C13.4778 31.5717 17.7378 31.7697 20.2798 29.2357L21.7048 27.8157C22.0978 27.4227 22.0978 26.7877 21.7048 26.3947C21.3108 26.0017 20.6738 26.0017 20.2798 26.3947Z" fill="#0F0F0F"/>
<mask id="mask0_1007_92704" style="mask-type:luminance" maskUnits="userSpaceOnUse" x="9" y="10" width="21" height="21">
<path fill-rule="evenodd" clip-rule="evenodd" d="M19.5269 12.8978C21.7089 10.7108 25.2299 10.3158 27.6619 12.2178C30.5749 14.4958 30.7659 18.7408 28.2349 21.2778L26.8119 22.7028C26.4189 23.0968 25.7829 23.0968 25.3899 22.7028C24.9969 22.3098 24.9969 21.6708 25.3899 21.2778L26.8119 19.8518C28.4669 18.1948 28.3769 15.4398 26.5399 13.9018C24.9129 12.5388 22.4709 12.7988 20.9719 14.3008L19.6989 15.5758C19.3069 15.9698 18.6689 15.9698 18.2769 15.5758C17.8839 15.1828 17.8799 14.5478 18.4539 13.9728L19.5269 12.8978ZM21.2931 18.2908L17.2931 22.2908C16.9021 22.6818 16.9021 23.3138 17.2931 23.7048C17.4881 23.8998 17.7441 23.9978 18.0001 23.9978C18.2561 23.9978 18.5121 23.8998 18.7071 23.7048L22.7071 19.7048C23.0981 19.3138 23.0981 18.6818 22.7071 18.2908C22.3161 17.8998 21.6841 17.8998 21.2931 18.2908ZM20.2798 26.3947L19.0058 27.6657C17.5048 29.1627 15.0578 29.4207 13.4298 28.0637C11.5908 26.5317 11.4998 23.7857 13.1568 22.1327L14.5818 20.7127C14.9748 20.3207 14.9748 19.6847 14.5818 19.2917C14.1888 18.9007 13.5508 18.9007 13.1568 19.2917L11.8818 20.5647C9.70981 22.7307 9.32881 26.2147 11.2068 28.6387C13.4778 31.5717 17.7378 31.7697 20.2798 29.2357L21.7048 27.8157C22.0978 27.4227 22.0978 26.7877 21.7048 26.3947C21.3108 26.0017 20.6738 26.0017 20.2798 26.3947Z" fill="white"/>
</mask>
<g mask="url(#mask0_1007_92704)">
<rect x="8" y="8.99805" width="24" height="24" fill="#6563FF"/>
</g>
</svg>
