<svg width="25" height="25" viewBox="0 0 25 25" fill="none" xmlns="http://www.w3.org/2000/svg">
<g clip-path="url(#clip0_1007_92692)">
<path d="M15.5 7.99805H18.5C19.1566 7.99805 19.8068 8.12738 20.4134 8.37865C21.02 8.62992 21.5712 8.99822 22.0355 9.46251C22.4998 9.92681 22.8681 10.478 23.1194 11.0846C23.3707 11.6913 23.5 12.3414 23.5 12.998C23.5 13.6547 23.3707 14.3048 23.1194 14.9115C22.8681 15.5181 22.4998 16.0693 22.0355 16.5336C21.5712 16.9979 21.02 17.3662 20.4134 17.6174C19.8068 17.8687 19.1566 17.998 18.5 17.998H15.5M9.5 17.998H6.5C5.84339 17.998 5.19321 17.8687 4.58658 17.6174C3.97995 17.3662 3.42876 16.9979 2.96447 16.5336C2.02678 15.5959 1.5 14.3241 1.5 12.998C1.5 11.672 2.02678 10.4002 2.96447 9.46251C3.90215 8.52483 5.17392 7.99805 6.5 7.99805H9.5" stroke="#1D2939" stroke-width="2" stroke-linecap="round" stroke-linejoin="round"/>
<path d="M8.5 12.998H16.5" stroke="#1D2939" stroke-width="2" stroke-linecap="round" stroke-linejoin="round"/>
</g>
<defs>
<clipPath id="clip0_1007_92692">
<rect width="24" height="24" fill="white" transform="translate(0.5 0.998047)"/>
</clipPath>
</defs>
</svg>
