<svg xmlns="http://www.w3.org/2000/svg" width="24" height="25" viewBox="0 0 24 25" fill="none">
  <path d="M9.5018 7.49505C9.68503 7.68198 9.78766 7.9333 9.78766 8.19505C9.78766 8.4568 9.68503 8.70812 9.5018 8.89505L7.90181 10.495C7.71488 10.6783 7.46356 10.7809 7.20181 10.7809C6.94005 10.7809 6.68873 10.6783 6.5018 10.495L2.73181 6.72505C2.22897 7.83624 2.07672 9.07428 2.29535 10.2742C2.51397 11.4741 3.09309 12.5789 3.95553 13.4413C4.81796 14.3038 5.92275 14.8829 7.12266 15.1015C8.32257 15.3201 9.56062 15.1679 10.6718 14.665L17.5818 21.575C17.9796 21.9729 18.5192 22.1964 19.0818 22.1964C19.6444 22.1964 20.184 21.9729 20.5818 21.575C20.9796 21.1772 21.2031 20.6377 21.2031 20.075C21.2031 19.5124 20.9796 18.9729 20.5818 18.575L13.6718 11.665C14.1746 10.5539 14.3269 9.31581 14.1083 8.1159C13.8896 6.91599 13.3105 5.8112 12.4481 4.94877C11.5856 4.08634 10.4809 3.50722 9.28095 3.28859C8.08104 3.06996 6.84299 3.22221 5.73181 3.72505L9.4918 7.48505L9.5018 7.49505Z" stroke="#48BF84" stroke-width="2" stroke-linecap="round" stroke-linejoin="round"/>
</svg>