<svg width="24" height="25" viewBox="0 0 24 25" fill="none" xmlns="http://www.w3.org/2000/svg">
<path d="M3.5 20.237L8.5 15.237M8.5 15.237L12.456 19.193C12.5716 19.3085 12.7138 19.3939 12.87 19.4417C13.0263 19.4895 13.1919 19.4983 13.3523 19.4673C13.5127 19.4363 13.6631 19.3665 13.7903 19.264C13.9176 19.1614 14.0177 19.0292 14.082 18.879L16.337 13.618C16.3887 13.4972 16.4637 13.3878 16.5578 13.296C16.6518 13.2042 16.763 13.1318 16.885 13.083L20.092 11.8C20.2456 11.7385 20.3815 11.6399 20.4876 11.513C20.5937 11.3862 20.6666 11.2349 20.6999 11.0729C20.7332 10.9109 20.7258 10.7431 20.6784 10.5847C20.6309 10.4262 20.5449 10.282 20.428 10.165L13.572 3.309C13.455 3.19212 13.3108 3.1061 13.1523 3.05865C12.9939 3.01119 12.8261 3.00378 12.6641 3.03707C12.5021 3.07037 12.3508 3.14333 12.224 3.24943C12.0971 3.35552 11.9985 3.49144 11.937 3.645L10.654 6.852C10.6052 6.97401 10.5328 7.08521 10.441 7.17924C10.3492 7.27327 10.2398 7.34829 10.119 7.4L4.858 9.655C4.70778 9.7193 4.57561 9.81944 4.47304 9.94665C4.37048 10.0739 4.30065 10.2243 4.26967 10.3847C4.23868 10.5451 4.24749 10.7107 4.29531 10.867C4.34314 11.0232 4.42852 11.1654 4.544 11.281L8.5 15.237Z" stroke="#48BF84" stroke-width="2" stroke-linecap="round" stroke-linejoin="round"/>
</svg>
