<svg xmlns="http://www.w3.org/2000/svg" width="21" height="21" viewBox="0 0 21 21" fill="none">
  <g clip-path="url(#clip0_2989_207176)">
    <path d="M14.9769 17.5273V15.8607C14.9769 14.9766 14.6257 14.1288 14.0006 13.5037C13.3755 12.8785 12.5276 12.5273 11.6436 12.5273H4.97689C4.09283 12.5273 3.24499 12.8785 2.61987 13.5037C1.99474 14.1288 1.64355 14.9766 1.64355 15.8607V17.5273" stroke="#48BF84" stroke-width="1.66667" stroke-linecap="round" stroke-linejoin="round"/>
    <path d="M8.29525 9.19401C10.1362 9.19401 11.6286 7.70163 11.6286 5.86068C11.6286 4.01973 10.1362 2.52734 8.29525 2.52734C6.4543 2.52734 4.96191 4.01973 4.96191 5.86068C4.96191 7.70163 6.4543 9.19401 8.29525 9.19401Z" stroke="#48BF84" stroke-width="1.66667" stroke-linecap="round" stroke-linejoin="round"/>
    <path d="M19.9619 17.5306V15.8639C19.9614 15.1254 19.7155 14.4079 19.2631 13.8242C18.8106 13.2405 18.177 12.8236 17.4619 12.6389" stroke="#48BF84" stroke-width="1.66667" stroke-linecap="round" stroke-linejoin="round"/>
    <path d="M14.1436 2.63892C14.8606 2.8225 15.4961 3.2395 15.9499 3.82417C16.4038 4.40885 16.6501 5.12794 16.6501 5.86808C16.6501 6.60823 16.4038 7.32732 15.9499 7.91199C15.4961 8.49667 14.8606 8.91367 14.1436 9.09725" stroke="#48BF84" stroke-width="1.66667" stroke-linecap="round" stroke-linejoin="round"/>
  </g>
  <defs>
    <clipPath id="clip0_2989_207176">
      <rect width="20" height="20" fill="white" transform="translate(0.802734 0.0273438)"/>
    </clipPath>
  </defs>
</svg>