<svg xmlns="http://www.w3.org/2000/svg" width="24" height="25" viewBox="0 0 24 25" fill="none">
  <path d="M12 13.6001C12.5523 13.6001 13 13.1524 13 12.6001C13 12.0478 12.5523 11.6001 12 11.6001C11.4477 11.6001 11 12.0478 11 12.6001C11 13.1524 11.4477 13.6001 12 13.6001Z" stroke="black" stroke-width="2" stroke-linecap="round" stroke-linejoin="round"/>
  <path d="M12 6.6001C12.5523 6.6001 13 6.15238 13 5.6001C13 5.04781 12.5523 4.6001 12 4.6001C11.4477 4.6001 11 5.04781 11 5.6001C11 6.15238 11.4477 6.6001 12 6.6001Z" stroke="black" stroke-width="2" stroke-linecap="round" stroke-linejoin="round"/>
  <path d="M12 20.6001C12.5523 20.6001 13 20.1524 13 19.6001C13 19.0478 12.5523 18.6001 12 18.6001C11.4477 18.6001 11 19.0478 11 19.6001C11 20.1524 11.4477 20.6001 12 20.6001Z" stroke="black" stroke-width="2" stroke-linecap="round" stroke-linejoin="round"/>
</svg>