<svg xmlns="http://www.w3.org/2000/svg" width="25" height="24" viewBox="0 0 25 24" fill="none">
  <path d="M12.1953 13C12.7476 13 13.1953 12.5523 13.1953 12C13.1953 11.4477 12.7476 11 12.1953 11C11.643 11 11.1953 11.4477 11.1953 12C11.1953 12.5523 11.643 13 12.1953 13Z" stroke="#48BF84" stroke-width="2" stroke-linecap="round" stroke-linejoin="round"/>
  <path d="M12.1953 6C12.7476 6 13.1953 5.55228 13.1953 5C13.1953 4.44772 12.7476 4 12.1953 4C11.643 4 11.1953 4.44772 11.1953 5C11.1953 5.55228 11.643 6 12.1953 6Z" stroke="#48BF84" stroke-width="2" stroke-linecap="round" stroke-linejoin="round"/>
  <path d="M12.1953 20C12.7476 20 13.1953 19.5523 13.1953 19C13.1953 18.4477 12.7476 18 12.1953 18C11.643 18 11.1953 18.4477 11.1953 19C11.1953 19.5523 11.643 20 12.1953 20Z" stroke="#48BF84" stroke-width="2" stroke-linecap="round" stroke-linejoin="round"/>
</svg>