<svg xmlns="http://www.w3.org/2000/svg" width="57" height="56" viewBox="0 0 57 56" fill="none">
<g clip-path="url(#clip0_1353_115187)">
<path d="M37.832 37.3229V39.6563C37.832 40.8939 37.3404 42.0809 36.4652 42.9561C35.59 43.8313 34.4031 44.3229 33.1654 44.3229H7.4987C6.26102 44.3229 5.07404 43.8313 4.19887 42.9561C3.3237 42.0809 2.83203 40.8939 2.83203 39.6563V16.3229C2.83203 15.0852 3.3237 13.8983 4.19887 13.0231C5.07404 12.1479 6.26102 11.6563 7.4987 11.6562H12.1654M25.372 11.6562H33.1654C34.4031 11.6563 35.59 12.1479 36.4652 13.0231C37.3404 13.8983 37.832 15.0852 37.832 16.3229V24.1163L40.1654 26.4496L54.1654 16.3229V39.6563" stroke="#475467" stroke-width="4.66667" stroke-linecap="round" stroke-linejoin="round"/>
<path d="M2.83203 2.33984L54.1654 53.6732" stroke="#475467" stroke-width="4.66667" stroke-linecap="round" stroke-linejoin="round"/>
</g>
<defs>
<clipPath id="clip0_1353_115187">
<rect width="56" height="56" fill="white" transform="translate(0.5)"/>
</clipPath>
</defs>
</svg>