<svg width="32" height="32" viewBox="0 0 32 32" fill="none" xmlns="http://www.w3.org/2000/svg">
<path d="M20.1531 15.4331L20.1438 15.429L20.1343 15.4252C19.7443 15.2705 19.5 14.9143 19.5 14.49V13.0523V12.6294L19.0829 12.5593C18.9392 12.5351 18.8018 12.5057 18.6706 12.4714L18.6457 12.4649L18.6203 12.461C17.4239 12.2766 16.5 11.2338 16.5 9.99V5C16.5 3.76108 17.4167 2.7215 18.6063 2.53118L18.6312 2.5272L18.6555 2.52076C19.0763 2.40921 19.5613 2.34863 20.1078 2.34863H25.9538C26.5558 2.34863 27.0828 2.42211 27.5314 2.55607L27.5463 2.56051L27.5615 2.56403C28.043 2.67574 28.4739 2.92848 28.807 3.2776L28.8069 3.27765L28.8133 3.28408C29.0387 3.512 29.211 3.78009 29.3267 4.08817L29.3267 4.08819L29.3293 4.09492C29.4394 4.3756 29.5 4.68068 29.5 5V10C29.5 11.2311 28.5948 12.2655 27.4159 12.4652L27.3948 12.4687L27.3741 12.4741C26.9591 12.5814 26.4825 12.6396 25.9468 12.6396H23.8103H23.5923L23.4439 12.7994L21.2349 15.1784C21.2347 15.1786 21.2345 15.1788 21.2344 15.179C21.0392 15.3873 20.7717 15.5 20.5 15.5C20.3741 15.5 20.2561 15.4789 20.1531 15.4331ZM4.2413 27.2764L4.241 27.2761C2.45582 25.4132 2.49439 23.0221 2.4989 22.7939L2.499 22.7939V22.784V22.7672C2.49991 21.5422 3.53009 20.5 4.82 20.5H16.18C17.4555 20.5 18.5 21.5368 18.5 22.817V22.827H18.4999L18.5001 22.838C18.5035 22.994 18.5532 25.4039 16.7583 27.2868C15.4635 28.6409 13.5568 29.4045 11 29.4916V29.49H10.5C7.6902 29.49 5.61918 28.7167 4.2413 27.2764ZM10.5 17.5C8.01614 17.5 6 15.4839 6 13C6 10.5161 8.01614 8.5 10.5 8.5C12.9839 8.5 15 10.5161 15 13C15 15.4839 12.9839 17.5 10.5 17.5Z" stroke="black"/>
<path d="M22.6245 4.85156C22.6245 4.57542 22.8484 4.35156 23.1245 4.35156C23.4007 4.35156 23.6245 4.57542 23.6245 4.85156V10.2695C23.6245 10.5457 23.4007 10.7695 23.1245 10.7695C22.8484 10.7695 22.6245 10.5457 22.6245 10.2695V4.85156Z" fill="#181818"/>
<path d="M25.8335 7.06055C26.1096 7.06055 26.3335 7.2844 26.3335 7.56055C26.3335 7.83669 26.1096 8.06055 25.8335 8.06055L20.4155 8.06055C20.1394 8.06055 19.9155 7.83669 19.9155 7.56055C19.9155 7.2844 20.1394 7.06055 20.4155 7.06055L25.8335 7.06055Z" fill="#181818"/>
</svg>
