<svg width="24" height="24" viewBox="0 0 24 24" fill="none" xmlns="http://www.w3.org/2000/svg">
<path d="M8 11.35C7.64102 11.35 7.35 11.641 7.35 12C7.35 12.359 7.64102 12.65 8 12.65V11.35ZM16 12L16.4596 12.4596C16.7135 12.2058 16.7135 11.7942 16.4596 11.5404L16 12ZM13.4596 8.54038C13.2058 8.28654 12.7942 8.28654 12.5404 8.54038C12.2865 8.79422 12.2865 9.20578 12.5404 9.45962L13.4596 8.54038ZM12.5404 14.5404C12.2865 14.7942 12.2865 15.2058 12.5404 15.4596C12.7942 15.7135 13.2058 15.7135 13.4596 15.4596L12.5404 14.5404ZM21.35 12C21.35 17.1639 17.1639 21.35 12 21.35V22.65C17.8818 22.65 22.65 17.8818 22.65 12H21.35ZM12 21.35C6.83614 21.35 2.65 17.1639 2.65 12H1.35C1.35 17.8818 6.11817 22.65 12 22.65V21.35ZM2.65 12C2.65 6.83614 6.83614 2.65 12 2.65V1.35C6.11817 1.35 1.35 6.11817 1.35 12H2.65ZM12 2.65C17.1639 2.65 21.35 6.83614 21.35 12H22.65C22.65 6.11817 17.8818 1.35 12 1.35V2.65ZM8 12.65H16V11.35H8V12.65ZM16.4596 11.5404L13.4596 8.54038L12.5404 9.45962L15.5404 12.4596L16.4596 11.5404ZM15.5404 11.5404L12.5404 14.5404L13.4596 15.4596L16.4596 12.4596L15.5404 11.5404Z" fill="black"/>
</svg>
