<svg width="24" height="24" viewBox="0 0 24 24" fill="none" xmlns="http://www.w3.org/2000/svg">
<path d="M9.88044 4.25269C10.0357 3.81399 10.3231 3.43421 10.7031 3.1656C11.0832 2.89699 11.5371 2.75276 12.0024 2.75276C12.4678 2.75276 12.9217 2.89699 13.3017 3.1656C13.6817 3.43421 13.9692 3.81399 14.1244 4.25269C14.1573 4.3456 14.2081 4.43113 14.274 4.5044C14.3399 4.57768 14.4195 4.63726 14.5084 4.67974C14.5974 4.72222 14.6938 4.74678 14.7922 4.752C14.8906 4.75723 14.989 4.74302 15.0819 4.71019C15.1749 4.67736 15.2604 4.62655 15.3337 4.56066C15.4069 4.49477 15.4665 4.4151 15.509 4.32619C15.5515 4.23728 15.576 4.14087 15.5813 4.04246C15.5865 3.94406 15.5723 3.8456 15.5394 3.75269C15.2809 3.02135 14.802 2.38815 14.1686 1.94029C13.5353 1.49244 12.7786 1.25195 12.0029 1.25195C11.2272 1.25195 10.4706 1.49244 9.83727 1.94029C9.20392 2.38815 8.72499 3.02135 8.46644 3.75269C8.43173 3.84596 8.41593 3.94521 8.41996 4.04466C8.42399 4.1441 8.44778 4.24175 8.48993 4.33191C8.53208 4.42207 8.59175 4.50293 8.66547 4.5698C8.73919 4.63666 8.82548 4.68819 8.91931 4.72137C9.01314 4.75455 9.11264 4.76872 9.212 4.76306C9.31137 4.7574 9.40861 4.73201 9.49807 4.68839C9.58753 4.64477 9.6674 4.58378 9.73305 4.50898C9.7987 4.43417 9.8488 4.34705 9.88044 4.25269ZM2.75244 6.00269C2.75244 5.80377 2.83146 5.61301 2.97211 5.47236C3.11276 5.3317 3.30353 5.25269 3.50244 5.25269H20.5024C20.7014 5.25269 20.8921 5.3317 21.0328 5.47236C21.1734 5.61301 21.2524 5.80377 21.2524 6.00269C21.2524 6.2016 21.1734 6.39236 21.0328 6.53302C20.8921 6.67367 20.7014 6.75269 20.5024 6.75269H3.50244C3.30353 6.75269 3.11276 6.67367 2.97211 6.53302C2.83146 6.39236 2.75244 6.2016 2.75244 6.00269ZM5.11944 7.75469C5.3178 7.74151 5.51328 7.80764 5.66291 7.93852C5.81255 8.0694 5.90409 8.25434 5.91744 8.45269L6.37744 15.3527C6.46744 16.6997 6.53144 17.6377 6.67144 18.3427C6.80844 19.0277 6.99844 19.3897 7.27144 19.6457C7.54544 19.9017 7.91944 20.0677 8.61144 20.1577C9.32544 20.2507 10.2654 20.2527 11.6154 20.2527H12.3894C13.7394 20.2527 14.6794 20.2507 15.3934 20.1577C16.0854 20.0677 16.4594 19.9017 16.7334 19.6457C17.0064 19.3897 17.1964 19.0277 17.3334 18.3427C17.4734 17.6377 17.5374 16.6997 17.6274 15.3527L18.0874 8.45269C18.094 8.35439 18.1199 8.25835 18.1635 8.17005C18.2072 8.08175 18.2679 8.00292 18.342 7.93806C18.4162 7.8732 18.5024 7.82358 18.5957 7.79203C18.689 7.76048 18.7876 7.74762 18.8859 7.75419C18.9842 7.76075 19.0803 7.78661 19.1686 7.8303C19.2569 7.87398 19.3357 7.93463 19.4006 8.00877C19.4654 8.08292 19.515 8.16912 19.5466 8.26244C19.5781 8.35577 19.591 8.45439 19.5844 8.55269L19.1204 15.5047C19.0354 16.7867 18.9664 17.8227 18.8044 18.6367C18.6354 19.4817 18.3494 20.1877 17.7574 20.7407C17.1664 21.2947 16.4424 21.5337 15.5874 21.6447C14.7654 21.7527 13.7274 21.7527 12.4414 21.7527H11.5634C10.2774 21.7527 9.23944 21.7527 8.41744 21.6447C7.56244 21.5337 6.83844 21.2947 6.24744 20.7407C5.65544 20.1877 5.36944 19.4807 5.20044 18.6367C5.03844 17.8227 4.97044 16.7867 4.88444 15.5047L4.42044 8.55269C4.41392 8.45439 4.42683 8.35577 4.45844 8.26246C4.49004 8.16915 4.53972 8.08299 4.60463 8.00888C4.66954 7.93478 4.74841 7.87419 4.83675 7.83057C4.92508 7.78695 5.02114 7.76117 5.11944 7.75469Z" fill="#181818"/>
</svg>
