<svg xmlns="http://www.w3.org/2000/svg" width="25" height="24" viewBox="0 0 25 24" fill="none">
  <path d="M3.5 6.00781H5.5H21.5" stroke="#D0D5DD" stroke-width="2" stroke-linecap="round" stroke-linejoin="round"/>
  <path d="M19.5 6.00781V20.0078C19.5 20.5382 19.2893 21.047 18.9142 21.422C18.5391 21.7971 18.0304 22.0078 17.5 22.0078H7.5C6.96957 22.0078 6.46086 21.7971 6.08579 21.422C5.71071 21.047 5.5 20.5382 5.5 20.0078V6.00781M8.5 6.00781V4.00781C8.5 3.47738 8.71071 2.96867 9.08579 2.5936C9.46086 2.21853 9.96957 2.00781 10.5 2.00781H14.5C15.0304 2.00781 15.5391 2.21853 15.9142 2.5936C16.2893 2.96867 16.5 3.47738 16.5 4.00781V6.00781" stroke="#D0D5DD" stroke-width="2" stroke-linecap="round" stroke-linejoin="round"/>
</svg>