<svg width="25" height="24" viewBox="0 0 25 24" fill="none" xmlns="http://www.w3.org/2000/svg">
<path fill-rule="evenodd" clip-rule="evenodd" d="M6.82901 9.32974C7.03995 9.11907 7.32588 9.00073 7.62401 9.00073C7.92214 9.00073 8.20807 9.11907 8.41901 9.32974L12.499 13.4097L16.579 9.32974C16.682 9.21921 16.8062 9.13056 16.9442 9.06907C17.0822 9.00758 17.2312 8.97452 17.3822 8.97185C17.5333 8.96919 17.6833 8.99698 17.8234 9.05356C17.9635 9.11014 18.0907 9.19436 18.1976 9.30118C18.3044 9.40801 18.3886 9.53526 18.4452 9.67535C18.5018 9.81543 18.5296 9.96547 18.5269 10.1165C18.5242 10.2676 18.4912 10.4166 18.4297 10.5545C18.3682 10.6925 18.2795 10.8167 18.169 10.9197L13.294 15.7947C13.0831 16.0054 12.7971 16.1238 12.499 16.1238C12.2009 16.1238 11.9149 16.0054 11.704 15.7947L6.82901 10.9197C6.61833 10.7088 6.5 10.4229 6.5 10.1247C6.5 9.82662 6.61833 9.54068 6.82901 9.32974Z" fill="#181818"/>
</svg>
