<svg width="25" height="24" viewBox="0 0 25 24" fill="none" xmlns="http://www.w3.org/2000/svg">
<path d="M16.0908 5.58492C16.2763 5.39947 16.4965 5.25237 16.7387 5.15202C16.981 5.05165 17.2407 5 17.503 5C17.7652 5 18.0249 5.05165 18.2672 5.15202C18.5095 5.25237 18.7296 5.39947 18.9151 5.58492C19.1005 5.77036 19.2476 5.99051 19.348 6.2328C19.4484 6.47509 19.5 6.73478 19.5 6.99703C19.5 7.25928 19.4484 7.51897 19.348 7.76126C19.2476 8.00355 19.1005 8.2237 18.9151 8.40915L9.38331 17.9409L5.5 19L6.55908 15.1167L16.0908 5.58492Z" stroke="#181818" stroke-width="1.2" stroke-linecap="round" stroke-linejoin="round"/>
</svg>
