<svg width="32" height="32" viewBox="0 0 32 32" fill="none" xmlns="http://www.w3.org/2000/svg">
<path d="M19.95 15.89C20.13 15.97 20.32 16 20.5 16C20.91 16 21.31 15.83 21.6 15.52L23.94 13H27C28.65 13 30 11.65 30 10V5C30 3.35 28.65 2 27 2H19C17.35 2 16 3.35 16 5V9.99C16 11.64 17.35 12.99 19 12.99V14.49C19 15.12 19.37 15.66 19.95 15.89ZM10.5 18C7.74 18 5.5 15.76 5.5 13C5.5 10.24 7.74 8 10.5 8C13.26 8 15.5 10.24 15.5 13C15.5 15.76 13.26 18 10.5 18ZM10.5 29.99C7.6 29.99 5.38 29.19 3.88 27.622C1.949 25.607 1.994 23.037 1.999 22.784V22.767C2 21.26 3.26 20 4.82 20H16.18C17.73 20 19 21.259 19 22.817V22.827C19.004 23.009 19.06 25.597 17.12 27.632C15.62 29.201 13.4 30 10.5 30V29.99Z" fill="#3B82F6"/>
<path d="M20.5996 10.4988V9.31879L23.6196 6.63879C23.8463 6.43879 24.0063 6.25046 24.0996 6.07379C24.1929 5.89712 24.2396 5.73212 24.2396 5.57879C24.2396 5.35879 24.1946 5.16379 24.1046 4.99379C24.0146 4.82046 23.8879 4.68546 23.7246 4.58879C23.5613 4.48879 23.3696 4.43879 23.1496 4.43879C22.9196 4.43879 22.7163 4.49212 22.5396 4.59879C22.3663 4.70212 22.2313 4.84046 22.1346 5.01379C22.0379 5.18379 21.9929 5.36879 21.9996 5.56879H20.5996C20.5996 5.07546 20.7079 4.64879 20.9246 4.28879C21.1413 3.92879 21.4429 3.65046 21.8296 3.45379C22.2163 3.25712 22.6663 3.15879 23.1796 3.15879C23.6496 3.15879 24.0696 3.26212 24.4396 3.46879C24.8129 3.67212 25.1063 3.95712 25.3196 4.32379C25.5329 4.69046 25.6396 5.11546 25.6396 5.59879C25.6396 5.95546 25.5896 6.25212 25.4896 6.48879C25.3896 6.72212 25.2413 6.93879 25.0446 7.13879C24.8479 7.33546 24.6063 7.55879 24.3196 7.80879L22.3696 9.51879L22.2596 9.21879H25.6396V10.4988H20.5996Z" fill="white"/>
</svg>
