<svg width="25" height="25" viewBox="0 0 25 25" fill="none" xmlns="http://www.w3.org/2000/svg">
<g id="document" clip-path="url(#clip0_5524_26098)">
<g id="Group">
<path id="Vector" d="M12.3906 2.95312L12.5076 2.96012C12.7308 2.98645 12.9387 3.0872 13.0976 3.24614C13.2565 3.40507 13.3573 3.61291 13.3836 3.83612L13.3906 3.95312V7.95312L13.3956 8.10313C13.4314 8.5793 13.6364 9.02695 13.9735 9.36516C14.3106 9.70336 14.7576 9.90979 15.2336 9.94713L15.3906 9.95312H19.3906L19.5076 9.96012C19.7308 9.98645 19.9387 10.0872 20.0976 10.2461C20.2565 10.4051 20.3573 10.6129 20.3836 10.8361L20.3906 10.9531V19.9531C20.3907 20.7183 20.0983 21.4546 19.5733 22.0114C19.0484 22.5681 18.3305 22.9032 17.5666 22.9481L17.3906 22.9531H7.39062C6.62541 22.9532 5.88911 22.6608 5.33236 22.1358C4.77562 21.6109 4.44052 20.893 4.39563 20.1291L4.39063 19.9531V5.95312C4.39058 5.18791 4.68295 4.45161 5.20791 3.89486C5.73287 3.33812 6.45073 3.00302 7.21462 2.95813L7.39062 2.95312H12.3906Z" fill="#6563FF"/>
<path id="Vector_2" d="M19.3916 7.95412H15.3916L15.3906 3.95312L19.3916 7.95412Z" fill="#6563FF"/>
</g>
</g>
<defs>
<clipPath id="clip0_5524_26098">
<rect width="24" height="24" fill="white" transform="translate(0.390625 0.953125)"/>
</clipPath>
</defs>
</svg>
