<svg width="457" height="713" viewBox="0 0 457 713" fill="none" xmlns="http://www.w3.org/2000/svg">
<rect x="8.32812" y="3.41016" width="448.539" height="709.124" rx="14" fill="white"/>
<path d="M182.171 554.054C182.131 554.315 155.279 554.623 122.082 554.765C88.8848 554.908 61.9687 554.813 61.9642 554.569C61.9596 554.325 88.856 554 122.053 553.858C155.25 553.715 182.167 553.81 182.171 554.054Z" fill="#263238"/>
<path d="M183.335 575.87C183.298 576.113 156.444 576.439 123.246 576.581C90.0492 576.723 63.1329 576.629 63.1311 576.367C63.1292 576.105 90.023 575.798 123.218 575.673C156.412 575.548 183.331 575.625 183.335 575.87Z" fill="#263238"/>
<path d="M381.111 555.612L216.709 556.439C215.236 556.446 213.817 556.167 212.764 555.663C211.711 555.159 211.111 554.472 211.096 553.752C211.081 553.032 211.653 552.339 212.684 551.825C213.716 551.311 215.123 551.018 216.597 551.01L380.998 550.183C381.729 550.178 382.455 550.243 383.135 550.375C383.814 550.507 384.432 550.704 384.954 550.954C385.476 551.204 385.892 551.502 386.176 551.831C386.461 552.16 386.609 552.513 386.612 552.87C386.624 553.227 386.49 553.582 386.22 553.913C385.949 554.245 385.546 554.547 385.034 554.802C384.522 555.057 383.912 555.26 383.239 555.399C382.565 555.538 381.842 555.61 381.111 555.612Z" fill="#E0E0E0"/>
<path d="M357.08 555.736L216.589 556.436C215.115 556.443 213.696 556.164 212.643 555.66C211.591 555.156 210.99 554.469 210.975 553.749C210.961 553.03 211.532 552.337 212.564 551.823C213.595 551.308 215.002 551.015 216.476 551.008L356.967 550.308C358.441 550.301 359.86 550.58 360.912 551.084C361.965 551.588 362.565 552.275 362.581 552.995C362.586 553.713 362.011 554.403 360.982 554.917C359.952 555.43 358.55 555.724 357.08 555.736Z" fill="#3B82F6"/>
<path d="M381.53 576.123L217.131 576.933C215.657 576.94 214.238 576.661 213.186 576.157C212.133 575.653 211.533 574.966 211.517 574.246C211.513 573.528 212.087 572.838 213.117 572.324C214.146 571.811 215.548 571.517 217.019 571.505L381.418 570.695C382.149 570.689 382.875 570.755 383.554 570.887C384.233 571.019 384.852 571.216 385.374 571.466C385.896 571.716 386.311 572.014 386.596 572.343C386.88 572.672 387.029 573.025 387.032 573.382C387.046 574.101 386.474 574.795 385.443 575.309C384.411 575.823 383.004 576.116 381.53 576.123Z" fill="#E0E0E0"/>
<path d="M332.462 576.354L217.025 576.927C215.551 576.934 214.132 576.655 213.079 576.151C212.027 575.647 211.426 574.96 211.411 574.24C211.406 573.522 211.98 572.832 213.01 572.319C214.039 571.806 215.441 571.511 216.912 571.499L332.349 570.926C333.823 570.919 335.242 571.198 336.295 571.702C337.347 572.205 337.947 572.893 337.963 573.612C337.977 574.332 337.406 575.025 336.374 575.539C335.343 576.053 333.936 576.346 332.462 576.354Z" fill="#3B82F6"/>
<path d="M185.639 598.17C185.601 598.414 158.747 598.739 125.553 598.864C92.358 598.989 65.4391 598.912 65.4345 598.668C65.43 598.423 92.3264 598.099 125.524 597.956C158.721 597.814 185.637 597.909 185.639 598.17Z" fill="#263238"/>
<path d="M186.804 619.968C186.764 620.229 159.912 620.537 126.715 620.679C93.5176 620.822 66.6015 620.727 66.597 620.483C66.5924 620.239 93.4888 619.914 126.686 619.772C159.883 619.629 186.8 619.724 186.804 619.968Z" fill="#263238"/>
<path d="M384.033 599.712L219.631 600.539C218.158 600.546 216.739 600.267 215.686 599.763C214.633 599.259 214.033 598.572 214.018 597.852C214.003 597.133 214.575 596.44 215.606 595.925C216.638 595.411 218.045 595.118 219.519 595.111L383.92 594.284C385.394 594.277 386.813 594.556 387.866 595.06C388.918 595.563 389.518 596.251 389.534 596.97C389.546 597.327 389.412 597.682 389.142 598.014C388.871 598.345 388.468 598.647 387.956 598.902C387.444 599.157 386.834 599.36 386.161 599.499C385.487 599.638 384.764 599.71 384.033 599.712Z" fill="#E0E0E0"/>
<path d="M359.966 599.833L219.51 600.534C218.037 600.541 216.618 600.261 215.565 599.758C214.512 599.254 213.912 598.567 213.897 597.847C213.883 597.127 214.454 596.434 215.485 595.92C216.517 595.406 217.924 595.113 219.398 595.105L359.853 594.405C361.327 594.398 362.746 594.677 363.799 595.181C364.851 595.684 365.451 596.372 365.467 597.091C365.479 597.448 365.345 597.803 365.074 598.134C364.803 598.466 364.401 598.768 363.889 599.023C363.377 599.278 362.767 599.481 362.093 599.62C361.42 599.759 360.697 599.831 359.966 599.833Z" fill="#3B82F6"/>
<path d="M384.595 620.224L220.194 621.051C218.72 621.058 217.301 620.779 216.249 620.275C215.196 619.771 214.596 619.084 214.58 618.364C214.566 617.644 215.137 616.951 216.169 616.437C217.201 615.923 218.608 615.63 220.081 615.622L384.483 614.795C385.957 614.789 387.376 615.068 388.428 615.571C389.481 616.075 390.081 616.762 390.097 617.482C390.111 618.202 389.539 618.895 388.508 619.409C387.476 619.923 386.069 620.216 384.595 620.224Z" fill="#E0E0E0"/>
<path d="M335.385 620.47L219.947 621.043C218.474 621.05 217.055 620.771 216.002 620.268C214.949 619.764 214.349 619.077 214.334 618.357C214.32 617.637 214.891 616.944 215.922 616.43C216.954 615.916 218.361 615.623 219.835 615.615L335.281 614.973C336.755 614.966 338.174 615.245 339.227 615.749C340.279 616.252 340.88 616.94 340.895 617.659C340.921 618.022 340.798 618.383 340.534 618.722C340.269 619.061 339.868 619.371 339.355 619.633C338.841 619.895 338.225 620.104 337.543 620.248C336.862 620.392 336.128 620.467 335.385 620.47Z" fill="#3B82F6"/>
<path d="M190.018 643.27C189.978 643.531 163.084 643.838 129.887 643.98C96.6896 644.122 69.7734 644.028 69.7688 643.784C69.7643 643.539 96.6608 643.215 129.858 643.072C163.055 642.93 190.014 643.026 190.018 643.27Z" fill="#263238"/>
<path d="M387.7 644.829L223.301 645.639C221.827 645.646 220.408 645.366 219.356 644.863C218.303 644.359 217.703 643.672 217.687 642.952C217.692 642.235 218.269 641.547 219.297 641.035C220.324 640.523 221.721 640.227 223.188 640.21L387.588 639.401C389.065 639.394 390.488 639.673 391.547 640.176C392.605 640.68 393.213 641.367 393.237 642.089C393.241 642.81 392.661 643.502 391.624 644.016C390.587 644.529 389.177 644.821 387.7 644.829Z" fill="#E0E0E0"/>
<path d="M314.445 645.182L223.167 645.635C221.693 645.642 220.274 645.363 219.222 644.859C218.169 644.356 217.569 643.668 217.553 642.949C217.558 642.232 218.135 641.544 219.163 641.032C220.19 640.52 221.587 640.224 223.055 640.207L314.19 639.749C315.661 639.747 317.075 640.027 318.125 640.53C319.176 641.033 319.779 641.718 319.804 642.436C319.821 643.145 319.27 643.829 318.269 644.342C317.268 644.855 315.895 645.156 314.445 645.182Z" fill="#3B82F6"/>
<path d="M82.9751 533.756L80.1551 528.794C81.9367 525.974 82.5979 522.589 82.0086 519.305C81.4192 516.022 79.622 513.078 76.9707 511.053C74.3195 509.028 71.0063 508.069 67.6834 508.365C64.3606 508.661 61.2688 510.19 59.0169 512.651C56.7649 515.112 55.5158 518.327 55.5156 521.663C55.5154 524.999 56.7641 528.214 59.0159 530.676C61.2676 533.137 64.3591 534.667 67.6819 534.963C71.0048 535.259 74.3181 534.3 76.9696 532.276L82.9751 533.756Z" fill="#3B82F6"/>
<path d="M190.023 517.963C190.007 518.223 171.405 518.624 148.422 518.798C125.438 518.971 106.806 519.021 106.804 518.777C106.803 518.533 125.422 518.133 148.406 517.942C171.391 517.751 190.022 517.718 190.023 517.963Z" fill="#3B82F6"/>
<path d="M158.701 9.48156L7.32031 4.70703L0.833839 210.366L152.214 215.141L158.701 9.48156Z" fill="#FAFAFA"/>
<path d="M1.17164 209.778L1.21742 209.328L6.88696 3.69507L7.32791 3.73995L158.81 7.8721L158.764 8.32205L153.104 213.956L152.654 213.911L1.17164 209.778ZM7.7656 4.62097L2.16952 208.907L152.288 213.037L157.883 8.75974L7.7656 4.62097Z" fill="#263238"/>
<path d="M125.059 36.0753C125.041 35.9602 125.031 35.8437 125.031 35.727C125.057 35.475 125.01 35.1338 124.99 34.7044C124.964 33.7926 124.928 32.4524 124.89 30.7665C124.853 29.0806 124.806 26.9483 124.753 24.5244C124.763 23.2359 124.697 21.9479 124.554 20.6673C124.467 19.9798 124.254 19.3141 123.927 18.7032C123.59 18.0692 123.053 17.5641 122.4 17.2658C121.68 16.9854 120.9 16.8977 120.136 17.0113C119.371 17.1249 118.65 17.4358 118.043 17.9134C116.731 19.0225 115.808 20.5212 115.407 22.1913C114.469 25.8768 114.19 29.6994 114.585 33.482C114.736 35.4885 114.907 37.5607 115.148 39.6583C115.342 41.7891 115.882 43.8741 116.747 45.8309C117.66 47.8361 119.25 49.4559 121.237 50.4066C122.242 50.8813 123.356 51.0764 124.462 50.9712C125.581 50.8554 126.645 50.4282 127.533 49.738C129.31 48.3207 130.533 46.3247 130.989 44.098C131.418 41.9181 131.586 39.695 131.491 37.4754C131.448 33.0704 131.407 28.8293 131.369 24.7339C131.347 22.7133 131.33 20.7385 131.315 18.8277C131.301 16.9168 131.299 15.0528 131.135 13.2722C131.021 11.5542 130.67 9.86027 130.093 8.23816C129.559 6.75093 128.699 5.40208 127.576 4.29062C125.57 2.41764 122.957 1.3288 120.214 1.22296C118.147 1.07901 116.089 1.61703 114.357 2.75453C113.289 3.50569 112.434 4.52145 111.875 5.70238C111.501 6.51898 111.391 6.98052 111.355 6.97685C111.45 6.52533 111.596 6.08579 111.788 5.66623C112.32 4.44569 113.168 3.38943 114.245 2.60672C116.001 1.41354 118.103 0.83463 120.223 0.96016C123.039 1.0399 125.731 2.13754 127.8 4.04979C128.974 5.18619 129.874 6.5742 130.433 8.10915C131.031 9.76116 131.4 11.4874 131.529 13.2396C131.688 15.0742 131.703 16.8941 131.734 18.8248C131.765 20.7555 131.775 22.7113 131.805 24.7329C131.849 28.7742 131.871 33.0225 131.951 37.4222C132.055 39.6811 131.886 41.9444 131.446 44.1627C130.967 46.4984 129.683 48.5915 127.817 50.0761C126.858 50.8133 125.713 51.2696 124.51 51.3943C123.325 51.5031 122.132 51.2971 121.052 50.7969C118.967 49.7919 117.298 48.0916 116.331 45.9886C115.455 43.9825 114.908 41.8484 114.711 39.6683C114.471 37.5527 114.308 35.4904 114.16 33.4659C113.76 29.6226 114.047 25.7388 115.009 21.9962C115.452 20.2638 116.431 18.7153 117.805 17.571C118.464 17.0583 119.246 16.7277 120.073 16.6124C120.901 16.4971 121.744 16.6012 122.518 16.9141C123.228 17.2493 123.809 17.8063 124.175 18.5011C124.513 19.1449 124.731 19.8449 124.819 20.5669C124.952 21.8652 125.008 23.1704 124.985 24.4753C125.003 26.8956 125.022 29.0251 125.042 30.7092C125.061 32.3932 125.054 33.7199 125.059 34.6479C125.015 35.0798 125.053 35.4201 125.046 35.6739C125.063 35.807 125.068 35.9414 125.059 36.0753Z" fill="#263238"/>
<path d="M35.9498 144.949L40.2031 151.983C40.2031 151.983 44.218 151.537 45.5044 151.983C46.7907 152.429 46.3965 168.457 45.2969 169.463C44.1972 170.47 40.8463 167.99 39.1761 166.787C37.5059 165.583 37.371 159.266 37.371 159.266L31.3125 149.597L35.9498 144.949Z" fill="#EBB376"/>
<path d="M24.5261 120.081C24.5261 122.571 39.7139 149.523 39.7139 149.523L32.0577 154.71C32.0577 154.71 11.8281 125.766 11.8281 119.376C11.8281 112.986 43.822 80.6907 51.8101 81.0538L54.0302 97.362C54.0302 97.362 53.4596 97.7459 52.4844 98.3994C49.839 100.225 44.1851 104.157 38.6764 108.193C31.5079 113.463 24.5261 118.878 24.5261 120.081Z" fill="#EBEBEB"/>
<path opacity="0.1" d="M52.4894 98.4407C49.844 100.267 44.1901 104.198 38.6814 108.234C38.5258 99.6026 48.8585 92.8594 48.8585 92.8594C49.8019 93.5042 50.6085 94.3293 51.2316 95.2872C51.8548 96.2451 52.2823 97.3169 52.4894 98.4407Z" fill="black"/>
<path d="M104.853 177.367L101.741 177.367C101.272 177.679 100.776 177.946 100.257 178.166C100.102 178.239 99.7802 177.927 99.3652 177.367L44.2266 177.367C44.6 174.784 44.9631 172.398 45.3159 170.251C45.3885 169.856 45.4507 169.452 45.5129 169.057C45.6789 168.082 45.8346 167.149 45.9798 166.277C45.9849 166.232 45.9849 166.187 45.9798 166.142C46.1147 165.395 46.2495 164.7 46.374 164.068C46.374 163.839 46.457 163.611 46.4881 163.383L104.687 163.383C104.687 163.621 104.687 163.85 104.687 164.078C104.687 165.935 104.76 169.773 104.822 175.002C104.791 175.728 104.843 176.537 104.853 177.367Z" fill="#263238"/>
<path opacity="0.2" d="M104.853 177.367L101.741 177.367C101.272 177.679 100.776 177.946 100.257 178.166C100.102 178.239 99.7802 177.927 99.3652 177.367L44.2266 177.367C44.6 174.784 44.9631 172.398 45.3159 170.251C45.3885 169.856 45.4507 169.452 45.5129 169.057C45.6789 168.082 45.8346 167.149 45.9798 166.277C45.9849 166.232 45.9849 166.187 45.9798 166.142C46.1147 165.395 46.2495 164.7 46.374 164.068C46.374 163.839 46.457 163.611 46.4881 163.383L104.687 163.383C104.687 163.621 104.687 163.85 104.687 164.078C104.687 165.935 104.76 169.773 104.822 175.002C104.791 175.728 104.843 176.537 104.853 177.367Z" fill="#EBEBEB"/>
<path d="M46.0126 164.004L104.585 164.004L104.585 170.975L45.2656 170.249L46.0126 164.004Z" fill="#263238"/>
<path d="M85.7674 160.863L83.6719 160.863L83.6719 173.24L85.7674 173.24L85.7674 160.863Z" fill="#263238"/>
<path d="M56.1268 160.863L54.0312 160.863L54.0313 173.24L56.1268 173.24L56.1268 160.863Z" fill="#263238"/>
<path d="M72.7056 162.781L61.875 162.781L61.875 170.583L72.7056 170.583L72.7056 162.781Z" fill="#407BFF"/>
<path opacity="0.2" d="M85.7674 160.863L83.6719 160.863L83.6719 173.24L85.7674 173.24L85.7674 160.863Z" fill="#EBEBEB"/>
<path opacity="0.2" d="M56.1268 160.863L54.0312 160.863L54.0313 173.24L56.1268 173.24L56.1268 160.863Z" fill="#EBEBEB"/>
<path opacity="0.4" d="M72.7056 162.781L61.875 162.781L61.875 170.583L72.7056 170.583L72.7056 162.781Z" fill="#EBEBEB"/>
<path d="M116.399 85.3284C116.399 85.3284 114.531 93.0364 112.249 104.137C111.585 107.415 110.89 110.984 110.174 114.729C107.228 130.684 104.396 150.001 104.624 164.006L46.01 164.006C46.01 164.006 42.2027 110.507 51.8092 81.0128C51.8092 81.0335 88.8242 79.633 116.399 85.3284Z" fill="#EBEBEB"/>
<path d="M94.7944 82.557C89.4725 87.3913 76.4529 85.607 76.4529 85.607C76.4529 85.607 68.3299 83.3766 70.0417 80.8453C74.8241 80.0464 77.1376 77.816 78.1024 74.9527C78.6218 73.1799 78.784 71.3216 78.5796 69.4855C78.5038 68.4625 78.3722 67.4443 78.1854 66.4355L94.2757 54.5156C92.1697 62.3585 89.5866 76.8823 94.7944 82.557Z" fill="#EBB376"/>
<path opacity="0.2" d="M90.5584 62.0898C89.9152 71.7482 81.9789 74.4144 78.1094 74.9538C78.6288 73.181 78.791 71.3226 78.5866 69.4866L90.5584 62.0898Z" fill="black"/>
<path d="M67.0303 29.4922C67.0303 29.4922 62.5383 44.016 69.572 50.9148C76.6057 57.8137 80.7553 30.1665 80.7553 30.1665L67.0303 29.4922Z" fill="#263238"/>
<path d="M90.7069 66.1651C88.6859 68.3644 85.9989 69.8396 83.0585 70.3644C80.1181 70.8891 77.0868 70.4343 74.4298 69.0699C70.9544 67.3661 68.2631 64.3964 66.9085 60.7705C66.7151 60.2716 66.5488 59.7625 66.4105 59.2455C63.8896 49.5768 65.0411 33.5072 75.5398 28.9841C77.8547 27.9742 80.3895 27.5738 82.903 27.821C85.4164 28.0682 87.8247 28.9548 89.8985 30.3962C91.9723 31.8377 93.6425 33.7861 94.7501 36.0558C95.8577 38.3255 96.3657 40.841 96.2259 43.3627C95.8109 54.1829 96.0703 60.5423 90.7069 66.1651Z" fill="#EBB376"/>
<path d="M82.278 46.6317C82.3506 47.5031 81.8422 48.2293 81.2405 48.2397C80.6388 48.25 80.2031 47.5446 80.2031 46.6732C80.2031 45.8017 80.6492 45.0652 81.2405 45.0548C81.8319 45.0444 82.2468 45.7602 82.278 46.6317Z" fill="#263238"/>
<path d="M70.9811 46.7971C71.0641 47.6685 70.5454 48.4051 69.9437 48.4154C69.342 48.4258 68.9063 47.71 68.9063 46.8386C68.9063 45.9671 69.3523 45.2409 69.9437 45.2306C70.535 45.2202 70.9603 45.9983 70.9811 46.7971Z" fill="#263238"/>
<path d="M73.111 47.3047C72.1181 50.0153 70.7529 52.5746 69.0547 54.909C69.6677 55.3289 70.3651 55.6096 71.0981 55.7315C71.8311 55.8534 72.5819 55.8134 73.2977 55.6144L73.111 47.3047Z" fill="#D58745"/>
<path d="M82.9007 43.4473C82.8071 43.4617 82.7114 43.4521 82.6225 43.4195C82.5336 43.3868 82.4544 43.3322 82.3924 43.2606C82.0037 42.7424 81.4992 42.3224 80.9191 42.0342C80.3391 41.7459 79.6996 41.5975 79.0519 41.6007C78.9838 41.6069 78.9151 41.5995 78.8498 41.5791C78.7845 41.5587 78.7239 41.5256 78.6714 41.4818C78.6189 41.438 78.5756 41.3842 78.5438 41.3237C78.5121 41.2631 78.4926 41.1968 78.4865 41.1287C78.4803 41.0606 78.4877 40.9919 78.5081 40.9267C78.5285 40.8614 78.5616 40.8008 78.6054 40.7483C78.6492 40.6958 78.703 40.6524 78.7636 40.6207C78.8241 40.5889 78.8904 40.5695 78.9585 40.5633C79.7795 40.5486 80.5922 40.7291 81.3299 41.0898C82.0675 41.4505 82.709 41.9812 83.2015 42.6382C83.2887 42.7431 83.3311 42.8781 83.3194 43.014C83.3078 43.1499 83.2431 43.2758 83.1393 43.3644C83.066 43.4075 82.9849 43.4357 82.9007 43.4473Z" fill="#263238"/>
<path d="M65.5954 43.5924C65.4974 43.6227 65.3926 43.6227 65.2946 43.5924C65.1695 43.5356 65.0715 43.4324 65.0212 43.3046C64.9709 43.1768 64.9722 43.0345 65.0249 42.9077C65.3563 42.1571 65.861 41.4959 66.4976 40.9783C67.1342 40.4608 67.8846 40.1016 68.6869 39.9303C68.8215 39.9124 68.9578 39.9481 69.0664 40.0295C69.175 40.111 69.2474 40.2318 69.2679 40.366C69.2831 40.5001 69.2464 40.635 69.1654 40.743C69.0844 40.851 68.9652 40.924 68.8322 40.947C68.1998 41.096 67.6113 41.3914 67.114 41.8095C66.6167 42.2275 66.2244 42.7564 65.9689 43.3538C65.9276 43.4182 65.8728 43.4728 65.8083 43.514C65.7439 43.5552 65.6712 43.582 65.5954 43.5924Z" fill="#263238"/>
<path d="M88.0179 30.0664L87.3125 34.8178C88.1052 35.2242 88.716 35.914 89.0235 36.7501C89.331 37.5862 89.3128 38.5073 88.9724 39.3305C87.3229 43.2935 89.4184 49.5699 92.427 52.1323C92.427 52.1323 92.5722 50.3998 94.0246 50.8459C95.477 51.2919 94.8234 60.3175 91.846 64.5501C91.846 64.5501 97.0331 59.9233 99.7096 50.5035C102.21 41.7996 101.95 35.3469 100.239 31.9026L88.0179 30.0664Z" fill="#263238"/>
<path d="M101.121 52.1397C99.9699 54.6086 97.8888 56.5219 95.332 57.4616C91.9397 58.6754 89.979 55.698 90.7051 52.3575C91.3691 49.3905 93.9211 45.0956 97.438 45.355C100.955 45.6143 102.49 49.1 101.121 52.1397Z" fill="#EBB376"/>
<path d="M72.4922 58.2615C72.9328 59.5099 73.2796 60.7895 73.5296 62.0896C73.7682 62.0896 73.9964 62.0896 74.235 62.0896C77.4095 61.9444 78.8308 60.824 79.4221 59.6309C79.7142 59.0451 79.8601 58.3973 79.8475 57.7428C79.8494 57.368 79.8006 56.9946 79.7022 56.6328C78.0631 57.7221 75.1169 58.0852 73.5296 58.2097C72.9175 58.2097 72.4922 58.2615 72.4922 58.2615Z" fill="#263238"/>
<path d="M73.5781 58.2097L73.9205 59.3405C76.9082 59.1952 78.9934 58.6869 79.896 57.7428C79.8979 57.368 79.8491 56.9946 79.7507 56.6328C78.1116 57.7014 75.1654 58.0644 73.5781 58.2097Z" fill="#EBEBEB"/>
<path d="M74.2578 62.068C77.4323 61.9228 78.8536 60.8024 79.4449 59.6094C78.2413 59.6886 77.0612 59.9801 75.9592 60.4704C75.2415 60.8157 74.6475 61.3735 74.2578 62.068Z" fill="#DE5753"/>
<path d="M84.7148 31.7047C84.7148 31.7047 84.0093 37.3794 91.1053 40.3049C98.2012 43.2304 100.774 45.7202 100.774 45.7202C100.774 45.7202 105.556 31.7877 96.8733 26.6421C96.8733 26.6421 96.6866 23.9863 89.2379 21.455C81.7893 18.9237 71.1039 20.1064 66.2695 29.08C62.6282 35.8232 65.9998 40.6161 65.9998 40.6161C65.9998 40.6161 66.7052 36.705 73.6248 35.8232C77.5786 35.2796 81.3646 33.8736 84.7148 31.7047Z" fill="#263238"/>
<path d="M71.1495 84.8189L72.716 92.475C72.716 92.475 63.7942 129.666 61.875 148.952L65.1221 152.209L70.2366 148.952C70.2366 148.952 70.693 109.675 75.2058 93.1701L83.2873 86.5514L76.9279 84.4766L71.1495 84.8189Z" fill="#407BFF"/>
<path d="M92.964 75.2734L77.5065 82.2449L76.5936 76.6532L70.9189 78.6554C69.9238 79.0008 69.0747 79.6725 68.5097 80.5615C67.9447 81.4505 67.6969 82.5044 67.8067 83.552L68.4499 89.6831L76.2927 85.3882L80.2038 90.9177L98.7735 81.9751L92.964 75.2734Z" fill="#407BFF"/>
<path opacity="0.9" d="M92.964 75.2734L77.5065 82.2449L76.5936 76.6532L70.9189 78.6554C69.9238 79.0008 69.0747 79.6725 68.5097 80.5615C67.9447 81.4505 67.6969 82.5044 67.8067 83.552L68.4499 89.6831L76.2927 85.3882L80.2038 90.9177L98.7735 81.9751L92.964 75.2734Z" fill="#EBEBEB"/>
<path d="M93.3579 122.664L88.0256 120.184L82.1953 121.844L83.1601 108.887L94.3123 109.717L93.3579 122.664Z" fill="#407BFF"/>
<path opacity="0.2" d="M93.3579 122.664L88.0256 120.184L82.1953 121.844L83.1601 108.887L94.3123 109.717L93.3579 122.664Z" fill="#EBEBEB"/>
<path d="M89.557 98.5625L90.6256 99.3821L91.912 99.0397L92.7419 100.098L94.0802 100.088L94.6196 101.322L95.9164 101.644L96.1239 102.961L97.3065 103.604L97.1821 104.932L98.1676 105.845L97.7111 107.111L98.4477 108.231L97.6904 109.341L98.1157 110.617L97.1094 111.499L97.2028 112.837L96.0098 113.449L95.7712 114.767L94.464 115.068L93.9038 116.282L92.5655 116.24L91.7149 117.278L90.4285 116.904L89.3495 117.703L88.198 117.029L86.9531 117.526L86.0091 116.582L84.6812 116.759L83.9965 115.607L82.6582 115.452L82.2847 114.165L81.0399 113.678L80.988 112.339L79.8987 111.561L80.1892 110.254L79.3281 109.227L79.9402 108.034L79.3592 106.82L80.241 105.814L79.9817 104.507L81.0814 103.75L81.154 102.411L82.4196 101.955L82.8242 100.679L84.1625 100.544L84.8679 99.4132L86.1958 99.6207L87.1606 98.687L88.3951 99.2265L89.557 98.5625Z" fill="#407BFF"/>
<path opacity="0.4" d="M89.1901 116.198C93.6609 116.012 97.1347 112.237 96.9488 107.766C96.763 103.295 92.988 99.8215 88.5171 100.007C84.0463 100.193 80.5725 103.968 80.7583 108.439C80.9442 112.91 84.7192 116.384 89.1901 116.198Z" fill="#EBEBEB"/>
<path d="M85.3027 109.83L84.8773 111.593L86.0081 111.676L86.4438 109.913L87.4294 109.985L86.9936 111.749L88.1452 111.832L88.5602 110.068L89.7428 110.151L89.9088 109.394L90.0022 109.031L88.8299 108.948L89.1826 107.527L90.3653 107.62L90.6246 106.489L89.4523 106.406L89.9296 104.383L88.7987 104.3L88.3008 106.323L87.3256 106.25L87.8132 104.228L86.6824 104.145L86.1948 106.219L85.0641 106.136L84.7943 107.267L85.9251 107.34L85.5724 108.761L84.4416 108.678L84.3482 109.041L84.1719 109.798L85.3027 109.83ZM88.0311 107.433L87.6991 108.854L86.7136 108.782L87.0559 107.361L88.0311 107.433Z" fill="#407BFF"/>
<path d="M91.4816 105.442L91.4297 106.241L92.3945 106.303L92.1559 109.55L91.9588 112.112L93.0896 112.195L93.2867 109.633L93.6601 104.664L92.8613 104.602C92.7235 104.847 92.523 105.051 92.2804 105.193C92.0423 105.348 91.7658 105.434 91.4816 105.442Z" fill="#407BFF"/>
<path d="M120.654 154.979L118.445 157.417L111.909 164.679C111.909 164.679 111.442 167.947 110.104 169.513C108.46 171.448 106.696 173.277 104.823 174.991C103.853 175.88 102.812 176.688 101.711 177.408C101.242 177.72 100.746 177.987 100.228 178.207C100.072 178.28 99.7504 177.968 99.3354 177.408C97.9062 175.318 96.6003 173.146 95.4243 170.904C94.6567 169.503 94.1172 168.455 94.1172 168.455C94.9859 166.936 95.9348 165.464 96.9597 164.046C97.1164 163.805 97.2861 163.573 97.4681 163.351C99.2732 160.924 101.555 158.361 103.765 157.407C104.096 157.277 104.447 157.206 104.803 157.199C106.231 157.15 107.66 157.22 109.077 157.407L113.434 153.008L118.714 147.676L120.654 154.979Z" fill="#EBB376"/>
<path d="M114.756 85.4922C122.733 86.1458 148.99 122.279 148.161 128.618C147.331 134.956 119.538 158.381 119.538 158.381L112.608 152.25C112.608 152.25 135.151 130.153 135.431 127.694C135.712 125.236 110.43 101.375 110.43 101.375L114.756 85.4922Z" fill="#EBEBEB"/>
<path opacity="0.1" d="M112.285 104.136C111.621 107.414 110.926 110.983 110.21 114.728C105.936 106.428 108.757 95.9297 108.757 95.9297C109.141 99.986 112.285 104.136 112.285 104.136Z" fill="black"/>
<path d="M398.297 34.5987L193.68 35.7812L193.79 44.8328L398.408 43.6503L398.297 34.5987Z" fill="#3B82F6"/>
<path d="M389.29 103.633L388.04 103.733L384.411 103.831L371.122 104.068L327.199 104.597C310.042 104.782 294.54 104.867 283.301 104.847L269.991 104.787L266.376 104.729C265.954 104.74 265.532 104.721 265.115 104.672C265.523 104.596 265.944 104.562 266.366 104.571L269.997 104.456L283.284 104.236L327.285 103.694C344.418 103.49 359.918 103.423 371.158 103.424L384.469 103.485L388.084 103.543C388.49 103.528 388.898 103.558 389.29 103.633Z" fill="#3B82F6"/>
<path d="M398.264 138.143C398.239 138.404 353.638 138.867 298.594 139.19C243.551 139.513 198.889 139.555 198.887 139.31C198.885 139.066 243.511 138.604 298.58 138.282C353.648 137.96 398.262 137.899 398.264 138.143Z" fill="#263238"/>
<path d="M397.497 181.599C397.472 181.859 352.871 182.322 297.828 182.645C242.784 182.968 198.221 183.032 198.246 182.771C198.271 182.511 242.87 182.065 297.939 181.743C353.008 181.421 397.495 181.354 397.497 181.599Z" fill="#263238"/>
<path d="M399.56 159.954C399.537 160.197 354.935 160.66 299.892 160.983C244.848 161.306 200.285 161.37 200.308 161.127C200.332 160.884 244.934 160.403 300.003 160.081C355.072 159.76 399.558 159.71 399.56 159.954Z" fill="#263238"/>
<path d="M215.543 94.9088C216.958 94.2678 218.154 93.2268 218.984 91.9142C219.814 90.6015 220.242 89.0746 220.214 87.5218C220.28 86.5006 220.135 85.4769 219.788 84.5142C219.442 83.5514 218.901 82.6701 218.2 81.925C217.499 81.1799 216.652 80.5868 215.712 80.1826C214.772 79.7784 213.759 79.5717 212.735 79.5754C211.712 79.579 210.701 79.7928 209.763 80.2037C208.826 80.6145 207.984 81.2135 207.288 81.9636C206.592 82.7136 206.057 83.5987 205.717 84.5639C205.378 85.5291 205.24 86.5538 205.313 87.5745C205.309 89.1207 205.758 90.6342 206.603 91.9292C207.447 93.2241 208.652 94.2442 210.069 94.864C198.628 96.6786 199.259 109.141 199.259 109.141L226.358 109.033C226.358 109.033 226.897 96.5426 215.543 94.9088Z" fill="#3B82F6"/>
<path d="M236.096 273.661C236.075 273.904 215.666 274.256 190.469 274.414C165.272 274.573 144.83 274.522 144.83 274.26C144.83 273.998 165.258 273.683 190.456 273.507C215.655 273.33 236.094 273.417 236.096 273.661Z" fill="#3B82F6"/>
<path d="M336.952 313.337C336.904 313.598 277.736 313.978 204.667 314.205C131.597 314.432 72.4083 314.393 72.4043 314.149C72.4003 313.904 131.569 313.524 204.686 313.298C277.803 313.073 336.948 313.093 336.952 313.337Z" fill="#3B82F6"/>
<path d="M391.857 328.202C391.838 328.446 320.451 329.155 232.378 329.782C144.306 330.41 72.8669 330.715 72.8652 330.471C72.8635 330.227 144.252 329.5 232.366 328.875C320.48 328.249 391.876 327.959 391.857 328.202Z" fill="#263238"/>
<path d="M125.184 353.919C125.175 354.162 113.44 354.543 98.9568 354.771C84.474 354.998 72.7149 354.975 72.7147 354.713C72.7146 354.452 84.4588 354.089 98.9511 353.863C113.443 353.636 125.183 353.657 125.184 353.919Z" fill="#3B82F6"/>
<path d="M392.232 368.765C392.212 369.025 320.824 369.735 232.752 370.362C144.68 370.99 73.2419 371.278 73.2402 371.033C73.2385 370.789 144.626 370.08 232.74 369.454C320.853 368.829 392.231 368.521 392.232 368.765Z" fill="#263238"/>
<path d="M125.371 394.482C125.362 394.725 113.627 395.105 99.1443 395.333C84.6615 395.561 72.9024 395.538 72.9016 395.293C72.9008 395.049 84.6463 394.652 99.1386 394.425C113.631 394.199 125.371 394.22 125.371 394.482Z" fill="#3B82F6"/>
<path d="M392.639 409.327C392.618 409.588 321.231 410.297 233.158 410.925C145.086 411.552 73.6468 411.857 73.6464 411.596C73.6461 411.334 145.032 410.642 233.146 410.017C321.26 409.392 392.637 409.083 392.639 409.327Z" fill="#263238"/>
<path d="M127.528 435.79C127.519 436.033 115.775 436.412 101.292 436.64C86.8091 436.868 75.0882 436.849 75.0975 436.588C75.1069 436.328 86.8416 435.964 101.334 435.738C115.826 435.511 127.518 435.527 127.528 435.79Z" fill="#3B82F6"/>
<path d="M397.3 450.633C397.279 450.894 325.871 451.602 237.792 452.316C149.713 453.031 78.2807 453.249 78.2803 452.987C78.28 452.725 149.687 452.035 237.78 451.408C325.873 450.782 397.277 450.388 397.3 450.633Z" fill="#263238"/>
<path d="M111.99 259.815L79.2656 260.09L79.4399 280.874L112.165 280.599L111.99 259.815Z" fill="#3B82F6"/>
<path d="M102.361 280.694L89.2188 280.805L89.2733 287.315L102.415 287.205L102.361 280.694Z" fill="#3B82F6"/>
<path d="M107.495 286.914C103.854 287.457 100.174 287.701 96.4924 287.64C92.8169 287.884 89.1273 287.817 85.463 287.441C89.1051 286.908 92.7844 286.671 96.4648 286.732C100.141 286.499 103.829 286.56 107.495 286.914Z" fill="#3B82F6"/>
</svg>
