<svg width="32" height="32" viewBox="0 0 32 32" fill="none" xmlns="http://www.w3.org/2000/svg">
<rect width="32" height="32" rx="8" fill="#FF6565"/>
<path d="M14.762 11.4809C14.8526 11.225 15.0202 11.0035 15.2419 10.8468C15.4636 10.6901 15.7284 10.6059 15.9998 10.6059C16.2713 10.6059 16.5361 10.6901 16.7578 10.8468C16.9794 11.0035 17.1471 11.225 17.2377 11.4809C17.2568 11.5351 17.2865 11.585 17.3249 11.6277C17.3633 11.6705 17.4098 11.7052 17.4617 11.73C17.5135 11.7548 17.5698 11.7691 17.6272 11.7722C17.6846 11.7752 17.742 11.7669 17.7962 11.7478C17.8504 11.7286 17.9003 11.699 17.943 11.6605C17.9858 11.6221 18.0205 11.5756 18.0453 11.5238C18.0701 11.4719 18.0844 11.4157 18.0875 11.3583C18.0905 11.3009 18.0822 11.2434 18.0631 11.1892C17.9123 10.7626 17.6329 10.3933 17.2634 10.132C16.894 9.87075 16.4526 9.73047 16.0001 9.73047C15.5476 9.73047 15.1063 9.87075 14.7368 10.132C14.3674 10.3933 14.088 10.7626 13.9372 11.1892C13.9169 11.2436 13.9077 11.3015 13.9101 11.3595C13.9124 11.4176 13.9263 11.4745 13.9509 11.5271C13.9755 11.5797 14.0103 11.6269 14.0533 11.6659C14.0963 11.7049 14.1466 11.7349 14.2013 11.7543C14.2561 11.7736 14.3141 11.7819 14.3721 11.7786C14.43 11.7753 14.4868 11.7605 14.539 11.7351C14.5911 11.7096 14.6377 11.674 14.676 11.6304C14.7143 11.5868 14.7435 11.5359 14.762 11.4809ZM10.604 12.5017C10.604 12.3857 10.6501 12.2744 10.7321 12.1924C10.8142 12.1103 10.9255 12.0642 11.0415 12.0642H20.9582C21.0742 12.0642 21.1855 12.1103 21.2675 12.1924C21.3496 12.2744 21.3957 12.3857 21.3957 12.5017C21.3957 12.6178 21.3496 12.729 21.2675 12.8111C21.1855 12.8931 21.0742 12.9392 20.9582 12.9392H11.0415C10.9255 12.9392 10.8142 12.8931 10.7321 12.8111C10.6501 12.729 10.604 12.6178 10.604 12.5017ZM11.9848 13.5237C12.1005 13.516 12.2145 13.5546 12.3018 13.631C12.3891 13.7073 12.4425 13.8152 12.4503 13.9309L12.7186 17.9559C12.7711 18.7416 12.8084 19.2888 12.8901 19.7001C12.97 20.0996 13.0808 20.3108 13.2401 20.4601C13.3999 20.6095 13.6181 20.7063 14.0218 20.7588C14.4383 20.8131 14.9866 20.8142 15.7741 20.8142H16.2256C17.0131 20.8142 17.5614 20.8131 17.9779 20.7588C18.3816 20.7063 18.5998 20.6095 18.7596 20.4601C18.9188 20.3108 19.0297 20.0996 19.1096 19.7001C19.1913 19.2888 19.2286 18.7416 19.2811 17.9559L19.5494 13.9309C19.5533 13.8736 19.5683 13.8175 19.5938 13.766C19.6193 13.7145 19.6547 13.6685 19.6979 13.6307C19.7412 13.5929 19.7915 13.5639 19.8459 13.5455C19.9003 13.5271 19.9579 13.5196 20.0152 13.5234C20.0725 13.5273 20.1286 13.5424 20.1801 13.5678C20.2316 13.5933 20.2776 13.6287 20.3154 13.6719C20.3532 13.7152 20.3822 13.7655 20.4006 13.8199C20.419 13.8744 20.4265 13.9319 20.4227 13.9892L20.152 18.0446C20.1024 18.7924 20.0622 19.3967 19.9677 19.8716C19.8691 20.3645 19.7023 20.7763 19.3569 21.0989C19.0122 21.4221 18.5898 21.5615 18.0911 21.6262C17.6116 21.6892 17.0061 21.6892 16.2559 21.6892H15.7438C14.9936 21.6892 14.3881 21.6892 13.9086 21.6262C13.4098 21.5615 12.9875 21.4221 12.6428 21.0989C12.2974 20.7763 12.1306 20.3639 12.032 19.8716C11.9375 19.3967 11.8978 18.7924 11.8477 18.0446L11.577 13.9892C11.5732 13.9319 11.5807 13.8744 11.5992 13.8199C11.6176 13.7655 11.6466 13.7152 11.6844 13.672C11.7223 13.6288 11.7683 13.5934 11.8198 13.568C11.8714 13.5426 11.9274 13.5275 11.9848 13.5237Z" fill="white"/>
</svg>
