<svg width="32" height="32" viewBox="0 0 32 32" fill="none" xmlns="http://www.w3.org/2000/svg">
<rect width="32" height="32" rx="8" fill="#EBEBEB"/>
<path d="M18.6931 11.1887C18.8322 11.0496 18.9973 10.9393 19.179 10.864C19.3608 10.7887 19.5555 10.75 19.7522 10.75C19.9489 10.75 20.1437 10.7887 20.3254 10.864C20.5071 10.9393 20.6722 11.0496 20.8113 11.1887C20.9504 11.3278 21.0607 11.4929 21.136 11.6746C21.2113 11.8563 21.25 12.0511 21.25 12.2478C21.25 12.4445 21.2113 12.6392 21.136 12.8209C21.0607 13.0027 20.9504 13.1678 20.8113 13.3069L13.6625 20.4557L10.75 21.25L11.5443 18.3375L18.6931 11.1887Z" stroke="#131313" stroke-width="0.75" stroke-linecap="round" stroke-linejoin="round"/>
</svg>
