<svg width="24" height="25" viewBox="0 0 24 25" fill="none" xmlns="http://www.w3.org/2000/svg">
<path d="M20.7633 13.1653C21.157 12.6449 21.375 12.0074 21.375 11.3442C21.375 10.2918 20.7867 9.29572 19.8398 8.74025C19.5961 8.59727 19.3185 8.52202 19.0359 8.52228H13.4156L13.5563 5.64181C13.5891 4.94572 13.343 4.28478 12.8648 3.78088C12.6302 3.53251 12.3471 3.33489 12.0331 3.20025C11.7191 3.06561 11.3807 2.99679 11.0391 2.99806C9.82031 2.99806 8.74219 3.81838 8.41875 4.9926L6.40547 12.2817H6.39844V22.3129H17.468C17.6836 22.3129 17.8945 22.2707 18.0891 22.1863C19.2047 21.7106 19.9242 20.6207 19.9242 19.4113C19.9242 19.116 19.882 18.8254 19.7977 18.5442C20.1914 18.0238 20.4094 17.3863 20.4094 16.7231C20.4094 16.4278 20.3672 16.1371 20.2828 15.8559C20.6766 15.3356 20.8945 14.6981 20.8945 14.0348C20.8898 13.7395 20.8477 13.4465 20.7633 13.1653ZM2.625 13.0317V21.5629C2.625 21.9778 2.96016 22.3129 3.375 22.3129H4.89844V12.2817H3.375C2.96016 12.2817 2.625 12.6168 2.625 13.0317Z" fill="#3B82F6"/>
</svg>
