<svg width="41" height="41" viewBox="0 0 41 41" fill="none" xmlns="http://www.w3.org/2000/svg">
<rect x="0.390625" y="0.953125" width="40" height="40" rx="8" fill="#F2F4FF"/>
<path fill-rule="evenodd" clip-rule="evenodd" d="M19.9177 12.8529C22.0997 10.6659 25.6207 10.2709 28.0527 12.1729C30.9657 14.4509 31.1567 18.6959 28.6257 21.2329L27.2027 22.6579C26.8097 23.0519 26.1737 23.0519 25.7807 22.6579C25.3877 22.2649 25.3877 21.6259 25.7807 21.2329L27.2027 19.8069C28.8577 18.1499 28.7677 15.3949 26.9307 13.8569C25.3037 12.4939 22.8617 12.7539 21.3627 14.2559L20.0897 15.5309C19.6977 15.9249 19.0597 15.9249 18.6677 15.5309C18.2747 15.1379 18.2707 14.5029 18.8447 13.9279L19.9177 12.8529ZM21.6839 18.2459L17.6839 22.2459C17.2929 22.6369 17.2929 23.2689 17.6839 23.6599C17.8789 23.8549 18.1349 23.9529 18.3909 23.9529C18.6469 23.9529 18.9029 23.8549 19.0979 23.6599L23.0979 19.6599C23.4889 19.2689 23.4889 18.6369 23.0979 18.2459C22.7069 17.8549 22.0749 17.8549 21.6839 18.2459ZM20.6706 26.3498L19.3966 27.6208C17.8956 29.1178 15.4486 29.3758 13.8206 28.0188C11.9816 26.4868 11.8906 23.7408 13.5476 22.0878L14.9726 20.6678C15.3656 20.2758 15.3656 19.6398 14.9726 19.2468C14.5796 18.8558 13.9416 18.8558 13.5476 19.2468L12.2726 20.5198C10.1006 22.6858 9.71956 26.1698 11.5976 28.5938C13.8686 31.5268 18.1286 31.7248 20.6706 29.1908L22.0956 27.7708C22.4886 27.3778 22.4886 26.7428 22.0956 26.3498C21.7016 25.9568 21.0646 25.9568 20.6706 26.3498Z" fill="#0F0F0F"/>
<mask id="mask0_5524_15711" style="mask-type:luminance" maskUnits="userSpaceOnUse" x="10" y="10" width="21" height="21">
<path fill-rule="evenodd" clip-rule="evenodd" d="M19.9177 12.8529C22.0997 10.6659 25.6207 10.2709 28.0527 12.1729C30.9657 14.4509 31.1567 18.6959 28.6257 21.2329L27.2027 22.6579C26.8097 23.0519 26.1737 23.0519 25.7807 22.6579C25.3877 22.2649 25.3877 21.6259 25.7807 21.2329L27.2027 19.8069C28.8577 18.1499 28.7677 15.3949 26.9307 13.8569C25.3037 12.4939 22.8617 12.7539 21.3627 14.2559L20.0897 15.5309C19.6977 15.9249 19.0597 15.9249 18.6677 15.5309C18.2747 15.1379 18.2707 14.5029 18.8447 13.9279L19.9177 12.8529ZM21.6839 18.2459L17.6839 22.2459C17.2929 22.6369 17.2929 23.2689 17.6839 23.6599C17.8789 23.8549 18.1349 23.9529 18.3909 23.9529C18.6469 23.9529 18.9029 23.8549 19.0979 23.6599L23.0979 19.6599C23.4889 19.2689 23.4889 18.6369 23.0979 18.2459C22.7069 17.8549 22.0749 17.8549 21.6839 18.2459ZM20.6706 26.3498L19.3966 27.6208C17.8956 29.1178 15.4486 29.3758 13.8206 28.0188C11.9816 26.4868 11.8906 23.7408 13.5476 22.0878L14.9726 20.6678C15.3656 20.2758 15.3656 19.6398 14.9726 19.2468C14.5796 18.8558 13.9416 18.8558 13.5476 19.2468L12.2726 20.5198C10.1006 22.6858 9.71956 26.1698 11.5976 28.5938C13.8686 31.5268 18.1286 31.7248 20.6706 29.1908L22.0956 27.7708C22.4886 27.3778 22.4886 26.7428 22.0956 26.3498C21.7016 25.9568 21.0646 25.9568 20.6706 26.3498Z" fill="white"/>
</mask>
<g mask="url(#mask0_5524_15711)">
<rect x="8.39062" y="8.95312" width="24" height="24" fill="#6563FF"/>
</g>
</svg>
