<svg width="24" height="24" viewBox="0 0 24 24" fill="none" xmlns="http://www.w3.org/2000/svg">
<path d="M4.00014 17.9998C3.73492 17.9998 3.48057 17.8944 3.29303 17.7069C3.10549 17.5193 3.00014 17.265 3.00014 16.9998V10.6178L2.44714 10.8938C2.32954 10.9537 2.20125 10.9897 2.06966 10.9998C1.93807 11.0099 1.80578 10.9939 1.68042 10.9526C1.55507 10.9113 1.43912 10.8456 1.33927 10.7593C1.23941 10.673 1.15763 10.5678 1.09864 10.4498C1.03964 10.3317 1.0046 10.2031 0.995528 10.0715C0.986458 9.9398 1.00354 9.80764 1.04579 9.68261C1.08804 9.55758 1.15463 9.44214 1.2417 9.34297C1.32878 9.24379 1.43462 9.16283 1.55314 9.10476L3.55314 8.10476C3.70557 8.02796 3.87515 7.99155 4.04568 7.999C4.2162 8.00644 4.38196 8.0575 4.52712 8.14728C4.67228 8.23707 4.79199 8.36258 4.87481 8.51183C4.95762 8.66108 5.00077 8.82907 5.00014 8.99976V16.9998C5.00014 17.265 4.89478 17.5193 4.70724 17.7069C4.51971 17.8944 4.26535 17.9998 4.00014 17.9998ZM13.0001 17.9998H8.00014C7.80281 17.9988 7.61017 17.9395 7.44637 17.8295C7.28258 17.7195 7.15492 17.5635 7.07941 17.3812C7.0039 17.1989 6.9839 16.9983 7.02192 16.8047C7.05995 16.6111 7.15429 16.433 7.29314 16.2928L11.2931 12.2928C11.5471 12.0388 11.6871 11.7018 11.6871 11.3428C11.6871 10.9848 11.5471 10.6478 11.2931 10.3938C10.7851 9.88576 9.90314 9.88576 9.39314 10.3948C9.26811 10.5189 9.16898 10.6666 9.10152 10.8293C9.03405 10.9921 8.99959 11.1666 9.00014 11.3428C9.00014 11.608 8.89478 11.8623 8.70724 12.0499C8.51971 12.2374 8.26535 12.3428 8.00014 12.3428C7.73492 12.3428 7.48057 12.2374 7.29303 12.0499C7.10549 11.8623 7.00014 11.608 7.00014 11.3428C7.00014 10.4488 7.34814 9.60976 7.98014 8.97876C9.24514 7.71576 11.4441 7.71576 12.7071 8.97976C13.3391 9.61076 13.6861 10.4508 13.6861 11.3428C13.6861 12.2358 13.3381 13.0758 12.7071 13.7068L10.4141 15.9998H13.0001C13.2654 15.9998 13.5197 16.1051 13.7072 16.2927C13.8948 16.4802 14.0001 16.7345 14.0001 16.9998C14.0001 17.265 13.8948 17.5193 13.7072 17.7069C13.5197 17.8944 13.2654 17.9998 13.0001 17.9998ZM20.9551 12.3768C21.3073 11.9073 21.4984 11.3366 21.5001 10.7498C21.4993 10.0207 21.2094 9.32164 20.6938 8.80609C20.1782 8.29054 19.4792 8.00055 18.7501 7.99976C18.2463 7.99876 17.7519 8.13676 17.3214 8.39858C16.8909 8.66041 16.541 9.0359 16.3101 9.48376C16.2497 9.60037 16.2129 9.72774 16.2017 9.8586C16.1905 9.98945 16.2052 10.1212 16.245 10.2464C16.2847 10.3716 16.3487 10.4877 16.4333 10.5881C16.5179 10.6886 16.6215 10.7713 16.7381 10.8318C16.8548 10.8922 16.9821 10.929 17.113 10.9402C17.2438 10.9514 17.3756 10.9367 17.5008 10.8969C17.6259 10.8572 17.7421 10.7932 17.8425 10.7086C17.9429 10.6239 18.0257 10.5204 18.0861 10.4038C18.1475 10.2857 18.2393 10.186 18.3519 10.1151C18.4646 10.0442 18.5941 10.0045 18.7271 10.0002C18.8602 9.99582 18.992 10.027 19.109 10.0904C19.226 10.1538 19.324 10.2473 19.393 10.3611C19.462 10.475 19.4994 10.6051 19.5015 10.7382C19.5035 10.8713 19.4701 11.0026 19.4046 11.1185C19.3392 11.2344 19.2441 11.3308 19.1291 11.3978C19.014 11.4648 18.8832 11.5 18.7501 11.4998C18.4849 11.4998 18.2306 11.6051 18.043 11.7927C17.8555 11.9802 17.7501 12.2345 17.7501 12.4998C17.7501 12.765 17.8555 13.0193 18.043 13.2069C18.2306 13.3944 18.4849 13.4998 18.7501 13.4998C19.4391 13.4998 20.0001 14.0608 20.0001 14.7498C20.0001 15.4388 19.4391 15.9998 18.7501 15.9998C18.0611 15.9998 17.5001 15.4388 17.5001 14.7498C17.5001 14.4845 17.3948 14.2302 17.2072 14.0427C17.0197 13.8551 16.7654 13.7498 16.5001 13.7498C16.2349 13.7498 15.9806 13.8551 15.793 14.0427C15.6055 14.2302 15.5001 14.4845 15.5001 14.7498C15.5001 16.5418 16.9581 17.9998 18.7501 17.9998C20.5421 17.9998 22.0001 16.5418 22.0001 14.7498C21.9993 14.3035 21.9061 13.8622 21.7262 13.4538C21.5463 13.0454 21.2838 12.6786 20.9551 12.3768Z" fill="black"/>
</svg>
