<svg width="24" height="24" viewBox="0 0 24 24" fill="none" xmlns="http://www.w3.org/2000/svg">
<path d="M16.242 2.93088L21.068 7.75688C21.3761 8.06502 21.6065 8.44195 21.7403 8.85661C21.8741 9.27127 21.9075 9.71179 21.8377 10.1419C21.7678 10.572 21.5968 10.9793 21.3387 11.3303C21.0806 11.6814 20.7427 11.966 20.353 12.1609L15.483 14.5959C15.3074 14.6835 15.1731 14.8364 15.109 15.0219L13.669 19.1879C13.5998 19.3881 13.4808 19.5675 13.3233 19.7092C13.1657 19.8508 12.9748 19.9501 12.7683 19.9977C12.5619 20.0453 12.3467 20.0396 12.143 19.9812C11.9394 19.9228 11.7539 19.8136 11.604 19.6639L8.5 16.5599L4.06 20.9989H3V19.9369L7.44 15.4989L4.335 12.3949C4.18501 12.245 4.0756 12.0595 4.01706 11.8557C3.95853 11.6519 3.95279 11.4366 4.0004 11.23C4.048 11.0233 4.14738 10.8322 4.28918 10.6746C4.43098 10.517 4.61055 10.398 4.811 10.3289L8.977 8.88988C9.16246 8.82575 9.3154 8.69148 9.403 8.51588L11.838 3.64588C12.0328 3.25598 12.3175 2.91796 12.6686 2.65971C13.0197 2.40146 13.4272 2.23036 13.8574 2.16053C14.2877 2.09069 14.7283 2.12412 15.1431 2.25806C15.5579 2.392 15.9339 2.62261 16.242 2.93088ZM20.008 8.81688L15.182 3.99188C15.042 3.85178 14.8707 3.74695 14.6823 3.68602C14.4938 3.6251 14.2936 3.60983 14.0981 3.64147C13.9026 3.67312 13.7174 3.75076 13.5577 3.86802C13.3981 3.98527 13.2687 4.13877 13.18 4.31588L10.745 9.18688C10.4818 9.71291 10.023 10.115 9.467 10.3069L5.678 11.6169L12.383 18.3209L13.691 14.5329C13.8829 13.9769 14.285 13.5181 14.811 13.2549L19.683 10.8189C19.8602 10.7303 20.0138 10.6009 20.1311 10.4413C20.2485 10.2818 20.3262 10.0966 20.358 9.90107C20.3897 9.70555 20.3745 9.50529 20.3137 9.31679C20.2528 9.12828 20.1481 8.95694 20.008 8.81688Z" fill="#181818"/>
</svg>
