<svg width="126" height="129" viewBox="0 0 126 129" fill="none" xmlns="http://www.w3.org/2000/svg">
<path d="M62.0007 20.332L20.334 41.1654L62.0007 61.9987L103.667 41.1654L62.0007 20.332Z" stroke="#667085" stroke-width="7" stroke-linecap="round" stroke-linejoin="round"/>
<path d="M20.334 62L62.0007 82.8333L103.667 62" stroke="#667085" stroke-width="7" stroke-linecap="round" stroke-linejoin="round"/>
<path fill-rule="evenodd" clip-rule="evenodd" d="M99.7103 80.8986L99.371 81.0682C99.4457 81.056 99.5206 81.0441 99.5955 81.0325C99.6353 80.9847 99.6734 80.9402 99.7103 80.8986ZM85.3769 88.0653L62.0014 99.753L21.9 79.7023C20.1711 78.8378 18.0687 79.5386 17.2043 81.2676C16.3398 82.9965 17.0406 85.0988 18.7695 85.9633L60.4362 106.797C61.4215 107.289 62.5813 107.289 63.5667 106.797L78.3828 99.3886C79.7235 95.0258 82.1624 91.1439 85.3769 88.0653Z" fill="#667085"/>
<path d="M103.667 125.432C114.031 125.432 122.432 117.031 122.432 106.667C122.432 96.3036 114.031 87.9023 103.667 87.9023C93.3036 87.9023 84.9023 96.3036 84.9023 106.667C84.9023 117.031 93.3036 125.432 103.667 125.432Z" stroke="#667085" stroke-width="5.5" stroke-linecap="round" stroke-linejoin="round"/>
<path d="M103.668 97.0586V106.667L110.074 109.87" stroke="#667085" stroke-width="6" stroke-linecap="round" stroke-linejoin="round"/>
</svg>
