<svg width="126" height="130" viewBox="0 0 126 130" fill="none" xmlns="http://www.w3.org/2000/svg">
<path d="M62.3249 20.7305L20.6582 41.5638L62.3249 62.3971L103.992 41.5638L62.3249 20.7305Z" stroke="#667085" stroke-width="7" stroke-linecap="round" stroke-linejoin="round"/>
<path d="M20.6582 62.3984L62.3249 83.2318L103.992 62.3984" stroke="#667085" stroke-width="7" stroke-linecap="round" stroke-linejoin="round"/>
<path fill-rule="evenodd" clip-rule="evenodd" d="M100.034 81.297L99.6952 81.4667C99.7699 81.4545 99.8448 81.4426 99.9197 81.431C99.9595 81.3831 99.9977 81.3387 100.034 81.297ZM85.7011 88.4637L62.3256 100.151L22.2242 80.1007C20.4953 79.2363 18.3929 79.9371 17.5285 81.666C16.664 83.3949 17.3648 85.4973 19.0937 86.3617L60.7604 107.195C61.7457 107.688 62.9055 107.688 63.8909 107.195L78.707 99.787C80.0477 95.4242 82.4866 91.5423 85.7011 88.4637Z" fill="#667085"/>
<path d="M103.993 126.58C114.495 126.58 123.008 118.067 123.008 107.566C123.008 97.064 114.495 88.5508 103.993 88.5508C93.4917 88.5508 84.9785 97.064 84.9785 107.566C84.9785 118.067 93.4917 126.58 103.993 126.58Z" stroke="#667085" stroke-width="6" stroke-linecap="round" stroke-linejoin="round"/>
<path d="M104.479 100.191L104.479 115.191" stroke="#667085" stroke-width="6" stroke-linecap="round" stroke-linejoin="round"/>
<path d="M96.9785 107.691H111.979" stroke="#667085" stroke-width="6" stroke-linecap="round" stroke-linejoin="round"/>
</svg>
