<svg xmlns="http://www.w3.org/2000/svg" width="23" height="22" viewBox="0 0 23 22" fill="none">
  <path d="M11.8984 21.0078C13.2119 21.0095 14.5128 20.7516 15.7262 20.249C16.9397 19.7463 18.0419 19.0088 18.9694 18.0788C19.8994 17.1513 20.6369 16.0491 21.1396 14.8356C21.6423 13.6221 21.9001 12.3213 21.8984 11.0078C21.9001 9.69436 21.6422 8.39351 21.1396 7.18003C20.6369 5.96656 19.8994 4.86437 18.9694 3.93682C18.0419 3.00683 16.9397 2.26932 15.7262 1.76666C14.5128 1.26401 13.2119 1.00612 11.8984 1.00782C10.585 1.00615 9.28414 1.26405 8.07066 1.7667C6.85718 2.26936 5.755 3.00686 4.82745 3.93682C3.89748 4.86437 3.15998 5.96656 2.65733 7.18003C2.15467 8.39351 1.89677 9.69436 1.89845 11.0078C1.89674 12.3213 2.15463 13.6221 2.65729 14.8356C3.15995 16.0491 3.89746 17.1513 4.82745 18.0788C5.755 19.0088 6.85718 19.7463 8.07066 20.2489C9.28414 20.7516 10.585 21.0095 11.8984 21.0078Z" fill="#48BF84" stroke="#48BF84" stroke-width="2" stroke-linejoin="round"/>
  <path d="M7.89844 11L10.8984 14L16.8984 8" stroke="white" stroke-width="2" stroke-linecap="round" stroke-linejoin="round"/>
</svg>