<svg xmlns="http://www.w3.org/2000/svg" width="25" height="25" viewBox="0 0 25 25" fill="none">
  <path d="M5.25195 4.22607V7.74407C5.25195 8.51561 5.58469 9.25555 6.17697 9.80111C6.76925 10.3467 7.57255 10.6532 8.41016 10.6532H15.4237" stroke="#667085" stroke-width="2" stroke-linecap="round" stroke-linejoin="round"/>
  <path d="M5.25195 8.08008V16.2803C5.25195 17.0518 5.58469 17.7917 6.17697 18.3373C6.76925 18.8829 7.57255 19.1894 8.41016 19.1894H15.4217" stroke="#667085" stroke-width="2" stroke-linecap="round" stroke-linejoin="round"/>
  <path d="M17.7119 12.293C18.6175 12.293 19.3516 11.5589 19.3516 10.6533C19.3516 9.74777 18.6175 9.01367 17.7119 9.01367C16.8064 9.01367 16.0723 9.74777 16.0723 10.6533C16.0723 11.5589 16.8064 12.293 17.7119 12.293Z" stroke="#667085" stroke-width="2" stroke-linecap="round" stroke-linejoin="round"/>
  <path d="M17.7119 20.8291C18.6175 20.8291 19.3516 20.095 19.3516 19.1895C19.3516 18.2839 18.6175 17.5498 17.7119 17.5498C16.8064 17.5498 16.0723 18.2839 16.0723 19.1895C16.0723 20.095 16.8064 20.8291 17.7119 20.8291Z" stroke="#667085" stroke-width="2" stroke-linecap="round" stroke-linejoin="round"/>
</svg>