<svg width="112" height="125" viewBox="0 0 112 125" fill="none" xmlns="http://www.w3.org/2000/svg">
<path d="M59.5189 13.2969H35.943C33.7729 13.2969 32.0137 15.0561 32.0137 17.2262V25.0848C32.0137 27.2549 33.7729 29.0141 35.943 29.0141H59.5189C61.689 29.0141 63.4482 27.2549 63.4482 25.0848V17.2262C63.4482 15.0561 61.689 13.2969 59.5189 13.2969Z" stroke="#667085" stroke-width="6" stroke-linecap="round" stroke-linejoin="round"/>
<path d="M79.1632 110.901C89.6648 110.901 98.178 102.387 98.178 91.8859C98.178 81.3843 89.6648 72.8711 79.1632 72.8711C68.6616 72.8711 60.1484 81.3843 60.1484 91.8859C60.1484 102.387 68.6616 110.901 79.1632 110.901Z" stroke="#667085" stroke-width="6" stroke-linecap="round" stroke-linejoin="round"/>
<path d="M79.6484 84.5117L79.6484 99.5117" stroke="#667085" stroke-width="6" stroke-linecap="round" stroke-linejoin="round"/>
<path d="M72.1484 92.0117H87.1484" stroke="#667085" stroke-width="6" stroke-linecap="round" stroke-linejoin="round"/>
<path fill-rule="evenodd" clip-rule="evenodd" d="M20.718 25.5793C21.6291 24.6681 22.865 24.1562 24.1535 24.1562H32.0122C33.669 24.1562 35.0122 22.8131 35.0122 21.1562C35.0122 19.4994 33.669 18.1562 32.0122 18.1562H24.1535C21.2737 18.1562 18.5117 19.3003 16.4753 21.3367C14.439 23.3731 13.2949 26.135 13.2949 29.0149V84.0252C13.2949 86.9051 14.439 89.6671 16.4753 91.7034C18.5117 93.7398 21.2737 94.8839 24.1535 94.8839H53.7387C53.6236 93.8991 53.5645 92.8972 53.5645 91.8815C53.5645 90.8674 53.6234 89.8671 53.7381 88.8839H24.1535C22.865 88.8839 21.6291 88.372 20.718 87.4608C19.8068 86.5496 19.2949 85.3138 19.2949 84.0252V29.0149C19.2949 27.7263 19.8068 26.4905 20.718 25.5793ZM76.1639 66.4553C77.1482 66.3403 78.1495 66.2812 79.1647 66.2812C80.1793 66.2812 81.1801 66.3403 82.1639 66.4551V29.0149C82.1639 26.135 81.0199 23.3731 78.9835 21.3367C76.9471 19.3003 74.1852 18.1562 71.3053 18.1562H63.4467C61.7898 18.1562 60.4467 19.4994 60.4467 21.1562C60.4467 22.8131 61.7898 24.1562 63.4467 24.1562H71.3053C72.5939 24.1562 73.8297 24.6681 74.7409 25.5793C75.652 26.4905 76.1639 27.7263 76.1639 29.0149V66.4553Z" fill="#667085"/>
</svg>
