<svg width="24" height="24" viewBox="0 0 24 24" fill="none" xmlns="http://www.w3.org/2000/svg">
<path fill-rule="evenodd" clip-rule="evenodd" d="M9.88408 7.55372L5.40744 3.07708C5.12856 2.7982 4.67641 2.7982 4.39753 3.07708C4.11865 3.35596 4.11865 3.80811 4.39753 4.08698L9.12829 8.81775C9.08108 8.84714 9.03039 8.87142 8.977 8.88988L4.811 10.3289C4.61055 10.398 4.43098 10.517 4.28918 10.6746C4.17072 10.8063 4.08187 10.9613 4.02808 11.1292C4.01748 11.1623 4.00823 11.1959 4.0004 11.23C3.99244 11.2645 3.98597 11.2993 3.98099 11.3342C3.95619 11.5083 3.96832 11.686 4.01706 11.8557C4.0756 12.0595 4.18501 12.245 4.335 12.3949L7.44 15.4989L3 19.9369V20.9989H4.06L8.5 16.5599L11.604 19.6639C11.7539 19.8136 11.9394 19.9228 12.143 19.9812C12.3129 20.03 12.4909 20.042 12.665 20.017C12.6996 20.012 12.7341 20.0056 12.7683 19.9977C12.8033 19.9897 12.8378 19.9801 12.8718 19.9691C13.0385 19.9153 13.1924 19.8268 13.3233 19.7092C13.4808 19.5675 13.5998 19.3881 13.669 19.1879L15.109 15.0219C15.1275 14.9685 15.1517 14.9178 15.1811 14.8706L20.3582 20.0476C20.6371 20.3265 21.0892 20.3265 21.3681 20.0476C21.647 19.7688 21.647 19.3166 21.3681 19.0377L16.4452 14.1148L20.353 12.1609C20.7427 11.966 21.0806 11.6814 21.3387 11.3303C21.5968 10.9793 21.7678 10.572 21.8377 10.1419C21.9075 9.71179 21.8741 9.27127 21.7403 8.85661C21.6065 8.44195 21.3761 8.06502 21.068 7.75688L16.242 2.93088C15.9339 2.62261 15.5579 2.392 15.1431 2.25806C14.7283 2.12412 14.2877 2.09069 13.8574 2.16053C13.4272 2.23036 13.0197 2.40146 12.6686 2.65971C12.3175 2.91796 12.0328 3.25598 11.838 3.64588L9.88408 7.55372ZM14.1113 13.8007L10.1981 9.88754C9.98495 10.0704 9.73748 10.2135 9.467 10.3069L5.678 11.6169L12.383 18.3209L13.691 14.5329C13.7845 14.2619 13.9279 14.0141 14.1113 13.8007ZM11.0024 8.67202L13.18 4.31588C13.2687 4.13877 13.3981 3.98527 13.5577 3.86802C13.7174 3.75076 13.9026 3.67312 14.0981 3.64147C14.2936 3.60983 14.4938 3.6251 14.6823 3.68602C14.8707 3.74695 15.042 3.85178 15.182 3.99188L20.008 8.81688C20.1481 8.95694 20.2528 9.12828 20.3137 9.31679C20.3745 9.50529 20.3897 9.70555 20.358 9.90107C20.3262 10.0966 20.2485 10.2818 20.1311 10.4413C20.0138 10.6009 19.8602 10.7303 19.683 10.8189L15.3272 12.9968L11.0024 8.67202Z" fill="#181818"/>
</svg>
