<svg width="329" height="499" viewBox="0 0 329 499" fill="none" xmlns="http://www.w3.org/2000/svg">
<path d="M29.6492 176.854C29.6492 108.203 44.4675 -6.21689 154.932 0.513812C276.173 -7.56285 285.603 81.2803 285.603 147.24C313.893 184.931 307.392 242.762 297.727 261.659C320.628 326.273 350.873 370.329 285.603 380.117C273.833 380.04 167.355 374.733 157.626 374.733C146.826 374.733 40.8113 374.629 29.6492 374.733C-36.3662 364.944 29.6491 314.157 21.5664 277.812C11.9015 258.915 13.4836 210.507 29.6492 176.854Z" fill="#3B2144"/>
<path d="M68.7019 205.746C68.7019 147.032 90.5996 50.443 155.316 65.8731C155.698 65.9641 156.127 65.973 156.511 65.8961C223.047 52.5882 243.122 123.926 243.122 180.341C262.4 212.674 257.97 262.285 251.384 278.496C266.99 333.926 287.6 371.72 243.122 380.117C235.102 380.051 162.542 375.497 155.912 375.497C148.552 375.497 76.3084 375.409 68.7019 375.497C23.7156 367.1 68.7019 323.533 63.1939 292.354C56.6078 276.142 57.6859 234.615 68.7019 205.746Z" fill="#280434"/>
<g clip-path="url(#clip0)">
<path d="M14.5742 379.53C19.5459 335.083 57.1261 301.473 101.85 301.473H228.463C273.187 301.473 310.767 335.083 315.739 379.53L329 498.085H1.31311L14.5742 379.53Z" fill="#FFDB03"/>
<path fill-rule="evenodd" clip-rule="evenodd" d="M74.7151 419.44C76.8868 419.44 78.6473 421.2 78.6473 423.372V498.085C78.6473 500.257 76.8868 502.017 74.7151 502.017C72.5434 502.017 70.7828 500.257 70.7828 498.085V423.372C70.7828 421.2 72.5434 419.44 74.7151 419.44Z" fill="url(#paint0_linear)"/>
<path fill-rule="evenodd" clip-rule="evenodd" d="M247.734 419.44C249.906 419.44 251.666 421.2 251.666 423.372V498.085C251.666 500.257 249.906 502.017 247.734 502.017C245.562 502.017 243.802 500.257 243.802 498.085V423.372C243.802 421.2 245.562 419.44 247.734 419.44Z" fill="url(#paint1_linear)"/>
</g>
<g clip-path="url(#clip1)">
<path d="M144.258 229.818H178.801L187.896 300.477C189.943 316.375 177.559 330.455 161.53 330.455C145.501 330.455 133.117 316.375 135.163 300.477L144.258 229.818Z" fill="#FBC6D7"/>
<mask id="mask0" style="mask-type:alpha" maskUnits="userSpaceOnUse" x="134" y="229" width="55" height="102">
<path d="M144.258 229.818H178.801L187.896 300.477C189.943 316.375 177.559 330.455 161.53 330.455C145.501 330.455 133.117 316.375 135.163 300.477L144.258 229.818Z" fill="#FF7CA6"/>
</mask>
<g mask="url(#mask0)">
<path d="M145.697 229.818H180.24L184.558 252.821C172.78 271.098 157.212 272.948 134.183 278.699L145.697 229.818Z" fill="#FF7CA6"/>
</g>
<path d="M82.6677 142.626C86.0385 153.223 82.0158 163.95 73.6827 166.587C65.3497 169.224 55.8618 162.771 52.491 152.175C49.1202 141.578 53.1429 130.851 61.4759 128.214C69.809 125.577 79.2969 132.03 82.6677 142.626Z" fill="#FBC6D7"/>
<path d="M79.2382 143.816C81.4343 150.727 78.5494 157.808 72.7945 159.631C67.0396 161.453 60.5939 157.329 58.3978 150.418C56.2016 143.506 59.0865 136.426 64.8415 134.603C70.5964 132.78 77.042 136.905 79.2382 143.816Z" fill="#FF7CA6"/>
<path d="M242.462 148.377C239.091 158.973 243.114 169.701 251.447 172.338C259.78 174.975 269.268 168.522 272.639 157.925C276.01 147.329 271.987 136.601 263.654 133.965C255.321 131.328 245.833 137.78 242.462 148.377Z" fill="#FBC6D7"/>
<path d="M245.892 149.567C243.695 156.478 246.58 163.558 252.335 165.381C258.09 167.204 264.536 163.079 266.732 156.168C268.928 149.257 266.043 142.177 260.288 140.354C254.533 138.531 248.088 142.656 245.892 149.567Z" fill="#FF7CA6"/>
<path d="M247.887 155.059C247.887 210.639 209.224 255.696 161.53 255.696C113.836 255.696 75.1726 210.639 75.1726 155.059C75.1726 99.4794 113.836 54.4229 161.53 54.4229C209.224 54.4229 247.887 99.4794 247.887 155.059Z" fill="#FBC6D7"/>
<path fill-rule="evenodd" clip-rule="evenodd" d="M179.199 221.485C179.94 222.729 179.532 224.338 178.288 225.079C172.556 228.493 167.672 230.608 162.569 230.689C157.422 230.77 152.503 228.778 146.69 225.03C145.473 224.245 145.122 222.623 145.907 221.406C146.692 220.189 148.314 219.839 149.531 220.623C154.983 224.139 158.849 225.504 162.487 225.446C166.169 225.388 170.07 223.872 175.605 220.574C176.849 219.833 178.458 220.241 179.199 221.485Z" fill="#FF7FA8"/>
<path d="M128.45 154.668C128.45 161.183 125.516 166.464 121.897 166.464C118.277 166.464 115.343 161.183 115.343 154.668C115.343 148.153 118.277 142.871 121.897 142.871C125.516 142.871 128.45 148.153 128.45 154.668Z" fill="#3B2144"/>
<path d="M207.096 154.668C207.096 161.183 204.162 166.464 200.542 166.464C196.922 166.464 193.988 161.183 193.988 154.668C193.988 148.153 196.922 142.871 200.542 142.871C204.162 142.871 207.096 148.153 207.096 154.668Z" fill="#3B2144"/>
<path d="M65.1551 139.563C85.597 123.111 130.79 85.2716 148.028 65.5293C173.442 89.1104 229.906 138.576 252.447 147.789C262.944 132.434 274.988 96.7879 239.187 77.0456C194.436 52.3678 121.508 14.5285 85.0445 77.0456C55.8734 127.059 59.6303 139.563 65.1551 139.563Z" fill="#3B2144"/>
</g>
<defs>
<linearGradient id="paint0_linear" x1="75.3704" y1="423.372" x2="75.3704" y2="498.085" gradientUnits="userSpaceOnUse">
<stop stop-color="#FFDB03" stop-opacity="0.1"/>
<stop offset="0.773958" stop-color="#EBCB2F"/>
</linearGradient>
<linearGradient id="paint1_linear" x1="248.389" y1="423.372" x2="248.389" y2="498.085" gradientUnits="userSpaceOnUse">
<stop stop-color="#FFDB03" stop-opacity="0.1"/>
<stop offset="0.773958" stop-color="#EBCB2F"/>
</linearGradient>
<clipPath id="clip0">
<path d="M1.31311 306.472C1.31311 303.711 3.55169 301.473 6.31311 301.473H329V493.085C329 495.846 326.761 498.085 324 498.085H1.31311V306.472Z" fill="white"/>
</clipPath>
<clipPath id="clip1">
<path d="M46.3876 59.4229C46.3876 56.6615 48.6261 54.4229 51.3876 54.4229H278.743V325.455C278.743 328.216 276.504 330.455 273.743 330.455H46.3876V59.4229Z" fill="white"/>
</clipPath>
</defs>
</svg>
