<svg width="409" height="482" viewBox="0 0 409 482" fill="none" xmlns="http://www.w3.org/2000/svg">
<mask id="mask0" style="mask-type:alpha" maskUnits="userSpaceOnUse" x="0" y="0" width="409" height="482">
<rect width="409" height="481.177" fill="#F6D3DC"/>
</mask>
<g mask="url(#mask0)">
<path d="M88.5704 217.746C88.5704 157.503 101.574 57.0974 198.509 63.0037C304.901 55.9163 313.176 133.878 313.176 191.759C338 224.834 332.296 275.581 323.815 292.165C343.911 348.864 370.451 387.524 313.176 396.114C302.847 396.046 209.411 391.389 200.873 391.389C191.395 391.389 98.3655 391.298 88.5704 391.389C30.6405 382.799 88.5704 338.233 81.4776 306.339C72.9965 289.756 74.3848 247.277 88.5704 217.746Z" fill="#3B2144"/>
<path d="M122.84 243.099C122.84 191.577 142.056 106.818 198.847 120.358C199.181 120.438 199.557 120.446 199.895 120.378C258.281 108.7 275.898 171.3 275.898 220.806C292.815 249.179 288.928 292.714 283.148 306.94C296.843 355.58 314.929 388.745 275.898 396.113C268.86 396.056 205.187 392.06 199.369 392.06C192.911 392.06 129.515 391.983 122.84 392.06C83.364 384.692 122.84 346.46 118.007 319.1C112.228 304.874 113.174 268.433 122.84 243.099Z" fill="#280434"/>
<g clip-path="url(#clip0)">
<path d="M75.342 395.599C79.7048 356.596 112.682 327.102 151.928 327.102H263.034C302.28 327.102 335.258 356.596 339.621 395.599L351.258 499.633H63.7051L75.342 395.599Z" fill="#FFDB03"/>
<path fill-rule="evenodd" clip-rule="evenodd" d="M128.117 430.621C130.023 430.621 131.568 432.165 131.568 434.071V499.633C131.568 501.539 130.023 503.084 128.117 503.084C126.211 503.084 124.666 501.539 124.666 499.633V434.071C124.666 432.165 126.211 430.621 128.117 430.621Z" fill="url(#paint0_linear)"/>
<path fill-rule="evenodd" clip-rule="evenodd" d="M279.945 430.621C281.851 430.621 283.396 432.165 283.396 434.071V499.633C283.396 501.539 281.851 503.084 279.945 503.084C278.039 503.084 276.494 501.539 276.494 499.633V434.071C276.494 432.165 278.039 430.621 279.945 430.621Z" fill="url(#paint1_linear)"/>
</g>
<g clip-path="url(#clip1)">
<path d="M189.143 264.223H219.455L227.436 326.228C229.232 340.179 218.365 352.534 204.299 352.534C190.233 352.534 179.366 340.179 181.162 326.228L189.143 264.223Z" fill="#FBC6D7"/>
<mask id="mask1" style="mask-type:alpha" maskUnits="userSpaceOnUse" x="180" y="264" width="48" height="89">
<path d="M189.143 264.223H219.455L227.436 326.228C229.232 340.179 218.365 352.534 204.299 352.534C190.233 352.534 179.366 340.179 181.162 326.228L189.143 264.223Z" fill="#FF7CA6"/>
</mask>
<g mask="url(#mask1)">
<path d="M190.406 264.223H220.718L224.507 284.409C214.171 300.447 200.51 302.071 180.302 307.117L190.406 264.223Z" fill="#FF7CA6"/>
</g>
<path d="M135.095 187.711C138.053 197.009 134.523 206.423 127.211 208.737C119.899 211.051 111.573 205.388 108.615 196.09C105.657 186.791 109.187 177.377 116.499 175.063C123.812 172.75 132.138 178.412 135.095 187.711Z" fill="#FBC6D7"/>
<path d="M132.086 188.755C134.013 194.82 131.482 201.033 126.431 202.632C121.381 204.232 115.725 200.612 113.798 194.548C111.871 188.483 114.402 182.27 119.453 180.67C124.503 179.071 130.159 182.69 132.086 188.755Z" fill="#FF7CA6"/>
<path d="M275.319 192.757C272.361 202.056 275.891 211.469 283.203 213.783C290.516 216.097 298.842 210.435 301.8 201.136C304.757 191.837 301.227 182.424 293.915 180.11C286.603 177.796 278.277 183.458 275.319 192.757Z" fill="#FBC6D7"/>
<path d="M278.328 193.801C276.401 199.866 278.933 206.079 283.983 207.679C289.033 209.278 294.689 205.659 296.616 199.594C298.543 193.529 296.012 187.316 290.962 185.717C285.912 184.117 280.255 187.737 278.328 193.801Z" fill="#FF7CA6"/>
<path d="M280.08 198.621C280.08 247.394 246.151 286.932 204.299 286.932C162.447 286.932 128.519 247.394 128.519 198.621C128.519 149.848 162.447 110.31 204.299 110.31C246.151 110.31 280.08 149.848 280.08 198.621Z" fill="#FBC6D7"/>
</g>
<path d="M119.969 184.158C137.908 169.721 177.566 136.516 192.692 119.192C214.994 139.884 264.542 183.291 284.322 191.376C293.534 177.902 304.103 146.622 272.687 129.297C233.417 107.642 169.421 74.4372 137.423 129.297C111.825 173.186 115.121 184.158 119.969 184.158Z" fill="#3B2144"/>
</g>
<defs>
<linearGradient id="paint0_linear" x1="128.692" y1="434.071" x2="128.692" y2="499.633" gradientUnits="userSpaceOnUse">
<stop stop-color="#FFDB03"/>
<stop offset="1" stop-color="#EBCB2F"/>
</linearGradient>
<linearGradient id="paint1_linear" x1="280.52" y1="434.071" x2="280.52" y2="499.633" gradientUnits="userSpaceOnUse">
<stop stop-color="#FFDB03"/>
<stop offset="1" stop-color="#EBCB2F"/>
</linearGradient>
<clipPath id="clip0">
<rect width="287.552" height="172.531" fill="white" transform="translate(63.7051 327.102)"/>
</clipPath>
<clipPath id="clip1">
<rect width="203.897" height="242.224" fill="white" transform="translate(103.259 110.31)"/>
</clipPath>
</defs>
</svg>
