<svg width="14" height="14" viewBox="0 0 14 14" fill="none" xmlns="http://www.w3.org/2000/svg">
<path d="M10.5117 7.19249L9.79998 6.48082C9.63082 6.33499 9.53165 6.11916 9.52582 5.87999C9.51415 5.61749 9.61915 5.35499 9.81165 5.16249L10.5117 4.46249C11.1183 3.85582 11.3458 3.27249 11.1533 2.81166C10.9667 2.35666 10.3892 2.10582 9.53748 2.10582H3.44165V1.60416C3.44165 1.36499 3.24332 1.16666 3.00415 1.16666C2.76498 1.16666 2.56665 1.36499 2.56665 1.60416V12.3958C2.56665 12.635 2.76498 12.8333 3.00415 12.8333C3.24332 12.8333 3.44165 12.635 3.44165 12.3958V9.54916H9.53748C10.3775 9.54916 10.9433 9.29249 11.1358 8.83166C11.3283 8.37082 11.1067 7.79332 10.5117 7.19249Z" fill="#FB923C"/>
</svg>
