<svg width="356" height="530" viewBox="0 0 356 530" fill="none" xmlns="http://www.w3.org/2000/svg">
<g clip-path="url(#clip0)">
<path d="M14.4069 401.066C19.8082 352.779 60.6354 316.264 109.224 316.264H246.776C295.365 316.264 336.192 352.779 341.593 401.066L356 529.864H0L14.4069 401.066Z" fill="#FFDB03"/>
<path fill-rule="evenodd" clip-rule="evenodd" d="M79.744 444.424C82.1034 444.424 84.016 446.337 84.016 448.696V529.864C84.016 532.224 82.1034 534.136 79.744 534.136C77.3847 534.136 75.472 532.224 75.472 529.864V448.696C75.472 446.337 77.3847 444.424 79.744 444.424Z" fill="url(#paint0_linear)"/>
<path fill-rule="evenodd" clip-rule="evenodd" d="M267.712 444.424C270.072 444.424 271.984 446.337 271.984 448.696V529.864C271.984 532.224 270.072 534.136 267.712 534.136C265.353 534.136 263.44 532.224 263.44 529.864V448.696C263.44 446.337 265.353 444.424 267.712 444.424Z" fill="url(#paint1_linear)"/>
</g>
<path d="M165.321 242.284H202.849L212.73 319.048C214.953 336.319 201.499 351.616 184.085 351.616V351.616C166.671 351.616 153.217 336.319 155.44 319.048L165.321 242.284Z" fill="#FBC6D7"/>
<mask id="mask0" style="mask-type:alpha" maskUnits="userSpaceOnUse" x="154" y="238" width="59" height="111">
<path d="M164.659 238.996H202.186L212.067 315.76C214.29 333.031 200.837 348.328 183.423 348.328V348.328C166.008 348.328 152.555 333.031 154.778 315.76L164.659 238.996Z" fill="#FF7CA6"/>
</mask>
<g mask="url(#mask0)">
<path d="M170.367 245.572H203.059L207.146 268.008C195.998 285.834 181.264 287.639 159.469 293.248L170.367 245.572Z" fill="#FF7CA6"/>
</g>
<path d="M165.096 33.0643C22.1744 37.6437 117.399 226.609 117.399 226.609L234.523 226.609C234.523 226.609 376.084 26.3039 165.096 33.0643Z" fill="#122B3A"/>
<mask id="mask1" style="mask-type:alpha" maskUnits="userSpaceOnUse" x="100" y="70" width="165" height="197">
<rect x="100.423" y="70.1565" width="163.899" height="196.183" rx="33" fill="#FDD2D5"/>
</mask>
<g mask="url(#mask1)">
<rect x="100.285" y="69.5656" width="163.899" height="196.183" rx="33" fill="#FBC6D7"/>
<circle cx="286.673" cy="80.08" r="54.6331" fill="#122B3A"/>
<ellipse cx="175.666" cy="59.9687" rx="81.9497" ry="57.1164" transform="rotate(-22.5626 175.666 59.9687)" fill="#122B3A"/>
</g>
<circle cx="268.048" cy="178.181" r="18.6249" fill="#FBC6D7"/>
<circle cx="99.1817" cy="173.214" r="18.6249" fill="#FBC6D7"/>
<path d="M153.796 161.225C153.796 168.211 150.65 173.874 146.769 173.874C142.888 173.874 139.741 168.211 139.741 161.225C139.741 154.238 142.888 148.575 146.769 148.575C150.65 148.575 153.796 154.238 153.796 161.225Z" fill="#3B2144"/>
<path d="M222.845 161.225C222.845 168.211 219.699 173.874 215.817 173.874C211.936 173.874 208.79 168.211 208.79 161.225C208.79 154.238 211.936 148.575 215.817 148.575C219.699 148.575 222.845 154.238 222.845 161.225Z" fill="#3B2144"/>
<rect x="107.873" y="50.9453" width="109.266" height="39.7332" rx="8" transform="rotate(-27.4279 107.873 50.9453)" fill="#122B3A"/>
<rect x="162.506" y="45.9786" width="92.453" height="39.7332" rx="8" transform="rotate(-27.4279 162.506 45.9786)" fill="#122B3A"/>
<rect x="225.863" y="60.4577" width="49.0505" height="39.7332" rx="8" transform="rotate(-27.4279 225.863 60.4577)" fill="#122B3A"/>
<path fill-rule="evenodd" clip-rule="evenodd" d="M200.549 227.216C201.343 228.55 200.906 230.276 199.572 231.07C193.426 234.731 188.188 237 182.717 237.086C177.198 237.172 171.923 235.037 165.689 231.018C164.385 230.176 164.009 228.437 164.85 227.132C165.692 225.827 167.431 225.451 168.736 226.293C174.582 230.062 178.728 231.526 182.629 231.464C186.577 231.402 190.76 229.776 196.695 226.24C198.029 225.446 199.754 225.883 200.549 227.216Z" fill="#FF7FA8"/>
<defs>
<linearGradient id="paint0_linear" x1="80.456" y1="448.696" x2="80.456" y2="529.864" gradientUnits="userSpaceOnUse">
<stop stop-color="#FFDB03" stop-opacity="0.1"/>
<stop offset="0.784375" stop-color="#EBCB2F"/>
</linearGradient>
<linearGradient id="paint1_linear" x1="268.424" y1="448.696" x2="268.424" y2="529.864" gradientUnits="userSpaceOnUse">
<stop stop-color="#FFDB03" stop-opacity="0.1"/>
<stop offset="0.784375" stop-color="#EBCB2F"/>
</linearGradient>
<clipPath id="clip0">
<rect width="356" height="213.6" fill="white" transform="translate(0 316.264)"/>
</clipPath>
</defs>
</svg>
