<svg width="392" height="463" viewBox="0 0 392 463" fill="none" xmlns="http://www.w3.org/2000/svg">
<g clip-path="url(#clip0)">
<path d="M69.6719 363.328C73.8517 325.961 105.446 297.703 143.047 297.703H249.493C287.094 297.703 318.688 325.961 322.868 363.328L334.017 463H58.5229L69.6719 363.328Z" fill="#FFDB03"/>
<path fill-rule="evenodd" clip-rule="evenodd" d="M120.234 396.881C122.059 396.881 123.54 398.362 123.54 400.187V463C123.54 464.826 122.059 466.306 120.234 466.306C118.408 466.306 116.928 464.826 116.928 463V400.187C116.928 398.362 118.408 396.881 120.234 396.881Z" fill="url(#paint0_linear)"/>
<path fill-rule="evenodd" clip-rule="evenodd" d="M265.695 396.881C267.521 396.881 269.001 398.362 269.001 400.187V463C269.001 464.826 267.521 466.306 265.695 466.306C263.869 466.306 262.389 464.826 262.389 463V400.187C262.389 398.362 263.869 396.881 265.695 396.881Z" fill="url(#paint1_linear)"/>
</g>
<path d="M186.458 240.453H215.5L223.146 299.857C224.866 313.223 214.455 325.06 200.979 325.06V325.06C187.503 325.06 177.092 313.223 178.812 299.857L186.458 240.453Z" fill="#FBC6D7"/>
<mask id="mask0" style="mask-type:alpha" maskUnits="userSpaceOnUse" x="178" y="237" width="45" height="86">
<path d="M185.946 237.908H214.987L222.633 297.313C224.354 310.679 213.943 322.516 200.467 322.516V322.516C186.99 322.516 176.579 310.679 178.3 297.313L185.946 237.908Z" fill="#FF7CA6"/>
</mask>
<g mask="url(#mask0)">
<path d="M189.382 245.542H215.553L218.825 262.904C209.901 276.699 198.106 278.096 180.658 282.437L189.382 245.542Z" fill="#FF7CA6"/>
</g>
<path d="M186.284 78.5462C75.683 82.09 149.373 228.323 149.373 228.323L240.011 228.323C240.011 228.323 349.559 73.3146 186.284 78.5462Z" fill="#122B3A"/>
<mask id="mask1" style="mask-type:alpha" maskUnits="userSpaceOnUse" x="136" y="107" width="128" height="153">
<rect x="136.237" y="107.25" width="126.835" height="151.818" rx="33" fill="#FDD2D5"/>
</mask>
<g mask="url(#mask1)">
<rect x="136.237" y="107.25" width="126.835" height="151.818" rx="33" fill="#FBC6D7"/>
<circle cx="280.368" cy="114.93" r="42.2784" fill="#122B3A"/>
<ellipse cx="194.464" cy="99.3664" rx="63.4176" ry="44.2001" transform="rotate(-22.5626 194.464 99.3664)" fill="#122B3A"/>
</g>
<circle cx="265.954" cy="190.846" r="14.4131" fill="#FBC6D7"/>
<circle cx="135.276" cy="187.003" r="14.4131" fill="#FBC6D7"/>
<rect x="142.002" y="92.3835" width="84.5568" height="30.7479" rx="8" transform="rotate(-27.4279 142.002 92.3835)" fill="#122B3A"/>
<rect x="184.28" y="88.54" width="71.5457" height="30.7479" rx="8" transform="rotate(-27.4279 184.28 88.54)" fill="#122B3A"/>
<rect x="233.31" y="99.7449" width="37.9582" height="30.7479" rx="8" transform="rotate(-27.4279 233.31 99.7449)" fill="#122B3A"/>
<defs>
<linearGradient id="paint0_linear" x1="120.785" y1="400.187" x2="120.785" y2="463" gradientUnits="userSpaceOnUse">
<stop stop-color="#FFDB03" stop-opacity="0.07"/>
<stop offset="0.727083" stop-color="#EBCB2F"/>
</linearGradient>
<linearGradient id="paint1_linear" x1="266.246" y1="400.187" x2="266.246" y2="463" gradientUnits="userSpaceOnUse">
<stop stop-color="#FFDB03" stop-opacity="0.07"/>
<stop offset="0.727083" stop-color="#EBCB2F"/>
</linearGradient>
<clipPath id="clip0">
<rect width="275.494" height="165.297" fill="white" transform="translate(58.5229 297.703)"/>
</clipPath>
</defs>
</svg>
