<svg width="35" height="40" viewBox="0 0 35 40" fill="none" xmlns="http://www.w3.org/2000/svg">
<path d="M19.9999 2.5V3.89688C25.664 4.79609 29.9999 9.70312 29.9999 15.625V18.2344C29.9999 21.7812 31.2109 25.2266 33.4218 28L34.5859 29.4531C35.039 30.0156 35.1249 30.7891 34.8124 31.4375C34.4999 32.0859 33.8437 32.5 33.1249 32.5H1.87494C1.15384 32.5 0.497204 32.0859 0.185016 31.4375C-0.127249 30.7891 -0.039437 30.0156 0.410876 29.4531L1.57572 28C3.79213 25.2266 4.99994 21.7812 4.99994 18.2344V15.625C4.99994 9.70312 9.33588 4.79609 14.9999 3.89688V2.5C14.9999 1.11953 16.1171 0 17.4999 0C18.8828 0 19.9999 1.11953 19.9999 2.5ZM16.8749 7.5C12.3906 7.5 8.74994 11.1406 8.74994 15.625V18.2344C8.74994 21.9766 7.66556 25.625 5.64916 28.75H29.3515C27.3359 25.625 26.2499 21.9766 26.2499 18.2344V15.625C26.2499 11.1406 22.6093 7.5 18.1249 7.5H16.8749ZM22.4999 35C22.4999 36.2578 21.9765 37.6016 21.039 38.5391C20.1015 39.4766 18.7578 40 17.4999 40C16.1718 40 14.8984 39.4766 13.9609 38.5391C13.0234 37.6016 12.4999 36.2578 12.4999 35H22.4999Z" fill="white"/>
</svg>
