<svg width="37" height="40" viewBox="0 0 37 40" fill="none" xmlns="http://www.w3.org/2000/svg">
<path d="M20 2.5V3.89688C25.6641 4.79609 30 9.70312 30 15.625V18.2344C30 21.7812 31.211 25.2266 33.4219 28L34.586 29.4531C35.0391 30.0156 35.125 30.7891 34.8125 31.4375C34.5 32.0859 33.8438 32.5 33.125 32.5H1.87501C1.15392 32.5 0.49728 32.0859 0.185092 31.4375C-0.127173 30.7891 -0.0393607 30.0156 0.410952 29.4531L1.5758 28C3.7922 25.2266 5.00001 21.7812 5.00001 18.2344V15.625C5.00001 9.70312 9.33595 4.79609 15 3.89688V2.5C15 1.11953 16.1172 0 17.5 0C18.8828 0 20 1.11953 20 2.5ZM16.875 7.5C12.3906 7.5 8.75001 11.1406 8.75001 15.625V18.2344C8.75001 21.9766 7.66564 25.625 5.64923 28.75H29.3516C27.336 25.625 26.25 21.9766 26.25 18.2344V15.625C26.25 11.1406 22.6094 7.5 18.125 7.5H16.875ZM22.5 35C22.5 36.2578 21.9766 37.6016 21.0391 38.5391C20.1016 39.4766 18.7578 40 17.5 40C16.1719 40 14.8985 39.4766 13.961 38.5391C13.0235 37.6016 12.5 36.2578 12.5 35H22.5Z" fill="white"/>
<circle cx="32.5" cy="4.5" r="4.5" fill="#FF0000"/>
</svg>
