<svg width="811" height="756" viewBox="0 0 811 756" fill="none" xmlns="http://www.w3.org/2000/svg">
<path d="M386 66C386 66 478.792 127.17 489 233" stroke="#19141E" stroke-width="5" stroke-linecap="round"/>
<path d="M433 55.9973C433 86.924 408.153 112 377.503 112C346.852 112 322 86.924 322 55.9973C322 25.0707 346.852 0 377.503 0C408.153 0 433 25.0707 433 55.9973Z" fill="#FFDB03"/>
<path d="M711.061 417.129H567.288" stroke="#19141E" stroke-width="5" stroke-linecap="round"/>
<path d="M272.188 221.053C244.854 221.053 222.485 243.418 222.485 270.757" stroke="white" stroke-width="5" stroke-linecap="round"/>
<path d="M59.1062 417.129H235.942" stroke="#19141E" stroke-width="5" stroke-linecap="round"/>
<path fill-rule="evenodd" clip-rule="evenodd" d="M704.44 682.612C730.546 684.473 751.149 706.243 751.149 732.823V755.452H79.8504V732.823C79.8504 706.243 100.449 684.473 126.559 682.612V673.648C126.559 643.011 148.943 617.348 178.165 612.206V242.686C178.165 208.207 206.377 180 240.851 180H590.149C624.628 180 652.835 208.207 652.835 242.686V612.206C682.056 617.349 704.44 643.011 704.44 673.648V682.612ZM811 417.129C811 450.764 783.737 478.032 750.102 478.032C716.468 478.032 689.2 450.764 689.2 417.129C689.2 383.495 716.468 356.232 750.102 356.232C783.737 356.232 811 383.495 811 417.129ZM60.9023 356.232C27.268 356.232 0 383.495 0 417.129C0 450.764 27.268 478.032 60.9023 478.032C94.5366 478.032 121.805 450.764 121.805 417.129C121.805 383.495 94.5366 356.232 60.9023 356.232Z" fill="#FFDB03"/>
<path opacity="0.395926" fill-rule="evenodd" clip-rule="evenodd" d="M126.559 682.612V667.064C129.294 638.871 154.629 611.269 188.939 611.269H642.06C676.37 611.269 700.642 636.75 704.44 665.032V682.612C730.546 684.473 751.149 706.243 751.149 732.823V755.452H79.8506V732.823C79.8506 706.243 100.449 684.473 126.559 682.612Z" fill="black"/>
<path d="M130.536 684.107H703.027" stroke="#19141E" stroke-width="5"/>
<path d="M229 528.36H605.957" stroke="#19141E" stroke-width="7"/>
<path fill-rule="evenodd" clip-rule="evenodd" d="M269.712 304.203C243.142 326.072 239.334 365.341 261.203 391.911C283.072 418.48 322.341 422.289 348.911 400.42C375.48 378.551 379.289 339.281 357.42 312.712C335.551 286.142 296.281 282.334 269.712 304.203Z" fill="white"/>
<path fill-rule="evenodd" clip-rule="evenodd" d="M290.433 330.878C278.229 340.926 276.478 358.963 286.525 371.171C296.572 383.376 314.609 385.126 326.814 375.079C339.022 365.032 340.773 346.995 330.726 334.786C320.678 322.582 302.637 320.831 290.433 330.878Z" fill="#19141E"/>
<path fill-rule="evenodd" clip-rule="evenodd" d="M486.712 304.203C460.142 326.072 456.334 365.341 478.203 391.911C500.072 418.48 539.341 422.289 565.911 400.42C592.48 378.551 596.289 339.281 574.42 312.712C552.551 286.142 513.281 282.334 486.712 304.203Z" fill="white"/>
<path fill-rule="evenodd" clip-rule="evenodd" d="M508.433 330.525C496.229 340.572 494.478 358.609 504.525 370.818C514.572 383.022 532.609 384.773 544.814 374.726C557.022 364.678 558.773 346.641 548.726 334.433C538.678 322.229 520.637 320.478 508.433 330.525Z" fill="#19141E"/>
</svg>
