<svg width="638" height="638" viewBox="0 0 638 638" fill="none" xmlns="http://www.w3.org/2000/svg">
<circle cx="319" cy="319" r="319" fill="#567DF4"/>
<g filter="url(#filter0_bdiiii)">
<path fill-rule="evenodd" clip-rule="evenodd" d="M319.763 187.987C267.31 187.987 224.635 230.682 224.635 283.163C224.635 283.992 224.635 284.822 224.659 285.65C225.345 320.502 240.532 340.694 255.219 360.221L255.221 360.224C269.46 379.155 284.17 398.712 285.032 430.816H354.52C355.382 398.714 370.092 379.158 384.333 360.226C399.023 340.698 414.211 320.505 414.893 285.683C414.892 285.291 414.901 284.841 414.91 284.392C414.918 283.983 414.927 283.573 414.927 283.163C414.927 230.683 372.236 187.987 319.763 187.987ZM285.071 436.788H354.479V452.271H285.071V436.788ZM289.753 473.763H285.071V458.244H354.479V473.763H349.797H289.753ZM346.528 479.735C344.625 489.695 333.347 497.367 319.763 497.367C306.191 497.367 294.924 489.695 293.022 479.735H346.528Z" fill="#FFC774" fill-opacity="0.3"/>
<path fill-rule="evenodd" clip-rule="evenodd" d="M319.763 187.987C267.31 187.987 224.635 230.682 224.635 283.163C224.635 283.992 224.635 284.822 224.659 285.65C225.345 320.502 240.532 340.694 255.219 360.221L255.221 360.224C269.46 379.155 284.17 398.712 285.032 430.816H354.52C355.382 398.714 370.092 379.158 384.333 360.226C399.023 340.698 414.211 320.505 414.893 285.683C414.892 285.291 414.901 284.841 414.91 284.392C414.918 283.983 414.927 283.573 414.927 283.163C414.927 230.683 372.236 187.987 319.763 187.987ZM285.071 436.788H354.479V452.271H285.071V436.788ZM289.753 473.763H285.071V458.244H354.479V473.763H349.797H289.753ZM346.528 479.735C344.625 489.695 333.347 497.367 319.763 497.367C306.191 497.367 294.924 489.695 293.022 479.735H346.528Z" fill="#FFDB03" fill-opacity="0.8"/>
<path fill-rule="evenodd" clip-rule="evenodd" d="M319.763 187.987C267.31 187.987 224.635 230.682 224.635 283.163C224.635 283.992 224.635 284.822 224.659 285.65C225.345 320.502 240.532 340.694 255.219 360.221L255.221 360.224C269.46 379.155 284.17 398.712 285.032 430.816H354.52C355.382 398.714 370.092 379.158 384.333 360.226C399.023 340.698 414.211 320.505 414.893 285.683C414.892 285.291 414.901 284.841 414.91 284.392C414.918 283.983 414.927 283.573 414.927 283.163C414.927 230.683 372.236 187.987 319.763 187.987ZM285.071 436.788H354.479V452.271H285.071V436.788ZM289.753 473.763H285.071V458.244H354.479V473.763H349.797H289.753ZM346.528 479.735C344.625 489.695 333.347 497.367 319.763 497.367C306.191 497.367 294.924 489.695 293.022 479.735H346.528Z" fill="white" fill-opacity="0.2"/>
</g>
<g filter="url(#filter1_bdiii)">
<path d="M319.021 170.858C320.67 170.858 322.007 169.52 322.007 167.871V142.549C322.007 140.9 320.67 139.562 319.021 139.562C317.372 139.562 316.035 140.9 316.035 142.549V167.871C316.035 169.52 317.372 170.858 319.021 170.858Z" fill="#FFC774" fill-opacity="0.1"/>
<path d="M319.021 170.858C320.67 170.858 322.007 169.52 322.007 167.871V142.549C322.007 140.9 320.67 139.562 319.021 139.562C317.372 139.562 316.035 140.9 316.035 142.549V167.871C316.035 169.52 317.372 170.858 319.021 170.858Z" fill="#FFDB03"/>
</g>
<g filter="url(#filter2_bdiii)">
<path d="M258.803 184.807C259.356 185.765 260.359 186.3 261.392 186.3C261.898 186.3 262.412 186.17 262.882 185.899C264.31 185.074 264.799 183.247 263.974 181.819L251.309 159.898C250.485 158.47 248.659 157.984 247.23 158.806C245.802 159.631 245.314 161.458 246.139 162.886L258.803 184.807Z" fill="#FFC774" fill-opacity="0.1"/>
<path d="M258.803 184.807C259.356 185.765 260.359 186.3 261.392 186.3C261.898 186.3 262.412 186.17 262.882 185.899C264.31 185.074 264.799 183.247 263.974 181.819L251.309 159.898C250.485 158.47 248.659 157.984 247.23 158.806C245.802 159.631 245.314 161.458 246.139 162.886L258.803 184.807Z" fill="#FFDB03"/>
</g>
<g filter="url(#filter3_bdiii)">
<path d="M195.777 215.426L217.687 228.087C218.158 228.359 218.671 228.489 219.178 228.489C220.21 228.489 221.213 227.954 221.767 226.996C222.592 225.569 222.103 223.742 220.675 222.917L198.765 210.255C197.337 209.43 195.51 209.918 194.685 211.347C193.859 212.774 194.348 214.601 195.777 215.426Z" fill="#FFC774" fill-opacity="0.1"/>
<path d="M195.777 215.426L217.687 228.087C218.158 228.359 218.671 228.489 219.178 228.489C220.21 228.489 221.213 227.954 221.767 226.996C222.592 225.569 222.103 223.742 220.675 222.917L198.765 210.255C197.337 209.43 195.51 209.918 194.685 211.347C193.859 212.774 194.348 214.601 195.777 215.426Z" fill="#FFDB03"/>
</g>
<g filter="url(#filter4_bdiii)">
<path d="M206.733 283.163C206.733 281.514 205.396 280.177 203.747 280.177H178.436C176.787 280.177 175.45 281.514 175.45 283.163C175.45 284.812 176.787 286.149 178.436 286.149H203.747C205.396 286.149 206.733 284.812 206.733 283.163Z" fill="#FFC774" fill-opacity="0.1"/>
<path d="M206.733 283.163C206.733 281.514 205.396 280.177 203.747 280.177H178.436C176.787 280.177 175.45 281.514 175.45 283.163C175.45 284.812 176.787 286.149 178.436 286.149H203.747C205.396 286.149 206.733 284.812 206.733 283.163Z" fill="#FFDB03"/>
</g>
<g filter="url(#filter5_bdiii)">
<path d="M217.686 338.24L195.776 350.906C194.348 351.731 193.859 353.559 194.685 354.986C195.238 355.943 196.242 356.478 197.273 356.478C197.78 356.478 198.294 356.348 198.765 356.077L220.675 343.41C222.103 342.585 222.592 340.758 221.766 339.331C220.94 337.903 219.114 337.414 217.686 338.24Z" fill="#FFC774" fill-opacity="0.1"/>
<path d="M217.686 338.24L195.776 350.906C194.348 351.731 193.859 353.559 194.685 354.986C195.238 355.943 196.242 356.478 197.273 356.478C197.78 356.478 198.294 356.348 198.765 356.077L220.675 343.41C222.103 342.585 222.592 340.758 221.766 339.331C220.94 337.903 219.114 337.414 217.686 338.24Z" fill="#FFDB03"/>
</g>
<g filter="url(#filter6_bdiii)">
<path d="M375.164 185.901C375.633 186.171 376.145 186.299 376.651 186.299C377.684 186.299 378.689 185.762 379.242 184.803L391.862 162.882C392.685 161.452 392.193 159.627 390.764 158.803C389.334 157.98 387.509 158.473 386.686 159.902L374.066 181.822C373.244 183.253 373.735 185.078 375.164 185.901Z" fill="#FFC774" fill-opacity="0.1"/>
<path d="M375.164 185.901C375.633 186.171 376.145 186.299 376.651 186.299C377.684 186.299 378.689 185.762 379.242 184.803L391.862 162.882C392.685 161.452 392.193 159.627 390.764 158.803C389.334 157.98 387.509 158.473 386.686 159.902L374.066 181.822C373.244 183.253 373.735 185.078 375.164 185.901Z" fill="#FFDB03"/>
</g>
<g filter="url(#filter7_bdiii)">
<path d="M418.823 228.524C419.329 228.524 419.843 228.394 420.314 228.122L442.225 215.456C443.652 214.631 444.14 212.804 443.315 211.376C442.491 209.95 440.666 209.461 439.235 210.286L417.325 222.952C415.898 223.777 415.409 225.604 416.234 227.032C416.788 227.989 417.791 228.524 418.823 228.524Z" fill="#FFC774" fill-opacity="0.1"/>
<path d="M418.823 228.524C419.329 228.524 419.843 228.394 420.314 228.122L442.225 215.456C443.652 214.631 444.14 212.804 443.315 211.376C442.491 209.95 440.666 209.461 439.235 210.286L417.325 222.952C415.898 223.777 415.409 225.604 416.234 227.032C416.788 227.989 417.791 228.524 418.823 228.524Z" fill="#FFDB03"/>
</g>
<g filter="url(#filter8_bdiii)">
<path d="M459.563 280.213H434.253C432.604 280.213 431.267 281.55 431.267 283.199C431.267 284.848 432.604 286.185 434.253 286.185H459.563C461.212 286.185 462.549 284.848 462.549 283.199C462.549 281.55 461.212 280.213 459.563 280.213Z" fill="#FFC774" fill-opacity="0.1"/>
<path d="M459.563 280.213H434.253C432.604 280.213 431.267 281.55 431.267 283.199C431.267 284.848 432.604 286.185 434.253 286.185H459.563C461.212 286.185 462.549 284.848 462.549 283.199C462.549 281.55 461.212 280.213 459.563 280.213Z" fill="#FFDB03"/>
</g>
<g filter="url(#filter9_bdiii)">
<path d="M442.189 350.906L420.277 338.24C418.848 337.415 417.023 337.902 416.198 339.331C415.372 340.759 415.861 342.585 417.288 343.41L439.199 356.077C439.671 356.348 440.183 356.478 440.691 356.478C441.723 356.478 442.726 355.943 443.279 354.986C444.104 353.557 443.616 351.731 442.189 350.906Z" fill="#FFC774" fill-opacity="0.1"/>
<path d="M442.189 350.906L420.277 338.24C418.848 337.415 417.023 337.902 416.198 339.331C415.372 340.759 415.861 342.585 417.288 343.41L439.199 356.077C439.671 356.348 440.183 356.478 440.691 356.478C441.723 356.478 442.726 355.943 443.279 354.986C444.104 353.557 443.616 351.731 442.189 350.906Z" fill="#FFDB03"/>
</g>
<g filter="url(#filter10_f)">
<rect x="281.655" y="305.313" width="11.4041" height="55.5952" rx="5.70207" transform="rotate(-24.1563 281.655 305.313)" fill="white"/>
</g>
<g filter="url(#filter11_f)">
<rect x="346.971" y="301.697" width="11.4041" height="55.5952" rx="5.70207" transform="rotate(24.16 346.971 301.697)" fill="white"/>
</g>
<defs>
<filter id="filter0_bdiiii" x="190.635" y="163.987" width="270.292" height="389.381" filterUnits="userSpaceOnUse" color-interpolation-filters="sRGB">
<feFlood flood-opacity="0" result="BackgroundImageFix"/>
<feGaussianBlur in="BackgroundImage" stdDeviation="10"/>
<feComposite in2="SourceAlpha" operator="in" result="effect1_backgroundBlur"/>
<feColorMatrix in="SourceAlpha" type="matrix" values="0 0 0 0 0 0 0 0 0 0 0 0 0 0 0 0 0 0 127 0" result="hardAlpha"/>
<feOffset dx="6" dy="16"/>
<feGaussianBlur stdDeviation="20"/>
<feColorMatrix type="matrix" values="0 0 0 0 0.675 0 0 0 0 0.455345 0 0 0 0 0.151875 0 0 0 0.11 0"/>
<feBlend mode="normal" in2="effect1_backgroundBlur" result="effect2_dropShadow"/>
<feBlend mode="normal" in="SourceGraphic" in2="effect2_dropShadow" result="shape"/>
<feColorMatrix in="SourceAlpha" type="matrix" values="0 0 0 0 0 0 0 0 0 0 0 0 0 0 0 0 0 0 127 0" result="hardAlpha"/>
<feOffset dy="10"/>
<feGaussianBlur stdDeviation="5"/>
<feComposite in2="hardAlpha" operator="arithmetic" k2="-1" k3="1"/>
<feColorMatrix type="matrix" values="0 0 0 0 1 0 0 0 0 1 0 0 0 0 1 0 0 0 0.15 0"/>
<feBlend mode="normal" in2="shape" result="effect3_innerShadow"/>
<feColorMatrix in="SourceAlpha" type="matrix" values="0 0 0 0 0 0 0 0 0 0 0 0 0 0 0 0 0 0 127 0" result="hardAlpha"/>
<feOffset dy="-10"/>
<feGaussianBlur stdDeviation="6"/>
<feComposite in2="hardAlpha" operator="arithmetic" k2="-1" k3="1"/>
<feColorMatrix type="matrix" values="0 0 0 0 0.984314 0 0 0 0 0.65098 0 0 0 0 0.27451 0 0 0 0.22 0"/>
<feBlend mode="normal" in2="effect3_innerShadow" result="effect4_innerShadow"/>
<feColorMatrix in="SourceAlpha" type="matrix" values="0 0 0 0 0 0 0 0 0 0 0 0 0 0 0 0 0 0 127 0" result="hardAlpha"/>
<feOffset dy="-10"/>
<feGaussianBlur stdDeviation="5"/>
<feComposite in2="hardAlpha" operator="arithmetic" k2="-1" k3="1"/>
<feColorMatrix type="matrix" values="0 0 0 0 1 0 0 0 0 0.670333 0 0 0 0 0.283333 0 0 0 0.15 0"/>
<feBlend mode="normal" in2="effect4_innerShadow" result="effect5_innerShadow"/>
<feColorMatrix in="SourceAlpha" type="matrix" values="0 0 0 0 0 0 0 0 0 0 0 0 0 0 0 0 0 0 127 0" result="hardAlpha"/>
<feOffset dy="5"/>
<feGaussianBlur stdDeviation="5"/>
<feComposite in2="hardAlpha" operator="arithmetic" k2="-1" k3="1"/>
<feColorMatrix type="matrix" values="0 0 0 0 1 0 0 0 0 0.670333 0 0 0 0 0.283333 0 0 0 0.25 0"/>
<feBlend mode="normal" in2="effect5_innerShadow" result="effect6_innerShadow"/>
</filter>
<filter id="filter1_bdiii" x="282.035" y="115.562" width="85.9722" height="111.295" filterUnits="userSpaceOnUse" color-interpolation-filters="sRGB">
<feFlood flood-opacity="0" result="BackgroundImageFix"/>
<feGaussianBlur in="BackgroundImage" stdDeviation="10"/>
<feComposite in2="SourceAlpha" operator="in" result="effect1_backgroundBlur"/>
<feColorMatrix in="SourceAlpha" type="matrix" values="0 0 0 0 0 0 0 0 0 0 0 0 0 0 0 0 0 0 127 0" result="hardAlpha"/>
<feOffset dx="6" dy="16"/>
<feGaussianBlur stdDeviation="20"/>
<feColorMatrix type="matrix" values="0 0 0 0 0.675 0 0 0 0 0.455345 0 0 0 0 0.151875 0 0 0 0.11 0"/>
<feBlend mode="normal" in2="effect1_backgroundBlur" result="effect2_dropShadow"/>
<feBlend mode="normal" in="SourceGraphic" in2="effect2_dropShadow" result="shape"/>
<feColorMatrix in="SourceAlpha" type="matrix" values="0 0 0 0 0 0 0 0 0 0 0 0 0 0 0 0 0 0 127 0" result="hardAlpha"/>
<feOffset dy="10"/>
<feGaussianBlur stdDeviation="5"/>
<feComposite in2="hardAlpha" operator="arithmetic" k2="-1" k3="1"/>
<feColorMatrix type="matrix" values="0 0 0 0 1 0 0 0 0 1 0 0 0 0 1 0 0 0 0.15 0"/>
<feBlend mode="normal" in2="shape" result="effect3_innerShadow"/>
<feColorMatrix in="SourceAlpha" type="matrix" values="0 0 0 0 0 0 0 0 0 0 0 0 0 0 0 0 0 0 127 0" result="hardAlpha"/>
<feOffset dy="-10"/>
<feGaussianBlur stdDeviation="6"/>
<feComposite in2="hardAlpha" operator="arithmetic" k2="-1" k3="1"/>
<feColorMatrix type="matrix" values="0 0 0 0 0.984314 0 0 0 0 0.65098 0 0 0 0 0.27451 0 0 0 0.22 0"/>
<feBlend mode="normal" in2="effect3_innerShadow" result="effect4_innerShadow"/>
<feColorMatrix in="SourceAlpha" type="matrix" values="0 0 0 0 0 0 0 0 0 0 0 0 0 0 0 0 0 0 127 0" result="hardAlpha"/>
<feOffset dy="-10"/>
<feGaussianBlur stdDeviation="5"/>
<feComposite in2="hardAlpha" operator="arithmetic" k2="-1" k3="1"/>
<feColorMatrix type="matrix" values="0 0 0 0 1 0 0 0 0 0.670333 0 0 0 0 0.283333 0 0 0 0.15 0"/>
<feBlend mode="normal" in2="effect4_innerShadow" result="effect5_innerShadow"/>
</filter>
<filter id="filter2_bdiii" x="211.738" y="134.406" width="98.6375" height="107.894" filterUnits="userSpaceOnUse" color-interpolation-filters="sRGB">
<feFlood flood-opacity="0" result="BackgroundImageFix"/>
<feGaussianBlur in="BackgroundImage" stdDeviation="10"/>
<feComposite in2="SourceAlpha" operator="in" result="effect1_backgroundBlur"/>
<feColorMatrix in="SourceAlpha" type="matrix" values="0 0 0 0 0 0 0 0 0 0 0 0 0 0 0 0 0 0 127 0" result="hardAlpha"/>
<feOffset dx="6" dy="16"/>
<feGaussianBlur stdDeviation="20"/>
<feColorMatrix type="matrix" values="0 0 0 0 0.675 0 0 0 0 0.455345 0 0 0 0 0.151875 0 0 0 0.11 0"/>
<feBlend mode="normal" in2="effect1_backgroundBlur" result="effect2_dropShadow"/>
<feBlend mode="normal" in="SourceGraphic" in2="effect2_dropShadow" result="shape"/>
<feColorMatrix in="SourceAlpha" type="matrix" values="0 0 0 0 0 0 0 0 0 0 0 0 0 0 0 0 0 0 127 0" result="hardAlpha"/>
<feOffset dy="10"/>
<feGaussianBlur stdDeviation="5"/>
<feComposite in2="hardAlpha" operator="arithmetic" k2="-1" k3="1"/>
<feColorMatrix type="matrix" values="0 0 0 0 1 0 0 0 0 1 0 0 0 0 1 0 0 0 0.15 0"/>
<feBlend mode="normal" in2="shape" result="effect3_innerShadow"/>
<feColorMatrix in="SourceAlpha" type="matrix" values="0 0 0 0 0 0 0 0 0 0 0 0 0 0 0 0 0 0 127 0" result="hardAlpha"/>
<feOffset dy="-10"/>
<feGaussianBlur stdDeviation="6"/>
<feComposite in2="hardAlpha" operator="arithmetic" k2="-1" k3="1"/>
<feColorMatrix type="matrix" values="0 0 0 0 0.984314 0 0 0 0 0.65098 0 0 0 0 0.27451 0 0 0 0.22 0"/>
<feBlend mode="normal" in2="effect3_innerShadow" result="effect4_innerShadow"/>
<feColorMatrix in="SourceAlpha" type="matrix" values="0 0 0 0 0 0 0 0 0 0 0 0 0 0 0 0 0 0 127 0" result="hardAlpha"/>
<feOffset dy="-10"/>
<feGaussianBlur stdDeviation="5"/>
<feComposite in2="hardAlpha" operator="arithmetic" k2="-1" k3="1"/>
<feColorMatrix type="matrix" values="0 0 0 0 1 0 0 0 0 0.670333 0 0 0 0 0.283333 0 0 0 0.15 0"/>
<feBlend mode="normal" in2="effect4_innerShadow" result="effect5_innerShadow"/>
</filter>
<filter id="filter3_bdiii" x="160.283" y="185.854" width="107.885" height="98.6351" filterUnits="userSpaceOnUse" color-interpolation-filters="sRGB">
<feFlood flood-opacity="0" result="BackgroundImageFix"/>
<feGaussianBlur in="BackgroundImage" stdDeviation="10"/>
<feComposite in2="SourceAlpha" operator="in" result="effect1_backgroundBlur"/>
<feColorMatrix in="SourceAlpha" type="matrix" values="0 0 0 0 0 0 0 0 0 0 0 0 0 0 0 0 0 0 127 0" result="hardAlpha"/>
<feOffset dx="6" dy="16"/>
<feGaussianBlur stdDeviation="20"/>
<feColorMatrix type="matrix" values="0 0 0 0 0.675 0 0 0 0 0.455345 0 0 0 0 0.151875 0 0 0 0.11 0"/>
<feBlend mode="normal" in2="effect1_backgroundBlur" result="effect2_dropShadow"/>
<feBlend mode="normal" in="SourceGraphic" in2="effect2_dropShadow" result="shape"/>
<feColorMatrix in="SourceAlpha" type="matrix" values="0 0 0 0 0 0 0 0 0 0 0 0 0 0 0 0 0 0 127 0" result="hardAlpha"/>
<feOffset dy="10"/>
<feGaussianBlur stdDeviation="5"/>
<feComposite in2="hardAlpha" operator="arithmetic" k2="-1" k3="1"/>
<feColorMatrix type="matrix" values="0 0 0 0 1 0 0 0 0 1 0 0 0 0 1 0 0 0 0.15 0"/>
<feBlend mode="normal" in2="shape" result="effect3_innerShadow"/>
<feColorMatrix in="SourceAlpha" type="matrix" values="0 0 0 0 0 0 0 0 0 0 0 0 0 0 0 0 0 0 127 0" result="hardAlpha"/>
<feOffset dy="-10"/>
<feGaussianBlur stdDeviation="6"/>
<feComposite in2="hardAlpha" operator="arithmetic" k2="-1" k3="1"/>
<feColorMatrix type="matrix" values="0 0 0 0 0.984314 0 0 0 0 0.65098 0 0 0 0 0.27451 0 0 0 0.22 0"/>
<feBlend mode="normal" in2="effect3_innerShadow" result="effect4_innerShadow"/>
<feColorMatrix in="SourceAlpha" type="matrix" values="0 0 0 0 0 0 0 0 0 0 0 0 0 0 0 0 0 0 127 0" result="hardAlpha"/>
<feOffset dy="-10"/>
<feGaussianBlur stdDeviation="5"/>
<feComposite in2="hardAlpha" operator="arithmetic" k2="-1" k3="1"/>
<feColorMatrix type="matrix" values="0 0 0 0 1 0 0 0 0 0.670333 0 0 0 0 0.283333 0 0 0 0.15 0"/>
<feBlend mode="normal" in2="effect4_innerShadow" result="effect5_innerShadow"/>
</filter>
<filter id="filter4_bdiii" x="141.45" y="256.177" width="111.283" height="85.9722" filterUnits="userSpaceOnUse" color-interpolation-filters="sRGB">
<feFlood flood-opacity="0" result="BackgroundImageFix"/>
<feGaussianBlur in="BackgroundImage" stdDeviation="10"/>
<feComposite in2="SourceAlpha" operator="in" result="effect1_backgroundBlur"/>
<feColorMatrix in="SourceAlpha" type="matrix" values="0 0 0 0 0 0 0 0 0 0 0 0 0 0 0 0 0 0 127 0" result="hardAlpha"/>
<feOffset dx="6" dy="16"/>
<feGaussianBlur stdDeviation="20"/>
<feColorMatrix type="matrix" values="0 0 0 0 0.675 0 0 0 0 0.455345 0 0 0 0 0.151875 0 0 0 0.11 0"/>
<feBlend mode="normal" in2="effect1_backgroundBlur" result="effect2_dropShadow"/>
<feBlend mode="normal" in="SourceGraphic" in2="effect2_dropShadow" result="shape"/>
<feColorMatrix in="SourceAlpha" type="matrix" values="0 0 0 0 0 0 0 0 0 0 0 0 0 0 0 0 0 0 127 0" result="hardAlpha"/>
<feOffset dy="10"/>
<feGaussianBlur stdDeviation="5"/>
<feComposite in2="hardAlpha" operator="arithmetic" k2="-1" k3="1"/>
<feColorMatrix type="matrix" values="0 0 0 0 1 0 0 0 0 1 0 0 0 0 1 0 0 0 0.15 0"/>
<feBlend mode="normal" in2="shape" result="effect3_innerShadow"/>
<feColorMatrix in="SourceAlpha" type="matrix" values="0 0 0 0 0 0 0 0 0 0 0 0 0 0 0 0 0 0 127 0" result="hardAlpha"/>
<feOffset dy="-10"/>
<feGaussianBlur stdDeviation="6"/>
<feComposite in2="hardAlpha" operator="arithmetic" k2="-1" k3="1"/>
<feColorMatrix type="matrix" values="0 0 0 0 0.984314 0 0 0 0 0.65098 0 0 0 0 0.27451 0 0 0 0.22 0"/>
<feBlend mode="normal" in2="effect3_innerShadow" result="effect4_innerShadow"/>
<feColorMatrix in="SourceAlpha" type="matrix" values="0 0 0 0 0 0 0 0 0 0 0 0 0 0 0 0 0 0 127 0" result="hardAlpha"/>
<feOffset dy="-10"/>
<feGaussianBlur stdDeviation="5"/>
<feComposite in2="hardAlpha" operator="arithmetic" k2="-1" k3="1"/>
<feColorMatrix type="matrix" values="0 0 0 0 1 0 0 0 0 0.670333 0 0 0 0 0.283333 0 0 0 0.15 0"/>
<feBlend mode="normal" in2="effect4_innerShadow" result="effect5_innerShadow"/>
</filter>
<filter id="filter5_bdiii" x="160.283" y="313.838" width="107.884" height="98.6401" filterUnits="userSpaceOnUse" color-interpolation-filters="sRGB">
<feFlood flood-opacity="0" result="BackgroundImageFix"/>
<feGaussianBlur in="BackgroundImage" stdDeviation="10"/>
<feComposite in2="SourceAlpha" operator="in" result="effect1_backgroundBlur"/>
<feColorMatrix in="SourceAlpha" type="matrix" values="0 0 0 0 0 0 0 0 0 0 0 0 0 0 0 0 0 0 127 0" result="hardAlpha"/>
<feOffset dx="6" dy="16"/>
<feGaussianBlur stdDeviation="20"/>
<feColorMatrix type="matrix" values="0 0 0 0 0.675 0 0 0 0 0.455345 0 0 0 0 0.151875 0 0 0 0.11 0"/>
<feBlend mode="normal" in2="effect1_backgroundBlur" result="effect2_dropShadow"/>
<feBlend mode="normal" in="SourceGraphic" in2="effect2_dropShadow" result="shape"/>
<feColorMatrix in="SourceAlpha" type="matrix" values="0 0 0 0 0 0 0 0 0 0 0 0 0 0 0 0 0 0 127 0" result="hardAlpha"/>
<feOffset dy="10"/>
<feGaussianBlur stdDeviation="5"/>
<feComposite in2="hardAlpha" operator="arithmetic" k2="-1" k3="1"/>
<feColorMatrix type="matrix" values="0 0 0 0 1 0 0 0 0 1 0 0 0 0 1 0 0 0 0.15 0"/>
<feBlend mode="normal" in2="shape" result="effect3_innerShadow"/>
<feColorMatrix in="SourceAlpha" type="matrix" values="0 0 0 0 0 0 0 0 0 0 0 0 0 0 0 0 0 0 127 0" result="hardAlpha"/>
<feOffset dy="-10"/>
<feGaussianBlur stdDeviation="6"/>
<feComposite in2="hardAlpha" operator="arithmetic" k2="-1" k3="1"/>
<feColorMatrix type="matrix" values="0 0 0 0 0.984314 0 0 0 0 0.65098 0 0 0 0 0.27451 0 0 0 0.22 0"/>
<feBlend mode="normal" in2="effect3_innerShadow" result="effect4_innerShadow"/>
<feColorMatrix in="SourceAlpha" type="matrix" values="0 0 0 0 0 0 0 0 0 0 0 0 0 0 0 0 0 0 127 0" result="hardAlpha"/>
<feOffset dy="-10"/>
<feGaussianBlur stdDeviation="5"/>
<feComposite in2="hardAlpha" operator="arithmetic" k2="-1" k3="1"/>
<feColorMatrix type="matrix" values="0 0 0 0 1 0 0 0 0 0.670333 0 0 0 0 0.283333 0 0 0 0.15 0"/>
<feBlend mode="normal" in2="effect4_innerShadow" result="effect5_innerShadow"/>
</filter>
<filter id="filter6_bdiii" x="339.667" y="134.404" width="98.593" height="107.895" filterUnits="userSpaceOnUse" color-interpolation-filters="sRGB">
<feFlood flood-opacity="0" result="BackgroundImageFix"/>
<feGaussianBlur in="BackgroundImage" stdDeviation="10"/>
<feComposite in2="SourceAlpha" operator="in" result="effect1_backgroundBlur"/>
<feColorMatrix in="SourceAlpha" type="matrix" values="0 0 0 0 0 0 0 0 0 0 0 0 0 0 0 0 0 0 127 0" result="hardAlpha"/>
<feOffset dx="6" dy="16"/>
<feGaussianBlur stdDeviation="20"/>
<feColorMatrix type="matrix" values="0 0 0 0 0.675 0 0 0 0 0.455345 0 0 0 0 0.151875 0 0 0 0.11 0"/>
<feBlend mode="normal" in2="effect1_backgroundBlur" result="effect2_dropShadow"/>
<feBlend mode="normal" in="SourceGraphic" in2="effect2_dropShadow" result="shape"/>
<feColorMatrix in="SourceAlpha" type="matrix" values="0 0 0 0 0 0 0 0 0 0 0 0 0 0 0 0 0 0 127 0" result="hardAlpha"/>
<feOffset dy="10"/>
<feGaussianBlur stdDeviation="5"/>
<feComposite in2="hardAlpha" operator="arithmetic" k2="-1" k3="1"/>
<feColorMatrix type="matrix" values="0 0 0 0 1 0 0 0 0 1 0 0 0 0 1 0 0 0 0.15 0"/>
<feBlend mode="normal" in2="shape" result="effect3_innerShadow"/>
<feColorMatrix in="SourceAlpha" type="matrix" values="0 0 0 0 0 0 0 0 0 0 0 0 0 0 0 0 0 0 127 0" result="hardAlpha"/>
<feOffset dy="-10"/>
<feGaussianBlur stdDeviation="6"/>
<feComposite in2="hardAlpha" operator="arithmetic" k2="-1" k3="1"/>
<feColorMatrix type="matrix" values="0 0 0 0 0.984314 0 0 0 0 0.65098 0 0 0 0 0.27451 0 0 0 0.22 0"/>
<feBlend mode="normal" in2="effect3_innerShadow" result="effect4_innerShadow"/>
<feColorMatrix in="SourceAlpha" type="matrix" values="0 0 0 0 0 0 0 0 0 0 0 0 0 0 0 0 0 0 127 0" result="hardAlpha"/>
<feOffset dy="-10"/>
<feGaussianBlur stdDeviation="5"/>
<feComposite in2="hardAlpha" operator="arithmetic" k2="-1" k3="1"/>
<feColorMatrix type="matrix" values="0 0 0 0 1 0 0 0 0 0.670333 0 0 0 0 0.283333 0 0 0 0.15 0"/>
<feBlend mode="normal" in2="effect4_innerShadow" result="effect5_innerShadow"/>
</filter>
<filter id="filter7_bdiii" x="381.833" y="185.885" width="107.883" height="98.6393" filterUnits="userSpaceOnUse" color-interpolation-filters="sRGB">
<feFlood flood-opacity="0" result="BackgroundImageFix"/>
<feGaussianBlur in="BackgroundImage" stdDeviation="10"/>
<feComposite in2="SourceAlpha" operator="in" result="effect1_backgroundBlur"/>
<feColorMatrix in="SourceAlpha" type="matrix" values="0 0 0 0 0 0 0 0 0 0 0 0 0 0 0 0 0 0 127 0" result="hardAlpha"/>
<feOffset dx="6" dy="16"/>
<feGaussianBlur stdDeviation="20"/>
<feColorMatrix type="matrix" values="0 0 0 0 0.675 0 0 0 0 0.455345 0 0 0 0 0.151875 0 0 0 0.11 0"/>
<feBlend mode="normal" in2="effect1_backgroundBlur" result="effect2_dropShadow"/>
<feBlend mode="normal" in="SourceGraphic" in2="effect2_dropShadow" result="shape"/>
<feColorMatrix in="SourceAlpha" type="matrix" values="0 0 0 0 0 0 0 0 0 0 0 0 0 0 0 0 0 0 127 0" result="hardAlpha"/>
<feOffset dy="10"/>
<feGaussianBlur stdDeviation="5"/>
<feComposite in2="hardAlpha" operator="arithmetic" k2="-1" k3="1"/>
<feColorMatrix type="matrix" values="0 0 0 0 1 0 0 0 0 1 0 0 0 0 1 0 0 0 0.15 0"/>
<feBlend mode="normal" in2="shape" result="effect3_innerShadow"/>
<feColorMatrix in="SourceAlpha" type="matrix" values="0 0 0 0 0 0 0 0 0 0 0 0 0 0 0 0 0 0 127 0" result="hardAlpha"/>
<feOffset dy="-10"/>
<feGaussianBlur stdDeviation="6"/>
<feComposite in2="hardAlpha" operator="arithmetic" k2="-1" k3="1"/>
<feColorMatrix type="matrix" values="0 0 0 0 0.984314 0 0 0 0 0.65098 0 0 0 0 0.27451 0 0 0 0.22 0"/>
<feBlend mode="normal" in2="effect3_innerShadow" result="effect4_innerShadow"/>
<feColorMatrix in="SourceAlpha" type="matrix" values="0 0 0 0 0 0 0 0 0 0 0 0 0 0 0 0 0 0 127 0" result="hardAlpha"/>
<feOffset dy="-10"/>
<feGaussianBlur stdDeviation="5"/>
<feComposite in2="hardAlpha" operator="arithmetic" k2="-1" k3="1"/>
<feColorMatrix type="matrix" values="0 0 0 0 1 0 0 0 0 0.670333 0 0 0 0 0.283333 0 0 0 0.15 0"/>
<feBlend mode="normal" in2="effect4_innerShadow" result="effect5_innerShadow"/>
</filter>
<filter id="filter8_bdiii" x="397.267" y="256.213" width="111.282" height="85.9722" filterUnits="userSpaceOnUse" color-interpolation-filters="sRGB">
<feFlood flood-opacity="0" result="BackgroundImageFix"/>
<feGaussianBlur in="BackgroundImage" stdDeviation="10"/>
<feComposite in2="SourceAlpha" operator="in" result="effect1_backgroundBlur"/>
<feColorMatrix in="SourceAlpha" type="matrix" values="0 0 0 0 0 0 0 0 0 0 0 0 0 0 0 0 0 0 127 0" result="hardAlpha"/>
<feOffset dx="6" dy="16"/>
<feGaussianBlur stdDeviation="20"/>
<feColorMatrix type="matrix" values="0 0 0 0 0.675 0 0 0 0 0.455345 0 0 0 0 0.151875 0 0 0 0.11 0"/>
<feBlend mode="normal" in2="effect1_backgroundBlur" result="effect2_dropShadow"/>
<feBlend mode="normal" in="SourceGraphic" in2="effect2_dropShadow" result="shape"/>
<feColorMatrix in="SourceAlpha" type="matrix" values="0 0 0 0 0 0 0 0 0 0 0 0 0 0 0 0 0 0 127 0" result="hardAlpha"/>
<feOffset dy="10"/>
<feGaussianBlur stdDeviation="5"/>
<feComposite in2="hardAlpha" operator="arithmetic" k2="-1" k3="1"/>
<feColorMatrix type="matrix" values="0 0 0 0 1 0 0 0 0 1 0 0 0 0 1 0 0 0 0.15 0"/>
<feBlend mode="normal" in2="shape" result="effect3_innerShadow"/>
<feColorMatrix in="SourceAlpha" type="matrix" values="0 0 0 0 0 0 0 0 0 0 0 0 0 0 0 0 0 0 127 0" result="hardAlpha"/>
<feOffset dy="-10"/>
<feGaussianBlur stdDeviation="6"/>
<feComposite in2="hardAlpha" operator="arithmetic" k2="-1" k3="1"/>
<feColorMatrix type="matrix" values="0 0 0 0 0.984314 0 0 0 0 0.65098 0 0 0 0 0.27451 0 0 0 0.22 0"/>
<feBlend mode="normal" in2="effect3_innerShadow" result="effect4_innerShadow"/>
<feColorMatrix in="SourceAlpha" type="matrix" values="0 0 0 0 0 0 0 0 0 0 0 0 0 0 0 0 0 0 127 0" result="hardAlpha"/>
<feOffset dy="-10"/>
<feGaussianBlur stdDeviation="5"/>
<feComposite in2="hardAlpha" operator="arithmetic" k2="-1" k3="1"/>
<feColorMatrix type="matrix" values="0 0 0 0 1 0 0 0 0 0.670333 0 0 0 0 0.283333 0 0 0 0.15 0"/>
<feBlend mode="normal" in2="effect4_innerShadow" result="effect5_innerShadow"/>
</filter>
<filter id="filter9_bdiii" x="381.796" y="313.839" width="107.884" height="98.6396" filterUnits="userSpaceOnUse" color-interpolation-filters="sRGB">
<feFlood flood-opacity="0" result="BackgroundImageFix"/>
<feGaussianBlur in="BackgroundImage" stdDeviation="10"/>
<feComposite in2="SourceAlpha" operator="in" result="effect1_backgroundBlur"/>
<feColorMatrix in="SourceAlpha" type="matrix" values="0 0 0 0 0 0 0 0 0 0 0 0 0 0 0 0 0 0 127 0" result="hardAlpha"/>
<feOffset dx="6" dy="16"/>
<feGaussianBlur stdDeviation="20"/>
<feColorMatrix type="matrix" values="0 0 0 0 0.675 0 0 0 0 0.455345 0 0 0 0 0.151875 0 0 0 0.11 0"/>
<feBlend mode="normal" in2="effect1_backgroundBlur" result="effect2_dropShadow"/>
<feBlend mode="normal" in="SourceGraphic" in2="effect2_dropShadow" result="shape"/>
<feColorMatrix in="SourceAlpha" type="matrix" values="0 0 0 0 0 0 0 0 0 0 0 0 0 0 0 0 0 0 127 0" result="hardAlpha"/>
<feOffset dy="10"/>
<feGaussianBlur stdDeviation="5"/>
<feComposite in2="hardAlpha" operator="arithmetic" k2="-1" k3="1"/>
<feColorMatrix type="matrix" values="0 0 0 0 1 0 0 0 0 1 0 0 0 0 1 0 0 0 0.15 0"/>
<feBlend mode="normal" in2="shape" result="effect3_innerShadow"/>
<feColorMatrix in="SourceAlpha" type="matrix" values="0 0 0 0 0 0 0 0 0 0 0 0 0 0 0 0 0 0 127 0" result="hardAlpha"/>
<feOffset dy="-10"/>
<feGaussianBlur stdDeviation="6"/>
<feComposite in2="hardAlpha" operator="arithmetic" k2="-1" k3="1"/>
<feColorMatrix type="matrix" values="0 0 0 0 0.984314 0 0 0 0 0.65098 0 0 0 0 0.27451 0 0 0 0.22 0"/>
<feBlend mode="normal" in2="effect3_innerShadow" result="effect4_innerShadow"/>
<feColorMatrix in="SourceAlpha" type="matrix" values="0 0 0 0 0 0 0 0 0 0 0 0 0 0 0 0 0 0 127 0" result="hardAlpha"/>
<feOffset dy="-10"/>
<feGaussianBlur stdDeviation="5"/>
<feComposite in2="hardAlpha" operator="arithmetic" k2="-1" k3="1"/>
<feColorMatrix type="matrix" values="0 0 0 0 1 0 0 0 0 0.670333 0 0 0 0 0.283333 0 0 0 0.15 0"/>
<feBlend mode="normal" in2="effect4_innerShadow" result="effect5_innerShadow"/>
</filter>
<filter id="filter10_f" x="272.655" y="291.646" width="51.1565" height="73.3937" filterUnits="userSpaceOnUse" color-interpolation-filters="sRGB">
<feFlood flood-opacity="0" result="BackgroundImageFix"/>
<feBlend mode="normal" in="SourceGraphic" in2="BackgroundImageFix" result="shape"/>
<feGaussianBlur stdDeviation="4.5" result="effect1_foregroundBlur"/>
</filter>
<filter id="filter11_f" x="315.217" y="292.697" width="51.1597" height="73.3929" filterUnits="userSpaceOnUse" color-interpolation-filters="sRGB">
<feFlood flood-opacity="0" result="BackgroundImageFix"/>
<feBlend mode="normal" in="SourceGraphic" in2="BackgroundImageFix" result="shape"/>
<feGaussianBlur stdDeviation="4.5" result="effect1_foregroundBlur"/>
</filter>
</defs>
</svg>
