<svg width="545" height="545" viewBox="0 0 545 545" fill="none" xmlns="http://www.w3.org/2000/svg">
<circle cx="272.5" cy="272.5" r="272.5" fill="#567DF4"/>
<path d="M271.852 186.489C274.039 187.752 276.862 187.162 278.24 185.047L283.512 176.958C285.204 174.362 284.482 170.88 281.798 169.328C279.113 167.777 275.714 168.88 274.304 171.638L269.908 180.234C268.759 182.481 269.665 185.225 271.852 186.489Z" fill="#FFD400"/>
<path d="M228.153 174.811C230.68 174.811 232.832 172.886 232.962 170.366L233.461 160.711C233.62 157.628 231.245 154.984 228.153 154.984C225.06 154.984 222.685 157.628 222.844 160.711L223.343 170.366C223.473 172.886 225.625 174.811 228.153 174.811Z" fill="#FFD400"/>
<path d="M184.454 186.489C186.641 185.225 187.546 182.481 186.397 180.234L182.002 171.638C180.591 168.88 177.192 167.777 174.508 169.328C171.823 170.88 171.102 174.362 172.793 176.958L178.065 185.047C179.444 187.162 182.267 187.752 184.454 186.489Z" fill="#FFD400"/>
<path d="M152.476 218.417C153.741 216.233 153.149 213.415 151.032 212.039L142.93 206.775C140.33 205.086 136.842 205.806 135.288 208.486C133.735 211.167 134.84 214.56 137.602 215.969L146.211 220.357C148.462 221.504 151.21 220.6 152.476 218.417Z" fill="#FFD400"/>
<path d="M136.327 257.245C138.851 257.375 140.779 259.524 140.779 262.047C140.779 264.571 138.851 266.72 136.327 266.85L126.658 267.347C123.569 267.506 120.922 265.135 120.922 262.047C120.922 258.96 123.569 256.588 126.658 256.748L136.327 257.245Z" fill="#FFD400"/>
<path d="M277.945 208.103C264.853 196.051 247.364 188.689 228.153 188.689C187.575 188.689 154.68 221.533 154.68 262.048C154.68 265.008 154.855 267.928 155.197 270.797C167.071 263.044 181.264 258.537 196.511 258.537C202.694 258.537 208.712 259.28 214.477 260.684C227.24 235.381 250.182 216.062 277.945 208.103Z" fill="#FFD400"/>
<path d="M189.087 391.719C151.44 391.719 120.922 361.118 120.922 323.371C120.922 285.623 151.44 255.023 189.087 255.023C197.25 255.023 205.078 256.462 212.332 259.1C226.645 223.998 261.042 199.266 301.201 199.266C354.204 199.266 397.171 242.348 397.171 295.492C397.171 297.833 397.087 300.155 396.923 302.454C412.951 309.854 424.078 326.101 424.078 344.954C424.078 370.782 403.197 391.719 377.439 391.719H189.087Z" fill="white"/>
</svg>
