<svg width="40" height="40" viewBox="0 0 40 40" fill="none" xmlns="http://www.w3.org/2000/svg">
<rect x="1" y="1" width="38" height="38" rx="19" fill="white"/>
<g clip-path="url(#clip0_927_294135)">
<path d="M19.9974 11.6615C24.5998 11.6615 28.3307 15.3924 28.3307 19.9948C28.3307 24.5972 24.5998 28.3281 19.9974 28.3281C15.395 28.3281 11.6641 24.5972 11.6641 19.9948C11.6641 15.3924 15.395 11.6615 19.9974 11.6615Z" stroke="#344054" stroke-width="1.66667" stroke-linecap="round" stroke-linejoin="round"/>
<path d="M20 23.3281V19.9948" stroke="#344054" stroke-width="1.66667" stroke-linecap="round" stroke-linejoin="round"/>
<path d="M20 16.6641H20.01" stroke="#344054" stroke-width="1.66667" stroke-linecap="round" stroke-linejoin="round"/>
</g>
<path d="M20 33.3203C27.3566 33.3203 33.3203 27.3566 33.3203 20C33.3203 12.6434 27.3566 6.67969 20 6.67969C12.6434 6.67969 6.67969 12.6434 6.67969 20C6.67969 27.3566 12.6434 33.3203 20 33.3203Z" stroke="#D0D5DD" stroke-width="1.67" stroke-linecap="round" stroke-linejoin="round"/>
<rect x="1" y="1" width="38" height="38" rx="19" stroke="#EAECF0" stroke-width="1.67"/>
<defs>
<clipPath id="clip0_927_294135">
<rect width="20" height="20" fill="white" transform="matrix(1 0 0 -1 10 30)"/>
</clipPath>
</defs>
</svg>
