<svg xmlns="http://www.w3.org/2000/svg" width="24" height="25" viewBox="0 0 24 25" fill="none">
  <path d="M4.94922 4.29883V7.81683C4.94922 8.58836 5.28196 9.3283 5.87423 9.87386C6.46651 10.4194 7.26981 10.7259 8.10742 10.7259H15.121" stroke="#667085" stroke-width="2" stroke-linecap="round" stroke-linejoin="round"/>
  <path d="M4.94922 8.15234V16.3525C4.94922 17.1241 5.28196 17.864 5.87423 18.4096C6.46651 18.9551 7.26981 19.2616 8.10742 19.2616H15.1189" stroke="#667085" stroke-width="2" stroke-linecap="round" stroke-linejoin="round"/>
  <path d="M17.4092 12.3652C18.3147 12.3652 19.0488 11.6311 19.0488 10.7256C19.0488 9.82003 18.3147 9.08594 17.4092 9.08594C16.5036 9.08594 15.7695 9.82003 15.7695 10.7256C15.7695 11.6311 16.5036 12.3652 17.4092 12.3652Z" stroke="#667085" stroke-width="2" stroke-linecap="round" stroke-linejoin="round"/>
  <path d="M17.4092 20.9014C18.3147 20.9014 19.0488 20.1673 19.0488 19.2617C19.0488 18.3562 18.3147 17.6221 17.4092 17.6221C16.5036 17.6221 15.7695 18.3562 15.7695 19.2617C15.7695 20.1673 16.5036 20.9014 17.4092 20.9014Z" stroke="#667085" stroke-width="2" stroke-linecap="round" stroke-linejoin="round"/>
</svg>