<svg width="32" height="32" viewBox="0 0 32 32" fill="none" xmlns="http://www.w3.org/2000/svg">
<path fill-rule="evenodd" clip-rule="evenodd" d="M16.6901 3.12111C18.5521 3.11793 20.3892 3.54703 22.057 4.37462C23.7253 5.2025 25.1788 6.40654 26.3025 7.89185C27.4263 9.37716 28.1897 11.1032 28.5327 12.9338C28.8756 14.7645 28.7889 16.6498 28.2789 18.4412C27.7692 20.2325 26.8501 21.881 25.5946 23.2567C24.3391 24.6324 22.7812 25.6978 21.0437 26.3687C19.3063 27.0397 17.4367 27.298 15.5825 27.1233C13.9504 26.9695 12.3693 26.4841 10.9355 25.6991L6.8678 27.6369C5.16745 28.4468 3.39223 26.6719 4.20191 24.9714L6.13907 20.9029C5.21971 19.2242 4.71323 17.3469 4.66627 15.427C4.61385 13.2839 5.13591 11.1658 6.17828 9.29254C7.22065 7.41927 8.74534 5.85908 10.5941 4.77388C12.4423 3.68903 14.5471 3.11838 16.6901 3.12111ZM16.6901 3.12111C16.6908 3.12111 16.6916 3.12111 16.6922 3.12111L16.6905 4.32111L16.6882 3.12111C16.6889 3.12111 16.6895 3.12111 16.6901 3.12111ZM20.9901 6.52449C19.6548 5.8618 18.1836 5.51831 16.6927 5.52111H16.6887C14.9733 5.51865 13.2884 5.97529 11.809 6.84366C10.3296 7.71204 9.10958 8.9605 8.27547 10.4595C7.44135 11.9585 7.02361 13.6534 7.06555 15.3683C7.1075 17.0833 7.60761 18.7557 8.51401 20.2121C8.73011 20.5594 8.75448 20.9927 8.57865 21.362L6.85351 24.9852L10.4759 23.2596C10.8451 23.0837 11.2785 23.1081 11.6258 23.3241C12.8918 24.1114 14.3233 24.5941 15.8076 24.734C17.2919 24.8738 18.7884 24.6669 20.1791 24.13C21.57 23.5929 22.8169 22.7401 23.822 21.6389C24.8269 20.5377 25.5625 19.2181 25.9706 17.7842C26.3788 16.3503 26.4482 14.8412 26.1737 13.3758C25.8991 11.9104 25.2881 10.5288 24.3885 9.3399C23.489 8.15097 22.3257 7.18718 20.9901 6.52449Z" fill="#475467"/>
<path fill-rule="evenodd" clip-rule="evenodd" d="M17.9891 10.3992C17.9891 9.73648 17.4518 9.19922 16.7891 9.19922C16.1263 9.19922 15.5891 9.73648 15.5891 10.3992V13.9992H11.9891C11.3263 13.9992 10.7891 14.5365 10.7891 15.1992C10.7891 15.862 11.3263 16.3992 11.9891 16.3992H15.5891V19.9992C15.5891 20.6619 16.1263 21.1992 16.7891 21.1992C17.4518 21.1992 17.9891 20.6619 17.9891 19.9992V16.3992H21.5891C22.2518 16.3992 22.7891 15.862 22.7891 15.1992C22.7891 14.5365 22.2518 13.9992 21.5891 13.9992H17.9891V10.3992Z" fill="#475467"/>
</svg>
