<svg xmlns="http://www.w3.org/2000/svg" width="24" height="25" viewBox="0 0 24 25" fill="none">
  <path d="M3.5 21.0339L8.5 16.0339M8.5 16.0339L12.456 19.9899C12.5716 20.1053 12.7138 20.1907 12.87 20.2386C13.0263 20.2864 13.1919 20.2952 13.3523 20.2642C13.5127 20.2332 13.6631 20.1634 13.7903 20.0608C13.9176 19.9583 14.0177 19.8261 14.082 19.6759L16.337 14.4149C16.3887 14.2941 16.4637 14.1846 16.5578 14.0928C16.6518 14.001 16.763 13.9287 16.885 13.8799L20.092 12.5969C20.2456 12.5354 20.3815 12.4368 20.4876 12.3099C20.5937 12.183 20.6666 12.0318 20.6999 11.8698C20.7332 11.7078 20.7258 11.54 20.6784 11.3816C20.6309 11.2231 20.5449 11.0789 20.428 10.9619L13.572 4.10587C13.455 3.989 13.3108 3.90298 13.1523 3.85552C12.9939 3.80806 12.8261 3.80065 12.6641 3.83395C12.5021 3.86724 12.3508 3.94021 12.224 4.0463C12.0971 4.1524 11.9985 4.28831 11.937 4.44187L10.654 7.64887C10.6052 7.77089 10.5328 7.88209 10.441 7.97612C10.3492 8.07015 10.2398 8.14516 10.119 8.19687L4.858 10.4519C4.70778 10.5162 4.57561 10.6163 4.47304 10.7435C4.37048 10.8707 4.30065 11.0211 4.26967 11.1816C4.23868 11.342 4.24749 11.5076 4.29531 11.6639C4.34314 11.8201 4.42852 11.9623 4.544 12.0779L8.5 16.0339Z" stroke="#48BF84" stroke-width="2" stroke-linecap="round" stroke-linejoin="round"/>
</svg>