<svg width="32" height="33" viewBox="0 0 32 33" fill="none" xmlns="http://www.w3.org/2000/svg">
<path d="M24 28.0547L16 23.0547L8 28.0547V6.05469C8 5.78947 8.10536 5.53512 8.29289 5.34758C8.48043 5.16004 8.73478 5.05469 9 5.05469H23C23.2652 5.05469 23.5196 5.16004 23.7071 5.34758C23.8946 5.53512 24 5.78947 24 6.05469V28.0547Z" stroke="black" stroke-opacity="0.74" stroke-width="1.5" stroke-linecap="round" stroke-linejoin="round"/>
<path d="M11.04 12.1347H15.432V13.3347H11.04V12.1347ZM14.408 12.7027L15.432 13.3347L13.392 18.0547H12.048L14.408 12.7027ZM15.6786 15.1107C15.6786 14.4974 15.7853 13.9614 15.9986 13.5027C16.2173 13.0387 16.5213 12.676 16.9106 12.4147C17.3 12.1534 17.7506 12.0227 18.2626 12.0227C18.78 12.0227 19.2306 12.1534 19.6146 12.4147C20.004 12.676 20.3053 13.0387 20.5186 13.5027C20.7373 13.9614 20.8466 14.4974 20.8466 15.1107C20.8466 15.7187 20.7426 16.252 20.5346 16.7107C20.332 17.1694 20.0386 17.5267 19.6546 17.7827C19.2706 18.0334 18.8066 18.1587 18.2626 18.1587C17.724 18.1587 17.26 18.0334 16.8706 17.7827C16.4866 17.5267 16.1906 17.1694 15.9826 16.7107C15.78 16.252 15.6786 15.7187 15.6786 15.1107ZM16.9586 15.1107C16.9586 15.532 17.0093 15.8867 17.1106 16.1747C17.2173 16.4574 17.3666 16.6707 17.5586 16.8147C17.756 16.9534 17.9906 17.0227 18.2626 17.0227C18.54 17.0227 18.7746 16.9534 18.9666 16.8147C19.1586 16.6707 19.3053 16.4574 19.4066 16.1747C19.5133 15.8867 19.5666 15.532 19.5666 15.1107C19.5666 14.6734 19.5133 14.3107 19.4066 14.0227C19.3053 13.7347 19.1586 13.5187 18.9666 13.3747C18.7746 13.2307 18.54 13.1587 18.2626 13.1587C17.9906 13.1587 17.756 13.2307 17.5586 13.3747C17.3666 13.5187 17.2173 13.7347 17.1106 14.0227C17.0093 14.3107 16.9586 14.6734 16.9586 15.1107Z" fill="black" fill-opacity="0.74"/>
</svg>
