<svg width="50" height="50" viewBox="0 0 50 50" fill="none" xmlns="http://www.w3.org/2000/svg">
<path d="M40.625 6.25H35.9375V4.6875C35.9375 4.2731 35.7729 3.87567 35.4799 3.58265C35.1868 3.28962 34.7894 3.125 34.375 3.125C33.9606 3.125 33.5632 3.28962 33.2701 3.58265C32.9771 3.87567 32.8125 4.2731 32.8125 4.6875V6.25H17.1875V4.6875C17.1875 4.2731 17.0229 3.87567 16.7299 3.58265C16.4368 3.28962 16.0394 3.125 15.625 3.125C15.2106 3.125 14.8132 3.28962 14.5201 3.58265C14.2271 3.87567 14.0625 4.2731 14.0625 4.6875V6.25H9.375C8.5462 6.25 7.75134 6.57924 7.16529 7.16529C6.57924 7.75134 6.25 8.5462 6.25 9.375V40.625C6.25 41.4538 6.57924 42.2487 7.16529 42.8347C7.75134 43.4208 8.5462 43.75 9.375 43.75H40.625C41.4538 43.75 42.2487 43.4208 42.8347 42.8347C43.4208 42.2487 43.75 41.4538 43.75 40.625V9.375C43.75 8.5462 43.4208 7.75134 42.8347 7.16529C42.2487 6.57924 41.4538 6.25 40.625 6.25V6.25ZM30.8008 33.2617C31.0942 33.558 31.2588 33.9581 31.2588 34.375C31.2588 34.7919 31.0942 35.192 30.8008 35.4883C30.4987 35.7716 30.1016 35.9319 29.6875 35.9375C29.2726 35.9357 28.8742 35.775 28.5742 35.4883L25 31.8945L21.4258 35.4883C21.1237 35.7716 20.7266 35.9319 20.3125 35.9375C19.8976 35.9357 19.4992 35.775 19.1992 35.4883C18.9058 35.192 18.7412 34.7919 18.7412 34.375C18.7412 33.9581 18.9058 33.558 19.1992 33.2617L22.793 29.6875L19.1992 26.1133C18.9501 25.8097 18.8227 25.4243 18.842 25.032C18.8613 24.6397 19.0257 24.2687 19.3035 23.991C19.5812 23.7132 19.9522 23.5488 20.3445 23.5295C20.7368 23.5102 21.1222 23.6376 21.4258 23.8867L25 27.4805L28.5742 23.8867C28.8778 23.6376 29.2632 23.5102 29.6555 23.5295C30.0478 23.5488 30.4188 23.7132 30.6965 23.991C30.9743 24.2687 31.1387 24.6397 31.158 25.032C31.1773 25.4243 31.0499 25.8097 30.8008 26.1133L27.207 29.6875L30.8008 33.2617ZM40.625 15.625H9.375V9.375H14.0625V10.9375C14.0625 11.3519 14.2271 11.7493 14.5201 12.0424C14.8132 12.3354 15.2106 12.5 15.625 12.5C16.0394 12.5 16.4368 12.3354 16.7299 12.0424C17.0229 11.7493 17.1875 11.3519 17.1875 10.9375V9.375H32.8125V10.9375C32.8125 11.3519 32.9771 11.7493 33.2701 12.0424C33.5632 12.3354 33.9606 12.5 34.375 12.5C34.7894 12.5 35.1868 12.3354 35.4799 12.0424C35.7729 11.7493 35.9375 11.3519 35.9375 10.9375V9.375H40.625V15.625Z" fill="#0D2129"/>
</svg>
