<svg width="50" height="50" viewBox="0 0 50 50" fill="none" xmlns="http://www.w3.org/2000/svg">
<path d="M42.1875 6.25H14.0625C13.6481 6.25 13.2507 6.41462 12.9576 6.70765C12.6646 7.00067 12.5 7.3981 12.5 7.8125C12.5 8.2269 12.6646 8.62433 12.9576 8.91735C13.2507 9.21038 13.6481 9.375 14.0625 9.375H40.625V35.9375C40.625 36.3519 40.7896 36.7493 41.0826 37.0424C41.3757 37.3354 41.7731 37.5 42.1875 37.5C42.6019 37.5 42.9993 37.3354 43.2924 37.0424C43.5854 36.7493 43.75 36.3519 43.75 35.9375V7.8125C43.75 7.3981 43.5854 7.00067 43.2924 6.70765C42.9993 6.41462 42.6019 6.25 42.1875 6.25V6.25Z" fill="#0D2129"/>
<path d="M35.9375 12.5H7.8125C6.94956 12.5 6.25 13.1996 6.25 14.0625V42.1875C6.25 43.0504 6.94956 43.75 7.8125 43.75H35.9375C36.8004 43.75 37.5 43.0504 37.5 42.1875V14.0625C37.5 13.1996 36.8004 12.5 35.9375 12.5Z" fill="#0D2129"/>
</svg>
