<svg width="32" height="33" viewBox="0 0 32 33" fill="none" xmlns="http://www.w3.org/2000/svg">
<path d="M16 10.0547H27C27.2652 10.0547 27.5196 10.16 27.7071 10.3476C27.8946 10.5351 28 10.7895 28 11.0547V25.0547C28 25.3199 27.8946 25.5743 27.7071 25.7618C27.5196 25.9493 27.2652 26.0547 27 26.0547H5C4.73478 26.0547 4.48043 25.9493 4.29289 25.7618C4.10536 25.5743 4 25.3199 4 25.0547V13.0547" stroke="black" stroke-opacity="0.74" stroke-width="1.5" stroke-linecap="round" stroke-linejoin="round"/>
<path d="M11.6625 13.0547H4V8.05469C4 7.78947 4.10536 7.53512 4.29289 7.34758C4.48043 7.16004 4.73478 7.05469 5 7.05469H11.6625C11.8787 7.05558 12.089 7.12566 12.2625 7.25469L16 10.0547L12.2625 12.8547C12.089 12.9837 11.8787 13.0538 11.6625 13.0547V13.0547Z" stroke="black" stroke-opacity="0.74" stroke-width="1.5" stroke-linecap="round" stroke-linejoin="round"/>
</svg>
