<svg width="73" height="73" viewBox="0 0 73 73" fill="none" xmlns="http://www.w3.org/2000/svg">
<path d="M60.5 36.25V66.25H12.5V36.25" stroke="#667085" stroke-width="6" stroke-linecap="round" stroke-linejoin="round"/>
<path d="M66.5 21.25H6.5V36.25H66.5V21.25Z" stroke="#667085" stroke-width="6" stroke-linecap="round" stroke-linejoin="round"/>
<path d="M36.5 66.25V21.25" stroke="#667085" stroke-width="6" stroke-linecap="round" stroke-linejoin="round"/>
<path d="M36.5 21.25H23C21.0109 21.25 19.1032 20.4598 17.6967 19.0533C16.2902 17.6468 15.5 15.7391 15.5 13.75C15.5 11.7609 16.2902 9.85322 17.6967 8.4467C19.1032 7.04018 21.0109 6.25 23 6.25C33.5 6.25 36.5 21.25 36.5 21.25Z" stroke="#667085" stroke-width="6" stroke-linecap="round" stroke-linejoin="round"/>
<path d="M36.5 21.25H50C51.9891 21.25 53.8968 20.4598 55.3033 19.0533C56.7098 17.6468 57.5 15.7391 57.5 13.75C57.5 11.7609 56.7098 9.85322 55.3033 8.4467C53.8968 7.04018 51.9891 6.25 50 6.25C39.5 6.25 36.5 21.25 36.5 21.25Z" stroke="#667085" stroke-width="6" stroke-linecap="round" stroke-linejoin="round"/>
</svg>
