<svg width="46" height="46" viewBox="0 0 46 46" fill="none" xmlns="http://www.w3.org/2000/svg">
<path d="M36.125 21.125H9.875C7.80393 21.125 6.125 22.8039 6.125 24.875V38C6.125 40.0711 7.80393 41.75 9.875 41.75H36.125C38.1961 41.75 39.875 40.0711 39.875 38V24.875C39.875 22.8039 38.1961 21.125 36.125 21.125Z" stroke="#475467" stroke-width="3.75" stroke-linecap="round" stroke-linejoin="round"/>
<path d="M13.625 21.125V13.625C13.625 11.1386 14.6127 8.75403 16.3709 6.99587C18.129 5.23772 20.5136 4.25 23 4.25C25.4864 4.25 27.871 5.23772 29.6291 6.99587C31.3873 8.75403 32.375 11.1386 32.375 13.625V21.125" stroke="#475467" stroke-width="3.75" stroke-linecap="round" stroke-linejoin="round"/>
</svg>
