<svg width="50" height="50" viewBox="0 0 50 50" fill="none" xmlns="http://www.w3.org/2000/svg">
<path d="M32.8125 43.75C32.8125 44.1644 32.6479 44.5618 32.3549 44.8549C32.0618 45.1479 31.6644 45.3125 31.25 45.3125H18.75C18.3356 45.3125 17.9382 45.1479 17.6451 44.8549C17.3521 44.5618 17.1875 44.1644 17.1875 43.75C17.1875 43.3356 17.3521 42.9382 17.6451 42.6451C17.9382 42.3521 18.3356 42.1875 18.75 42.1875H31.25C31.6644 42.1875 32.0618 42.3521 32.3549 42.6451C32.6479 42.9382 32.8125 43.3356 32.8125 43.75ZM45.3125 12.5V34.375C45.3074 35.6166 44.8118 36.8059 43.9339 37.6839C43.0559 38.5618 41.8666 39.0574 40.625 39.0625H9.375C8.13338 39.0574 6.94408 38.5618 6.06612 37.6839C5.18815 36.8059 4.69264 35.6166 4.6875 34.375V12.5C4.69264 11.2584 5.18815 10.0691 6.06612 9.19112C6.94408 8.31315 8.13338 7.81764 9.375 7.8125H40.625C41.8666 7.81764 43.0559 8.31315 43.9339 9.19112C44.8118 10.0691 45.3074 11.2584 45.3125 12.5V12.5ZM32.0312 23.4375C32.0315 23.176 31.9654 22.9187 31.839 22.6898C31.7126 22.4609 31.5301 22.2679 31.3086 22.1289L22.7148 16.6602C22.481 16.5084 22.2105 16.4228 21.9319 16.4125C21.6534 16.4022 21.3772 16.4675 21.1328 16.6016C20.8859 16.7348 20.6795 16.9321 20.5351 17.1727C20.3908 17.4132 20.3139 17.6882 20.3125 17.9688V28.9062C20.3139 29.1868 20.3908 29.4618 20.5351 29.7023C20.6795 29.9429 20.8859 30.1402 21.1328 30.2734C21.3759 30.4117 21.6527 30.4795 21.9322 30.4692C22.2116 30.4588 22.4827 30.3707 22.7148 30.2148L31.3086 24.7461C31.5301 24.6071 31.7126 24.4141 31.839 24.1852C31.9654 23.9563 32.0315 23.699 32.0312 23.4375V23.4375Z" fill="#0D2129"/>
</svg>
