<svg width="50" height="50" viewBox="0 0 50 50" fill="none" xmlns="http://www.w3.org/2000/svg">
<path d="M46.2284 36.724L29.0604 7.03646C28.6494 6.32246 28.0575 5.72939 27.3443 5.31701C26.6311 4.90463 25.8218 4.6875 24.9979 4.6875C24.1741 4.6875 23.3648 4.90463 22.6516 5.31701C21.9384 5.72939 21.3464 6.32246 20.9354 7.03646V7.03646L3.76747 36.724C3.35041 37.4343 3.12877 38.2424 3.12505 39.0662C3.12133 39.8899 3.33566 40.7 3.74628 41.4141C4.1569 42.1282 4.74918 42.721 5.46298 43.1322C6.17678 43.5433 6.98668 43.7583 7.81043 43.7552H42.1854C43.0092 43.7583 43.8191 43.5433 44.5329 43.1322C45.2467 42.721 45.839 42.1282 46.2496 41.4141C46.6602 40.7 46.8745 39.8899 46.8708 39.0662C46.8671 38.2424 46.6455 37.4343 46.2284 36.724V36.724Z" fill="#0D2129"/>
<path d="M30.7205 22.0875L24.0955 28.4125L22.4955 27.2125L28.8955 21.0625L28.7705 22.2875H19.4955V20.1125H30.7205V22.0875ZM24.2955 28.8375H22.4955V27.2125C22.7788 27.0292 23.1288 26.9125 23.5455 26.8625C23.9788 26.7958 24.3955 26.7625 24.7955 26.7625C25.6788 26.7625 26.5038 26.8958 27.2705 27.1625C28.0372 27.4125 28.7122 27.7875 29.2955 28.2875C29.8955 28.7875 30.3538 29.3958 30.6705 30.1125C31.0038 30.8125 31.1705 31.6125 31.1705 32.5125C31.1705 33.7292 30.8872 34.7875 30.3205 35.6875C29.7705 36.5875 29.0038 37.2792 28.0205 37.7625C27.0538 38.2458 25.9622 38.4875 24.7455 38.4875C23.5622 38.4875 22.5122 38.2542 21.5955 37.7875C20.6788 37.3208 19.9538 36.6458 19.4205 35.7625C18.9038 34.8625 18.6455 33.7958 18.6455 32.5625H21.0705C21.0705 33.7292 21.4038 34.6458 22.0705 35.3125C22.7538 35.9625 23.6622 36.2875 24.7955 36.2875C25.9622 36.2875 26.8955 35.9375 27.5955 35.2375C28.3122 34.5375 28.6705 33.6125 28.6705 32.4625C28.6705 31.3792 28.3038 30.5042 27.5705 29.8375C26.8372 29.1708 25.7455 28.8375 24.2955 28.8375Z" fill="white"/>
</svg>
