<svg width="14" height="17" viewBox="0 0 14 17" fill="none" xmlns="http://www.w3.org/2000/svg">
<path d="M13.9721 12.1045C13.6041 12.9192 13.4281 13.2835 12.9555 14.0035C12.2951 15.0091 11.3628 16.2638 10.2102 16.2725C9.18499 16.2811 8.92038 15.6035 7.529 15.6146C6.13761 15.6214 5.84776 16.2848 4.8213 16.2743C3.66869 16.2639 2.78623 15.1334 2.1253 14.1297C0.277302 11.3143 0.0822254 8.01462 1.22438 6.25893C2.03238 5.014 3.31115 4.28293 4.51176 4.28293C5.73453 4.28293 6.50315 4.95493 7.51423 4.95493C8.49515 4.95493 9.09269 4.28108 10.5068 4.28108C11.5764 4.28108 12.7075 4.86385 13.5155 5.86939C10.8718 7.318 11.3013 11.094 13.9721 12.1045ZM9.43361 3.15739C9.94807 2.49708 10.3382 1.56539 10.1967 0.615234C9.3573 0.672465 8.37576 1.20847 7.80223 1.90262C7.28284 2.53462 6.85207 3.4737 7.02007 4.382C7.93576 4.41154 8.88346 3.8657 9.43361 3.15739Z" fill="#898989"/>
</svg>
