<svg xmlns="http://www.w3.org/2000/svg" width="32" height="33" viewBox="0 0 32 33" fill="none">
  <path d="M20.1531 15.6694L20.1438 15.6653L20.1343 15.6615C19.7443 15.5069 19.5 15.1507 19.5 14.7263V13.2887V12.8657L19.0829 12.7956C18.9392 12.7714 18.8018 12.742 18.6706 12.7078L18.6457 12.7013L18.6203 12.6973C17.4239 12.513 16.5 11.4701 16.5 10.2263V5.23633C16.5 3.99741 17.4167 2.95783 18.6063 2.7675L18.6312 2.76353L18.6555 2.75709C19.0763 2.64554 19.5613 2.58496 20.1078 2.58496H25.9538C26.5558 2.58496 27.0828 2.65844 27.5314 2.79239L27.5463 2.79684L27.5615 2.80035C28.043 2.91207 28.4739 3.16481 28.807 3.51393L28.8069 3.51398L28.8133 3.52041C29.0387 3.74833 29.211 4.01641 29.3267 4.3245L29.3267 4.32452L29.3293 4.33124C29.4394 4.61193 29.5 4.91701 29.5 5.23633V10.2363C29.5 11.4675 28.5948 12.5018 27.4159 12.7015L27.3948 12.7051L27.3741 12.7104C26.9591 12.8178 26.4825 12.876 25.9468 12.876H23.8103H23.5923L23.4439 13.0358L21.2349 15.4148C21.2347 15.4149 21.2345 15.4151 21.2344 15.4153C21.0392 15.6236 20.7717 15.7363 20.5 15.7363C20.3741 15.7363 20.2561 15.7152 20.1531 15.6694ZM4.2413 27.5127L4.241 27.5124C2.45582 25.6495 2.49439 23.2584 2.4989 23.0302L2.499 23.0302V23.0203V23.0035C2.49991 21.7785 3.53009 20.7363 4.82 20.7363H16.18C17.4555 20.7363 18.5 21.7731 18.5 23.0533V23.0633H18.4999L18.5001 23.0743C18.5035 23.2303 18.5532 25.6402 16.7583 27.5232C15.4635 28.8772 13.5568 29.6408 11 29.7279V29.7263H10.5C7.6902 29.7263 5.61918 28.953 4.2413 27.5127ZM10.5 17.7363C8.01614 17.7363 6 15.7202 6 13.2363C6 10.7525 8.01614 8.73633 10.5 8.73633C12.9839 8.73633 15 10.7525 15 13.2363C15 15.7202 12.9839 17.7363 10.5 17.7363Z" stroke="black"/>
  <path d="M22.625 5.08789C22.625 4.81175 22.8489 4.58789 23.125 4.58789C23.4011 4.58789 23.625 4.81175 23.625 5.08789V10.5059C23.625 10.782 23.4011 11.0059 23.125 11.0059C22.8489 11.0059 22.625 10.782 22.625 10.5059V5.08789Z" fill="black"/>
  <path d="M25.834 7.29688C26.1101 7.29688 26.334 7.52073 26.334 7.79688C26.334 8.07302 26.1101 8.29688 25.834 8.29688L20.416 8.29687C20.1399 8.29687 19.916 8.07302 19.916 7.79687C19.916 7.52073 20.1399 7.29687 20.416 7.29687L25.834 7.29688Z" fill="black"/>
</svg>