<svg xmlns="http://www.w3.org/2000/svg" width="19" height="19" viewBox="0 0 19 19" fill="none">
  <path fill-rule="evenodd" clip-rule="evenodd" d="M6.20781 0.396325C6.26761 0.403366 7.02392 0.794119 7.88928 1.26584C8.75816 1.73756 9.50744 2.16351 9.55317 2.2128C9.61649 2.27616 9.64111 2.33953 9.63759 2.43458C9.63759 2.52962 9.60945 2.59299 9.53558 2.67044C9.45819 2.74788 9.39839 2.77604 9.30693 2.77604C9.20843 2.77604 8.85666 2.60003 7.75561 2.00158C6.97115 1.57562 6.32389 1.23064 6.32037 1.23768C6.31334 1.2412 5.82086 2.13887 5.22636 3.23368C4.63538 4.3285 4.16049 5.23321 4.17456 5.24729C4.19215 5.26137 4.60724 5.49019 5.09972 5.76125C5.5922 6.0288 7.47771 7.05672 9.28582 8.03889C11.0939 9.02457 12.596 9.83072 12.6241 9.83072C12.6558 9.83424 13.0955 9.06329 13.7569 7.84527C14.3514 6.75046 14.8368 5.85278 14.8333 5.85278C14.8298 5.84926 14.1614 5.48667 13.3523 5.04311C12.5045 4.57844 11.8467 4.19824 11.808 4.14896C11.7588 4.08207 11.7447 4.02575 11.7588 3.92014C11.7729 3.82861 11.8116 3.75117 11.8678 3.69836C11.9288 3.64673 12.0027 3.62092 12.0895 3.62092C12.195 3.62444 12.5608 3.80749 13.8589 4.51859C14.7594 5.00791 15.5298 5.44443 15.5755 5.48315C15.6318 5.53596 15.6529 5.5958 15.6529 5.69789C15.6529 5.81758 15.4489 6.21185 14.3654 8.20786C13.6584 9.50685 13.0463 10.6017 13.0041 10.6333C12.9618 10.6685 12.8704 10.6967 12.8036 10.6967C12.7086 10.6967 12.2829 10.4784 9.26823 8.83447L5.64497 7.69038C3.65041 7.05672 1.95487 6.51812 1.87044 6.48996C1.78954 6.46179 1.69807 6.40195 1.66993 6.35618C1.64179 6.31394 1.61717 6.22241 1.61717 6.15553C1.61717 6.08864 1.97949 4.8847 2.42624 3.4801C3.09461 1.35737 3.24588 0.913809 3.31975 0.846923C3.37603 0.801159 3.45694 0.769477 3.52729 0.769477C3.5871 0.769477 4.04088 0.896207 4.52985 1.0511C5.01529 1.20599 5.42687 1.32568 5.44446 1.31864C5.45853 1.3116 5.5711 1.12151 5.69773 0.892687C5.83844 0.642746 5.96156 0.459691 6.01433 0.431528C6.06358 0.403366 6.148 0.389285 6.20781 0.396325ZM2.91873 4.25457C2.64786 5.11704 2.42273 5.84222 2.41569 5.87038C2.41217 5.90911 2.873 6.06752 4.16752 6.47587C5.1349 6.78214 5.9299 7.02856 5.93342 7.02504C5.93342 7.02152 5.38466 6.71525 4.70573 6.34914C4.01978 5.97599 3.43583 5.63804 3.3901 5.58172C3.34437 5.52892 3.30568 5.44443 3.30568 5.3881C3.30568 5.32826 3.64338 4.66644 4.2027 3.63852C4.69518 2.72676 5.0962 1.98046 5.09268 1.97694C5.08565 1.97342 4.80423 1.88189 4.46653 1.77628C4.12883 1.66715 3.83334 1.57914 3.80871 1.57914C3.78409 1.57914 3.68911 1.81852 3.59061 2.13183C3.49212 2.4381 3.19311 3.3921 2.91873 4.25457ZM1.11765 8.97176H3.69615C5.27209 8.97176 6.42239 8.98584 6.64752 9.01049C6.85155 9.02809 7.16111 9.07737 7.33348 9.1161C7.50585 9.15482 7.7943 9.23579 7.96667 9.29563C8.13904 9.35196 8.45564 9.48925 8.67022 9.59486C8.8848 9.70046 9.16973 9.86592 9.30341 9.95745C9.43708 10.049 9.64463 10.2003 9.76071 10.2989C9.8768 10.394 10.707 11.1684 11.6075 12.0133C12.5081 12.8617 13.2925 13.6291 13.3523 13.7171C13.4156 13.8086 13.493 13.96 13.5282 14.0586C13.5669 14.1677 13.5915 14.3437 13.595 14.819L14.0699 14.7979C14.3302 14.7873 15.28 14.7732 17.8163 14.7626L18.0274 14.8647C18.1435 14.9175 18.3264 15.0478 18.4319 15.1499C18.5375 15.252 18.6676 15.4245 18.7239 15.5336C18.7767 15.6427 18.8365 15.8152 18.8576 15.9138C18.8787 16.0159 18.8892 16.1954 18.8787 16.3116C18.8681 16.4277 18.8259 16.6108 18.7872 16.7164C18.745 16.822 18.6535 16.9875 18.5797 17.086C18.5058 17.1811 18.3616 17.3219 18.256 17.3958C18.1505 17.4698 17.9817 17.5542 17.8867 17.5824C17.7882 17.6106 17.0776 17.7127 16.3037 17.8077C15.5298 17.9028 14.1051 18.0788 13.1377 18.1949C11.6286 18.3815 11.3331 18.4097 11.0447 18.3886C10.8618 18.3745 10.5522 18.3428 10.3587 18.3146C10.1653 18.2865 9.84866 18.2231 9.65518 18.1738C9.46171 18.1245 9.13807 18.0224 8.93405 17.952C8.73002 17.8781 8.38176 17.7267 8.16015 17.6176C7.93853 17.505 7.60434 17.3149 7.42142 17.1952C7.2385 17.072 7.00633 16.91 6.91135 16.8326C6.81285 16.7551 6.01081 16.0792 3.51674 13.9706H2.37348C1.51163 13.9706 1.20207 13.96 1.11413 13.9248C1.05433 13.9002 0.973422 13.8403 0.938245 13.791C0.881961 13.7136 0.878443 13.5517 0.885479 9.21114L1.11765 8.97176ZM1.58199 13.2665C3.73484 13.263 3.74539 13.2665 3.85093 13.344C3.91073 13.3862 4.66 14.0163 5.52185 14.745C6.38369 15.4702 7.16815 16.132 7.26312 16.2095C7.36162 16.2905 7.59731 16.463 7.79078 16.5932C7.98426 16.7199 8.31493 16.91 8.52951 17.0156C8.74409 17.1177 9.10642 17.2656 9.33859 17.343C9.57076 17.4205 9.91901 17.5155 10.1125 17.5542C10.306 17.5965 10.6613 17.6458 10.904 17.6669C11.3296 17.7056 11.3789 17.7021 12.5221 17.5613C13.1694 17.4838 14.4674 17.3219 15.4067 17.2093C16.3459 17.0931 17.2394 16.984 17.3942 16.9628C17.5982 16.9347 17.7178 16.8995 17.8234 16.8291C17.9043 16.7763 18.0133 16.6706 18.0626 16.5932C18.1118 16.5158 18.1611 16.3961 18.1716 16.3292C18.1857 16.2623 18.1857 16.1391 18.1716 16.0546C18.1575 15.9666 18.1048 15.8469 18.0344 15.7554C17.9711 15.6709 17.848 15.5723 17.746 15.5195L17.5701 15.435L13.1729 15.5195C13.0357 15.6462 12.9407 15.7166 12.8739 15.7589C12.8071 15.7976 12.6558 15.8575 12.5397 15.8856C12.4236 15.9173 12.2653 15.9419 12.1879 15.9419C12.1106 15.9419 11.9523 15.9173 11.8362 15.8856C11.6919 15.8504 11.1854 15.5829 10.218 15.0372C9.44412 14.6007 8.76871 14.1994 8.71243 14.1431C8.64559 14.0727 8.61745 14.0023 8.61745 13.9178C8.61745 13.8298 8.64559 13.7664 8.71946 13.689C8.80037 13.608 8.85314 13.5834 8.95867 13.5834C9.06772 13.5834 9.35266 13.7312 10.517 14.393C11.4352 14.9105 11.991 15.2062 12.0824 15.2238C12.1598 15.2344 12.29 15.2273 12.3709 15.2062C12.4694 15.1816 12.5784 15.1147 12.6734 15.0161C12.7824 14.9105 12.8387 14.819 12.8704 14.6922C12.9091 14.5409 12.9056 14.4845 12.8598 14.312L12.8036 14.1114C10.2004 11.6577 9.33155 10.8622 9.19788 10.7566C9.0642 10.6509 8.83907 10.4961 8.70539 10.4151C8.57172 10.3306 8.34659 10.2109 8.21291 10.1511C8.07924 10.0877 7.81541 9.98913 7.63249 9.92928C7.44956 9.86944 7.15408 9.79551 6.98171 9.76031C6.70029 9.70399 6.38017 9.69694 4.12531 9.68638L1.58551 9.6723L1.58199 13.2665ZM6.78823 2.17759C6.85155 2.17759 7.06965 2.27264 7.32644 2.40993C7.56213 2.53666 7.79782 2.68804 7.8541 2.74436C7.92094 2.81477 7.94908 2.88165 7.94908 2.96966C7.94908 3.05767 7.92094 3.12103 7.84707 3.19848C7.76616 3.27945 7.71339 3.30409 7.60786 3.30409C7.51992 3.30057 7.38624 3.2548 7.21036 3.15976C7.06613 3.07879 6.93598 3.02951 6.92191 3.04359C6.91135 3.06119 6.69325 3.45546 6.43998 3.92014C6.19022 4.38482 5.98971 4.77557 6.00026 4.78965C6.0073 4.80725 6.1269 4.87766 6.26761 4.94807C6.4048 5.02199 6.54903 5.12056 6.5842 5.16985C6.61938 5.21913 6.65104 5.31066 6.64752 5.3705C6.64752 5.44443 6.61234 5.52539 6.55254 5.5958C6.47867 5.67325 6.42239 5.70493 6.33093 5.70845C6.23947 5.71197 6.0882 5.64861 5.75402 5.46555C5.50426 5.33178 5.26505 5.18041 5.21932 5.12408C5.17359 5.07128 5.1349 4.98679 5.1349 4.93047C5.1349 4.87414 5.40576 4.34258 5.80678 3.60331C6.17615 2.9239 6.5244 2.32897 6.58069 2.27264C6.644 2.2128 6.72491 2.17759 6.78823 2.17759ZM10.6753 2.84645C10.6964 2.84645 10.7597 2.86053 10.816 2.87813C10.8758 2.89926 10.9497 2.95206 10.9849 3.00134C11.0165 3.05063 11.0447 3.1492 11.0447 3.21608C11.0447 3.30409 11.0165 3.36745 10.9427 3.4449C10.8723 3.51531 10.8055 3.55051 10.7316 3.55051C10.6718 3.55051 10.5839 3.52939 10.5346 3.50475C10.4854 3.48362 10.422 3.4097 10.3939 3.34633C10.3658 3.28649 10.3411 3.21256 10.3411 3.18792C10.3411 3.1668 10.3763 3.09287 10.415 3.02951C10.4572 2.96614 10.5241 2.89926 10.5663 2.88165C10.605 2.86405 10.6577 2.84997 10.6753 2.84645ZM7.43901 4.06095C7.49881 4.07151 7.59027 4.12784 7.64656 4.1912C7.7345 4.28977 7.74505 4.32849 7.72747 4.44818C7.71339 4.53619 7.6747 4.61716 7.61842 4.66644C7.55861 4.71925 7.48122 4.74741 7.3968 4.74741C7.32293 4.74741 7.22795 4.71925 7.18925 4.68404C7.14704 4.65236 7.09427 4.589 7.07317 4.54323C7.05206 4.50099 7.03447 4.43058 7.03447 4.38482C7.03447 4.34258 7.06613 4.26161 7.10483 4.2088C7.14704 4.15248 7.21388 4.09263 7.25609 4.07503C7.2983 4.05743 7.38273 4.05391 7.43901 4.06095ZM9.63759 4.17712C9.72554 4.18768 9.88383 4.22641 9.98937 4.26513C10.0949 4.30737 10.2462 4.38834 10.3236 4.44818C10.4009 4.50803 10.5241 4.63476 10.5944 4.72981C10.6683 4.82838 10.7597 5.01495 10.802 5.15224C10.8653 5.3529 10.8758 5.44443 10.8582 5.66269C10.8442 5.8563 10.809 5.98303 10.7281 6.13793C10.6718 6.2541 10.5874 6.38787 10.5452 6.43715C10.4994 6.48644 10.3869 6.58852 10.2884 6.66245C10.1828 6.7399 10.014 6.82438 9.86625 6.86663C9.67277 6.92295 9.56724 6.93703 9.37376 6.91943C9.19788 6.90183 9.06069 6.86311 8.88128 6.7751C8.72298 6.69765 8.57876 6.59556 8.48026 6.48643C8.39583 6.39139 8.28678 6.22593 8.23402 6.12033C8.15311 5.94783 8.14256 5.88447 8.14256 5.53948C8.14256 5.17337 8.14959 5.14168 8.25161 4.94103C8.31493 4.82486 8.43101 4.6594 8.51544 4.57492C8.59986 4.49043 8.76168 4.37778 8.87425 4.32145C8.9833 4.26513 9.16622 4.20528 9.27878 4.1912C9.38783 4.1736 9.54965 4.17008 9.63759 4.17712ZM8.95164 5.15224C8.86721 5.25785 8.84259 5.32122 8.83203 5.49723C8.82148 5.67677 8.83203 5.74013 8.90239 5.86686C8.94812 5.95135 9.0431 6.05696 9.10993 6.10272C9.17677 6.15201 9.30341 6.19777 9.39135 6.21185C9.48985 6.22593 9.60242 6.21537 9.69036 6.18721C9.76775 6.16257 9.88383 6.09216 9.94715 6.03232C10.0105 5.97599 10.0914 5.8563 10.1195 5.7683C10.1582 5.65917 10.1688 5.5606 10.1512 5.45147C10.1371 5.36346 10.0914 5.24025 10.0492 5.17337C10.007 5.10648 9.90846 5.01495 9.83107 4.97271C9.73257 4.91286 9.63408 4.88822 9.49688 4.88822C9.37376 4.88822 9.25768 4.91286 9.18029 4.95511C9.11345 4.99031 9.01144 5.07832 8.95164 5.15224ZM12.6628 5.34586C12.7121 5.34586 12.9583 5.45499 13.2081 5.59228C13.4614 5.72605 13.6971 5.87038 13.7357 5.91263C13.785 5.96191 13.8061 6.03232 13.8026 6.13089C13.8026 6.2541 13.6865 6.49348 13.1307 7.51084C12.7578 8.18674 12.4166 8.78167 12.3638 8.83095C12.304 8.88728 12.2302 8.91896 12.1598 8.91896C12.0895 8.91544 11.8784 8.82391 11.6075 8.67958C11.3648 8.54933 11.1291 8.405 11.0799 8.35219C11.0165 8.28883 10.9919 8.22194 10.9919 8.12689C10.9919 8.03184 11.0165 7.96496 11.0799 7.89807C11.1291 7.84879 11.2171 7.79951 11.2733 7.78542C11.3578 7.77134 11.4492 7.79951 11.6955 7.92976C11.8714 8.01776 12.0156 8.08817 12.0156 8.08465C12.0191 8.07761 12.2337 7.67277 12.501 7.18345C12.7649 6.69765 12.9794 6.2893 12.9794 6.27874C12.9794 6.26818 12.8493 6.19425 12.6945 6.10976C12.501 6.0112 12.392 5.93023 12.3603 5.86334C12.3322 5.81054 12.3111 5.73309 12.3111 5.68733C12.3146 5.64508 12.3392 5.57116 12.3674 5.52539C12.399 5.47963 12.4588 5.41979 12.4975 5.39514C12.5397 5.3705 12.6136 5.34938 12.6628 5.34586ZM11.5548 6.33154C11.604 6.33154 11.6849 6.35266 11.7412 6.38083C11.794 6.40547 11.8573 6.46883 11.8819 6.52164C11.903 6.57092 11.9241 6.65189 11.9241 6.70117C11.9241 6.75046 11.91 6.82086 11.8889 6.85959C11.8714 6.89831 11.808 6.95463 11.7482 6.9828C11.6919 7.01096 11.604 7.0356 11.5548 7.0356C11.5055 7.0356 11.414 6.98984 11.3542 6.93351C11.2593 6.84903 11.2382 6.80326 11.2382 6.68357C11.2382 6.56036 11.2593 6.51812 11.3542 6.43363C11.4176 6.37731 11.509 6.33154 11.5548 6.33154ZM16.6731 9.09497C17.1726 9.10554 17.3977 9.12314 17.6404 9.17946C17.8163 9.2217 18.0837 9.31323 18.2349 9.38716C18.4108 9.47165 18.5621 9.57021 18.6465 9.66526C18.7239 9.74975 18.8013 9.85536 18.8189 9.90464C18.84 9.95745 18.854 10.5981 18.854 11.5592C18.854 12.5765 18.84 13.1609 18.8154 13.2208C18.7978 13.2771 18.7204 13.3792 18.65 13.4531C18.5797 13.527 18.4565 13.6256 18.3792 13.6714C18.3018 13.7171 18.1188 13.7946 17.9746 13.8439C17.8304 13.8896 17.5595 13.9565 17.3766 13.9847C17.1902 14.0163 16.8278 14.041 16.5499 14.041C16.2791 14.041 15.9167 14.0163 15.7409 13.9882C15.5685 13.96 15.3363 13.9107 15.2308 13.8791C15.1253 13.8474 14.9458 13.777 14.8368 13.7206C14.7242 13.6643 14.5765 13.5657 14.5026 13.5024C14.4323 13.4425 14.3478 13.3264 14.3127 13.2489C14.2529 13.1187 14.2493 12.9814 14.2493 11.5592C14.2493 10.137 14.2529 9.99969 14.3127 9.86944C14.3478 9.79199 14.4358 9.6723 14.5132 9.60894C14.587 9.54205 14.7629 9.43644 14.8966 9.37308C15.0338 9.31323 15.2449 9.23579 15.3715 9.2041C15.4981 9.17242 15.6951 9.1337 15.8112 9.1161C15.9273 9.09497 16.3142 9.08793 16.6731 9.09497ZM15.3891 9.93985C15.2343 9.98913 15.076 10.056 15.0373 10.0842C14.967 10.137 14.967 10.137 15.0549 10.2039C15.1041 10.2391 15.2378 10.3024 15.3539 10.3376C15.47 10.3764 15.6599 10.4256 15.776 10.4468C15.8921 10.4644 16.1313 10.4925 16.3037 10.5031C16.4796 10.5172 16.7856 10.5101 16.9897 10.489C17.1937 10.4679 17.4786 10.4186 17.6228 10.3764C17.7671 10.3376 17.9394 10.2743 18.0028 10.2391C18.0626 10.2003 18.1153 10.1511 18.1153 10.1335C18.1153 10.1123 18.0485 10.0666 17.9676 10.0279C17.8832 9.99265 17.6897 9.92576 17.5349 9.88352C17.3168 9.8272 17.1233 9.80607 16.6731 9.79903C16.3529 9.79199 15.9977 9.79903 15.8816 9.81663C15.7655 9.83424 15.5439 9.89056 15.3891 9.93985ZM14.9494 11.5768C15.2906 11.7352 15.5157 11.8091 15.6705 11.8408C15.8253 11.876 16.1419 11.9077 16.374 11.9182C16.6062 11.9288 16.9298 11.9183 17.0952 11.8971C17.2605 11.876 17.4892 11.8338 17.6053 11.8021C17.7213 11.7739 17.8867 11.7106 17.9746 11.6683L18.1329 11.5909L18.1505 10.9431C17.8374 11.0558 17.6053 11.1121 17.4294 11.1438C17.2148 11.1825 16.9228 11.2001 16.5323 11.2001C16.0786 11.2001 15.8745 11.1825 15.6001 11.1262C15.4067 11.0839 15.1815 11.0276 15.0971 10.9995L14.9458 10.9466L14.9494 11.5768ZM14.967 12.999C15.266 13.1468 15.4805 13.2208 15.6353 13.256C15.8534 13.3052 16.061 13.3193 16.5675 13.3158C17.1233 13.3158 17.264 13.3052 17.5349 13.2384C17.7073 13.1926 17.9148 13.1222 17.9922 13.0799L18.1329 12.999C18.154 12.39 18.1505 12.3688 18.0907 12.3935C18.0555 12.4041 17.9394 12.4428 17.8339 12.4709C17.7284 12.5026 17.4892 12.5519 17.3062 12.5801C17.1233 12.6082 16.7962 12.6329 16.5851 12.6329C16.3705 12.6329 16.0539 12.6153 15.8816 12.5941C15.7057 12.573 15.4348 12.5167 15.273 12.4709C15.1147 12.4252 14.974 12.3864 14.9634 12.3864C14.9529 12.3864 14.9494 12.5237 14.9564 12.6927L14.967 12.999Z" fill="#181818"/>
</svg>