<svg width="32" height="32" viewBox="0 0 32 32" fill="none" xmlns="http://www.w3.org/2000/svg">
<path d="M10.327 3.33301C10.327 3.06779 10.2216 2.81344 10.0341 2.6259C9.84653 2.43836 9.59218 2.33301 9.32696 2.33301C9.06174 2.33301 8.80739 2.43836 8.61985 2.6259C8.43232 2.81344 8.32696 3.06779 8.32696 3.33301V5.43967C6.40696 5.59301 5.14829 5.96901 4.22296 6.89567C3.29629 7.82101 2.92029 9.08101 2.76562 10.9997H29.2216C29.067 9.07967 28.691 7.82101 27.7643 6.89567C26.839 5.96901 25.579 5.59301 23.6603 5.43834V3.33301C23.6603 3.06779 23.5549 2.81344 23.3674 2.6259C23.1799 2.43836 22.9255 2.33301 22.6603 2.33301C22.3951 2.33301 22.1407 2.43836 21.9532 2.6259C21.7656 2.81344 21.6603 3.06779 21.6603 3.33301V5.35034C20.7736 5.33301 19.779 5.33301 18.6603 5.33301H13.327C12.2083 5.33301 11.2136 5.33301 10.327 5.35034V3.33301Z" fill="white"/>
<path fill-rule="evenodd" clip-rule="evenodd" d="M2.6814 13C2.66406 13.8867 2.66406 14.8813 2.66406 16V18.6667C2.66406 23.6947 2.66406 26.2093 4.22673 27.7707C5.78806 29.3333 8.30273 29.3333 13.3307 29.3333H18.6641C19.2015 29.3333 19.7101 29.3333 20.192 29.3314C19.3954 28.2481 18.9248 26.9102 18.9248 25.4625C18.9248 21.8519 21.8518 18.9249 25.4623 18.9249C26.909 18.9249 28.246 19.3948 29.3288 20.1903C29.3307 19.7097 29.3307 19.2025 29.3307 18.6667V16C29.3307 14.8813 29.3307 13.8867 29.3134 13H2.6814ZM23.6069 18.2761C23.3568 18.5262 23.0177 18.6667 22.6641 18.6667C22.3104 18.6667 21.9713 18.5262 21.7213 18.2761C21.4712 18.0261 21.3307 17.687 21.3307 17.3333C21.3307 16.9797 21.4712 16.6406 21.7213 16.3905C21.9713 16.1405 22.3104 16 22.6641 16C23.0177 16 23.3568 16.1405 23.6069 16.3905C23.8569 16.6406 23.9974 16.9797 23.9974 17.3333C23.9974 17.687 23.8569 18.0261 23.6069 18.2761ZM16.9402 18.2761C17.1903 18.0261 17.3307 17.687 17.3307 17.3333C17.3307 16.9797 17.1903 16.6406 16.9402 16.3905C16.6902 16.1405 16.351 16 15.9974 16C15.6438 16 15.3046 16.1405 15.0546 16.3905C14.8045 16.6406 14.6641 16.9797 14.6641 17.3333C14.6641 17.687 14.8045 18.0261 15.0546 18.2761C15.3046 18.5262 15.6438 18.6667 15.9974 18.6667C16.351 18.6667 16.6902 18.5262 16.9402 18.2761ZM16.9402 23.6095C17.1903 23.3594 17.3307 23.0203 17.3307 22.6667C17.3307 22.313 17.1903 21.9739 16.9402 21.7239C16.6902 21.4738 16.351 21.3333 15.9974 21.3333C15.6438 21.3333 15.3046 21.4738 15.0546 21.7239C14.8045 21.9739 14.6641 22.313 14.6641 22.6667C14.6641 23.0203 14.8045 23.3594 15.0546 23.6095C15.3046 23.8595 15.6438 24 15.9974 24C16.351 24 16.6902 23.8595 16.9402 23.6095ZM10.2735 18.2761C10.0235 18.5262 9.68435 18.6667 9.33073 18.6667C8.97711 18.6667 8.63797 18.5262 8.38792 18.2761C8.13787 18.0261 7.9974 17.687 7.9974 17.3333C7.9974 16.9797 8.13787 16.6406 8.38792 16.3905C8.63797 16.1405 8.97711 16 9.33073 16C9.68435 16 10.0235 16.1405 10.2735 16.3905C10.5236 16.6406 10.6641 16.9797 10.6641 17.3333C10.6641 17.687 10.5236 18.0261 10.2735 18.2761ZM10.2735 23.6095C10.0235 23.8595 9.68435 24 9.33073 24C8.97711 24 8.63797 23.8595 8.38792 23.6095C8.13787 23.3594 7.9974 23.0203 7.9974 22.6667C7.9974 22.313 8.13787 21.9739 8.38792 21.7239C8.63797 21.4738 8.97711 21.3333 9.33073 21.3333C9.68435 21.3333 10.0235 21.4738 10.2735 21.7239C10.5236 21.9739 10.6641 22.313 10.6641 22.6667C10.6641 23.0203 10.5236 23.3594 10.2735 23.6095Z" fill="white"/>
<path fill-rule="evenodd" clip-rule="evenodd" d="M25.3278 31.0778C28.4213 31.0778 30.9291 28.57 30.9291 25.4765C30.9291 22.383 28.4213 19.8752 25.3278 19.8752C22.2343 19.8752 19.7266 22.383 19.7266 25.4765C19.7266 28.57 22.2343 31.0778 25.3278 31.0778ZM26.3274 21.9766C26.3274 21.4243 25.8797 20.9766 25.3274 20.9766C24.7751 20.9766 24.3274 21.4243 24.3274 21.9766V22.6481C23.982 22.7702 23.6598 22.9553 23.3781 23.1961L22.7961 22.8604C22.3177 22.5844 21.7062 22.7485 21.4302 23.2268C21.1542 23.7052 21.3183 24.3168 21.7967 24.5927L22.3779 24.9281C22.3445 25.1077 22.3274 25.2913 22.3274 25.4766C22.3274 25.6619 22.3445 25.8454 22.3779 26.025L21.7967 26.3604C21.3183 26.6364 21.1542 27.2479 21.4302 27.7263C21.7062 28.2047 22.3177 28.3687 22.7961 28.0927L23.3781 27.757C23.6598 27.9978 23.982 28.1829 24.3274 28.305V28.9766C24.3274 29.5288 24.7751 29.9766 25.3274 29.9766C25.8797 29.9766 26.3274 29.5288 26.3274 28.9766V28.305C26.6729 28.1828 26.9953 27.9976 27.2771 27.7566L27.8597 28.0927C28.338 28.3687 28.9496 28.2047 29.2256 27.7263C29.5016 27.2479 29.3375 26.6364 28.8591 26.3604L28.2769 26.0245C28.3103 25.845 28.3274 25.6617 28.3274 25.4766C28.3274 25.2913 28.3103 25.1079 28.2769 24.9283L28.8584 24.5926C29.3367 24.3164 29.5006 23.7048 29.2244 23.2266C28.9483 22.7483 28.3367 22.5844 27.8584 22.8605L27.2769 23.1963C26.9951 22.9554 26.6728 22.7703 26.3274 22.6481V21.9766ZM24.4626 24.9763C24.4574 24.9852 24.4521 24.9941 24.4467 25.0028C24.3691 25.1472 24.3274 25.3097 24.3274 25.4766C24.3274 25.6434 24.3691 25.806 24.4467 25.9503C24.4521 25.959 24.4574 25.9679 24.4626 25.9768C24.4676 25.9855 24.4724 25.9941 24.4771 26.0029C24.5174 26.0679 24.5653 26.1287 24.6203 26.1837C24.8078 26.3712 25.0622 26.4766 25.3274 26.4766C25.5926 26.4766 25.847 26.3712 26.0345 26.1837C26.0952 26.123 26.1472 26.0553 26.1899 25.9826L26.1932 25.9768L26.1968 25.9707C26.2816 25.8214 26.3274 25.6513 26.3274 25.4766C26.3274 25.3018 26.2816 25.1317 26.1968 24.9824L26.1934 24.9766L26.19 24.9707C26.1473 24.8979 26.0952 24.8302 26.0345 24.7695C25.847 24.5819 25.5926 24.4766 25.3274 24.4766C25.0622 24.4766 24.8078 24.5819 24.6203 24.7695C24.5653 24.8245 24.5174 24.8852 24.4771 24.9503C24.4724 24.959 24.4676 24.9677 24.4626 24.9763Z" fill="white"/>
</svg>
