<svg xmlns="http://www.w3.org/2000/svg" width="25" height="25" viewBox="0 0 25 25" fill="none">
  <path fill-rule="evenodd" clip-rule="evenodd" d="M12.7773 3.39507C12.8054 3.39155 13.0903 3.40564 13.4104 3.42677C13.7304 3.44438 14.1736 3.4937 14.3951 3.53244C14.6167 3.57119 14.9825 3.64868 15.204 3.70856C15.4256 3.76845 15.7808 3.88116 15.9954 3.95865C16.2099 4.03615 16.5546 4.18409 16.7691 4.28624C16.9836 4.39191 17.3213 4.57507 17.5253 4.69484C17.7292 4.81812 18.0774 5.05412 18.299 5.2232C18.5206 5.38875 18.8512 5.66702 19.034 5.83962C19.2169 6.01221 19.5018 6.31162 19.6671 6.50535C19.8359 6.69908 20.068 6.99144 20.1841 7.15699C20.3037 7.32255 20.483 7.59729 20.7785 8.07634L21.1126 8.07282C21.3728 8.07282 21.4784 8.09043 21.5874 8.14326C21.6718 8.18201 21.7597 8.26303 21.8828 8.47789V16.3328L21.8054 16.4667C21.7597 16.5477 21.6718 16.6287 21.5874 16.6675C21.4784 16.7203 21.3728 16.7379 20.7785 16.7379L20.5534 17.0972C20.4268 17.298 20.2404 17.5798 20.1349 17.7242C20.0258 17.8686 19.8113 18.1363 19.6566 18.3195C19.4983 18.5026 19.2204 18.795 19.0376 18.9676C18.8547 19.1402 18.5206 19.4185 18.299 19.5875C18.0774 19.7566 17.7292 19.9926 17.5253 20.1159C17.3213 20.2357 16.9977 20.4118 16.8043 20.5034C16.6108 20.5985 16.3013 20.7323 16.1185 20.8063C15.9356 20.8767 15.6015 20.9895 15.3799 21.0529C15.1583 21.1163 14.8031 21.2008 14.5886 21.2431C14.374 21.2818 14.0434 21.3311 13.85 21.3558C13.6566 21.3769 13.2064 21.3945 12.8476 21.3945C12.4608 21.391 12.0247 21.3699 11.775 21.3347C11.5428 21.3029 11.1947 21.2466 11.0012 21.2043C10.8078 21.1656 10.4772 21.081 10.2626 21.0141C10.0481 20.9507 9.73158 20.8415 9.55925 20.7711C9.38692 20.7006 9.09149 20.5703 8.9086 20.4787C8.72572 20.3871 8.41622 20.2181 8.22279 20.1018C8.02935 19.9856 7.68821 19.7531 7.46663 19.584C7.24506 19.4185 6.91447 19.1402 6.73158 18.9676C6.5487 18.7985 6.26382 18.4991 6.09852 18.3054C5.92971 18.1117 5.69758 17.8193 5.58152 17.6537C5.46194 17.4882 5.28258 17.2134 4.98715 16.7344L4.65304 16.7379C4.39278 16.7379 4.28727 16.7203 4.17824 16.6675C4.09383 16.6287 4.00591 16.5477 3.88281 16.3328V8.47789L3.96019 8.34404C4.00591 8.26303 4.09383 8.18201 4.17824 8.14326C4.28727 8.09043 4.39278 8.07282 4.98715 8.07634L5.17707 7.76637C5.28258 7.59729 5.46194 7.32255 5.58152 7.15699C5.69758 6.99144 5.92971 6.69908 6.09852 6.50535C6.26382 6.31162 6.5487 6.01221 6.73158 5.83962C6.91447 5.66702 7.24506 5.38875 7.46663 5.2232C7.68821 5.05412 8.03639 4.81812 8.24037 4.69484C8.44436 4.57507 8.78199 4.39191 8.99653 4.28976C9.21107 4.18409 9.58035 4.0291 9.82302 3.94104C10.0657 3.85298 10.4596 3.73322 10.7023 3.67334C10.9449 3.61698 11.3072 3.53949 11.5112 3.50779C11.7152 3.47609 12.0704 3.44086 12.3025 3.42325L12.5042 3.41082C12.6476 3.40191 12.7577 3.39507 12.7773 3.39507ZM12.0387 5.39932C11.8558 5.42045 11.5393 5.47329 11.3353 5.51908C11.1313 5.56487 10.8007 5.65997 10.5968 5.73042C10.3928 5.80087 10.0376 5.94881 9.80544 6.06153C9.57332 6.17424 9.19348 6.39263 8.96136 6.55114C8.72924 6.70613 8.3916 6.96678 8.20872 7.12881C8.02584 7.29084 7.75151 7.56207 7.60028 7.73819L7.32595 8.0552L15.8547 8.07282C16.8219 7.10416 17.1032 6.80123 17.1032 6.77657C17.1032 6.75544 16.9555 6.6392 16.7796 6.51944C16.6003 6.4032 16.231 6.19538 15.9602 6.06153C15.6894 5.92768 15.2955 5.76212 15.0809 5.6952C14.8664 5.62475 14.5041 5.52964 14.272 5.48385C14.0399 5.43806 13.7058 5.38875 13.5335 5.37818C13.3611 5.36761 13.122 5.35352 13.0059 5.35C12.8898 5.34296 12.6999 5.34296 12.5839 5.35C12.4678 5.35352 12.2216 5.37818 12.0387 5.39932ZM4.40685 16.2096H7.73041L8.25796 15.6812C6.69641 15.6812 6.42209 15.6706 6.35878 15.6389C6.30954 15.6143 6.25679 15.5544 6.2392 15.5051C6.22162 15.4558 6.197 15.3431 6.18645 15.2515C6.1759 15.1564 6.13369 15.0225 6.09852 14.9521C6.05983 14.8781 5.96839 14.7583 5.89454 14.6879C5.82068 14.6174 5.69055 14.5259 5.60263 14.4871C5.5147 14.4484 5.39161 14.4131 5.33182 14.4131C5.26851 14.4131 5.17355 14.3955 5.1208 14.3744C5.06452 14.3533 5.00474 14.311 4.98012 14.2793C4.94846 14.2335 4.93791 13.7756 4.93791 12.4054C4.93791 11.0352 4.94846 10.5772 4.98012 10.5315C5.00474 10.4998 5.06452 10.4575 5.1208 10.4363C5.17355 10.4152 5.26851 10.3976 5.33182 10.3976C5.39161 10.3976 5.5147 10.3624 5.60263 10.3236C5.69055 10.2849 5.82068 10.1933 5.89454 10.1229C5.96839 10.0524 6.05983 9.93264 6.09852 9.8622C6.13369 9.78823 6.1759 9.65437 6.18645 9.56279C6.197 9.46769 6.22162 9.35497 6.2392 9.30566C6.25679 9.25634 6.30954 9.19646 6.35878 9.17533C6.42912 9.1401 7.35057 9.12954 10.6249 9.12954H14.7996L15.3271 8.60118H4.40685V16.2096ZM6.63662 9.92208C6.60497 10.0207 6.54166 10.1546 6.49594 10.2215C6.45374 10.2884 6.37988 10.387 6.33416 10.4399C6.28844 10.4892 6.18293 10.5843 6.095 10.6512C6.00708 10.7181 5.83123 10.8062 5.7011 10.8485L5.46195 10.926V13.8848C5.83123 14.0045 6.00708 14.0926 6.095 14.1595C6.18293 14.2264 6.28844 14.3216 6.33416 14.3709C6.37988 14.4237 6.45374 14.5259 6.50298 14.5998C6.5487 14.6703 6.61904 14.8217 6.65421 14.9345L6.72455 15.1352L8.78551 15.1528L10.0059 13.9376C9.85819 13.6382 9.77379 13.3987 9.72455 13.2155C9.65069 12.9373 9.63662 12.7999 9.63662 12.4054C9.63662 12.0109 9.65069 11.8735 9.72455 11.5952C9.77379 11.4121 9.87226 11.1408 9.94612 10.9964C10.02 10.852 10.1255 10.6618 10.1853 10.5737C10.2451 10.4857 10.3541 10.3448 10.4244 10.2567C10.4983 10.1686 10.6495 10.0242 10.7621 9.92912C10.8746 9.83754 10.9977 9.73891 11.0364 9.71073C11.0997 9.66494 10.8465 9.66142 8.91564 9.6579C7.19231 9.6579 6.72455 9.66846 6.714 9.70369C6.70696 9.72482 6.67179 9.82697 6.63662 9.92208ZM15.7597 10.8731C15.9074 11.1725 15.9918 11.4121 16.0411 11.5952C16.1149 11.8735 16.129 12.0109 16.129 12.4054C16.129 12.7999 16.1149 12.9373 16.0411 13.2155C15.9918 13.3987 15.8793 13.6946 15.7914 13.8672C15.6999 14.0433 15.5381 14.3004 15.4256 14.4413C15.3131 14.5822 15.1337 14.7724 15.0282 14.864C14.9192 14.9556 14.7925 15.0577 14.7468 15.0894C14.6624 15.1458 14.7785 15.1493 16.8535 15.1423L19.0446 15.1352C19.1396 14.8358 19.2064 14.6844 19.2556 14.6069C19.3084 14.5294 19.3857 14.4237 19.4315 14.3709C19.4772 14.3216 19.5827 14.2264 19.6706 14.1595C19.7585 14.0926 19.9344 14.0045 20.068 13.9623L20.3037 13.8848V10.926C19.9344 10.8062 19.7585 10.7181 19.6706 10.6512C19.5827 10.5843 19.4772 10.4892 19.4315 10.4399C19.3857 10.387 19.3084 10.2814 19.2556 10.2039C19.2064 10.1264 19.1396 9.97491 19.1044 9.86924L19.0446 9.67551L16.9801 9.6579L15.7597 10.8731ZM11.7925 14.9204C11.8207 14.9309 11.9403 14.9732 12.0563 15.0119C12.1724 15.0507 12.401 15.1 12.5663 15.1211C12.7843 15.1493 12.9496 15.1493 13.1888 15.1211C13.3682 15.1 13.639 15.0366 13.7867 14.9838C13.9379 14.9309 14.156 14.8323 14.272 14.7654C14.3881 14.6949 14.6237 14.4977 14.7996 14.3251C14.9719 14.149 15.1689 13.913 15.2392 13.7967C15.306 13.6805 15.4045 13.4621 15.4573 13.3106C15.51 13.1627 15.5733 12.8915 15.5944 12.7118C15.6226 12.4723 15.6226 12.3103 15.5944 12.0884C15.5733 11.9228 15.5206 11.6833 15.4819 11.56C15.4397 11.4332 15.3939 11.3169 15.3799 11.3029C15.3693 11.2888 14.5428 12.0954 13.5475 13.0922C12.3131 14.3286 11.7539 14.9098 11.7925 14.9204ZM12.5311 16.2096H21.3588V8.60118H18.0352L17.5077 9.12954C19.0692 9.12954 19.3435 9.1401 19.4068 9.17533C19.4561 9.19646 19.5088 9.25634 19.5264 9.30566C19.544 9.35497 19.5686 9.46769 19.5792 9.56279C19.5897 9.65437 19.6319 9.78823 19.6671 9.8622C19.7058 9.93264 19.7972 10.0524 19.8711 10.1229C19.9449 10.1933 20.0751 10.2849 20.163 10.3236C20.2509 10.3624 20.374 10.3976 20.4373 10.3976C20.4971 10.3976 20.5921 10.4152 20.6483 10.4363C20.7011 10.4575 20.7609 10.4998 20.7855 10.5315C20.8172 10.5772 20.8277 11.0352 20.8277 12.4054C20.8277 13.7756 20.8172 14.2335 20.7855 14.2793C20.7609 14.311 20.7011 14.3533 20.6483 14.3744C20.5921 14.3955 20.4971 14.4131 20.4373 14.4131C20.374 14.4131 20.2509 14.4484 20.163 14.4871C20.0751 14.5259 19.9449 14.6174 19.8711 14.6879C19.7972 14.7583 19.7058 14.8781 19.6671 14.9485C19.6319 15.0225 19.5897 15.1564 19.5792 15.2479C19.5686 15.3431 19.544 15.4558 19.5264 15.5051C19.5088 15.5544 19.4561 15.6143 19.4068 15.6354C19.3365 15.6706 18.4151 15.6812 15.1442 15.6812H10.966L10.4385 16.2096H11.6519H12.5311ZM17.1682 18.0067C17.0546 18.1022 16.9912 18.1554 16.918 18.2109L16.2969 18.6016C16.2636 18.6223 16.1974 18.6508 16.1151 18.6862C16.0427 18.7173 15.9579 18.7538 15.8723 18.795C15.6894 18.8795 15.3939 18.9993 15.2216 19.0627C15.0493 19.1226 14.7539 19.2106 14.571 19.2564C14.3881 19.3022 14.0645 19.3656 13.85 19.3973C13.6179 19.4326 13.238 19.4537 12.9004 19.4537C12.5909 19.4537 12.1935 19.4361 12.0211 19.4149C11.8488 19.3938 11.5534 19.3445 11.3705 19.3022C11.1876 19.2635 10.8711 19.1789 10.6671 19.112C10.4631 19.0451 10.0762 18.8831 9.80544 18.7492C9.53463 18.6154 9.16534 18.4075 8.98949 18.2913C8.81013 18.1715 8.66241 18.0553 8.66241 18.0306C8.66241 18.0095 8.94729 17.7066 9.93205 16.7379H11.6202L12.5241 16.7203L18.4432 16.7555L18.1337 17.1078C17.9614 17.3015 17.6343 17.615 17.4092 17.8052C17.3073 17.8898 17.2302 17.9546 17.1682 18.0067ZM13.0165 10.9189C13.7093 10.225 14.0083 9.90094 13.9731 9.88685C13.9552 9.88238 13.9006 9.86375 13.8334 9.84083C13.7947 9.82761 13.7518 9.81296 13.7093 9.79879C13.5932 9.76005 13.3646 9.71073 13.1993 9.68608C12.9778 9.6579 12.816 9.6579 12.5768 9.6896C12.3975 9.71073 12.1267 9.77061 11.9754 9.82697C11.8277 9.87981 11.6097 9.97844 11.4936 10.0454C11.3775 10.1123 11.1384 10.3131 10.966 10.4857C10.7937 10.6583 10.5932 10.8978 10.5264 11.014C10.4596 11.1303 10.3611 11.3486 10.3084 11.4966C10.2521 11.6481 10.1923 11.9087 10.1712 12.0813C10.1396 12.3067 10.1396 12.4723 10.1677 12.7048C10.1923 12.8774 10.2415 13.1169 10.2802 13.2331C10.2944 13.2757 10.309 13.3187 10.3222 13.3575C10.3451 13.4247 10.3637 13.4794 10.3682 13.4973C10.3822 13.5325 10.5335 13.4022 10.8711 13.0676L13.0165 10.9189ZM10.7726 4.19818C10.9168 4.16295 11.2263 4.09603 11.4584 4.05728C11.6905 4.01501 12.0774 3.96922 12.3201 3.95513C12.5628 3.93752 12.9321 3.934 13.1466 3.94104C13.3611 3.94809 13.6777 3.97274 13.85 3.99036C14.0223 4.00797 14.3635 4.06433 14.6061 4.11364C14.8488 4.16295 15.2849 4.27919 15.5733 4.37782C15.8652 4.47645 16.2908 4.64552 16.5229 4.75824C16.755 4.86743 17.0962 5.05412 17.2791 5.16332C17.4619 5.27603 17.7574 5.47681 17.9297 5.60714C18.102 5.73747 18.3975 5.97699 18.5804 6.13902C18.7632 6.30457 19.0692 6.62159 19.2591 6.8435C19.449 7.06189 19.7128 7.40356 19.8465 7.59729C19.9801 7.79103 20.0962 7.97771 20.1067 8.00941C20.1278 8.06929 20.0891 8.07282 19.1255 8.07634L18.9954 7.91431C18.9215 7.82625 18.8125 7.73114 18.7562 7.70297C18.6999 7.67479 18.5874 7.65013 18.51 7.65013C18.4326 7.65013 18.3271 7.66774 18.2744 7.68535C18.2181 7.70649 15.9391 9.96082 13.2064 12.6977C10.2169 15.6882 8.21224 17.7171 8.1841 17.7841C8.15597 17.8475 8.13486 17.9672 8.13486 18.0483C8.13486 18.1363 8.163 18.2455 8.2052 18.3124C8.24389 18.3758 8.37402 18.5026 8.49712 18.5907C8.61669 18.6788 8.8664 18.8408 9.04928 18.95C9.23217 19.0592 9.53463 19.2177 9.71751 19.3022C9.9004 19.3903 10.2591 19.5277 10.5088 19.6087C10.7621 19.6932 11.1243 19.7954 11.3177 19.8341C11.5112 19.8729 11.8136 19.9222 11.986 19.9433C12.1583 19.968 12.5628 19.9856 12.8828 19.9856C13.2275 19.9856 13.6284 19.9644 13.8676 19.9292C14.0891 19.8975 14.469 19.8235 14.7117 19.7637C14.9543 19.7073 15.2955 19.6052 15.4678 19.5382C15.6401 19.4713 15.9215 19.3551 16.0938 19.2776C16.2626 19.1966 16.8892 18.8378 16.9531 18.795L17.578 18.3547C17.7152 18.2526 18.0211 17.9708 18.2638 17.7242C18.5065 17.4811 18.7914 17.1606 19.0903 16.7414H19.6073C19.8957 16.7379 20.1278 16.7485 20.1278 16.7626C20.1278 16.7802 20.0153 16.9563 19.8781 17.1606C19.741 17.3649 19.5405 17.6397 19.4315 17.777C19.3189 17.9109 19.0657 18.1891 18.8617 18.3934C18.6577 18.5977 18.3588 18.8725 18.1935 19.0028C18.0282 19.1332 17.7363 19.348 17.5428 19.4783C17.3494 19.6087 16.952 19.8341 16.6636 19.9785C16.3435 20.1406 15.9215 20.3167 15.5909 20.4259C15.292 20.528 14.8488 20.6478 14.6061 20.6971C14.3635 20.7464 14.0153 20.8028 13.8324 20.8239C13.6495 20.8486 13.2204 20.8662 12.8828 20.8662C12.5452 20.8662 12.1161 20.8486 11.9332 20.8239C11.7503 20.8028 11.4057 20.7464 11.1665 20.7006C10.9309 20.6513 10.5053 20.5351 10.2204 20.4435C9.93205 20.3484 9.50298 20.1758 9.2603 20.0595C9.01763 19.9433 8.66945 19.7566 8.48656 19.6439C8.30368 19.5312 8.01177 19.3339 7.83592 19.2036C7.66007 19.0733 7.36816 18.8337 7.18527 18.6717C7.00239 18.5062 6.69641 18.1891 6.50649 17.9672C6.31658 17.7488 6.0528 17.4072 5.91915 17.2134C5.78551 17.0197 5.66945 16.833 5.6589 16.7978C5.63779 16.7414 5.67648 16.7379 6.64014 16.7344L6.77027 16.8964C6.84413 16.9845 6.94964 17.0796 7.00942 17.1078C7.06921 17.136 7.17824 17.1606 7.25561 17.1606C7.33299 17.1606 7.44905 17.1395 7.50884 17.1113C7.57918 17.0831 8.4725 16.2131 9.67179 15.0084C10.381 14.2967 10.8544 13.8186 11.1657 13.4973L13.3639 11.3029C13.7424 10.9275 14.2579 10.4118 14.9649 9.70369C16.3893 8.27359 17.5745 7.06189 17.5956 7.00905C17.6132 6.95269 17.6308 6.8435 17.6308 6.76248C17.6308 6.67442 17.6026 6.56523 17.5604 6.4983C17.5217 6.4349 17.3916 6.30809 17.272 6.22004C17.1489 6.13198 16.8992 5.96994 16.7163 5.86075C16.5335 5.75156 16.238 5.59657 16.0657 5.51556C15.8934 5.43454 15.5839 5.31126 15.3799 5.24081C15.1759 5.16684 14.891 5.0823 14.7468 5.04355C14.6026 5.00833 14.3389 4.95197 14.1665 4.92379C13.9942 4.89209 13.6284 4.85334 13.3576 4.83573C13.0762 4.81812 12.6648 4.81812 12.3904 4.83573C12.1302 4.85334 11.7433 4.89914 11.5288 4.9414C11.3142 4.98015 10.9977 5.05412 10.8254 5.10343C10.653 5.14923 10.3752 5.24433 10.2099 5.30773C10.0446 5.37114 9.7984 5.47329 9.66476 5.53669C9.53111 5.59657 9.26734 5.73747 9.08445 5.84666C8.90157 5.95233 8.63779 6.12141 8.50415 6.21651C8.3705 6.31514 8.12431 6.50535 7.96253 6.64272C7.80075 6.7801 7.52994 7.03723 7.36464 7.21335C7.19934 7.39299 6.97425 7.65717 6.67531 8.06929H6.15831C5.67648 8.07282 5.63779 8.06929 5.6589 8.01294C5.66945 7.97771 5.78551 7.79103 5.91915 7.59729C6.0528 7.40356 6.31658 7.06189 6.50649 6.8435C6.69641 6.62159 7.00239 6.30457 7.18527 6.13902C7.36816 5.97699 7.66359 5.73747 7.83592 5.60714C8.01177 5.47681 8.30368 5.27955 8.48656 5.16684C8.66945 5.05412 9.0106 4.87096 9.24272 4.75824C9.47484 4.64904 9.85468 4.49054 10.0868 4.40952C10.3189 4.33203 10.6284 4.23692 10.7726 4.19818Z" fill="#181818"/>
</svg>