<svg width="12" height="12" viewBox="0 0 12 12" fill="none" xmlns="http://www.w3.org/2000/svg">
<path fill-rule="evenodd" clip-rule="evenodd" d="M5.50142 6.03795C5.50048 6.02542 5.5 6.01277 5.5 6V2C5.5 1.724 5.7235 1.5 6 1.5C6.2765 1.5 6.5 1.724 6.5 2V5.99991L7.7 5.1C7.921 4.9335 8.2345 4.979 8.4 5.2C8.566 5.421 8.521 5.7345 8.3 5.9L6.3 7.4C6.2115 7.4665 6.1055 7.5 6 7.5C5.8995 7.5 5.799 7.4695 5.7125 7.409L3.7125 6.002C3.4865 5.843 3.432 5.531 3.591 5.3055C3.75 5.0795 4.0615 5.025 4.2875 5.184L5.50142 6.03795ZM3 8.5V9H9V8.5C9 8.225 9.225 8 9.5 8C9.775 8 10 8.225 10 8.5L10 9.5C10 9.775 9.775 10 9.5 10H2.5C2.225 10 2 9.775 2 9.5V8.5C2 8.225 2.225 8 2.5 8C2.775 8 3 8.225 3 8.5Z" fill="#2E2E2E"/>
<mask id="mask0_915_5233" style="mask-type:alpha" maskUnits="userSpaceOnUse" x="2" y="1" width="8" height="9">
<path fill-rule="evenodd" clip-rule="evenodd" d="M5.50142 6.03795C5.50048 6.02542 5.5 6.01277 5.5 6V2C5.5 1.724 5.7235 1.5 6 1.5C6.2765 1.5 6.5 1.724 6.5 2V5.99991L7.7 5.1C7.921 4.9335 8.2345 4.979 8.4 5.2C8.566 5.421 8.521 5.7345 8.3 5.9L6.3 7.4C6.2115 7.4665 6.1055 7.5 6 7.5C5.8995 7.5 5.799 7.4695 5.7125 7.409L3.7125 6.002C3.4865 5.843 3.432 5.531 3.591 5.3055C3.75 5.0795 4.0615 5.025 4.2875 5.184L5.50142 6.03795ZM3 8.5V9H9V8.5C9 8.225 9.225 8 9.5 8C9.775 8 10 8.225 10 8.5L10 9.5C10 9.775 9.775 10 9.5 10H2.5C2.225 10 2 9.775 2 9.5V8.5C2 8.225 2.225 8 2.5 8C2.775 8 3 8.225 3 8.5Z" fill="white"/>
</mask>
<g mask="url(#mask0_915_5233)">
<rect width="12" height="12" fill="#2E2E2E"/>
</g>
</svg>
