<svg width="48" height="48" viewBox="0 0 48 48" fill="none" xmlns="http://www.w3.org/2000/svg">
<g opacity="0.8">
<path d="M40.6687 39H7.3875C7.20529 39 7.02487 38.9641 6.85653 38.8944C6.68819 38.8247 6.53523 38.7225 6.40639 38.5936C6.27755 38.4648 6.17535 38.3118 6.10562 38.1435C6.03589 37.9751 6 37.7947 6 37.6125V15H40.5C40.8978 15 41.2794 15.158 41.5607 15.4393C41.842 15.7206 42 16.1022 42 16.5V37.6687C42 38.0218 41.8597 38.3604 41.6101 38.6101C41.3604 38.8597 41.0218 39 40.6687 39Z" stroke="#222D34" stroke-width="2" stroke-linecap="round" stroke-linejoin="round"/>
<path d="M6 15V10.5C6 10.1022 6.15804 9.72065 6.43934 9.43935C6.72064 9.15804 7.10218 9.00001 7.5 9.00001H17.3812C17.576 8.99933 17.769 9.03707 17.9492 9.11106C18.1294 9.18506 18.2932 9.29387 18.4313 9.43126L24 15" stroke="#222D34" stroke-width="2" stroke-linecap="round" stroke-linejoin="round"/>
</g>
</svg>
