<svg xmlns="http://www.w3.org/2000/svg" width="24" height="22" viewBox="0 0 24 22" fill="none">
<path d="M4.62671 21.3032C4.83488 21.3032 5.03451 21.2205 5.18171 21.0733C5.3289 20.9261 5.4116 20.7265 5.4116 20.5183C5.4116 20.3101 5.3289 20.1105 5.18171 19.9633C5.03451 19.8161 4.83488 19.7334 4.62671 19.7334H2.81358L8.30816 12.4073L9.24251 13.6509C9.36809 13.8158 9.55378 13.9243 9.75907 13.9528C9.96435 13.9812 10.1726 13.9274 10.3383 13.8029C10.504 13.6784 10.6137 13.4935 10.6436 13.2884C10.6734 13.0833 10.6209 12.8747 10.4976 12.7082L9.24979 11.0472C9.14077 10.9005 8.99885 10.7815 8.83543 10.6997C8.67201 10.6179 8.49167 10.5756 8.30892 10.5762H8.30813C8.1252 10.5754 7.94464 10.6177 7.78102 10.6995C7.61739 10.7813 7.47527 10.9004 7.36611 11.0472L1.08668 19.4199C0.95562 19.5948 0.875844 19.8028 0.856286 20.0205C0.836728 20.2382 0.87816 20.4571 0.975943 20.6525C1.07373 20.848 1.224 21.0124 1.40993 21.1273C1.59587 21.2423 1.81012 21.3031 2.0287 21.3032H4.62671Z" fill="#48BF84"/>
<path d="M16.2061 9.512C16.1561 9.44372 16.0979 9.38184 16.0329 9.32776V7.16578H20.7422C20.9503 7.16578 21.15 7.08309 21.2972 6.9359C21.4444 6.7887 21.5271 6.58906 21.5271 6.3809V2.45648C21.5271 2.24832 21.4444 2.04868 21.2972 1.90149C21.15 1.75429 20.9503 1.6716 20.7422 1.6716H16.0329C16.0329 1.46344 15.9502 1.2638 15.803 1.11661C15.6558 0.969412 15.4561 0.886719 15.248 0.886719C15.0398 0.886719 14.8402 0.969412 14.693 1.11661C14.5458 1.2638 14.4631 1.46344 14.4631 1.6716V9.32756C14.398 9.38155 14.3398 9.44337 14.2899 9.51162L7.20407 19.4315C7.07819 19.6075 7.00326 19.8148 6.9875 20.0306C6.97174 20.2464 7.01576 20.4624 7.11473 20.6548C7.21369 20.8472 7.36378 21.0087 7.54849 21.1214C7.73321 21.2341 7.94541 21.2937 8.1618 21.2937H22.3342C22.5506 21.2937 22.7628 21.2341 22.9475 21.1214C23.1322 21.0087 23.2823 20.8472 23.3812 20.6548C23.4802 20.4624 23.5242 20.2464 23.5085 20.0306C23.4927 19.8148 23.4178 19.6075 23.2919 19.4315L16.2061 9.512ZM19.9573 3.24137V5.59602H16.0329V3.24137H19.9573ZM15.248 10.871L18.2783 15.1135C17.2728 15.1077 16.2863 14.84 15.4158 14.3367C14.7708 13.9488 14.0553 13.6928 13.3107 13.5833L15.248 10.871ZM8.92445 19.7239L12.1987 15.1401C13.0468 15.0325 13.9057 15.228 14.6237 15.6922C15.733 16.3405 16.9934 16.6854 18.2783 16.6921C18.633 16.6889 18.9868 16.6562 19.3361 16.5943L21.5715 19.7239H8.92445ZM22.0138 20.3432L22.0146 20.3444L22.015 20.3452L22.0138 20.3432Z" fill="#48BF84"/>
</svg>