<svg width="50" height="49" viewBox="0 0 50 49" fill="none" xmlns="http://www.w3.org/2000/svg">
<rect x="0.328125" width="49" height="49" rx="24.5" fill="#FFF1F3"/>
<path d="M35.4947 24.5V37.8333H14.1614V24.5" stroke="#FD6F8E" stroke-width="2.66667" stroke-linecap="round" stroke-linejoin="round"/>
<path d="M38.1615 17.8335H11.4949V24.5002H38.1615V17.8335Z" stroke="#FD6F8E" stroke-width="2.66667" stroke-linecap="round" stroke-linejoin="round"/>
<path d="M24.8281 37.8335V17.8335" stroke="#FD6F8E" stroke-width="2.66667" stroke-linecap="round" stroke-linejoin="round"/>
<path d="M24.8282 17.8332H18.8282C17.9442 17.8332 17.0963 17.482 16.4712 16.8569C15.8461 16.2317 15.4949 15.3839 15.4949 14.4998C15.4949 13.6158 15.8461 12.7679 16.4712 12.1428C17.0963 11.5177 17.9442 11.1665 18.8282 11.1665C23.4949 11.1665 24.8282 17.8332 24.8282 17.8332Z" stroke="#FD6F8E" stroke-width="2.66667" stroke-linecap="round" stroke-linejoin="round"/>
<path d="M24.8281 17.8332H30.8281C31.7122 17.8332 32.56 17.482 33.1851 16.8569C33.8103 16.2317 34.1615 15.3839 34.1615 14.4998C34.1615 13.6158 33.8103 12.7679 33.1851 12.1428C32.56 11.5177 31.7122 11.1665 30.8281 11.1665C26.1615 11.1665 24.8281 17.8332 24.8281 17.8332Z" stroke="#FD6F8E" stroke-width="2.66667" stroke-linecap="round" stroke-linejoin="round"/>
</svg>
