<svg width="51" height="51" viewBox="0 0 51 51" fill="none" xmlns="http://www.w3.org/2000/svg">
<g filter="url(#filter0_dd_761_147448)">
<rect x="8.32812" y="4" width="35" height="35" rx="17.5" fill="white"/>
<path fill-rule="evenodd" clip-rule="evenodd" d="M32.3281 12.248C32.0983 12.248 31.8707 12.2933 31.6584 12.3813C31.4461 12.4692 31.2532 12.5981 31.0907 12.7606C30.9282 12.9231 30.7993 13.116 30.7113 13.3284C30.6234 13.5407 30.5781 13.7682 30.5781 13.998C30.5781 14.2279 30.6234 14.4554 30.7113 14.6677C30.7993 14.8801 30.9282 15.073 31.0907 15.2355C31.2532 15.398 31.4461 15.5269 31.6584 15.6148C31.8707 15.7028 32.0983 15.748 32.3281 15.748C32.7923 15.748 33.2374 15.5637 33.5656 15.2355C33.8937 14.9073 34.0781 14.4622 34.0781 13.998C34.0781 13.5339 33.8937 13.0888 33.5656 12.7606C33.2374 12.4324 32.7923 12.248 32.3281 12.248ZM29.0781 13.998C29.0781 13.1361 29.4205 12.3094 30.03 11.6999C30.6395 11.0905 31.4662 10.748 32.3281 10.748C33.1901 10.748 34.0167 11.0905 34.6262 11.6999C35.2357 12.3094 35.5781 13.1361 35.5781 13.998C35.5781 14.86 35.2357 15.6867 34.6262 16.2961C34.0167 16.9056 33.1901 17.248 32.3281 17.248C31.4662 17.248 30.6395 16.9056 30.03 16.2961C29.4205 15.6867 29.0781 14.86 29.0781 13.998ZM23.8801 15.428C24.1187 15.3918 24.36 15.3774 24.6011 15.385C24.6811 15.389 24.7711 15.395 24.8741 15.405C27.2571 15.653 29.0241 17.441 30.2021 19.207L30.2651 19.301C30.5619 19.7462 30.964 20.1111 31.4357 20.3635C31.9074 20.616 32.4341 20.748 32.9691 20.748H34.8281C35.027 20.748 35.2178 20.8271 35.3585 20.9677C35.4991 21.1084 35.5781 21.2991 35.5781 21.498C35.5781 21.697 35.4991 21.8877 35.3585 22.0284C35.2178 22.169 35.027 22.248 34.8281 22.248H32.9681C32.1862 22.248 31.4164 22.055 30.727 21.686C30.0376 21.3171 29.4499 20.7836 29.0161 20.133L28.9541 20.039C28.6875 19.6361 28.3946 19.2513 28.0771 18.887L26.1931 21.242C25.7651 21.776 25.4791 22.136 25.2861 22.432C25.0981 22.718 25.0451 22.877 25.0311 22.998C25.0071 23.198 25.0331 23.401 25.1041 23.589C25.1481 23.703 25.2391 23.845 25.4901 24.076C25.7501 24.316 26.1161 24.594 26.6611 25.006L26.7571 25.079C27.4771 25.625 27.9771 26.003 28.3221 26.507C28.5191 26.794 28.6741 27.107 28.7851 27.437C28.9781 28.017 28.9781 28.643 28.9781 29.547V31.498C28.9781 31.697 28.8991 31.8877 28.7585 32.0284C28.6178 32.169 28.427 32.248 28.2281 32.248C28.0292 32.248 27.8384 32.169 27.6978 32.0284C27.5571 31.8877 27.4781 31.697 27.4781 31.498V29.668C27.4781 28.598 27.4681 28.233 27.3621 27.913C27.2961 27.7151 27.2029 27.5273 27.0851 27.355C26.8951 27.077 26.6091 26.85 25.7551 26.203L25.7271 26.182C25.2171 25.796 24.7941 25.475 24.4751 25.181C24.1411 24.874 23.8641 24.546 23.7031 24.125C23.5452 23.7111 23.4896 23.2651 23.5411 22.825C23.5931 22.377 23.7821 21.99 24.0311 21.611C24.2681 21.249 24.6011 20.833 24.9991 20.334L26.9831 17.855C26.2951 17.332 25.5391 16.984 24.7191 16.899C24.6579 16.8926 24.5966 16.8879 24.5351 16.885C24.3845 16.8815 24.2339 16.8916 24.0851 16.915C23.0201 17.063 21.9531 17.655 19.6351 18.972L18.1991 19.787C18.0262 19.8854 17.8213 19.9111 17.6294 19.8584C17.4376 19.8057 17.2745 19.679 17.1761 19.506C17.0777 19.3331 17.0521 19.1282 17.1048 18.9363C17.1575 18.7445 17.2842 18.5814 17.4571 18.483L18.8931 17.668L19.0451 17.581C21.1651 16.377 22.4941 15.621 23.8801 15.43V15.428ZM23.3081 25.923C23.4608 26.0504 23.5567 26.2332 23.5747 26.4312C23.5927 26.6292 23.5314 26.8263 23.4041 26.979L22.4041 28.18L22.3071 28.296C21.6651 29.067 21.1941 29.634 20.5361 29.942C19.8781 30.25 19.1411 30.25 18.1361 30.249H16.8281C16.6292 30.249 16.4384 30.17 16.2978 30.0294C16.1571 29.8887 16.0781 29.698 16.0781 29.499C16.0781 29.3001 16.1571 29.1094 16.2978 28.9687C16.4384 28.8281 16.6292 28.749 16.8281 28.749H17.9861C19.2081 28.749 19.5821 28.732 19.8991 28.584C20.2171 28.435 20.4691 28.158 21.2511 27.22L22.2511 26.019C22.3142 25.9433 22.3916 25.8807 22.4788 25.8349C22.5661 25.789 22.6616 25.7608 22.7597 25.7519C22.8579 25.743 22.9569 25.7535 23.051 25.7829C23.1451 25.8123 23.2324 25.8599 23.3081 25.923Z" fill="#48BF84"/>
<rect x="7.57812" y="3.25" width="36.5" height="36.5" rx="18.25" stroke="#48BF84" stroke-width="1.5"/>
</g>
<defs>
<filter id="filter0_dd_761_147448" x="0.828125" y="0.5" width="50" height="50" filterUnits="userSpaceOnUse" color-interpolation-filters="sRGB">
<feFlood flood-opacity="0" result="BackgroundImageFix"/>
<feColorMatrix in="SourceAlpha" type="matrix" values="0 0 0 0 0 0 0 0 0 0 0 0 0 0 0 0 0 0 127 0" result="hardAlpha"/>
<feMorphology radius="2" operator="erode" in="SourceAlpha" result="effect1_dropShadow_761_147448"/>
<feOffset dy="2"/>
<feGaussianBlur stdDeviation="2"/>
<feColorMatrix type="matrix" values="0 0 0 0 0.0627451 0 0 0 0 0.0941176 0 0 0 0 0.156863 0 0 0 0.06 0"/>
<feBlend mode="normal" in2="BackgroundImageFix" result="effect1_dropShadow_761_147448"/>
<feColorMatrix in="SourceAlpha" type="matrix" values="0 0 0 0 0 0 0 0 0 0 0 0 0 0 0 0 0 0 127 0" result="hardAlpha"/>
<feMorphology radius="2" operator="erode" in="SourceAlpha" result="effect2_dropShadow_761_147448"/>
<feOffset dy="4"/>
<feGaussianBlur stdDeviation="4"/>
<feColorMatrix type="matrix" values="0 0 0 0 0.0627451 0 0 0 0 0.0941176 0 0 0 0 0.156863 0 0 0 0.1 0"/>
<feBlend mode="normal" in2="effect1_dropShadow_761_147448" result="effect2_dropShadow_761_147448"/>
<feBlend mode="normal" in="SourceGraphic" in2="effect2_dropShadow_761_147448" result="shape"/>
</filter>
</defs>
</svg>
