<svg width="214" height="40" viewBox="0 0 214 40" fill="none" xmlns="http://www.w3.org/2000/svg">
<path d="M46.766 8.222H53.402L45.002 38H37.106L30.974 17.966L24.842 38H17.03L8.63 8.222H15.266L21.146 30.734L27.908 8.222H34.04L40.844 30.902L46.766 8.222ZM63.2864 16.58C64.7704 16.58 66.1704 16.874 67.4864 17.462C68.8024 18.022 69.9504 18.806 70.9304 19.814C71.9104 20.794 72.6804 21.956 73.2404 23.3C73.8284 24.616 74.1224 26.03 74.1224 27.542C74.1224 29.054 73.8284 30.482 73.2404 31.826C72.6804 33.142 71.9104 34.304 70.9304 35.312C69.9504 36.292 68.8024 37.076 67.4864 37.664C66.1704 38.224 64.7704 38.504 63.2864 38.504C61.7744 38.504 60.3604 38.224 59.0444 37.664C57.7284 37.076 56.5804 36.292 55.6004 35.312C54.6204 34.304 53.8364 33.142 53.2484 31.826C52.6884 30.482 52.4084 29.054 52.4084 27.542C52.4084 26.03 52.6884 24.616 53.2484 23.3C53.8364 21.956 54.6204 20.794 55.6004 19.814C56.5804 18.806 57.7284 18.022 59.0444 17.462C60.3604 16.874 61.7744 16.58 63.2864 16.58ZM63.2864 33.422C63.9864 33.422 64.6304 33.282 65.2184 33.002C65.8344 32.722 66.3664 32.344 66.8144 31.868C67.2904 31.364 67.6544 30.776 67.9064 30.104C68.1864 29.404 68.3264 28.634 68.3264 27.794C68.3264 26.954 68.1864 26.17 67.9064 25.442C67.6544 24.714 67.2904 24.084 66.8144 23.552C66.3664 22.992 65.8344 22.558 65.2184 22.25C64.6304 21.914 63.9864 21.746 63.2864 21.746C62.5864 21.746 61.9284 21.914 61.3124 22.25C60.6964 22.558 60.1504 22.992 59.6744 23.552C59.2264 24.084 58.8624 24.714 58.5824 25.442C58.3304 26.17 58.2044 26.954 58.2044 27.794C58.2044 28.634 58.3304 29.404 58.5824 30.104C58.8624 30.776 59.2264 31.364 59.6744 31.868C60.1504 32.344 60.6964 32.722 61.3124 33.002C61.9284 33.282 62.5864 33.422 63.2864 33.422ZM82.8676 20.066C83.1476 19.618 83.4696 19.198 83.8336 18.806C84.1976 18.386 84.6316 18.022 85.1356 17.714C85.6396 17.378 86.2136 17.112 86.8576 16.916C87.5016 16.72 88.2296 16.622 89.0416 16.622C89.9936 16.622 91.0996 16.79 92.3596 17.126L91.8136 22.292C91.5056 22.236 91.1976 22.166 90.8896 22.082C90.6376 22.026 90.3576 21.984 90.0496 21.956C89.7416 21.9 89.4616 21.872 89.2096 21.872C88.3136 21.872 87.4736 21.998 86.6896 22.25C85.9336 22.502 85.2756 22.852 84.7156 23.3C84.1556 23.748 83.7076 24.294 83.3716 24.938C83.0356 25.554 82.8676 26.226 82.8676 26.954V38H77.0716V17.168H82.3216L82.8676 20.066ZM106.014 25.82L114.792 38H107.862L102.36 29.684L100.302 31.91V38H94.5062V7.34H100.302V24.35L107.064 17.168H114.12L106.014 25.82ZM130.212 27.08C131.752 28.172 132.522 29.726 132.522 31.742C132.522 32.666 132.298 33.534 131.85 34.346C131.43 35.158 130.842 35.872 130.086 36.488C129.33 37.104 128.448 37.594 127.44 37.958C126.432 38.294 125.354 38.462 124.206 38.462C123.338 38.462 122.484 38.35 121.644 38.126C120.832 37.902 120.076 37.594 119.376 37.202C118.676 36.81 118.06 36.348 117.528 35.816C117.024 35.256 116.646 34.64 116.394 33.968C117.038 33.66 117.752 33.324 118.536 32.96C119.32 32.568 120.006 32.218 120.594 31.91C120.846 32.33 121.238 32.722 121.77 33.086C122.302 33.422 123.03 33.59 123.954 33.59C124.906 33.59 125.606 33.366 126.054 32.918C126.502 32.47 126.726 32.05 126.726 31.658C126.726 31.378 126.572 31.126 126.264 30.902C125.956 30.65 125.606 30.454 125.214 30.314C124.654 30.09 124.192 29.978 123.828 29.978C123.464 29.95 123.044 29.866 122.568 29.726C121.056 29.362 119.894 28.886 119.082 28.298C118.298 27.682 117.724 27.066 117.36 26.45C116.996 25.834 116.786 25.246 116.73 24.686C116.702 24.126 116.688 23.678 116.688 23.342C116.688 22.446 116.884 21.592 117.276 20.78C117.668 19.968 118.2 19.268 118.872 18.68C119.572 18.064 120.37 17.574 121.266 17.21C122.19 16.846 123.17 16.664 124.206 16.664C125.074 16.664 125.9 16.79 126.684 17.042C127.468 17.294 128.182 17.644 128.826 18.092C129.47 18.54 130.016 19.072 130.464 19.688C130.94 20.304 131.29 20.99 131.514 21.746L127.02 23.258C126.852 22.754 126.502 22.348 125.97 22.04C125.466 21.732 124.92 21.578 124.332 21.578C123.744 21.578 123.268 21.774 122.904 22.166C122.54 22.558 122.358 22.95 122.358 23.342C122.358 23.818 122.526 24.196 122.862 24.476C123.226 24.728 123.618 24.91 124.038 25.022C124.346 25.078 124.64 25.134 124.92 25.19C125.228 25.218 125.522 25.26 125.802 25.316C126.782 25.54 127.622 25.792 128.322 26.072C129.05 26.352 129.68 26.688 130.212 27.08ZM147.153 25.82L155.931 38H149.001L143.499 29.684L141.441 31.91V38H135.645V7.34H141.441V24.35L148.203 17.168H155.259L147.153 25.82ZM164.42 38H158.624V17.168H164.42V38ZM161.522 14.312C160.626 14.312 159.87 14.004 159.254 13.388C158.638 12.772 158.33 12.016 158.33 11.12C158.33 10.224 158.638 9.468 159.254 8.852C159.87 8.208 160.626 7.886 161.522 7.886C162.418 7.886 163.174 8.208 163.79 8.852C164.406 9.468 164.714 10.224 164.714 11.12C164.714 12.016 164.406 12.772 163.79 13.388C163.174 14.004 162.418 14.312 161.522 14.312ZM168.912 7.298H174.708V38H168.912V7.298ZM178.427 7.298H184.223V38H178.427V7.298ZM201.005 27.08C202.545 28.172 203.315 29.726 203.315 31.742C203.315 32.666 203.091 33.534 202.643 34.346C202.223 35.158 201.635 35.872 200.879 36.488C200.123 37.104 199.241 37.594 198.233 37.958C197.225 38.294 196.147 38.462 194.999 38.462C194.131 38.462 193.277 38.35 192.437 38.126C191.625 37.902 190.869 37.594 190.169 37.202C189.469 36.81 188.853 36.348 188.321 35.816C187.817 35.256 187.439 34.64 187.187 33.968C187.831 33.66 188.545 33.324 189.329 32.96C190.113 32.568 190.799 32.218 191.387 31.91C191.639 32.33 192.031 32.722 192.563 33.086C193.095 33.422 193.823 33.59 194.747 33.59C195.699 33.59 196.399 33.366 196.847 32.918C197.295 32.47 197.519 32.05 197.519 31.658C197.519 31.378 197.365 31.126 197.057 30.902C196.749 30.65 196.399 30.454 196.007 30.314C195.447 30.09 194.985 29.978 194.621 29.978C194.257 29.95 193.837 29.866 193.361 29.726C191.849 29.362 190.687 28.886 189.875 28.298C189.091 27.682 188.517 27.066 188.153 26.45C187.789 25.834 187.579 25.246 187.523 24.686C187.495 24.126 187.481 23.678 187.481 23.342C187.481 22.446 187.677 21.592 188.069 20.78C188.461 19.968 188.993 19.268 189.665 18.68C190.365 18.064 191.163 17.574 192.059 17.21C192.983 16.846 193.963 16.664 194.999 16.664C195.867 16.664 196.693 16.79 197.477 17.042C198.261 17.294 198.975 17.644 199.619 18.092C200.263 18.54 200.809 19.072 201.257 19.688C201.733 20.304 202.083 20.99 202.307 21.746L197.813 23.258C197.645 22.754 197.295 22.348 196.763 22.04C196.259 21.732 195.713 21.578 195.125 21.578C194.537 21.578 194.061 21.774 193.697 22.166C193.333 22.558 193.151 22.95 193.151 23.342C193.151 23.818 193.319 24.196 193.655 24.476C194.019 24.728 194.411 24.91 194.831 25.022C195.139 25.078 195.433 25.134 195.713 25.19C196.021 25.218 196.315 25.26 196.595 25.316C197.575 25.54 198.415 25.792 199.115 26.072C199.843 26.352 200.473 26.688 201.005 27.08Z" fill="#377DFF"/>
</svg>
